<svg xmlns="http://www.w3.org/2000/svg" xmlns:xlink="http://www.w3.org/1999/xlink" contentStyleType="text/css" height="1672px" preserveAspectRatio="none" style="width:1581px;height:1672px;background:#F6F4EF;" version="1.1" viewBox="0 0 1581 1672" width="1581px" zoomAndPan="magnify"><title>Anonymisation (Presidio) et contr&#244;le qualit&#233; de la PII r&#233;siduelle</title><defs/><g><rect fill="#F6F4EF" height="1672" style="stroke:none;stroke-width:1.0;" width="1581" x="0" y="0"/><text fill="#000000" font-family="Helvetica" font-size="14" font-weight="bold" lengthAdjust="spacing" textLength="503.125" x="537.7686" y="32.9951">Anonymisation (Presidio) et contr&#244;le qualit&#233; de la PII r&#233;siduelle</text><text fill="#000000" font-family="Helvetica" font-size="14" font-weight="bold" lengthAdjust="spacing" textLength="169.4424" x="704.6099" y="49.292">Diagramme d'activit&#233;</text><ellipse cx="785.8311" cy="73.5938" fill="#0B3D3A" rx="10" ry="10" style="stroke:#222222;stroke-width:1.0;"/><rect fill="#FCEBE6" height="597.8281" rx="3" ry="3" style="stroke:#0B3D3A;stroke-width:1.5;" width="451.981" x="620.7939" y="93.5938"/><path d="M914.0342,93.5938 L914.0342,102.8906 L904.0342,112.8906 L620.7939,112.8906 " fill="none" style="stroke:#0B3D3A;stroke-width:1.5;"/><text fill="#0B3D3A" font-family="Helvetica" font-size="14" font-weight="bold" lengthAdjust="spacing" textLength="283.2402" x="623.7939" y="107.5889">&#201;tape 4 &#8212; Anonymisation (Presidio)</text><rect fill="#FFFFFF" height="33.9688" rx="3" ry="3" style="stroke:#0B3D3A;stroke-width:0.5;" width="241.625" x="665.0186" y="129.8906"/><text fill="#10241F" font-family="Helvetica" font-size="12" lengthAdjust="spacing" textLength="221.625" x="675.0186" y="151.0293">interfaces/cli/anonymiser_dataset.py</text><rect fill="#FFFFFF" height="33.9688" rx="3" ry="3" style="stroke:#0B3D3A;stroke-width:0.5;" width="256.502" x="657.5801" y="183.8594"/><text fill="#10241F" font-family="Helvetica" font-size="12" lengthAdjust="spacing" textLength="236.502" x="667.5801" y="204.998">AnonymiserDatasetUseCase.executer()</text><rect fill="#FFFFFF" height="33.9688" rx="3" ry="3" style="stroke:#0B3D3A;stroke-width:0.5;" width="215.7441" x="677.959" y="237.8281"/><text fill="#10241F" font-family="Helvetica" font-size="12" lengthAdjust="spacing" textLength="195.7441" x="687.959" y="258.9668">_anonymiser_exemple(exemple)</text><rect fill="#FFFFFF" height="47.9375" rx="3" ry="3" style="stroke:#0B3D3A;stroke-width:0.5;" width="267.3535" x="652.1543" y="291.7969"/><text fill="#10241F" font-family="Helvetica" font-size="12" lengthAdjust="spacing" textLength="142.7813" x="662.1543" y="312.9355">_anonymiser_messages</text><text fill="#10241F" font-family="Helvetica" font-size="12" lengthAdjust="spacing" textLength="247.3535" x="662.1543" y="326.9043">(prompt / completion / chosen / rejected)</text><rect fill="#FFFFFF" height="33.9688" rx="3" ry="3" style="stroke:#0B3D3A;stroke-width:0.5;" width="310.0742" x="630.7939" y="359.7344"/><text fill="#10241F" font-family="Helvetica" font-size="12" lengthAdjust="spacing" textLength="290.0742" x="640.7939" y="380.873">PresidioAnonymiseur.anonymiser(texte, langue)</text><rect fill="#FFFFFF" height="47.9375" rx="3" ry="3" style="stroke:#0B3D3A;stroke-width:0.5;" width="246.8105" x="662.4258" y="413.7031"/><text fill="#10241F" font-family="Helvetica" font-size="12" lengthAdjust="spacing" textLength="110.9355" x="672.4258" y="434.8418">NlpEngineProvider</text><text fill="#10241F" font-family="Helvetica" font-size="12" lengthAdjust="spacing" textLength="226.8105" x="672.4258" y="448.8105">(fr_core_news_md / en_core_web_sm)</text><rect fill="#FFFFFF" height="47.9375" rx="3" ry="3" style="stroke:#0B3D3A;stroke-width:0.5;" width="172.9531" x="699.3545" y="481.6406"/><text fill="#10241F" font-family="Helvetica" font-size="12" lengthAdjust="spacing" textLength="152.9531" x="709.3545" y="502.7793">AnalyzerEngine.analyze()</text><text fill="#10241F" font-family="Helvetica" font-size="12" lengthAdjust="spacing" textLength="111.7383" x="709.3545" y="516.748">d&#233;tecte les entit&#233;s</text><rect fill="#FFFFFF" height="61.9063" rx="3" ry="3" style="stroke:#0B3D3A;stroke-width:0.5;" width="211.5195" x="680.0713" y="549.5781"/><text fill="#10241F" font-family="Helvetica" font-size="12" lengthAdjust="spacing" textLength="191.5195" x="690.0713" y="570.7168">AnonymizerEngine.anonymize()</text><text fill="#10241F" font-family="Helvetica" font-size="12" lengthAdjust="spacing" textLength="121.5645" x="690.0713" y="584.6855">applique l'op&#233;rateur</text><text fill="#10241F" font-family="Helvetica" font-size="12" lengthAdjust="spacing" textLength="148.1426" x="690.0713" y="598.6543">(replace / mask / redact)</text><path d="M908.2393,635.3203 L908.2393,651.4531 L888.2393,655.4531 L908.2393,659.4531 L908.2393,675.5859 A0,0 0 0 0 908.2393,675.5859 L1062.7749,675.5859 A0,0 0 0 0 1062.7749,675.5859 L1062.7749,645.3203 L1052.7749,635.3203 L908.2393,635.3203 A0,0 0 0 0 908.2393,635.3203 " fill="#FDF6EC" style="stroke:#C98A1E;stroke-width:0.5;"/><path d="M1052.7749,635.3203 L1052.7749,645.3203 L1062.7749,645.3203 L1052.7749,635.3203 " fill="#FDF6EC" style="stroke:#C98A1E;stroke-width:0.5;"/><text fill="#4A3400" font-family="Helvetica" font-size="13" lengthAdjust="spacing" textLength="104.7046" x="914.2393" y="652.3872">Le pivot original</text><text fill="#4A3400" font-family="Helvetica" font-size="13" lengthAdjust="spacing" textLength="133.5356" x="914.2393" y="667.52">n'est JAMAIS modifi&#233;</text><rect fill="#FFFFFF" height="47.9375" rx="3" ry="3" style="stroke:#0B3D3A;stroke-width:0.5;" width="204.8164" x="683.4229" y="631.4844"/><text fill="#10241F" font-family="Helvetica" font-size="12" lengthAdjust="spacing" textLength="59.7949" x="693.4229" y="652.623">&#201;crit dans</text><text fill="#10241F" font-family="Helvetica" font-size="12" lengthAdjust="spacing" textLength="184.8164" x="693.4229" y="666.5918">dataset_pivot_anonymise.jsonl</text><rect fill="#F0EEE7" height="918.1172" rx="3" ry="3" style="stroke:#0B3D3A;stroke-width:1.5;" width="1559.6621" x="11" y="701.4219"/><path d="M453.3252,701.4219 L453.3252,710.7188 L443.3252,720.7188 L11,720.7188 " fill="none" style="stroke:#0B3D3A;stroke-width:1.5;"/><text fill="#0B3D3A" font-family="Helvetica" font-size="14" font-weight="bold" lengthAdjust="spacing" textLength="432.3252" x="14" y="715.417">&#201;tape 5 &#8212; Contr&#244;le qualit&#233; (comparaison de 2 fichiers)</text><rect fill="#FFFFFF" height="33.9688" rx="3" ry="3" style="stroke:#0B3D3A;stroke-width:0.5;" width="315.7871" x="627.9375" y="737.7188"/><text fill="#10241F" font-family="Helvetica" font-size="12" lengthAdjust="spacing" textLength="295.7871" x="637.9375" y="758.8574">interfaces/cli/controler_qualite_anonymisation.py</text><rect fill="#FFFFFF" height="47.9375" rx="3" ry="3" style="stroke:#0B3D3A;stroke-width:0.5;" width="204.8164" x="683.4229" y="791.6875"/><text fill="#10241F" font-family="Helvetica" font-size="12" lengthAdjust="spacing" textLength="125.707" x="693.4229" y="812.8262">Lit le pivot original +</text><text fill="#10241F" font-family="Helvetica" font-size="12" lengthAdjust="spacing" textLength="184.8164" x="693.4229" y="826.7949">dataset_pivot_anonymise.jsonl</text><rect fill="#FFFFFF" height="47.9375" rx="3" ry="3" style="stroke:#0B3D3A;stroke-width:0.5;" width="326.6504" x="622.5059" y="859.625"/><text fill="#10241F" font-family="Helvetica" font-size="12" lengthAdjust="spacing" textLength="306.6504" x="632.5059" y="880.7637">ControlerQualiteAnonymisationUseCase.executer()</text><text fill="#10241F" font-family="Helvetica" font-size="12" lengthAdjust="spacing" textLength="264.041" x="632.5059" y="894.7324">&#233;chantillon_stratifie (type_exemple, source)</text><rect fill="#FFFFFF" height="47.9375" rx="3" ry="3" style="stroke:#0B3D3A;stroke-width:0.5;" width="269.7852" x="650.9385" y="927.5625"/><text fill="#10241F" font-family="Helvetica" font-size="12" lengthAdjust="spacing" textLength="248.7129" x="660.9385" y="948.7012">Pour chaque paire (original, anonymis&#233;) :</text><text fill="#10241F" font-family="Helvetica" font-size="12" lengthAdjust="spacing" textLength="249.7852" x="660.9385" y="962.6699">ControleQualiteAnonymisation.observer()</text><rect fill="#FFFFFF" height="61.9063" rx="3" ry="3" style="stroke:#0B3D3A;stroke-width:0.5;" width="257.9902" x="656.8359" y="995.5"/><text fill="#10241F" font-family="Helvetica" font-size="12" lengthAdjust="spacing" textLength="105.3516" x="666.8359" y="1016.6387">_paires_champs()</text><text fill="#10241F" font-family="Helvetica" font-size="12" lengthAdjust="spacing" textLength="204.5918" x="666.8359" y="1030.6074">aligne symptomes / antecedents /</text><text fill="#10241F" font-family="Helvetica" font-size="12" lengthAdjust="spacing" textLength="237.9902" x="666.8359" y="1044.5762">prompt / completion / chosen / rejected</text><rect fill="#0B3D3A" height="6" rx="2.5" ry="2.5" style="stroke:#0B3D3A;stroke-width:1.0;" width="1539.6621" x="21" y="1077.4063"/><rect fill="#FFFFFF" height="33.9688" rx="3" ry="3" style="stroke:#0B3D3A;stroke-width:0.5;" width="273.8574" x="170.5054" y="1103.4063"/><text fill="#10241F" font-family="Helvetica" font-size="12" lengthAdjust="spacing" textLength="253.8574" x="180.5054" y="1124.5449">_detecter_pii_residuelle(texte_anonymise)</text><rect fill="#FFFFFF" height="47.9375" rx="3" ry="3" style="stroke:#0B3D3A;stroke-width:0.5;" width="314.4102" x="150.229" y="1172.375"/><text fill="#10241F" font-family="Helvetica" font-size="12" lengthAdjust="spacing" textLength="124.5059" x="160.229" y="1193.5137">detecter_candidats()</text><text fill="#10241F" font-family="Helvetica" font-size="12" lengthAdjust="spacing" textLength="294.4102" x="160.229" y="1207.4824">(detection_pii_residuelle.py, REGEX uniquement)</text><polygon fill="#FDF6EC" points="224.585,1255.3125,390.2832,1255.3125,402.2832,1268.1172,390.2832,1280.9219,224.585,1280.9219,212.585,1268.1172,224.585,1255.3125" style="stroke:#C98A1E;stroke-width:0.5;"/><text fill="#10241F" font-family="Helvetica" font-size="11" lengthAdjust="spacing" textLength="136.356" x="224.585" y="1265.5229">Cat&#233;gorie d&#233;terministe ?</text><text fill="#10241F" font-family="Helvetica" font-size="11" lengthAdjust="spacing" textLength="165.6982" x="224.585" y="1278.3276">(email / t&#233;l&#233;phone / url / date)</text><text fill="#10241F" font-family="Helvetica" font-size="11" lengthAdjust="spacing" textLength="16.7578" x="195.8271" y="1265.5229">oui</text><text fill="#10241F" font-family="Helvetica" font-size="11" lengthAdjust="spacing" textLength="20.6733" x="402.2832" y="1252.7183">non</text><text fill="#10241F" font-family="Helvetica" font-size="11" lengthAdjust="spacing" textLength="121.0537" x="402.2832" y="1265.5229">(bigramme capitalis&#233;)</text><rect fill="#FFFFFF" height="33.9688" rx="3" ry="3" style="stroke:#0B3D3A;stroke-width:0.5;" width="142.1328" x="33" y="1290.9219"/><text fill="#10241F" font-family="Helvetica" font-size="12" lengthAdjust="spacing" textLength="122.1328" x="43" y="1312.0605">VERDICT_CONFIRME</text><rect fill="#FFFFFF" height="61.9063" rx="3" ry="3" style="stroke:#0B3D3A;stroke-width:0.5;" width="294.1133" x="363.7451" y="1290.9219"/><text fill="#10241F" font-family="Helvetica" font-size="12" lengthAdjust="spacing" textLength="264.3691" x="373.7451" y="1312.0605">SpacyVerificateurEntitesNommees.verifier()</text><text fill="#10241F" font-family="Helvetica" font-size="12" lengthAdjust="spacing" textLength="274.1133" x="373.7451" y="1326.0293">spaCy DIRECT (m&#234;mes mod&#232;les que Presidio,</text><text fill="#10241F" font-family="Helvetica" font-size="12" lengthAdjust="spacing" textLength="120.5332" x="373.7451" y="1339.998">usage ind&#233;pendant)</text><polygon fill="#FDF6EC" points="228.0215,1375.6328,304.377,1375.6328,316.377,1387.6328,304.377,1399.6328,228.0215,1399.6328,216.0215,1387.6328,228.0215,1375.6328" style="stroke:#C98A1E;stroke-width:0.5;"/><text fill="#10241F" font-family="Helvetica" font-size="11" lengthAdjust="spacing" textLength="112.5781" x="270.1992" y="1409.8433">ENTITE_PERTINENTE</text><text fill="#10241F" font-family="Helvetica" font-size="11" lengthAdjust="spacing" textLength="76.3555" x="228.0215" y="1391.4409">Verdict spaCy</text><rect fill="#FFFFFF" height="33.9688" rx="3" ry="3" style="stroke:#0B3D3A;stroke-width:0.5;" width="142.1328" x="195.1328" y="1432.4375"/><text fill="#10241F" font-family="Helvetica" font-size="12" lengthAdjust="spacing" textLength="122.1328" x="205.1328" y="1453.5762">VERDICT_CONFIRME</text><polygon fill="#FDF6EC" points="458.0598,1375.6328,548.8582,1375.6328,560.8582,1387.6328,548.8582,1399.6328,458.0598,1399.6328,446.0598,1387.6328,458.0598,1375.6328" style="stroke:#C98A1E;stroke-width:0.5;"/><text fill="#10241F" font-family="Helvetica" font-size="11" lengthAdjust="spacing" textLength="90.7983" x="458.0598" y="1391.4409">AUCUNE_ENTITE</text><text fill="#10241F" font-family="Helvetica" font-size="11" lengthAdjust="spacing" textLength="143.1934" x="560.8582" y="1385.0386">ENTITE_NON_PERTINENTE</text><rect fill="#FFFFFF" height="33.9688" rx="3" ry="3" style="stroke:#0B3D3A;stroke-width:0.5;" width="209.3633" x="398.7773" y="1419.6328"/><text fill="#10241F" font-family="Helvetica" font-size="12" lengthAdjust="spacing" textLength="189.3633" x="408.7773" y="1440.7715">VERDICT_FAUX_POSITIF_REGEX</text><rect fill="#FFFFFF" height="33.9688" rx="3" ry="3" style="stroke:#0B3D3A;stroke-width:0.5;" width="198.3301" x="628.1406" y="1429.0352"/><text fill="#10241F" font-family="Helvetica" font-size="12" lengthAdjust="spacing" textLength="178.3301" x="638.1406" y="1450.1738">VERDICT_REVISION_HUMAINE</text><polygon fill="#FDF6EC" points="307.4341,1503.5703,319.4341,1515.5703,307.4341,1527.5703,295.4341,1515.5703,307.4341,1503.5703" style="stroke:#C98A1E;stroke-width:0.5;"/><rect fill="#FFFFFF" height="47.9375" rx="3" ry="3" style="stroke:#0B3D3A;stroke-width:0.5;" width="222.4883" x="1095.3223" y="1122.2422"/><text fill="#10241F" font-family="Helvetica" font-size="12" lengthAdjust="spacing" textLength="202.4883" x="1105.3223" y="1143.3809">_detecter_candidats_faux_positifs</text><text fill="#10241F" font-family="Helvetica" font-size="12" lengthAdjust="spacing" textLength="127.5117" x="1105.3223" y="1157.3496">(original, anonymise)</text><rect fill="#FFFFFF" height="61.9063" rx="3" ry="3" style="stroke:#0B3D3A;stroke-width:0.5;" width="203.8438" x="1104.6445" y="1205.1797"/><text fill="#10241F" font-family="Helvetica" font-size="12" lengthAdjust="spacing" textLength="145.623" x="1114.6445" y="1226.3184">difflib.SequenceMatcher</text><text fill="#10241F" font-family="Helvetica" font-size="12" lengthAdjust="spacing" textLength="183.8438" x="1114.6445" y="1240.2871">extrait les fragments masqu&#233;s</text><text fill="#10241F" font-family="Helvetica" font-size="12" lengthAdjust="spacing" textLength="123.9082" x="1114.6445" y="1254.2559">(&lt;INFO_MASQUEE&gt;)</text><rect fill="#FFFFFF" height="47.9375" rx="3" ry="3" style="stroke:#0B3D3A;stroke-width:0.5;" width="284.3691" x="1064.3818" y="1302.0859"/><text fill="#10241F" font-family="Helvetica" font-size="12" lengthAdjust="spacing" textLength="264.3691" x="1074.3818" y="1323.2246">SpacyVerificateurEntitesNommees.verifier()</text><text fill="#10241F" font-family="Helvetica" font-size="12" lengthAdjust="spacing" textLength="130.2598" x="1074.3818" y="1337.1934">sur le texte ORIGINAL</text><polygon fill="#FDF6EC" points="944.542,1372.8281,1020.8975,1372.8281,1032.8975,1384.8281,1020.8975,1396.8281,944.542,1396.8281,932.542,1384.8281,944.542,1372.8281" style="stroke:#C98A1E;stroke-width:0.5;"/><text fill="#10241F" font-family="Helvetica" font-size="11" lengthAdjust="spacing" textLength="112.5781" x="986.7197" y="1407.0386">ENTITE_PERTINENTE</text><text fill="#10241F" font-family="Helvetica" font-size="11" lengthAdjust="spacing" textLength="76.3555" x="944.542" y="1388.6362">Verdict spaCy</text><rect fill="#FFFFFF" height="47.9375" rx="3" ry="3" style="stroke:#0B3D3A;stroke-width:0.5;" width="236.498" x="864.4707" y="1429.6328"/><text fill="#10241F" font-family="Helvetica" font-size="12" lengthAdjust="spacing" textLength="114.1289" x="874.4707" y="1450.7715">Masquage l&#233;gitime</text><text fill="#10241F" font-family="Helvetica" font-size="12" lengthAdjust="spacing" textLength="216.498" x="874.4707" y="1464.7402">(non enregistr&#233; comme faux positif)</text><polygon fill="#FDF6EC" points="1180.2512,1372.8281,1271.0496,1372.8281,1283.0496,1384.8281,1271.0496,1396.8281,1180.2512,1396.8281,1168.2512,1384.8281,1180.2512,1372.8281" style="stroke:#C98A1E;stroke-width:0.5;"/><text fill="#10241F" font-family="Helvetica" font-size="11" lengthAdjust="spacing" textLength="90.7983" x="1180.2512" y="1388.6362">AUCUNE_ENTITE</text><text fill="#10241F" font-family="Helvetica" font-size="11" lengthAdjust="spacing" textLength="143.1934" x="1283.0496" y="1382.2339">ENTITE_NON_PERTINENTE</text><rect fill="#FFFFFF" height="47.9375" rx="3" ry="3" style="stroke:#0B3D3A;stroke-width:0.5;" width="209.3633" x="1120.9688" y="1416.8281"/><text fill="#10241F" font-family="Helvetica" font-size="12" lengthAdjust="spacing" textLength="189.3633" x="1130.9688" y="1437.9668">VERDICT_FAUX_POSITIF_REGEX</text><text fill="#10241F" font-family="Helvetica" font-size="12" lengthAdjust="spacing" textLength="95.3555" x="1130.9688" y="1451.9355">(sur-masquage)</text><rect fill="#FFFFFF" height="33.9688" rx="3" ry="3" style="stroke:#0B3D3A;stroke-width:0.5;" width="198.3301" x="1350.332" y="1433.2148"/><text fill="#10241F" font-family="Helvetica" font-size="12" lengthAdjust="spacing" textLength="178.3301" x="1360.332" y="1454.3535">VERDICT_REVISION_HUMAINE</text><rect fill="#0B3D3A" height="6" rx="2.5" ry="2.5" style="stroke:#0B3D3A;stroke-width:1.0;" width="1539.6621" x="21" y="1547.5703"/><rect fill="#FFFFFF" height="33.9688" rx="3" ry="3" style="stroke:#0B3D3A;stroke-width:0.5;" width="324.8398" x="623.4111" y="1573.5703"/><text fill="#10241F" font-family="Helvetica" font-size="12" lengthAdjust="spacing" textLength="304.8398" x="633.4111" y="1594.709">rapport_controle_qualite_anonymisation.json / .md</text><ellipse cx="785.8311" cy="1650.5391" fill="none" rx="11" ry="11" style="stroke:#222222;stroke-width:1.0;"/><ellipse cx="785.8311" cy="1650.5391" fill="#222222" rx="6" ry="6" style="stroke:#222222;stroke-width:1.0;"/><line style="stroke:#0B3D3A;stroke-width:1.2;" x1="785.8311" x2="785.8311" y1="163.8594" y2="183.8594"/><polygon fill="#0B3D3A" points="781.8311,173.8594,785.8311,183.8594,789.8311,173.8594,785.8311,177.8594" style="stroke:#0B3D3A;stroke-width:1.0;"/><line style="stroke:#0B3D3A;stroke-width:1.2;" x1="785.8311" x2="785.8311" y1="217.8281" y2="237.8281"/><polygon fill="#0B3D3A" points="781.8311,227.8281,785.8311,237.8281,789.8311,227.8281,785.8311,231.8281" style="stroke:#0B3D3A;stroke-width:1.0;"/><line style="stroke:#0B3D3A;stroke-width:1.2;" x1="785.8311" x2="785.8311" y1="271.7969" y2="291.7969"/><polygon fill="#0B3D3A" points="781.8311,281.7969,785.8311,291.7969,789.8311,281.7969,785.8311,285.7969" style="stroke:#0B3D3A;stroke-width:1.0;"/><line style="stroke:#0B3D3A;stroke-width:1.2;" x1="785.8311" x2="785.8311" y1="339.7344" y2="359.7344"/><polygon fill="#0B3D3A" points="781.8311,349.7344,785.8311,359.7344,789.8311,349.7344,785.8311,353.7344" style="stroke:#0B3D3A;stroke-width:1.0;"/><line style="stroke:#0B3D3A;stroke-width:1.2;" x1="785.8311" x2="785.8311" y1="393.7031" y2="413.7031"/><polygon fill="#0B3D3A" points="781.8311,403.7031,785.8311,413.7031,789.8311,403.7031,785.8311,407.7031" style="stroke:#0B3D3A;stroke-width:1.0;"/><line style="stroke:#0B3D3A;stroke-width:1.2;" x1="785.8311" x2="785.8311" y1="461.6406" y2="481.6406"/><polygon fill="#0B3D3A" points="781.8311,471.6406,785.8311,481.6406,789.8311,471.6406,785.8311,475.6406" style="stroke:#0B3D3A;stroke-width:1.0;"/><line style="stroke:#0B3D3A;stroke-width:1.2;" x1="785.8311" x2="785.8311" y1="529.5781" y2="549.5781"/><polygon fill="#0B3D3A" points="781.8311,539.5781,785.8311,549.5781,789.8311,539.5781,785.8311,543.5781" style="stroke:#0B3D3A;stroke-width:1.0;"/><line style="stroke:#0B3D3A;stroke-width:1.2;" x1="785.8311" x2="785.8311" y1="611.4844" y2="631.4844"/><polygon fill="#0B3D3A" points="781.8311,621.4844,785.8311,631.4844,789.8311,621.4844,785.8311,625.4844" style="stroke:#0B3D3A;stroke-width:1.0;"/><line style="stroke:#0B3D3A;stroke-width:1.2;" x1="785.8311" x2="785.8311" y1="83.5938" y2="129.8906"/><polygon fill="#0B3D3A" points="781.8311,119.8906,785.8311,129.8906,789.8311,119.8906,785.8311,123.8906" style="stroke:#0B3D3A;stroke-width:1.0;"/><line style="stroke:#0B3D3A;stroke-width:1.2;" x1="785.8311" x2="785.8311" y1="771.6875" y2="791.6875"/><polygon fill="#0B3D3A" points="781.8311,781.6875,785.8311,791.6875,789.8311,781.6875,785.8311,785.6875" style="stroke:#0B3D3A;stroke-width:1.0;"/><line style="stroke:#0B3D3A;stroke-width:1.2;" x1="785.8311" x2="785.8311" y1="839.625" y2="859.625"/><polygon fill="#0B3D3A" points="781.8311,849.625,785.8311,859.625,789.8311,849.625,785.8311,853.625" style="stroke:#0B3D3A;stroke-width:1.0;"/><line style="stroke:#0B3D3A;stroke-width:1.2;" x1="785.8311" x2="785.8311" y1="907.5625" y2="927.5625"/><polygon fill="#0B3D3A" points="781.8311,917.5625,785.8311,927.5625,789.8311,917.5625,785.8311,921.5625" style="stroke:#0B3D3A;stroke-width:1.0;"/><line style="stroke:#0B3D3A;stroke-width:1.2;" x1="785.8311" x2="785.8311" y1="975.5" y2="995.5"/><polygon fill="#0B3D3A" points="781.8311,985.5,785.8311,995.5,789.8311,985.5,785.8311,989.5" style="stroke:#0B3D3A;stroke-width:1.0;"/><line style="stroke:#0B3D3A;stroke-width:1.2;" x1="307.4341" x2="307.4341" y1="1137.375" y2="1172.375"/><polygon fill="#0B3D3A" points="303.4341,1162.375,307.4341,1172.375,311.4341,1162.375,307.4341,1166.375" style="stroke:#0B3D3A;stroke-width:1.0;"/><line style="stroke:#0B3D3A;stroke-width:1.2;" x1="266.1992" x2="266.1992" y1="1399.6328" y2="1432.4375"/><polygon fill="#0B3D3A" points="262.1992,1422.4375,266.1992,1432.4375,270.1992,1422.4375,266.1992,1426.4375" style="stroke:#0B3D3A;stroke-width:1.0;"/><line style="stroke:#0B3D3A;stroke-width:1.2;" x1="266.1992" x2="266.1992" y1="1466.4063" y2="1497.5703"/><polygon fill="#0B3D3A" points="262.1992,1487.5703,266.1992,1497.5703,270.1992,1487.5703,266.1992,1491.5703" style="stroke:#0B3D3A;stroke-width:1.0;"/><line style="stroke:#0B3D3A;stroke-width:1.2;" x1="503.459" x2="503.459" y1="1399.6328" y2="1419.6328"/><polygon fill="#0B3D3A" points="499.459,1409.6328,503.459,1419.6328,507.459,1409.6328,503.459,1413.6328" style="stroke:#0B3D3A;stroke-width:1.0;"/><line style="stroke:#0B3D3A;stroke-width:1.2;" x1="503.459" x2="503.459" y1="1453.6016" y2="1497.5703"/><polygon fill="#0B3D3A" points="499.459,1487.5703,503.459,1497.5703,507.459,1487.5703,503.459,1491.5703" style="stroke:#0B3D3A;stroke-width:1.0;"/><line style="stroke:#0B3D3A;stroke-width:1.2;" x1="316.377" x2="446.0598" y1="1387.6328" y2="1387.6328"/><polygon fill="#0B3D3A" points="436.0598,1383.6328,446.0598,1387.6328,436.0598,1391.6328,440.0598,1387.6328" style="stroke:#0B3D3A;stroke-width:1.0;"/><line style="stroke:#0B3D3A;stroke-width:1.2;" x1="510.8018" x2="510.8018" y1="1352.8281" y2="1357.8281"/><line style="stroke:#0B3D3A;stroke-width:1.2;" x1="510.8018" x2="266.1992" y1="1357.8281" y2="1357.8281"/><line style="stroke:#0B3D3A;stroke-width:1.2;" x1="266.1992" x2="266.1992" y1="1357.8281" y2="1375.6328"/><polygon fill="#0B3D3A" points="262.1992,1365.6328,266.1992,1375.6328,270.1992,1365.6328,266.1992,1369.6328" style="stroke:#0B3D3A;stroke-width:1.0;"/><line style="stroke:#0B3D3A;stroke-width:1.2;" x1="560.8582" x2="727.3057" y1="1387.6328" y2="1387.6328"/><line style="stroke:#0B3D3A;stroke-width:1.2;" x1="727.3057" x2="727.3057" y1="1387.6328" y2="1429.0352"/><polygon fill="#0B3D3A" points="723.3057,1419.0352,727.3057,1429.0352,731.3057,1419.0352,727.3057,1423.0352" style="stroke:#0B3D3A;stroke-width:1.0;"/><line style="stroke:#0B3D3A;stroke-width:1.2;" x1="727.3057" x2="727.3057" y1="1463.0039" y2="1497.5703"/><polygon fill="#0B3D3A" points="723.3057,1487.5703,727.3057,1497.5703,731.3057,1487.5703,727.3057,1491.5703" style="stroke:#0B3D3A;stroke-width:1.0;"/><line style="stroke:#0B3D3A;stroke-width:1.2;" x1="266.1992" x2="727.3057" y1="1497.5703" y2="1497.5703"/><line style="stroke:#0B3D3A;stroke-width:1.2;" x1="212.585" x2="104.0664" y1="1268.1172" y2="1268.1172"/><line style="stroke:#0B3D3A;stroke-width:1.2;" x1="104.0664" x2="104.0664" y1="1268.1172" y2="1290.9219"/><polygon fill="#0B3D3A" points="100.0664,1280.9219,104.0664,1290.9219,108.0664,1280.9219,104.0664,1284.9219" style="stroke:#0B3D3A;stroke-width:1.0;"/><line style="stroke:#0B3D3A;stroke-width:1.2;" x1="402.2832" x2="510.8018" y1="1268.1172" y2="1268.1172"/><line style="stroke:#0B3D3A;stroke-width:1.2;" x1="510.8018" x2="510.8018" y1="1268.1172" y2="1290.9219"/><polygon fill="#0B3D3A" points="506.8018,1280.9219,510.8018,1290.9219,514.8018,1280.9219,510.8018,1284.9219" style="stroke:#0B3D3A;stroke-width:1.0;"/><line style="stroke:#0B3D3A;stroke-width:1.2;" x1="104.0664" x2="104.0664" y1="1324.8906" y2="1515.5703"/><line style="stroke:#0B3D3A;stroke-width:1.2;" x1="104.0664" x2="295.4341" y1="1515.5703" y2="1515.5703"/><polygon fill="#0B3D3A" points="285.4341,1511.5703,295.4341,1515.5703,285.4341,1519.5703,289.4341,1515.5703" style="stroke:#0B3D3A;stroke-width:1.0;"/><line style="stroke:#0B3D3A;stroke-width:1.2;" x1="510.8018" x2="510.8018" y1="1497.5703" y2="1515.5703"/><line style="stroke:#0B3D3A;stroke-width:1.2;" x1="510.8018" x2="319.4341" y1="1515.5703" y2="1515.5703"/><polygon fill="#0B3D3A" points="329.4341,1511.5703,319.4341,1515.5703,329.4341,1519.5703,325.4341,1515.5703" style="stroke:#0B3D3A;stroke-width:1.0;"/><line style="stroke:#0B3D3A;stroke-width:1.2;" x1="307.4341" x2="307.4341" y1="1220.3125" y2="1255.3125"/><polygon fill="#0B3D3A" points="303.4341,1245.3125,307.4341,1255.3125,311.4341,1245.3125,307.4341,1249.3125" style="stroke:#0B3D3A;stroke-width:1.0;"/><line style="stroke:#0B3D3A;stroke-width:1.2;" x1="1206.5664" x2="1206.5664" y1="1170.1797" y2="1205.1797"/><polygon fill="#0B3D3A" points="1202.5664,1195.1797,1206.5664,1205.1797,1210.5664,1195.1797,1206.5664,1199.1797" style="stroke:#0B3D3A;stroke-width:1.0;"/><line style="stroke:#0B3D3A;stroke-width:1.2;" x1="1206.5664" x2="1206.5664" y1="1267.0859" y2="1302.0859"/><polygon fill="#0B3D3A" points="1202.5664,1292.0859,1206.5664,1302.0859,1210.5664,1292.0859,1206.5664,1296.0859" style="stroke:#0B3D3A;stroke-width:1.0;"/><line style="stroke:#0B3D3A;stroke-width:1.2;" x1="982.7197" x2="982.7197" y1="1396.8281" y2="1429.6328"/><polygon fill="#0B3D3A" points="978.7197,1419.6328,982.7197,1429.6328,986.7197,1419.6328,982.7197,1423.6328" style="stroke:#0B3D3A;stroke-width:1.0;"/><line style="stroke:#0B3D3A;stroke-width:1.2;" x1="982.7197" x2="982.7197" y1="1477.5703" y2="1508.7344"/><polygon fill="#0B3D3A" points="978.7197,1498.7344,982.7197,1508.7344,986.7197,1498.7344,982.7197,1502.7344" style="stroke:#0B3D3A;stroke-width:1.0;"/><line style="stroke:#0B3D3A;stroke-width:1.2;" x1="1225.6504" x2="1225.6504" y1="1396.8281" y2="1416.8281"/><polygon fill="#0B3D3A" points="1221.6504,1406.8281,1225.6504,1416.8281,1229.6504,1406.8281,1225.6504,1410.8281" style="stroke:#0B3D3A;stroke-width:1.0;"/><line style="stroke:#0B3D3A;stroke-width:1.2;" x1="1225.6504" x2="1225.6504" y1="1464.7656" y2="1508.7344"/><polygon fill="#0B3D3A" points="1221.6504,1498.7344,1225.6504,1508.7344,1229.6504,1498.7344,1225.6504,1502.7344" style="stroke:#0B3D3A;stroke-width:1.0;"/><line style="stroke:#0B3D3A;stroke-width:1.2;" x1="1032.8975" x2="1168.2512" y1="1384.8281" y2="1384.8281"/><polygon fill="#0B3D3A" points="1158.2512,1380.8281,1168.2512,1384.8281,1158.2512,1388.8281,1162.2512,1384.8281" style="stroke:#0B3D3A;stroke-width:1.0;"/><line style="stroke:#0B3D3A;stroke-width:1.2;" x1="1206.5664" x2="1206.5664" y1="1350.0234" y2="1357.8281"/><line style="stroke:#0B3D3A;stroke-width:1.2;" x1="1206.5664" x2="982.7197" y1="1357.8281" y2="1357.8281"/><line style="stroke:#0B3D3A;stroke-width:1.2;" x1="982.7197" x2="982.7197" y1="1357.8281" y2="1372.8281"/><polygon fill="#0B3D3A" points="978.7197,1362.8281,982.7197,1372.8281,986.7197,1362.8281,982.7197,1366.8281" style="stroke:#0B3D3A;stroke-width:1.0;"/><line style="stroke:#0B3D3A;stroke-width:1.2;" x1="1283.0496" x2="1449.4971" y1="1384.8281" y2="1384.8281"/><line style="stroke:#0B3D3A;stroke-width:1.2;" x1="1449.4971" x2="1449.4971" y1="1384.8281" y2="1433.2148"/><polygon fill="#0B3D3A" points="1445.4971,1423.2148,1449.4971,1433.2148,1453.4971,1423.2148,1449.4971,1427.2148" style="stroke:#0B3D3A;stroke-width:1.0;"/><line style="stroke:#0B3D3A;stroke-width:1.2;" x1="1449.4971" x2="1449.4971" y1="1467.1836" y2="1508.7344"/><polygon fill="#0B3D3A" points="1445.4971,1498.7344,1449.4971,1508.7344,1453.4971,1498.7344,1449.4971,1502.7344" style="stroke:#0B3D3A;stroke-width:1.0;"/><line style="stroke:#0B3D3A;stroke-width:1.2;" x1="982.7197" x2="1449.4971" y1="1508.7344" y2="1508.7344"/><line style="stroke:#0B3D3A;stroke-width:1.2;" x1="307.4341" x2="307.4341" y1="1083.4063" y2="1103.4063"/><polygon fill="#0B3D3A" points="303.4341,1093.4063,307.4341,1103.4063,311.4341,1093.4063,307.4341,1097.4063" style="stroke:#0B3D3A;stroke-width:1.0;"/><line style="stroke:#0B3D3A;stroke-width:1.2;" x1="1206.5664" x2="1206.5664" y1="1083.4063" y2="1122.2422"/><polygon fill="#0B3D3A" points="1202.5664,1112.2422,1206.5664,1122.2422,1210.5664,1112.2422,1206.5664,1116.2422" style="stroke:#0B3D3A;stroke-width:1.0;"/><line style="stroke:#0B3D3A;stroke-width:1.2;" x1="307.4341" x2="307.4341" y1="1527.5703" y2="1547.5703"/><polygon fill="#0B3D3A" points="303.4341,1537.5703,307.4341,1547.5703,311.4341,1537.5703,307.4341,1541.5703" style="stroke:#0B3D3A;stroke-width:1.0;"/><line style="stroke:#0B3D3A;stroke-width:1.2;" x1="1206.5664" x2="1206.5664" y1="1508.7344" y2="1547.5703"/><polygon fill="#0B3D3A" points="1202.5664,1537.5703,1206.5664,1547.5703,1210.5664,1537.5703,1206.5664,1541.5703" style="stroke:#0B3D3A;stroke-width:1.0;"/><line style="stroke:#0B3D3A;stroke-width:1.2;" x1="785.8311" x2="785.8311" y1="1057.4063" y2="1077.4063"/><polygon fill="#0B3D3A" points="781.8311,1067.4063,785.8311,1077.4063,789.8311,1067.4063,785.8311,1071.4063" style="stroke:#0B3D3A;stroke-width:1.0;"/><line style="stroke:#0B3D3A;stroke-width:1.2;" x1="785.8311" x2="785.8311" y1="1553.5703" y2="1573.5703"/><polygon fill="#0B3D3A" points="781.8311,1563.5703,785.8311,1573.5703,789.8311,1563.5703,785.8311,1567.5703" style="stroke:#0B3D3A;stroke-width:1.0;"/><line style="stroke:#0B3D3A;stroke-width:1.2;" x1="785.8311" x2="785.8311" y1="679.4219" y2="737.7188"/><polygon fill="#0B3D3A" points="781.8311,727.7188,785.8311,737.7188,789.8311,727.7188,785.8311,731.7188" style="stroke:#0B3D3A;stroke-width:1.0;"/><line style="stroke:#0B3D3A;stroke-width:1.2;" x1="785.8311" x2="785.8311" y1="1607.5391" y2="1639.5391"/><polygon fill="#0B3D3A" points="781.8311,1629.5391,785.8311,1639.5391,789.8311,1629.5391,785.8311,1633.5391" style="stroke:#0B3D3A;stroke-width:1.0;"/><!--SRC=[bLRRRkCs47ttLx3RXxNHr2cANe2qQE4wobP5ucHz2VR1WC188vkx5AcGL3PkiK1VzxqVKVUvVw0_wPVqaB9iDxVk0ePjKiEPCtFE3FM9KAciCcBz_Y4-IQgBGgj3iav8tHTL8JiT9vmaDb1QhGfXkHDQiUw58IioeNkC74krSgR-6rRN5PV2rMi6bvApYpXcfbx3iY8fQQwE1LyONXJ4ikSyTUB66tSwrd7ZEfqItoBuVrQ_TxmazXNxv_S_7etzZ7rwCen-YhvXltKOEnBAaSbvIlOmbUAGRqwHIJBkk2NNBrVVUSF1zibnys1cQOZVFjrIMi59jnViaZqNU5IKahgRt_i61LdB5sJdgbiQNPIE7Q8mtZQWncAfBVa_XbvJwYXhVBJPR45LfhzpstLqw-W0nLIBQXDr9Cj8BOIY2wDlH4O68NC3xWmbYjxQfCWGXLIpyvQk4blqDebpkVgLJ7CSOSAosvkhh5ux3uf9iZZgF2zslrZxfpOR_XmlIockAvnxhijwRRW3Vk0nL4em0Hm5jsz2qXa8Rs3KxrCZ7CkuGhKst2IbkD5kLz3-QwkLzEPA0vOHYwN3Wh5JOi6KQUm9P11srNDeblqoE1l44rReJEG2mc989GiEEkyUajVNGLx3-_BjUkQuuG8Wl9Q_PBb8buAC3QBx8egYRnyKNMW5BQ67nXTjCmhYRHLuYlJbtKJOPnzGZQDX6-5b4-0_pN5Vo7DLhzCb1wDIQfLO1ufG769TjogfbVK1ixeogHTOq2GMq2ltn9PS65Yt80zO2wfUzzZHNBLu7eBJrrVGyCskeO8pcy1rKTgW7oaMYfXTeM4qMWXA0LPAAOC8iPgh3soc03pNvasGmr6IKT2pGIL54beiZA2cdtQ53RXWlpLFkSe4M0ZekiqsGjvn0nuFs3Xw4RrYbVBwBm1tuqlah3laKD42DSEWyvrb2g64XOv_X5Cgk9203XDPhykbLhvFAkFt49bwFUQMIAwhAz4BBW7mCXeVnyDfCZmVdSJZiwY9HTA26oG3jrTYCrfJNWg7mdg6jkSd9KzNbsJ0VHgQDF9DJdQ4YKza-pVXKQCOM_BXYXt7usWuPTsY_iiJWwQg__JJmOkY7Le7SrNvgSU4do0bkerlwz1K0Y4paJeMVBQ9HQDfF8sIYsWyZKTOH2tCHnDjKlKE1xFXR1GbZOl6uVt39uFPg-JYV19FuvCayBJlPWjWT3vw6iGukemdCQn-dc6oZ7PW89Ayi__FIu_n1HVghW2tYafoNjqcfROOGhc_9-xtr4wF8i-bkEfF2ELMAPrnboxzf8TyCPPScDEvuOiYz0c6x7M5YGsdtyUZa_FaR31vEOkY7rf_7qK_cX_3ANGAEn_7B-BHu7IdxOzZzEZCG_CIWTONoBp0Qu1NB2fdQ86cm0k2xsq8rzU7RUhJsmdyQTQVu1o1aCldnGP1RxzddbJ0__3VSkulbp1o_6mpk0grSKbx0pno0VX1ZZxl5vXOx_oRZoux_m80]--></g></svg>