<svg xmlns="http://www.w3.org/2000/svg" xmlns:xlink="http://www.w3.org/1999/xlink" contentStyleType="text/css" height="858px" preserveAspectRatio="none" style="width:669px;height:858px;background:#F6F4EF;" version="1.1" viewBox="0 0 669 858" width="669px" zoomAndPan="magnify"><title>&#201;tape 1 : Pr&#233;paration et structuration des donn&#233;es</title><defs/><g><rect fill="#F6F4EF" height="858" style="stroke:none;stroke-width:1;" width="669" x="0" y="0"/><text fill="#000000" font-family="Helvetica" font-size="14" font-weight="bold" lengthAdjust="spacing" textLength="403.4502" x="131.3538" y="32.9951">&#201;tape 1 : Pr&#233;paration et structuration des donn&#233;es</text><text fill="#000000" font-family="Helvetica" font-size="14" font-weight="bold" lengthAdjust="spacing" textLength="169.4424" x="248.3577" y="49.292">Diagramme d'activit&#233;</text><ellipse cx="186.7861" cy="73.5938" fill="#0B3D3A" rx="10" ry="10" style="stroke:#222222;stroke-width:1;"/><rect fill="#F0EEE7" height="385.9414" rx="3" ry="3" style="stroke:#0B3D3A;stroke-width:1.5;" width="647.1577" x="11" y="93.5938"/><path d="M624.2373,93.5938 L624.2373,102.8906 L614.2373,112.8906 L11,112.8906 " fill="none" style="stroke:#0B3D3A;stroke-width:1.5;"/><text fill="#0B3D3A" font-family="Helvetica" font-size="14" font-weight="bold" lengthAdjust="spacing" textLength="603.2373" x="14" y="107.5889">Par corpus (MediQAl, FrenchMedMCQA, MedQuAD, UltraMedical-Preference)</text><rect fill="#FFFFFF" height="33.9688" rx="3" ry="3" style="stroke:#0B3D3A;stroke-width:0.5;" width="237.8809" x="67.8457" y="129.8906"/><text fill="#10241F" font-family="Helvetica" font-size="12" lengthAdjust="spacing" textLength="217.8809" x="77.8457" y="151.0293">Placer le corpus brut dans data/raw/</text><path d="M332.582,180.1289 L332.582,203.8281 L312.582,207.8281 L332.582,211.8281 L332.582,235.5273 A0,0 0 0 0 332.582,235.5273 L525.6416,235.5273 A0,0 0 0 0 525.6416,235.5273 L525.6416,190.1289 L515.6416,180.1289 L332.582,180.1289 A0,0 0 0 0 332.582,180.1289 " fill="#FDF6EC" style="stroke:#C98A1E;stroke-width:0.5;"/><path d="M515.6416,180.1289 L515.6416,190.1289 L525.6416,190.1289 L515.6416,180.1289 " fill="#FDF6EC" style="stroke:#C98A1E;stroke-width:0.5;"/><text fill="#4A3400" font-family="Helvetica" font-size="13" lengthAdjust="spacing" textLength="143" x="338.582" y="197.1958">Adaptateurs inject&#233;s :</text><text fill="#4A3400" font-family="Helvetica" font-size="13" lengthAdjust="spacing" textLength="172.0596" x="338.582" y="212.3286">LecteurCorpusFichierLocal</text><text fill="#4A3400" font-family="Helvetica" font-size="13" lengthAdjust="spacing" textLength="91.7427" x="338.582" y="227.4614">YdataProfileur</text><rect fill="#FFFFFF" height="47.9375" rx="3" ry="3" style="stroke:#0B3D3A;stroke-width:0.5;" width="251.5918" x="60.9902" y="183.8594"/><text fill="#10241F" font-family="Helvetica" font-size="12" lengthAdjust="spacing" textLength="231.5918" x="70.9902" y="204.998">interfaces/cli/E1_02_profiler_corpus.py</text><text fill="#10241F" font-family="Helvetica" font-size="12" lengthAdjust="spacing" textLength="145.998" x="70.9902" y="218.9668">(ProfilerCorpusUseCase)</text><rect fill="#FFFFFF" height="47.9375" rx="3" ry="3" style="stroke:#0B3D3A;stroke-width:0.5;" width="281.9609" x="45.8057" y="303.9297"/><text fill="#10241F" font-family="Helvetica" font-size="12" lengthAdjust="spacing" textLength="139.8984" x="55.8057" y="325.0684">Nettoyer le corpus brut</text><text fill="#10241F" font-family="Helvetica" font-size="12" lengthAdjust="spacing" textLength="261.9609" x="55.8057" y="339.0371">(doublons, valeurs manquantes, longueurs)</text><polygon fill="#FDF6EC" points="60.7373,255.5273,312.835,255.5273,324.835,267.5273,312.835,279.5273,60.7373,279.5273,48.7373,267.5273,60.7373,255.5273" style="stroke:#C98A1E;stroke-width:0.5;"/><text fill="#10241F" font-family="Helvetica" font-size="11" lengthAdjust="spacing" textLength="16.7578" x="190.7861" y="289.7378">oui</text><text fill="#10241F" font-family="Helvetica" font-size="11" lengthAdjust="spacing" textLength="252.0977" x="60.7373" y="271.3354">Rapport de profilage : nettoyage n&#233;cessaire ?</text><text fill="#10241F" font-family="Helvetica" font-size="11" lengthAdjust="spacing" textLength="20.6733" x="324.835" y="264.9331">non</text><polygon fill="#FDF6EC" points="186.7861,371.8672,198.7861,383.8672,186.7861,395.8672,174.7861,383.8672,186.7861,371.8672" style="stroke:#C98A1E;stroke-width:0.5;"/><path d="M372.5723,412.1367 L372.5723,435.8359 L352.5723,439.8359 L372.5723,443.8359 L372.5723,467.5352 A0,0 0 0 0 372.5723,467.5352 L648.1577,467.5352 A0,0 0 0 0 648.1577,467.5352 L648.1577,422.1367 L638.1577,412.1367 L372.5723,412.1367 A0,0 0 0 0 372.5723,412.1367 " fill="#FDF6EC" style="stroke:#C98A1E;stroke-width:0.5;"/><path d="M638.1577,412.1367 L638.1577,422.1367 L648.1577,422.1367 L638.1577,412.1367 " fill="#FDF6EC" style="stroke:#C98A1E;stroke-width:0.5;"/><text fill="#4A3400" font-family="Helvetica" font-size="13" lengthAdjust="spacing" textLength="187.8018" x="378.5723" y="429.2036">Mapper sp&#233;cifique au corpus</text><text fill="#4A3400" font-family="Helvetica" font-size="13" lengthAdjust="spacing" textLength="254.5854" x="378.5723" y="444.3364">(E1_03_01_mappers_corpus.py) inject&#233;</text><text fill="#4A3400" font-family="Helvetica" font-size="13" lengthAdjust="spacing" textLength="127.5117" x="378.5723" y="459.4692">ici, pas dans le port</text><rect fill="#FFFFFF" height="47.9375" rx="3" ry="3" style="stroke:#0B3D3A;stroke-width:0.5;" width="331.5723" x="21" y="415.8672"/><text fill="#10241F" font-family="Helvetica" font-size="12" lengthAdjust="spacing" textLength="311.5723" x="31" y="437.0059">interfaces/cli/E1_03_00_construire_dataset_pivot.py</text><text fill="#10241F" font-family="Helvetica" font-size="12" lengthAdjust="spacing" textLength="200.332" x="31" y="450.9746">(ConstruireDatasetPivotUseCase)</text><rect fill="#FFFFFF" height="47.9375" rx="3" ry="3" style="stroke:#0B3D3A;stroke-width:0.5;" width="239.0059" x="67.2832" y="499.5352"/><text fill="#10241F" font-family="Helvetica" font-size="12" lengthAdjust="spacing" textLength="141.5273" x="77.2832" y="520.6738">Dataset pivot consolid&#233;</text><text fill="#10241F" font-family="Helvetica" font-size="12" lengthAdjust="spacing" textLength="219.0059" x="77.2832" y="534.6426">(data/processed/dataset_pivot.jsonl)</text><path d="M359.4766,571.3086 L359.4766,587.4414 L339.4766,591.4414 L359.4766,595.4414 L359.4766,611.5742 A0,0 0 0 0 359.4766,611.5742 L603.2603,611.5742 A0,0 0 0 0 603.2603,611.5742 L603.2603,581.3086 L593.2603,571.3086 L359.4766,571.3086 A0,0 0 0 0 359.4766,571.3086 " fill="#FDF6EC" style="stroke:#C98A1E;stroke-width:0.5;"/><path d="M593.2603,571.3086 L593.2603,581.3086 L603.2603,581.3086 L593.2603,571.3086 " fill="#FDF6EC" style="stroke:#C98A1E;stroke-width:0.5;"/><text fill="#4A3400" font-family="Helvetica" font-size="13" lengthAdjust="spacing" textLength="222.7837" x="365.4766" y="588.3755">Adaptateur : PresidioAnonymiseur</text><text fill="#4A3400" font-family="Helvetica" font-size="13" lengthAdjust="spacing" textLength="222.606" x="365.4766" y="603.5083">Strat&#233;gie : replace / mask / redact</text><rect fill="#FFFFFF" height="47.9375" rx="3" ry="3" style="stroke:#0B3D3A;stroke-width:0.5;" width="305.3809" x="34.0957" y="567.4727"/><text fill="#10241F" font-family="Helvetica" font-size="12" lengthAdjust="spacing" textLength="285.3809" x="44.0957" y="588.6113">interfaces/cli/E1_04_00_anonymiser_dataset.py</text><text fill="#10241F" font-family="Helvetica" font-size="12" lengthAdjust="spacing" textLength="179.5957" x="44.0957" y="602.5801">(AnonymiserDatasetUseCase)</text><path d="M345.4785,639.2461 L345.4785,655.3789 L325.4785,659.3789 L345.4785,663.3789 L345.4785,679.5117 A0,0 0 0 0 345.4785,679.5117 L534.0693,679.5117 A0,0 0 0 0 534.0693,679.5117 L534.0693,649.2461 L524.0693,639.2461 L345.4785,639.2461 A0,0 0 0 0 345.4785,639.2461 " fill="#FDF6EC" style="stroke:#C98A1E;stroke-width:0.5;"/><path d="M524.0693,639.2461 L524.0693,649.2461 L534.0693,649.2461 L524.0693,639.2461 " fill="#FDF6EC" style="stroke:#C98A1E;stroke-width:0.5;"/><text fill="#4A3400" font-family="Helvetica" font-size="13" lengthAdjust="spacing" textLength="167.5908" x="351.4785" y="656.313">Test clinique isol&#233;, jamais</text><text fill="#4A3400" font-family="Helvetica" font-size="13" lengthAdjust="spacing" textLength="165.2803" x="351.4785" y="671.4458">r&#233;utilis&#233; en entra&#238;nement</text><rect fill="#FFFFFF" height="47.9375" rx="3" ry="3" style="stroke:#0B3D3A;stroke-width:0.5;" width="277.3848" x="48.0938" y="635.4102"/><text fill="#10241F" font-family="Helvetica" font-size="12" lengthAdjust="spacing" textLength="257.3848" x="58.0938" y="656.5488">interfaces/cli/E1_05_00_decouper_splits.py</text><text fill="#10241F" font-family="Helvetica" font-size="12" lengthAdjust="spacing" textLength="152.1094" x="58.0938" y="670.5176">(DecouperSplitsUseCase)</text><rect fill="#FFFFFF" height="33.9688" rx="3" ry="3" style="stroke:#0B3D3A;stroke-width:0.5;" width="192.582" x="90.4951" y="703.3477"/><text fill="#10241F" font-family="Helvetica" font-size="12" lengthAdjust="spacing" textLength="172.582" x="100.4951" y="724.4863">Dataset final train / val / test</text><rect fill="#FFFFFF" height="47.9375" rx="3" ry="3" style="stroke:#0B3D3A;stroke-width:0.5;" width="221.9316" x="75.8203" y="757.3164"/><text fill="#10241F" font-family="Helvetica" font-size="12" lengthAdjust="spacing" textLength="201.9316" x="85.8203" y="778.4551">Versionner sur Hugging Face Hub</text><text fill="#10241F" font-family="Helvetica" font-size="12" lengthAdjust="spacing" textLength="68.5547" x="85.8203" y="792.4238">(Livrable 1)</text><ellipse cx="186.7861" cy="836.2539" fill="none" rx="11" ry="11" style="stroke:#222222;stroke-width:1;"/><ellipse cx="186.7861" cy="836.2539" fill="#222222" rx="6" ry="6" style="stroke:#222222;stroke-width:1;"/><line style="stroke:#0B3D3A;stroke-width:1.2;" x1="186.7861" x2="186.7861" y1="163.8594" y2="183.8594"/><polygon fill="#0B3D3A" points="182.7861,173.8594,186.7861,183.8594,190.7861,173.8594,186.7861,177.8594" style="stroke:#0B3D3A;stroke-width:1;"/><line style="stroke:#0B3D3A;stroke-width:1.2;" x1="186.7861" x2="186.7861" y1="279.5273" y2="303.9297"/><polygon fill="#0B3D3A" points="182.7861,293.9297,186.7861,303.9297,190.7861,293.9297,186.7861,297.9297" style="stroke:#0B3D3A;stroke-width:1;"/><line style="stroke:#0B3D3A;stroke-width:1.2;" x1="324.835" x2="337.7666" y1="267.5273" y2="267.5273"/><polygon fill="#0B3D3A" points="333.7666,317.8984,337.7666,327.8984,341.7666,317.8984,337.7666,321.8984" style="stroke:#0B3D3A;stroke-width:1.2;"/><line style="stroke:#0B3D3A;stroke-width:1.2;" x1="337.7666" x2="337.7666" y1="267.5273" y2="383.8672"/><line style="stroke:#0B3D3A;stroke-width:1.2;" x1="337.7666" x2="198.7861" y1="383.8672" y2="383.8672"/><polygon fill="#0B3D3A" points="208.7861,379.8672,198.7861,383.8672,208.7861,387.8672,204.7861,383.8672" style="stroke:#0B3D3A;stroke-width:1;"/><line style="stroke:#0B3D3A;stroke-width:1.2;" x1="186.7861" x2="186.7861" y1="351.8672" y2="371.8672"/><polygon fill="#0B3D3A" points="182.7861,361.8672,186.7861,371.8672,190.7861,361.8672,186.7861,365.8672" style="stroke:#0B3D3A;stroke-width:1;"/><line style="stroke:#0B3D3A;stroke-width:1.2;" x1="186.7861" x2="186.7861" y1="231.7969" y2="255.5273"/><polygon fill="#0B3D3A" points="182.7861,245.5273,186.7861,255.5273,190.7861,245.5273,186.7861,249.5273" style="stroke:#0B3D3A;stroke-width:1;"/><line style="stroke:#0B3D3A;stroke-width:1.2;" x1="186.7861" x2="186.7861" y1="395.8672" y2="415.8672"/><polygon fill="#0B3D3A" points="182.7861,405.8672,186.7861,415.8672,190.7861,405.8672,186.7861,409.8672" style="stroke:#0B3D3A;stroke-width:1;"/><line style="stroke:#0B3D3A;stroke-width:1.2;" x1="186.7861" x2="186.7861" y1="83.5938" y2="129.8906"/><polygon fill="#0B3D3A" points="182.7861,119.8906,186.7861,129.8906,190.7861,119.8906,186.7861,123.8906" style="stroke:#0B3D3A;stroke-width:1;"/><line style="stroke:#0B3D3A;stroke-width:1.2;" x1="186.7861" x2="186.7861" y1="463.8047" y2="499.5352"/><polygon fill="#0B3D3A" points="182.7861,489.5352,186.7861,499.5352,190.7861,489.5352,186.7861,493.5352" style="stroke:#0B3D3A;stroke-width:1;"/><line style="stroke:#0B3D3A;stroke-width:1.2;" x1="186.7861" x2="186.7861" y1="547.4727" y2="567.4727"/><polygon fill="#0B3D3A" points="182.7861,557.4727,186.7861,567.4727,190.7861,557.4727,186.7861,561.4727" style="stroke:#0B3D3A;stroke-width:1;"/><line style="stroke:#0B3D3A;stroke-width:1.2;" x1="186.7861" x2="186.7861" y1="615.4102" y2="635.4102"/><polygon fill="#0B3D3A" points="182.7861,625.4102,186.7861,635.4102,190.7861,625.4102,186.7861,629.4102" style="stroke:#0B3D3A;stroke-width:1;"/><line style="stroke:#0B3D3A;stroke-width:1.2;" x1="186.7861" x2="186.7861" y1="683.3477" y2="703.3477"/><polygon fill="#0B3D3A" points="182.7861,693.3477,186.7861,703.3477,190.7861,693.3477,186.7861,697.3477" style="stroke:#0B3D3A;stroke-width:1;"/><line style="stroke:#0B3D3A;stroke-width:1.2;" x1="186.7861" x2="186.7861" y1="737.3164" y2="757.3164"/><polygon fill="#0B3D3A" points="182.7861,747.3164,186.7861,757.3164,190.7861,747.3164,186.7861,751.3164" style="stroke:#0B3D3A;stroke-width:1;"/><line style="stroke:#0B3D3A;stroke-width:1.2;" x1="186.7861" x2="186.7861" y1="805.2539" y2="825.2539"/><polygon fill="#0B3D3A" points="182.7861,815.2539,186.7861,825.2539,190.7861,815.2539,186.7861,819.2539" style="stroke:#0B3D3A;stroke-width:1;"/><!--SRC=[VLJDRXD13BxlKvXUIAIGRVYvX0EA4geUMfHIYeHKQUNiEXkNsPbbVeegn0FmABdm4ljYU2PBqeeMQPNCs1xFztssvndhKeMAO3pEvIjAqpH6v-GyApFcqAWiy-mLGVVBOqimWIaiRRTjqQ9deu4yE6z3wKDlgCX1PRJkjkIkzOAnjjWq1DLpB3tVik-sMUOyMfzbaaMonrD7IxHG6ji61uDpglXYfaPmOacN6zcUpozc8v35HPWjHd2blCKOLQ9wiRIqfXX8moFuaG5CbmfBiY2e-umh6pnKg0KPUimjVi_Vna3MdknQWbrUAixVJuhZbqLhpPeLsM9tUDpUNUl1iZVEa-tAqHmT3MCIRJo1vNhZPGCmgx3rw2bO1wnlg1I-3gR9ToOxSUnod72vOR9dHZWaxvU8hRydM36HhbBsJDQyXi57R5jZXGZ13YFM9ENGvBsvYslHNAWuP4lmRWX-Gne69l0mvPz-I87_22FiAXDMocWtWbjK2Ng3-bj0aKTiugb3j2Q-f1p1G1izt47aTVQ4bA-AusCHKSV-44X5vEV85otV6h-JTRxtBdREPVJzHzvpqK0Ok5Qeyfg_1G8CFPiKCEXldXHD2dM7CWxt1KcHNF88MdIxnX1DehZtPV-PPTCU5YJC4CaOnLMtZQB5Lf92HCcfoX-okt56Ao6GFIRCwoWCYeHt3JjfjFxeJfBPtjxVVL3ZWHQ7HaiZIOuhDll3gO4kPKg4RSsnJIorSImWbzgwh_9dgPA9p0vTzXZKDn5gHQK9ecNXMiM-duX5RxnCjYT0VfAN12INJfLY4Q_RZk066-HOBdb8WhmqxBgjo2wV0Ev-QsfaTH_OtogiMQC22M8j1AHNvLTQr4UTFqkjvINHiJj4azDGrwnhE8cSJyDA49_nhSML57eI2-EyQRC_]--></g></svg>