<svg xmlns="http://www.w3.org/2000/svg" xmlns:xlink="http://www.w3.org/1999/xlink" contentStyleType="text/css" height="1860px" preserveAspectRatio="none" style="width:2128px;height:1860px;background:#F6F4EF;" version="1.1" viewBox="0 0 2128 1860" width="2128px" zoomAndPan="magnify"><title>&#201;tape 3 (DPO) : Diagramme de s&#233;quence</title><defs/><g><rect fill="#F6F4EF" height="1860" style="stroke:none;stroke-width:1;" width="2128" x="0" y="0"/><text fill="#000000" font-family="Helvetica" font-size="14" font-weight="bold" lengthAdjust="spacing" textLength="321.8838" x="901.7603" y="27.9951">&#201;tape 3 (DPO) : Diagramme de s&#233;quence</text><text fill="#000000" font-family="Helvetica" font-size="14" font-weight="bold" lengthAdjust="spacing" textLength="874.624" x="625.3901" y="44.292">Reformulation du chosen -&gt; &lt;think&gt;+JSON (E3_00) : classes &#233;crites et test&#233;es, JAMAIS ex&#233;cut&#233;es sur GPU r&#233;el</text><rect fill="#F0EEE7" height="1794.7344" rx="3" ry="3" style="stroke:#0B3D3A;stroke-width:0.5;" width="297.2285" x="242.3867" y="59.5938"/><text fill="#000000" font-family="Helvetica" font-size="13" font-weight="bold" lengthAdjust="spacing" textLength="58.1255" x="361.9382" y="71.6606">training</text><rect fill="#F0EEE7" height="1794.7344" rx="3" ry="3" style="stroke:#0B3D3A;stroke-width:0.5;" width="295.0547" x="541.6152" y="59.5938"/><text fill="#000000" font-family="Helvetica" font-size="13" font-weight="bold" lengthAdjust="spacing" textLength="159.4595" x="609.4128" y="71.6606">application/use_cases</text><rect fill="#F0EEE7" height="1794.7344" rx="3" ry="3" style="stroke:#0B3D3A;stroke-width:0.5;" width="260.0068" x="852.8359" y="59.5938"/><text fill="#000000" font-family="Helvetica" font-size="13" font-weight="bold" lengthAdjust="spacing" textLength="81.6309" x="942.0239" y="71.6606">application</text><rect fill="#F0EEE7" height="1794.7344" rx="3" ry="3" style="stroke:#0B3D3A;stroke-width:0.5;" width="835.3584" x="1114.8428" y="59.5938"/><text fill="#000000" font-family="Helvetica" font-size="13" font-weight="bold" lengthAdjust="spacing" textLength="172.6563" x="1446.1938" y="71.6606">infrastructure/adapters</text><rect fill="#EFEAE0" height="1431.3203" style="stroke:#0B3D3A;stroke-width:1;" width="10" x="386.001" y="244.0156"/><rect fill="#EFEAE0" height="897.5078" style="stroke:#0B3D3A;stroke-width:1;" width="10" x="684.1426" y="725.4141"/><rect fill="#EFEAE0" height="122.4688" style="stroke:#0B3D3A;stroke-width:1;" width="10" x="977.8394" y="1162.7422"/><rect fill="#EFEAE0" height="26.8047" style="stroke:#0B3D3A;stroke-width:1;" width="10" x="1469.5669" y="991.9766"/><rect fill="#FFFFFF" height="572.1563" rx="3" ry="3" style="stroke:#0B3D3A;stroke-width:1.5;" width="1115.6338" x="515.6152" y="904.8203"/><rect fill="#FFFFFF" height="436.1953" rx="3" ry="3" style="stroke:#0B3D3A;stroke-width:1.5;" width="843.624" x="525.6152" y="1033.7813"/><path d="M525.6152,1129.1328 L1369.2393,1129.1328 L1369.2393,1466.9766 A3,3 0 0 1 1366.2393,1469.9766 L528.6152,1469.9766 A3,3 0 0 1 525.6152,1466.9766 L525.6152,1129.1328 " fill="#FFFFFF" style="stroke:none;stroke-width:1;"/><rect fill="#FFFFFF" height="162.7656" rx="3" ry="3" style="stroke:#0B3D3A;stroke-width:1.5;" width="378.0063" x="535.6152" y="1300.2109"/><path d="M535.6152,1369.9531 L913.6216,1369.9531 L913.6216,1459.9766 A3,3 0 0 1 910.6216,1462.9766 L538.6152,1462.9766 A3,3 0 0 1 535.6152,1459.9766 L535.6152,1369.9531 " fill="#FFFFFF" style="stroke:none;stroke-width:1;"/><line style="stroke:#0B3D3A;stroke-width:0.5;stroke-dasharray:5.0,5.0;" x1="93" x2="93" y1="151.1875" y2="1758.7344"/><line style="stroke:#0B3D3A;stroke-width:0.5;stroke-dasharray:5.0,5.0;" x1="390.3867" x2="390.3867" y1="151.1875" y2="1758.7344"/><line style="stroke:#0B3D3A;stroke-width:0.5;stroke-dasharray:5.0,5.0;" x1="688.6152" x2="688.6152" y1="151.1875" y2="1758.7344"/><line style="stroke:#0B3D3A;stroke-width:0.5;stroke-dasharray:5.0,5.0;" x1="982.8359" x2="982.8359" y1="151.1875" y2="1758.7344"/><line style="stroke:#0B3D3A;stroke-width:0.5;stroke-dasharray:5.0,5.0;" x1="1217.8428" x2="1217.8428" y1="151.1875" y2="1758.7344"/><line style="stroke:#0B3D3A;stroke-width:0.5;stroke-dasharray:5.0,5.0;" x1="1473.8848" x2="1473.8848" y1="151.1875" y2="1758.7344"/><line style="stroke:#0B3D3A;stroke-width:0.5;stroke-dasharray:5.0,5.0;" x1="1788.249" x2="1788.249" y1="151.1875" y2="1758.7344"/><text fill="#000000" font-family="Helvetica" font-size="14" lengthAdjust="spacing" textLength="89.7627" x="45.4209" y="131.5889">D&#233;veloppeur</text><text fill="#000000" font-family="Helvetica" font-size="14" lengthAdjust="spacing" textLength="170.6045" x="5" y="147.8857">(Environnement B, GPU)</text><ellipse cx="93.3022" cy="67.0938" fill="#FFFFFF" rx="8" ry="8" style="stroke:#0B3D3A;stroke-width:0.5;"/><path d="M93.3022,75.0938 L93.3022,102.0938 M80.3022,83.0938 L106.3022,83.0938 M93.3022,102.0938 L80.3022,117.0938 M93.3022,102.0938 L106.3022,117.0938 " fill="none" style="stroke:#0B3D3A;stroke-width:0.5;"/><text fill="#000000" font-family="Helvetica" font-size="14" lengthAdjust="spacing" textLength="89.7627" x="45.4209" y="1770.7295">D&#233;veloppeur</text><text fill="#000000" font-family="Helvetica" font-size="14" lengthAdjust="spacing" textLength="170.6045" x="5" y="1787.0264">(Environnement B, GPU)</text><ellipse cx="93.3022" cy="1798.8281" fill="#FFFFFF" rx="8" ry="8" style="stroke:#0B3D3A;stroke-width:0.5;"/><path d="M93.3022,1806.8281 L93.3022,1833.8281 M80.3022,1814.8281 L106.3022,1814.8281 M93.3022,1833.8281 L80.3022,1848.8281 M93.3022,1833.8281 L106.3022,1848.8281 " fill="none" style="stroke:#0B3D3A;stroke-width:0.5;"/><rect fill="#FFFFFF" height="46.5938" rx="3" ry="3" style="stroke:#0B3D3A;stroke-width:0.5;" width="289.2285" x="246.3867" y="103.5938"/><text fill="#10241F" font-family="Helvetica" font-size="14" font-weight="bold" lengthAdjust="spacing" textLength="151.7236" x="315.1392" y="123.5889">E3_03_dpo_train.py</text><text fill="#10241F" font-family="Helvetica" font-size="14" font-weight="bold" lengthAdjust="spacing" textLength="275.2285" x="253.3867" y="139.8857">[FAIT] jamais ex&#233;cut&#233; sur GPU r&#233;el</text><rect fill="#FFFFFF" height="46.5938" rx="3" ry="3" style="stroke:#0B3D3A;stroke-width:0.5;" width="289.2285" x="246.3867" y="1757.7344"/><text fill="#10241F" font-family="Helvetica" font-size="14" font-weight="bold" lengthAdjust="spacing" textLength="151.7236" x="315.1392" y="1777.7295">E3_03_dpo_train.py</text><text fill="#10241F" font-family="Helvetica" font-size="14" font-weight="bold" lengthAdjust="spacing" textLength="275.2285" x="253.3867" y="1794.0264">[FAIT] jamais ex&#233;cut&#233; sur GPU r&#233;el</text><rect fill="#FFFFFF" height="30.2969" rx="3" ry="3" style="stroke:#0B3D3A;stroke-width:0.5;" width="287.0547" x="545.6152" y="119.8906"/><text fill="#10241F" font-family="Helvetica" font-size="14" font-weight="bold" lengthAdjust="spacing" textLength="273.0547" x="552.6152" y="139.8857">ReformulerPreferenceDpoUseCase</text><rect fill="#FFFFFF" height="30.2969" rx="3" ry="3" style="stroke:#0B3D3A;stroke-width:0.5;" width="287.0547" x="545.6152" y="1757.7344"/><text fill="#10241F" font-family="Helvetica" font-size="14" font-weight="bold" lengthAdjust="spacing" textLength="273.0547" x="552.6152" y="1777.7295">ReformulerPreferenceDpoUseCase</text><rect fill="#FFFFFF" height="46.5938" rx="3" ry="3" style="stroke:#0B3D3A;stroke-width:0.5;" width="252.0068" x="856.8359" y="103.5938"/><text fill="#10241F" font-family="Helvetica" font-size="14" font-weight="bold" lengthAdjust="spacing" textLength="231.2666" x="867.2061" y="123.5889">validation_reformulation_dpo</text><text fill="#10241F" font-family="Helvetica" font-size="14" font-weight="bold" lengthAdjust="spacing" textLength="238.0068" x="863.8359" y="139.8857">(parser_reformulation_stricte)</text><rect fill="#FFFFFF" height="46.5938" rx="3" ry="3" style="stroke:#0B3D3A;stroke-width:0.5;" width="252.0068" x="856.8359" y="1757.7344"/><text fill="#10241F" font-family="Helvetica" font-size="14" font-weight="bold" lengthAdjust="spacing" textLength="231.2666" x="867.2061" y="1777.7295">validation_reformulation_dpo</text><text fill="#10241F" font-family="Helvetica" font-size="14" font-weight="bold" lengthAdjust="spacing" textLength="238.0068" x="863.8359" y="1794.0264">(parser_reformulation_stricte)</text><rect fill="#FFFFFF" height="46.5938" rx="3" ry="3" style="stroke:#0B3D3A;stroke-width:0.5;" width="199.042" x="1118.8428" y="103.5938"/><text fill="#10241F" font-family="Helvetica" font-size="14" font-weight="bold" lengthAdjust="spacing" textLength="185.042" x="1125.8428" y="123.5889">JsonlDatasetRepository</text><text fill="#10241F" font-family="Helvetica" font-size="14" font-weight="bold" lengthAdjust="spacing" textLength="143.2676" x="1146.73" y="139.8857">(pivot anonymis&#233;)</text><rect fill="#FFFFFF" height="46.5938" rx="3" ry="3" style="stroke:#0B3D3A;stroke-width:0.5;" width="199.042" x="1118.8428" y="1757.7344"/><text fill="#10241F" font-family="Helvetica" font-size="14" font-weight="bold" lengthAdjust="spacing" textLength="185.042" x="1125.8428" y="1777.7295">JsonlDatasetRepository</text><text fill="#10241F" font-family="Helvetica" font-size="14" font-weight="bold" lengthAdjust="spacing" textLength="143.2676" x="1146.73" y="1794.0264">(pivot anonymis&#233;)</text><rect fill="#FFFFFF" height="30.2969" rx="3" ry="3" style="stroke:#0B3D3A;stroke-width:0.5;" width="293.3643" x="1327.8848" y="119.8906"/><text fill="#10241F" font-family="Helvetica" font-size="14" font-weight="bold" lengthAdjust="spacing" textLength="279.3643" x="1334.8848" y="139.8857">TransformersLoraInferenceAdapter</text><rect fill="#FFFFFF" height="30.2969" rx="3" ry="3" style="stroke:#0B3D3A;stroke-width:0.5;" width="293.3643" x="1327.8848" y="1757.7344"/><text fill="#10241F" font-family="Helvetica" font-size="14" font-weight="bold" lengthAdjust="spacing" textLength="279.3643" x="1334.8848" y="1777.7295">TransformersLoraInferenceAdapter</text><rect fill="#FFFFFF" height="30.2969" rx="3" ry="3" style="stroke:#0B3D3A;stroke-width:0.5;" width="314.9521" x="1631.249" y="119.8906"/><text fill="#10241F" font-family="Helvetica" font-size="14" font-weight="bold" lengthAdjust="spacing" textLength="300.9521" x="1638.249" y="139.8857">JsonlPreferenceReformuleeRepository</text><rect fill="#FFFFFF" height="30.2969" rx="3" ry="3" style="stroke:#0B3D3A;stroke-width:0.5;" width="314.9521" x="1631.249" y="1757.7344"/><text fill="#10241F" font-family="Helvetica" font-size="14" font-weight="bold" lengthAdjust="spacing" textLength="300.9521" x="1638.249" y="1777.7295">JsonlPreferenceReformuleeRepository</text><rect fill="#EFEAE0" height="1431.3203" style="stroke:#0B3D3A;stroke-width:1;" width="10" x="386.001" y="244.0156"/><rect fill="#EFEAE0" height="897.5078" style="stroke:#0B3D3A;stroke-width:1;" width="10" x="684.1426" y="725.4141"/><rect fill="#EFEAE0" height="122.4688" style="stroke:#0B3D3A;stroke-width:1;" width="10" x="977.8394" y="1162.7422"/><rect fill="#EFEAE0" height="26.8047" style="stroke:#0B3D3A;stroke-width:1;" width="10" x="1469.5669" y="991.9766"/><polygon fill="#0B3D3A" points="374.001,240.0156,384.001,244.0156,374.001,248.0156,378.001,244.0156" style="stroke:#0B3D3A;stroke-width:1;"/><line style="stroke:#0B3D3A;stroke-width:1.2;" x1="93.3022" x2="380.001" y1="244.0156" y2="244.0156"/><text fill="#10241F" font-family="Helvetica" font-size="11" font-weight="bold" lengthAdjust="spacing" textLength="11.8325" x="102.8022" y="207.4097">1.</text><text fill="#10241F" font-family="Helvetica" font-size="11" lengthAdjust="spacing" textLength="13.4814" x="208.8584" y="175.3979">uv</text><text fill="#10241F" font-family="Helvetica" font-size="11" lengthAdjust="spacing" textLength="3.4966" x="222.3398" y="175.3979">&#160;</text><text fill="#10241F" font-family="Helvetica" font-size="11" lengthAdjust="spacing" textLength="18.4658" x="225.8364" y="175.3979">run</text><text fill="#10241F" font-family="Helvetica" font-size="11" lengthAdjust="spacing" textLength="3.4966" x="244.3022" y="175.3979">&#160;</text><text fill="#10241F" font-family="Helvetica" font-size="11" lengthAdjust="spacing" textLength="38.4785" x="247.7988" y="175.3979">python</text><text fill="#10241F" font-family="Helvetica" font-size="11" lengthAdjust="spacing" textLength="154.0537" x="170.541" y="188.2026">training/E3_03_dpo_train.py</text><text fill="#10241F" font-family="Helvetica" font-size="11" lengthAdjust="spacing" textLength="47.4375" x="223.8491" y="201.0073">--recette</text><text fill="#10241F" font-family="Helvetica" font-size="11" lengthAdjust="spacing" textLength="163.5605" x="165.7876" y="213.812">recipes/dpo_qwen3_lora.yaml</text><text fill="#10241F" font-family="Helvetica" font-size="11" lengthAdjust="spacing" textLength="49.5269" x="222.8044" y="226.6167">--dataset</text><text fill="#10241F" font-family="Helvetica" font-size="11" lengthAdjust="spacing" textLength="257.8662" x="118.6348" y="239.4214">data/processed/dataset_pivot_anonymise.jsonl</text><polygon fill="#0B3D3A" points="1206.3638,279.625,1216.3638,283.625,1206.3638,287.625,1210.3638,283.625" style="stroke:#0B3D3A;stroke-width:1;"/><line style="stroke:#0B3D3A;stroke-width:1.2;" x1="396.001" x2="1212.3638" y1="283.625" y2="283.625"/><text fill="#10241F" font-family="Helvetica" font-size="11" font-weight="bold" lengthAdjust="spacing" textLength="11.8325" x="724.5408" y="272.6284">2.</text><text fill="#10241F" font-family="Helvetica" font-size="11" lengthAdjust="spacing" textLength="118.3628" x="740.3733" y="266.2261">new(chemin=dataset</text><text fill="#10241F" font-family="Helvetica" font-size="11" lengthAdjust="spacing" textLength="3.4966" x="858.7361" y="266.2261">&#160;</text><text fill="#10241F" font-family="Helvetica" font-size="11" lengthAdjust="spacing" textLength="27.5913" x="862.2327" y="266.2261">pivot</text><text fill="#10241F" font-family="Helvetica" font-size="11" lengthAdjust="spacing" textLength="64.4854" x="782.856" y="279.0308">anonymis&#233;)</text><polygon fill="#0B3D3A" points="1776.7251,306.4297,1786.7251,310.4297,1776.7251,314.4297,1780.7251,310.4297" style="stroke:#0B3D3A;stroke-width:1;"/><line style="stroke:#0B3D3A;stroke-width:1.2;" x1="396.001" x2="1782.7251" y1="310.4297" y2="310.4297"/><text fill="#10241F" font-family="Helvetica" font-size="11" font-weight="bold" lengthAdjust="spacing" textLength="11.8325" x="943.4287" y="305.8354">3.</text><text fill="#10241F" font-family="Helvetica" font-size="11" lengthAdjust="spacing" textLength="282.0361" x="959.2612" y="305.8354">new(chemin=dataset_dpo_chosen_reformule.jsonl)</text><polygon fill="#0B3D3A" points="1462.5669,346.0391,1472.5669,350.0391,1462.5669,354.0391,1466.5669,350.0391" style="stroke:#0B3D3A;stroke-width:1;"/><line style="stroke:#0B3D3A;stroke-width:1.2;" x1="396.001" x2="1468.5669" y1="350.0391" y2="350.0391"/><text fill="#10241F" font-family="Helvetica" font-size="11" font-weight="bold" lengthAdjust="spacing" textLength="11.8325" x="800.5938" y="339.0425">4.</text><text fill="#10241F" font-family="Helvetica" font-size="11" lengthAdjust="spacing" textLength="253.5479" x="816.4263" y="332.6401">new(depot_lora=checkpoint_politique_depart,</text><text fill="#10241F" font-family="Helvetica" font-size="11" lengthAdjust="spacing" textLength="188.9067" x="848.7468" y="345.4448">nom_modele_base=modele_base)</text><path d="M1479,366.0391 L1479,460.0391 A3,3 0 0 0 1482,463.0391 L1798,463.0391 A3,3 0 0 0 1801,460.0391 L1801,373.0391 L1791,363.0391 L1482,363.0391 A3,3 0 0 0 1479,366.0391 " fill="#FDF6EC" style="stroke:#C98A1E;stroke-width:0.5;"/><path d="M1791,363.0391 L1791,371.5391 A1.5,1.5 0 0 0 1792.5,373.0391 L1801,373.0391 L1791,363.0391 " fill="#FDF6EC" style="stroke:#C98A1E;stroke-width:0.5;"/><text fill="#4A3400" font-family="Helvetica" font-size="13" lengthAdjust="spacing" textLength="281.106" x="1485" y="380.106">[FAIT, &#201;tape 2, r&#233;utilis&#233; SANS modification]</text><text fill="#4A3400" font-family="Helvetica" font-size="13" lengthAdjust="spacing" textLength="237.8086" x="1485" y="395.2388">Charge le mod&#232;le de base bf16 PUIS</text><text fill="#4A3400" font-family="Helvetica" font-size="13" lengthAdjust="spacing" textLength="282.9468" x="1485" y="410.3716">peft.PeftModel.from_pretrained(depot_lora)</text><text fill="#4A3400" font-family="Helvetica" font-size="13" lengthAdjust="spacing" textLength="280.4648" x="1485" y="425.5044">par-dessus, dans son constructeur. &#201;choue</text><text fill="#4A3400" font-family="Helvetica" font-size="13" lengthAdjust="spacing" textLength="301.5835" x="1485" y="440.6372">explicitement (RuntimeError) sans GPU CUDA,</text><text fill="#4A3400" font-family="Helvetica" font-size="13" lengthAdjust="spacing" textLength="247.3618" x="1485" y="455.77">jamais de repli silencieux vers le CPU.</text><polygon fill="#0B3D3A" points="677.1426,509.25,687.1426,513.25,677.1426,517.25,681.1426,513.25" style="stroke:#0B3D3A;stroke-width:1;"/><line style="stroke:#0B3D3A;stroke-width:1.2;" x1="396.001" x2="683.1426" y1="513.25" y2="513.25"/><text fill="#10241F" font-family="Helvetica" font-size="11" font-weight="bold" lengthAdjust="spacing" textLength="11.8325" x="408.7705" y="495.8511">5.</text><text fill="#10241F" font-family="Helvetica" font-size="11" lengthAdjust="spacing" textLength="118.5562" x="491.21" y="483.0464">new(moteur=Moteur,</text><text fill="#10241F" font-family="Helvetica" font-size="11" lengthAdjust="spacing" textLength="213.1733" x="443.9014" y="495.8511">repository_reformule=RepoReformule,</text><text fill="#10241F" font-family="Helvetica" font-size="11" lengthAdjust="spacing" textLength="251.77" x="424.603" y="508.6558">taille_cible=recette.reformulation.taille_cible)</text><polygon fill="#0B3D3A" points="1206.3638,587.2734,1216.3638,591.2734,1206.3638,595.2734,1210.3638,591.2734" style="stroke:#0B3D3A;stroke-width:1;"/><line style="stroke:#0B3D3A;stroke-width:1.2;" x1="396.001" x2="1212.3638" y1="591.2734" y2="591.2734"/><text fill="#10241F" font-family="Helvetica" font-size="11" font-weight="bold" lengthAdjust="spacing" textLength="11.8325" x="723.8372" y="561.0698">6.</text><text fill="#10241F" font-family="Helvetica" font-size="11" lengthAdjust="spacing" textLength="110.5049" x="739.6697" y="535.4604">lister(filtre={"split":</text><text fill="#10241F" font-family="Helvetica" font-size="11" lengthAdjust="spacing" textLength="3.4966" x="850.1746" y="535.4604">&#160;</text><text fill="#10241F" font-family="Helvetica" font-size="11" lengthAdjust="spacing" textLength="36.8564" x="853.6711" y="535.4604">TRAIN,</text><text fill="#10241F" font-family="Helvetica" font-size="11" lengthAdjust="spacing" textLength="91.4644" x="750.0923" y="548.2651">"type_exemple":</text><text fill="#10241F" font-family="Helvetica" font-size="11" lengthAdjust="spacing" textLength="3.4966" x="841.5566" y="548.2651">&#160;</text><text fill="#10241F" font-family="Helvetica" font-size="11" lengthAdjust="spacing" textLength="35.0518" x="845.0532" y="548.2651">DPO})</text><text fill="#10241F" font-family="Helvetica" font-size="11" lengthAdjust="spacing" textLength="9.2168" x="753.4895" y="561.0698">+</text><text fill="#10241F" font-family="Helvetica" font-size="11" lengthAdjust="spacing" textLength="3.4966" x="762.7063" y="561.0698">&#160;</text><text fill="#10241F" font-family="Helvetica" font-size="11" lengthAdjust="spacing" textLength="110.5049" x="766.2029" y="561.0698">lister(filtre={"split":</text><text fill="#10241F" font-family="Helvetica" font-size="11" lengthAdjust="spacing" textLength="70.7642" x="779.7166" y="573.8745">VALIDATION,</text><text fill="#10241F" font-family="Helvetica" font-size="11" lengthAdjust="spacing" textLength="91.4644" x="750.0923" y="586.6792">"type_exemple":</text><text fill="#10241F" font-family="Helvetica" font-size="11" lengthAdjust="spacing" textLength="3.4966" x="841.5566" y="586.6792">&#160;</text><text fill="#10241F" font-family="Helvetica" font-size="11" lengthAdjust="spacing" textLength="35.0518" x="845.0532" y="586.6792">DPO})</text><path d="M401,607.2734 L401,671.2734 A3,3 0 0 0 404,674.2734 L704,674.2734 A3,3 0 0 0 707,671.2734 L707,614.2734 L697,604.2734 L404,604.2734 A3,3 0 0 0 401,607.2734 " fill="#FDF6EC" style="stroke:#C98A1E;stroke-width:0.5;"/><path d="M697,604.2734 L697,612.7734 A1.5,1.5 0 0 0 698.5,614.2734 L707,614.2734 L697,604.2734 " fill="#FDF6EC" style="stroke:#C98A1E;stroke-width:0.5;"/><text fill="#4A3400" font-family="Helvetica" font-size="13" lengthAdjust="spacing" textLength="265.478" x="407" y="621.3403">itertools.chain des deux splits : jamais le</text><text fill="#4A3400" font-family="Helvetica" font-size="13" lengthAdjust="spacing" textLength="285.0732" x="407" y="636.4731">split test (cahier des charges &#167;9, "ne jamais</text><text fill="#4A3400" font-family="Helvetica" font-size="13" lengthAdjust="spacing" textLength="243.3374" x="407" y="651.606">m&#233;langer donn&#233;es d'entra&#238;nement et</text><text fill="#4A3400" font-family="Helvetica" font-size="13" lengthAdjust="spacing" textLength="91.2539" x="407" y="666.7388">d'&#233;valuation")</text><polygon fill="#0B3D3A" points="407.001,694.6094,397.001,698.6094,407.001,702.6094,403.001,698.6094" style="stroke:#0B3D3A;stroke-width:1;"/><line style="stroke:#0B3D3A;stroke-width:1.2;stroke-dasharray:2.0,2.0;" x1="401.001" x2="1217.3638" y1="698.6094" y2="698.6094"/><text fill="#10241F" font-family="Helvetica" font-size="11" font-weight="bold" lengthAdjust="spacing" textLength="11.8325" x="736.282" y="694.0151">7.</text><text fill="#10241F" font-family="Helvetica" font-size="11" lengthAdjust="spacing" textLength="125.9683" x="752.1145" y="694.0151">Iterable[ExemplePivot]</text><polygon fill="#0B3D3A" points="672.1426,721.4141,682.1426,725.4141,672.1426,729.4141,676.1426,725.4141" style="stroke:#0B3D3A;stroke-width:1;"/><line style="stroke:#0B3D3A;stroke-width:1.2;" x1="396.001" x2="678.1426" y1="725.4141" y2="725.4141"/><text fill="#10241F" font-family="Helvetica" font-size="11" font-weight="bold" lengthAdjust="spacing" textLength="11.8325" x="436.5125" y="720.8198">8.</text><text fill="#10241F" font-family="Helvetica" font-size="11" lengthAdjust="spacing" textLength="191.2861" x="452.345" y="720.8198">executer(candidats_reformulation)</text><polygon fill="#0B3D3A" points="1776.7251,748.2188,1786.7251,752.2188,1776.7251,756.2188,1780.7251,752.2188" style="stroke:#0B3D3A;stroke-width:1;"/><line style="stroke:#0B3D3A;stroke-width:1.2;" x1="694.1426" x2="1782.7251" y1="752.2188" y2="752.2188"/><text fill="#10241F" font-family="Helvetica" font-size="11" font-weight="bold" lengthAdjust="spacing" textLength="11.8325" x="1170.4932" y="747.6245">9.</text><text fill="#10241F" font-family="Helvetica" font-size="11" lengthAdjust="spacing" textLength="126.0488" x="1186.3257" y="747.6245">identifiants_existants()</text><polygon fill="#0B3D3A" points="705.1426,775.0234,695.1426,779.0234,705.1426,783.0234,701.1426,779.0234" style="stroke:#0B3D3A;stroke-width:1;"/><line style="stroke:#0B3D3A;stroke-width:1.2;stroke-dasharray:2.0,2.0;" x1="699.1426" x2="1787.7251" y1="779.0234" y2="779.0234"/><text fill="#10241F" font-family="Helvetica" font-size="11" font-weight="bold" lengthAdjust="spacing" textLength="19.4863" x="1209.7102" y="774.4292">10.</text><text fill="#10241F" font-family="Helvetica" font-size="11" lengthAdjust="spacing" textLength="39.9609" x="1233.1965" y="774.4292">set[str]</text><path d="M699,795.0234 L699,889.0234 A3,3 0 0 0 702,892.0234 L1054,892.0234 A3,3 0 0 0 1057,889.0234 L1057,802.0234 L1047,792.0234 L702,792.0234 A3,3 0 0 0 699,795.0234 " fill="#FDF6EC" style="stroke:#C98A1E;stroke-width:0.5;"/><path d="M1047,792.0234 L1047,800.5234 A1.5,1.5 0 0 0 1048.5,802.0234 L1057,802.0234 L1047,792.0234 " fill="#FDF6EC" style="stroke:#C98A1E;stroke-width:0.5;"/><text fill="#4A3400" font-family="Helvetica" font-size="13" lengthAdjust="spacing" textLength="273.9521" x="705" y="809.0903">Filtre sur type_exemple==DPO, exclut les</text><text fill="#4A3400" font-family="Helvetica" font-size="13" lengthAdjust="spacing" textLength="268.8296" x="705" y="824.2231">identifiants d&#233;j&#224; reformul&#233;s, puis borne &#224;</text><text fill="#4A3400" font-family="Helvetica" font-size="13" lengthAdjust="spacing" textLength="237.8467" x="705" y="839.356">taille_cible - (d&#233;j&#224; reformul&#233;s) : cible</text><text fill="#4A3400" font-family="Helvetica" font-size="13" lengthAdjust="spacing" textLength="337.0542" x="705" y="854.4888">CUMULATIVE (comme E1_05_00_decouper_splits.py</text><text fill="#4A3400" font-family="Helvetica" font-size="13" lengthAdjust="spacing" textLength="278.4463" x="705" y="869.6216">--n), pas une limite par ex&#233;cution. No-op si</text><text fill="#4A3400" font-family="Helvetica" font-size="13" lengthAdjust="spacing" textLength="88.8164" x="705" y="884.7544">d&#233;j&#224; complet.</text><path d="M518.6152,904.8203 L592.2393,904.8203 L592.2393,911.9531 L582.2393,921.9531 L515.6152,921.9531 L515.6152,907.8203 A3,3 0 0 1 518.6152,904.8203 " fill="#EEEEEE" style="stroke:#000000;stroke-width:1.5;"/><rect fill="none" height="572.1563" rx="3" ry="3" style="stroke:#0B3D3A;stroke-width:1.5;" width="1115.6338" x="515.6152" y="904.8203"/><text fill="#000000" font-family="Helvetica" font-size="13" font-weight="bold" lengthAdjust="spacing" textLength="31.624" x="530.6152" y="917.8872">loop</text><text fill="#000000" font-family="Helvetica" font-size="11" font-weight="bold" lengthAdjust="spacing" textLength="194.3477" x="607.2393" y="917.0308">[pour chaque candidat restant]</text><polygon fill="#0B3D3A" points="1457.5669,987.9766,1467.5669,991.9766,1457.5669,995.9766,1461.5669,991.9766" style="stroke:#0B3D3A;stroke-width:1;"/><line style="stroke:#0B3D3A;stroke-width:1.2;" x1="694.1426" x2="1463.5669" y1="991.9766" y2="991.9766"/><text fill="#10241F" font-family="Helvetica" font-size="11" font-weight="bold" lengthAdjust="spacing" textLength="19.4863" x="965.4558" y="961.7729">11.</text><text fill="#10241F" font-family="Helvetica" font-size="11" lengthAdjust="spacing" textLength="93.7847" x="1018.2656" y="936.1636">generer([{"role":</text><text fill="#10241F" font-family="Helvetica" font-size="11" lengthAdjust="spacing" textLength="3.4966" x="1112.0503" y="936.1636">&#160;</text><text fill="#10241F" font-family="Helvetica" font-size="11" lengthAdjust="spacing" textLength="53.3833" x="1115.5469" y="936.1636">"system",</text><text fill="#10241F" font-family="Helvetica" font-size="11" lengthAdjust="spacing" textLength="55.9399" x="1065.6279" y="948.9683">"content":</text><text fill="#10241F" font-family="Helvetica" font-size="11" lengthAdjust="spacing" textLength="209.3115" x="988.9421" y="961.7729">PROMPT_REFORMULATION_CHOSEN},</text><text fill="#10241F" font-family="Helvetica" font-size="11" lengthAdjust="spacing" textLength="41.8999" x="1022.3772" y="974.5776">{"role":</text><text fill="#10241F" font-family="Helvetica" font-size="11" lengthAdjust="spacing" textLength="3.4966" x="1064.2771" y="974.5776">&#160;</text><text fill="#10241F" font-family="Helvetica" font-size="11" lengthAdjust="spacing" textLength="37.6084" x="1067.7737" y="974.5776">"user",</text><text fill="#10241F" font-family="Helvetica" font-size="11" lengthAdjust="spacing" textLength="3.4966" x="1105.3821" y="974.5776">&#160;</text><text fill="#10241F" font-family="Helvetica" font-size="11" lengthAdjust="spacing" textLength="55.9399" x="1108.8787" y="974.5776">"content":</text><text fill="#10241F" font-family="Helvetica" font-size="11" lengthAdjust="spacing" textLength="135.5879" x="1025.804" y="987.3823">texte_chosen_original}])</text><polygon fill="#0B3D3A" points="705.1426,1014.7813,695.1426,1018.7813,705.1426,1022.7813,701.1426,1018.7813" style="stroke:#0B3D3A;stroke-width:1;"/><line style="stroke:#0B3D3A;stroke-width:1.2;stroke-dasharray:2.0,2.0;" x1="699.1426" x2="1473.5669" y1="1018.7813" y2="1018.7813"/><text fill="#10241F" font-family="Helvetica" font-size="11" font-weight="bold" lengthAdjust="spacing" textLength="19.4863" x="1028.9177" y="1014.187">12.</text><text fill="#10241F" font-family="Helvetica" font-size="11" lengthAdjust="spacing" textLength="87.3877" x="1052.4041" y="1014.187">ReponseModele</text><path d="M528.6152,1033.7813 L590.0581,1033.7813 L590.0581,1040.9141 L580.0581,1050.9141 L525.6152,1050.9141 L525.6152,1036.7813 A3,3 0 0 1 528.6152,1033.7813 " fill="#EEEEEE" style="stroke:#000000;stroke-width:1.5;"/><rect fill="none" height="436.1953" rx="3" ry="3" style="stroke:#0B3D3A;stroke-width:1.5;" width="843.624" x="525.6152" y="1033.7813"/><text fill="#000000" font-family="Helvetica" font-size="13" font-weight="bold" lengthAdjust="spacing" textLength="19.4429" x="540.6152" y="1046.8481">alt</text><text fill="#000000" font-family="Helvetica" font-size="11" font-weight="bold" lengthAdjust="spacing" textLength="194.1758" x="605.0581" y="1045.9917">[&#233;chec d'inf&#233;rence (exception)]</text><line style="stroke:#0B3D3A;stroke-width:1.2;" x1="694.1426" x2="736.1426" y1="1108.1328" y2="1108.1328"/><line style="stroke:#0B3D3A;stroke-width:1.2;" x1="736.1426" x2="736.1426" y1="1108.1328" y2="1121.1328"/><line style="stroke:#0B3D3A;stroke-width:1.2;" x1="695.1426" x2="736.1426" y1="1121.1328" y2="1121.1328"/><polygon fill="#0B3D3A" points="705.1426,1117.1328,695.1426,1121.1328,705.1426,1125.1328,701.1426,1121.1328" style="stroke:#0B3D3A;stroke-width:1;"/><text fill="#10241F" font-family="Helvetica" font-size="11" font-weight="bold" lengthAdjust="spacing" textLength="19.4863" x="701.1426" y="1084.3315">13.</text><text fill="#10241F" font-family="Helvetica" font-size="11" lengthAdjust="spacing" textLength="166.9927" x="724.6289" y="1065.1245">nombre_echecs_reformulation</text><text fill="#10241F" font-family="Helvetica" font-size="11" lengthAdjust="spacing" textLength="18.4336" x="793.6609" y="1077.9292">+=</text><text fill="#10241F" font-family="Helvetica" font-size="11" lengthAdjust="spacing" textLength="3.4966" x="812.0945" y="1077.9292">&#160;</text><text fill="#10241F" font-family="Helvetica" font-size="11" lengthAdjust="spacing" textLength="6.9985" x="815.5911" y="1077.9292">1</text><text fill="#10241F" font-family="Helvetica" font-size="11" lengthAdjust="spacing" textLength="51.8579" x="741.4163" y="1090.7339">(exemple</text><text fill="#10241F" font-family="Helvetica" font-size="11" lengthAdjust="spacing" textLength="3.4966" x="793.2742" y="1090.7339">&#160;</text><text fill="#10241F" font-family="Helvetica" font-size="11" lengthAdjust="spacing" textLength="38.5269" x="796.7708" y="1090.7339">ignor&#233;,</text><text fill="#10241F" font-family="Helvetica" font-size="11" lengthAdjust="spacing" textLength="3.4966" x="835.2976" y="1090.7339">&#160;</text><text fill="#10241F" font-family="Helvetica" font-size="11" lengthAdjust="spacing" textLength="36.04" x="838.7942" y="1090.7339">jamais</text><text fill="#10241F" font-family="Helvetica" font-size="11" lengthAdjust="spacing" textLength="57.5728" x="757.7256" y="1103.5386">d'exemple</text><text fill="#10241F" font-family="Helvetica" font-size="11" lengthAdjust="spacing" textLength="3.4966" x="815.2983" y="1103.5386">&#160;</text><text fill="#10241F" font-family="Helvetica" font-size="11" lengthAdjust="spacing" textLength="39.73" x="818.7949" y="1103.5386">partiel)</text><line style="stroke:#0B3D3A;stroke-width:1;stroke-dasharray:2.0,2.0;" x1="525.6152" x2="1369.2393" y1="1130.1328" y2="1130.1328"/><text fill="#000000" font-family="Helvetica" font-size="11" font-weight="bold" lengthAdjust="spacing" textLength="117.4712" x="530.6152" y="1140.3433">[inf&#233;rence r&#233;ussie]</text><polygon fill="#0B3D3A" points="965.8394,1158.7422,975.8394,1162.7422,965.8394,1166.7422,969.8394,1162.7422" style="stroke:#0B3D3A;stroke-width:1;"/><line style="stroke:#0B3D3A;stroke-width:1.2;" x1="694.1426" x2="971.8394" y1="1162.7422" y2="1162.7422"/><text fill="#10241F" font-family="Helvetica" font-size="11" font-weight="bold" lengthAdjust="spacing" textLength="19.4863" x="703.6426" y="1158.1479">14.</text><text fill="#10241F" font-family="Helvetica" font-size="11" lengthAdjust="spacing" textLength="241.2104" x="727.1289" y="1158.1479">parser_reformulation_stricte(reponse.texte)</text><path d="M992,1178.7422 L992,1257.7422 A3,3 0 0 0 995,1260.7422 L1356,1260.7422 A3,3 0 0 0 1359,1257.7422 L1359,1185.7422 L1349,1175.7422 L995,1175.7422 A3,3 0 0 0 992,1178.7422 " fill="#FDF6EC" style="stroke:#C98A1E;stroke-width:0.5;"/><path d="M1349,1175.7422 L1349,1184.2422 A1.5,1.5 0 0 0 1350.5,1185.7422 L1359,1185.7422 L1349,1175.7422 " fill="#FDF6EC" style="stroke:#C98A1E;stroke-width:0.5;"/><text fill="#4A3400" font-family="Helvetica" font-size="13" lengthAdjust="spacing" textLength="275.0503" x="998" y="1192.8091">Fonction pure : extrait &lt;think&gt;...&lt;/think&gt;</text><text fill="#4A3400" font-family="Helvetica" font-size="13" lengthAdjust="spacing" textLength="281.3027" x="998" y="1207.9419">puis parse le reste comme JSON strict avec</text><text fill="#4A3400" font-family="Helvetica" font-size="13" lengthAdjust="spacing" textLength="346.2393" x="998" y="1223.0747">EXACTEMENT niveau/categorie/ressources_estimees.</text><text fill="#4A3400" font-family="Helvetica" font-size="13" lengthAdjust="spacing" textLength="271.8892" x="998" y="1238.2075">Retourne None (jamais une exception) au</text><text fill="#4A3400" font-family="Helvetica" font-size="13" lengthAdjust="spacing" textLength="163.998" x="998" y="1253.3403">moindre &#233;cart de format.</text><polygon fill="#0B3D3A" points="705.1426,1281.2109,695.1426,1285.2109,705.1426,1289.2109,701.1426,1285.2109" style="stroke:#0B3D3A;stroke-width:1;"/><line style="stroke:#0B3D3A;stroke-width:1.2;stroke-dasharray:2.0,2.0;" x1="699.1426" x2="981.8394" y1="1285.2109" y2="1285.2109"/><text fill="#10241F" font-family="Helvetica" font-size="11" font-weight="bold" lengthAdjust="spacing" textLength="19.4863" x="755.8655" y="1280.6167">15.</text><text fill="#10241F" font-family="Helvetica" font-size="11" lengthAdjust="spacing" textLength="84.0898" x="779.3518" y="1280.6167">tuple[Message,</text><text fill="#10241F" font-family="Helvetica" font-size="11" lengthAdjust="spacing" textLength="3.4966" x="863.4417" y="1280.6167">&#160;</text><text fill="#10241F" font-family="Helvetica" font-size="11" lengthAdjust="spacing" textLength="14.7813" x="866.9382" y="1280.6167">...]</text><text fill="#10241F" font-family="Helvetica" font-size="11" lengthAdjust="spacing" textLength="3.4966" x="881.7195" y="1280.6167">&#160;</text><text fill="#10241F" font-family="Helvetica" font-size="11" lengthAdjust="spacing" textLength="3.7061" x="885.2161" y="1280.6167">|</text><text fill="#10241F" font-family="Helvetica" font-size="11" lengthAdjust="spacing" textLength="3.4966" x="888.9221" y="1280.6167">&#160;</text><text fill="#10241F" font-family="Helvetica" font-size="11" lengthAdjust="spacing" textLength="28.6978" x="892.4187" y="1280.6167">None</text><path d="M538.6152,1300.2109 L600.0581,1300.2109 L600.0581,1307.3438 L590.0581,1317.3438 L535.6152,1317.3438 L535.6152,1303.2109 A3,3 0 0 1 538.6152,1300.2109 " fill="#EEEEEE" style="stroke:#000000;stroke-width:1.5;"/><rect fill="none" height="162.7656" rx="3" ry="3" style="stroke:#0B3D3A;stroke-width:1.5;" width="378.0063" x="535.6152" y="1300.2109"/><text fill="#000000" font-family="Helvetica" font-size="13" font-weight="bold" lengthAdjust="spacing" textLength="19.4429" x="550.6152" y="1313.2778">alt</text><text fill="#000000" font-family="Helvetica" font-size="11" font-weight="bold" lengthAdjust="spacing" textLength="150.8042" x="615.0581" y="1312.4214">[None (format invalide)]</text><line style="stroke:#0B3D3A;stroke-width:1.2;" x1="694.1426" x2="736.1426" y1="1348.9531" y2="1348.9531"/><line style="stroke:#0B3D3A;stroke-width:1.2;" x1="736.1426" x2="736.1426" y1="1348.9531" y2="1361.9531"/><line style="stroke:#0B3D3A;stroke-width:1.2;" x1="695.1426" x2="736.1426" y1="1361.9531" y2="1361.9531"/><polygon fill="#0B3D3A" points="705.1426,1357.9531,695.1426,1361.9531,705.1426,1365.9531,701.1426,1361.9531" style="stroke:#0B3D3A;stroke-width:1;"/><text fill="#10241F" font-family="Helvetica" font-size="11" font-weight="bold" lengthAdjust="spacing" textLength="19.4863" x="701.1426" y="1337.9565">16.</text><text fill="#10241F" font-family="Helvetica" font-size="11" lengthAdjust="spacing" textLength="166.9927" x="724.6289" y="1331.5542">nombre_echecs_reformulation</text><text fill="#10241F" font-family="Helvetica" font-size="11" lengthAdjust="spacing" textLength="18.4336" x="793.6609" y="1344.3589">+=</text><text fill="#10241F" font-family="Helvetica" font-size="11" lengthAdjust="spacing" textLength="3.4966" x="812.0945" y="1344.3589">&#160;</text><text fill="#10241F" font-family="Helvetica" font-size="11" lengthAdjust="spacing" textLength="6.9985" x="815.5911" y="1344.3589">1</text><line style="stroke:#0B3D3A;stroke-width:1;stroke-dasharray:2.0,2.0;" x1="535.6152" x2="913.6216" y1="1370.9531" y2="1370.9531"/><text fill="#000000" font-family="Helvetica" font-size="11" font-weight="bold" lengthAdjust="spacing" textLength="93.2637" x="540.6152" y="1381.1636">[format valide]</text><line style="stroke:#0B3D3A;stroke-width:1.2;" x1="694.1426" x2="736.1426" y1="1441.9766" y2="1441.9766"/><line style="stroke:#0B3D3A;stroke-width:1.2;" x1="736.1426" x2="736.1426" y1="1441.9766" y2="1454.9766"/><line style="stroke:#0B3D3A;stroke-width:1.2;" x1="695.1426" x2="736.1426" y1="1454.9766" y2="1454.9766"/><polygon fill="#0B3D3A" points="705.1426,1450.9766,695.1426,1454.9766,705.1426,1458.9766,701.1426,1454.9766" style="stroke:#0B3D3A;stroke-width:1;"/><text fill="#10241F" font-family="Helvetica" font-size="11" font-weight="bold" lengthAdjust="spacing" textLength="19.4863" x="701.1426" y="1418.1753">17.</text><text fill="#10241F" font-family="Helvetica" font-size="11" lengthAdjust="spacing" textLength="108.8721" x="751.0869" y="1398.9683">reformules.append(</text><text fill="#10241F" font-family="Helvetica" font-size="11" lengthAdjust="spacing" textLength="161.7881" x="724.6289" y="1411.7729">ChosenReformule(identifiant,</text><text fill="#10241F" font-family="Helvetica" font-size="11" lengthAdjust="spacing" textLength="102.1421" x="754.4519" y="1424.5776">chosen_reformule,</text><text fill="#10241F" font-family="Helvetica" font-size="11" lengthAdjust="spacing" textLength="58.9263" x="776.0598" y="1437.3823">horloge()))</text><polygon fill="#0B3D3A" points="1776.7251,1498.7813,1786.7251,1502.7813,1776.7251,1506.7813,1780.7251,1502.7813" style="stroke:#0B3D3A;stroke-width:1;"/><line style="stroke:#0B3D3A;stroke-width:1.2;" x1="694.1426" x2="1782.7251" y1="1502.7813" y2="1502.7813"/><text fill="#10241F" font-family="Helvetica" font-size="11" font-weight="bold" lengthAdjust="spacing" textLength="19.4863" x="1133.3064" y="1498.187">18.</text><text fill="#10241F" font-family="Helvetica" font-size="11" lengthAdjust="spacing" textLength="192.7686" x="1156.7927" y="1498.187">sauvegarder_plusieurs(reformules)</text><path d="M1793,1518.7813 L1793,1582.7813 A3,3 0 0 0 1796,1585.7813 L2118,1585.7813 A3,3 0 0 0 2121,1582.7813 L2121,1525.7813 L2111,1515.7813 L1796,1515.7813 A3,3 0 0 0 1793,1518.7813 " fill="#FDF6EC" style="stroke:#C98A1E;stroke-width:0.5;"/><path d="M2111,1515.7813 L2111,1524.2813 A1.5,1.5 0 0 0 2112.5,1525.7813 L2121,1525.7813 L2111,1515.7813 " fill="#FDF6EC" style="stroke:#C98A1E;stroke-width:0.5;"/><text fill="#4A3400" font-family="Helvetica" font-size="13" lengthAdjust="spacing" textLength="307.4043" x="1799" y="1532.8481">Un seul appel group&#233; (jamais un sauvegarder()</text><text fill="#4A3400" font-family="Helvetica" font-size="13" lengthAdjust="spacing" textLength="296.5752" x="1799" y="1547.981">par item dans la boucle, cf. AGENTS.md, co&#251;t</text><text fill="#4A3400" font-family="Helvetica" font-size="13" lengthAdjust="spacing" textLength="296.8101" x="1799" y="1563.1138">O(n&#178;) sur JsonlDatasetRepository/adaptateurs</text><text fill="#4A3400" font-family="Helvetica" font-size="13" lengthAdjust="spacing" textLength="56.875" x="1799" y="1578.2466">d&#233;riv&#233;s).</text><polygon fill="#0B3D3A" points="407.001,1618.9219,397.001,1622.9219,407.001,1626.9219,403.001,1622.9219" style="stroke:#0B3D3A;stroke-width:1;"/><line style="stroke:#0B3D3A;stroke-width:1.2;stroke-dasharray:2.0,2.0;" x1="401.001" x2="688.1426" y1="1622.9219" y2="1622.9219"/><text fill="#10241F" font-family="Helvetica" font-size="11" font-weight="bold" lengthAdjust="spacing" textLength="19.4863" x="458.907" y="1611.9253">19.</text><text fill="#10241F" font-family="Helvetica" font-size="11" lengthAdjust="spacing" textLength="107.8462" x="482.3933" y="1605.5229">nombre_reformules</text><text fill="#10241F" font-family="Helvetica" font-size="11" lengthAdjust="spacing" textLength="3.4966" x="590.2395" y="1605.5229">&#160;</text><text fill="#10241F" font-family="Helvetica" font-size="11" lengthAdjust="spacing" textLength="32.5005" x="593.7361" y="1605.5229">(cette</text><text fill="#10241F" font-family="Helvetica" font-size="11" lengthAdjust="spacing" textLength="58.4268" x="525.1016" y="1618.3276">ex&#233;cution)</text><polygon fill="#0B3D3A" points="104.3022,1671.3359,94.3022,1675.3359,104.3022,1679.3359,100.3022,1675.3359" style="stroke:#0B3D3A;stroke-width:1;"/><line style="stroke:#0B3D3A;stroke-width:1.2;stroke-dasharray:2.0,2.0;" x1="98.3022" x2="390.001" y1="1675.3359" y2="1675.3359"/><text fill="#10241F" font-family="Helvetica" font-size="11" font-weight="bold" lengthAdjust="spacing" textLength="19.4863" x="150.6343" y="1657.937">20.</text><text fill="#10241F" font-family="Helvetica" font-size="11" lengthAdjust="spacing" textLength="16.7686" x="174.1206" y="1645.1323">log</text><text fill="#10241F" font-family="Helvetica" font-size="11" lengthAdjust="spacing" textLength="3.4966" x="190.8892" y="1645.1323">&#160;</text><text fill="#10241F" font-family="Helvetica" font-size="11" lengthAdjust="spacing" textLength="58.3569" x="194.3857" y="1645.1323">"exemples</text><text fill="#10241F" font-family="Helvetica" font-size="11" lengthAdjust="spacing" textLength="3.4966" x="252.7427" y="1645.1323">&#160;</text><text fill="#10241F" font-family="Helvetica" font-size="11" lengthAdjust="spacing" textLength="64.7163" x="256.2393" y="1645.1323">reformul&#233;s"</text><text fill="#10241F" font-family="Helvetica" font-size="11" lengthAdjust="spacing" textLength="3.4966" x="320.9556" y="1645.1323">&#160;</text><text fill="#10241F" font-family="Helvetica" font-size="11" lengthAdjust="spacing" textLength="9.2168" x="324.4521" y="1645.1323">+</text><text fill="#10241F" font-family="Helvetica" font-size="11" lengthAdjust="spacing" textLength="43.3931" x="181.812" y="1657.937">"&#233;checs</text><text fill="#10241F" font-family="Helvetica" font-size="11" lengthAdjust="spacing" textLength="3.4966" x="225.2051" y="1657.937">&#160;</text><text fill="#10241F" font-family="Helvetica" font-size="11" lengthAdjust="spacing" textLength="13.75" x="228.7017" y="1657.937">de</text><text fill="#10241F" font-family="Helvetica" font-size="11" lengthAdjust="spacing" textLength="3.4966" x="242.4517" y="1657.937">&#160;</text><text fill="#10241F" font-family="Helvetica" font-size="11" lengthAdjust="spacing" textLength="80.0293" x="245.9482" y="1657.937">reformulation"</text><text fill="#10241F" font-family="Helvetica" font-size="11" lengthAdjust="spacing" textLength="32.5005" x="206.6829" y="1670.7417">(cette</text><text fill="#10241F" font-family="Helvetica" font-size="11" lengthAdjust="spacing" textLength="3.4966" x="239.1833" y="1670.7417">&#160;</text><text fill="#10241F" font-family="Helvetica" font-size="11" lengthAdjust="spacing" textLength="58.4268" x="242.6799" y="1670.7417">ex&#233;cution)</text><path d="M1324,1691.3359 L1324,1740.3359 A3,3 0 0 0 1327,1743.3359 L1934,1743.3359 A3,3 0 0 0 1937,1740.3359 L1937,1698.3359 L1927,1688.3359 L1327,1688.3359 A3,3 0 0 0 1324,1691.3359 " fill="#FDF6EC" style="stroke:#C98A1E;stroke-width:0.5;"/><path d="M1927,1688.3359 L1927,1696.8359 A1.5,1.5 0 0 0 1928.5,1698.3359 L1937,1698.3359 L1927,1688.3359 " fill="#FDF6EC" style="stroke:#C98A1E;stroke-width:0.5;"/><text fill="#4A3400" font-family="Helvetica" font-size="13" lengthAdjust="spacing" textLength="251.8369" x="1440.6765" y="1705.4028">rejected n'est ni lu ni &#233;crit ici (d&#233;cision</text><text fill="#4A3400" font-family="Helvetica" font-size="13" lengthAdjust="spacing" textLength="266.7983" x="1440.6765" y="1720.5356">d&#233;lib&#233;r&#233;e : seul chosen est reformul&#233;, cf.</text><text fill="#4A3400" font-family="Helvetica" font-size="13" lengthAdjust="spacing" textLength="370.9634" x="1440.6765" y="1735.6685">docs/04_etape3_dpo/00_introduction_concepts.md &#167;3.2).</text><!--SRC=[fLXDRoF74RtpLrIOmmwnv51h9J5Yh1PW9AwjnUe3-bW4a8H1QwP8zNgcUzpTGqjmrlVy2zzYNNpmDJVpZ-Lrpt0uv4fEW02x_EgkxgfNhrxLw0zIfNcLCSNn6F-IL1U5LcEsJkOwbbMHztfEkfnf-KydIgPTYWvEJmRq5Hr8CJUYA9XWRfUFtrMiKhvMPppJfgXouQHMb5MKtcdBYaPlwBMxa-hRDo_VdPySKpJTJNPs_4bfBgnbIyl7r4Y73-m8Rsxvo7P8xoP7ayDpudiiL-4tifMXhqyloU0R71IfquRw1yl71UUwBBaorogQgeKqMYakM3dwsz1R3FeaB1tmejUxrVVKTqP89TMyJtzykpETJh_i4PN2E9dAKi2gxttSJR9I9s5hN3vSgwktayEB6_ee2Y7jsgzDhy95- -yFUwmombtDXQ8iSva6QCQLvIGL2FpPsrTGiZarF6FZ0JuezQNbVTY5AoxtrvkUl-lP6nOYbrdOafXktdp8m11xBPkj9UkCJ1tNM7ve3zYwNQgP4TXQfQuoF1QPA1sRvsDzPxNA3uH3OEwCIsqbalhWVP0BxKWehHuA2PxLz_ejftvb-vmB8vJrxkAozzg8GzK0Dwaz2DP7se4aJxgmHhe5bjV-j7UtY-kmHUMqgefR1XTVtxxPYVkz7gZcYGyYWEVLWaobg7nmTwYC5VV6Jt7inz6F8yCfEyU4Trco7ViTtttFQZV94LVy88gytfZLg95_7vT6funooiRDpqa0C5a1oF577wOl6haGEDwJjESTX9yjgl1MyVTHUiU5L7kh2pvBHTUkHUH9sn1VhGGjdHfNsbFgh3Jc6Ovq8T8zd9H-Msgf48lEfPEGcWJhoDtmMYbT98NEEEVa5ZVjTJuFUafx0ENypf6UhTCUIdYuqhGlXhvcAqYU3uhE9yVdX5FahAcU6rZitmapPq9qM5d-d0VLytVGxUpLN-Zqyl3SqubdBZx5ov5t8fuP-5OQ3ddbh1FJeERUA4EgAeXS1j8ImA1Kgxfeu6WC1m5PnTZCzxwOeOv1pQApIZbPyDGORGPalRMNdltBWyaGknjjoZnvO4TMvc2qvEgU5gWB7yR-wMKSkEiXQWdGbPCc4KK0RQ_6RkWFR6fXdSUzZVmZ9qx873b8vIqM6nx76oeITxSCdYGWie5wZMOoTuRtVkXRHEBwNz75sUJmU0ZnVYWvuNikofpnCzhIfy6rUlcitOV9-yE3oSNXoNF6MspnXK44o8tJEhTnUeSi0bEFAu0CnrhusO2T-pI57qFpeYWLTn8eUeCqiCVIR__wA-vMtDZ0e5W-vaBD_Jxqgj3TiXT8iH7BNvhMnLxZiXVeRYAlQZaVh3EtHcpK2iqXV1R0zMfQ1nZMRvvBCb100mDYgL2P5tExAVY3jLPiT9lUnZbFg83Cu3wg2E9gWJNIuZz5Wzxcnj7dBa4mhb06DriPsRYUw6t8SEYxtNJkxI6RGuI5oSOXBHxchYkKBHy_Bd-YLP3BHnHWMI65jzeWDykVOD2b9uqe-jmcJ2v-sQl3vT7bUr3hmnHfrtucchvATlwC-GOwbUggH1Ej-G9rn_xHI0rm9tf9XGjpMO1bNWzMquGl43hM8rsYT7tswzjnDE9ptRhDDVQK6X20Oz15MYKHhWQyORsTfrPdvwpGwanqzKFVw507VVk0uYdwO2cKo04q_7XwTd9qUf6SJT-UdDLndXmd-z-Sd4-FFw7OryQOQCocgUDxnolTrqYaL2B_TEFbhoLLgygDNq_mmHD6MGwgwl7EUDlQ7vWxFqAYMQ1QC7ui7qCRfmXCuB9cCj7dS6nhdYvk3SZa3zgg17gvHwymaZH48pbN6frZsEhjYzLAc2iuznToZYRHSSUt6cibF-dBUfo29xytVKMcXYGE2DU1jPXqXZB_-sOHRIsYZBHAmuqb1hMW1xvVkTMq7iVnwt7ziJ48jHASyut4yuofPdqOx6iFIImuRGocVv_iNqoFfiSNfEI2HJL6O-Kv-C1Zc5lG5pDBufyw2cORDsPdxB220ZdMU8aQa7t5h3DAecfs5nWGCWG02W1yt_iyRCBLfxKLuxzqK7w2RAv21g-Eu9UOyn1FHl4D_IFu48mxtEj0MIS03AnzhQz6siE0tUJd_wPU7OddKtD-VVh_TdZRhMsC9mFW4Lsh_L2OxRQe8vD3sfxMXdIdJQxd70q6WnMelVhL__-l_S2AQi5pOJAGkimhr41bRBJsQxi1RyxP252XCLGvUVTpcXleAiQrDI-w5qJDXENxTr6FLxc0m5Uf3oITnJJv6dmyZuiCN_NotrueJoBrsw-3q52UVXof7sE4LnnRoxAH2zyBEfAyYKBRavlShgD5fmZZ_Lho1xqEjpPRRUZSECi_Js0oqdFgDr9ZkpsfJo-fNsjWC_rrADI7SltkbU598AH0OqgarSItdGR37naAX71V-3b7ISeh_re_lXEcrD0kKsbhZS7dNDu2AamteRSZXStV1BpzslsG5s-WKplU-LF2VZeFJqPZD5AC_qPdLP2g11t6Au15-Z1KxSPVT3Fm7m00]--></g></svg>