<svg xmlns="http://www.w3.org/2000/svg" xmlns:xlink="http://www.w3.org/1999/xlink" contentStyleType="text/css" height="1231px" preserveAspectRatio="none" style="width:1267px;height:1231px;background:#F6F4EF;" version="1.1" viewBox="0 0 1267 1231" width="1267px" zoomAndPan="magnify"><title>&#201;tape 2 : Pipeline SFT + LoRA</title><defs/><g><rect fill="#F6F4EF" height="1231" style="stroke:none;stroke-width:1;" width="1267" x="0" y="0"/><text fill="#000000" font-family="Helvetica" font-size="14" font-weight="bold" lengthAdjust="spacing" textLength="234.5205" x="515.0244" y="32.9951">&#201;tape 2 : Pipeline SFT + LoRA</text><text fill="#000000" font-family="Helvetica" font-size="14" font-weight="bold" lengthAdjust="spacing" textLength="1224.5693" x="20" y="49.292">Diagramme d'activit&#233; : E2_00 &#224; E2_03 et TrlSftEntraineurAdapter/E2_04_sft_train.py &#233;crits et test&#233;s (jamais ex&#233;cut&#233;s sur GPU r&#233;el, cf. docs/03_etape2_sft/)</text><ellipse cx="377.1692" cy="73.5938" fill="#0B3D3A" rx="10" ry="10" style="stroke:#222222;stroke-width:1;"/><path d="M519.0188,99.2813 L519.0188,130.5469 L499.0188,134.5469 L519.0188,138.5469 L519.0188,169.8125 A0,0 0 0 0 519.0188,169.8125 L790.1863,169.8125 A0,0 0 0 0 790.1863,169.8125 L790.1863,109.2813 L780.1863,99.2813 L519.0188,99.2813 A0,0 0 0 0 519.0188,99.2813 " fill="#FDF6EC" style="stroke:#C98A1E;stroke-width:0.5;"/><path d="M780.1863,99.2813 L780.1863,109.2813 L790.1863,109.2813 L780.1863,99.2813 " fill="#FDF6EC" style="stroke:#C98A1E;stroke-width:0.5;"/><text fill="#4A3400" font-family="Helvetica" font-size="13" lengthAdjust="spacing" textLength="226.2559" x="525.0188" y="116.3481">Contexte, pas construit ici : fournit</text><text fill="#4A3400" font-family="Helvetica" font-size="13" lengthAdjust="spacing" textLength="250.1675" x="525.0188" y="131.481">les m&#233;triques de r&#233;f&#233;rence auxquelles</text><text fill="#4A3400" font-family="Helvetica" font-size="13" lengthAdjust="spacing" textLength="242.874" x="525.0188" y="146.6138">comparer le checkpoint SFT en fin de</text><text fill="#4A3400" font-family="Helvetica" font-size="13" lengthAdjust="spacing" textLength="55.707" x="525.0188" y="161.7466">pipeline.</text><rect fill="#FFFFFF" height="61.9063" rx="3" ry="3" style="stroke:#0B3D3A;stroke-width:0.5;" width="243.6992" x="255.3196" y="103.5938"/><text fill="#10241F" font-family="Helvetica" font-size="12" lengthAdjust="spacing" textLength="212.2031" x="265.3196" y="124.7324">&#201;tape 1bis (baseline) z&#233;ro/few-shot</text><text fill="#10241F" font-family="Helvetica" font-size="12" lengthAdjust="spacing" textLength="223.6992" x="265.3196" y="138.7012">de Qwen3-1.7B-Base (hors p&#233;rim&#232;tre</text><text fill="#10241F" font-family="Helvetica" font-size="12" lengthAdjust="spacing" textLength="110.2617" x="265.3196" y="152.6699">de ce diagramme)</text><path d="M532.4075,179.8125 L532.4075,218.6445 L512.4075,222.6445 L532.4075,226.6445 L532.4075,265.4766 A0,0 0 0 0 532.4075,265.4766 L789.3816,265.4766 A0,0 0 0 0 789.3816,265.4766 L789.3816,189.8125 L779.3816,179.8125 L532.4075,179.8125 A0,0 0 0 0 532.4075,179.8125 " fill="#FDF6EC" style="stroke:#C98A1E;stroke-width:0.5;"/><path d="M779.3816,179.8125 L779.3816,189.8125 L789.3816,189.8125 L779.3816,179.8125 " fill="#FDF6EC" style="stroke:#C98A1E;stroke-width:0.5;"/><text fill="#4A3400" font-family="Helvetica" font-size="13" lengthAdjust="spacing" textLength="235.9741" x="538.4075" y="196.8794">Source : dataset HF Hub (Livrable 1,</text><text fill="#4A3400" font-family="Helvetica" font-size="13" lengthAdjust="spacing" textLength="147.3228" x="538.4075" y="212.0122">pas encore pouss&#233;) ou</text><text fill="#4A3400" font-family="Helvetica" font-size="13" lengthAdjust="spacing" textLength="183.2251" x="538.4075" y="227.145">data/splits/*.jsonl transf&#233;r&#233;s</text><text fill="#4A3400" font-family="Helvetica" font-size="13" lengthAdjust="spacing" textLength="118.4473" x="538.4075" y="242.2778">manuellement, cf.</text><text fill="#4A3400" font-family="Helvetica" font-size="13" lengthAdjust="spacing" textLength="231.5054" x="538.4075" y="257.4106">01_installation_configuration.md &#167;4</text><rect fill="#FFFFFF" height="47.9375" rx="3" ry="3" style="stroke:#0B3D3A;stroke-width:0.5;" width="270.4766" x="241.9309" y="198.6758"/><text fill="#10241F" font-family="Helvetica" font-size="12" lengthAdjust="spacing" textLength="250.4766" x="251.9309" y="219.8145">Charger dataset SFT anonymis&#233; + r&#233;parti</text><text fill="#10241F" font-family="Helvetica" font-size="12" lengthAdjust="spacing" textLength="59.127" x="251.9309" y="233.7832">(train/val)</text><rect fill="#E8F0F5" height="835.0391" rx="3" ry="3" style="stroke:#0B3D3A;stroke-width:1.5;" width="857.3247" x="205.1223" y="275.4766"/><path d="M622.6877,275.4766 L622.6877,301.0703 L612.6877,311.0703 L205.1223,311.0703 " fill="none" style="stroke:#0B3D3A;stroke-width:1.5;"/><text fill="#0B3D3A" font-family="Helvetica" font-size="14" font-weight="bold" lengthAdjust="spacing" textLength="407.5654" x="208.1223" y="289.4717">training/E2_04_sft_train.py (Environnement B, GPU)</text><text fill="#0B3D3A" font-family="Helvetica" font-size="14" font-weight="bold" lengthAdjust="spacing" textLength="321.6104" x="208.1223" y="305.7686">[FAIT] &#233;crit, jamais ex&#233;cut&#233; sur GPU r&#233;el</text><path d="M557.1575,321.0703 L557.1575,359.9023 L537.1575,363.9023 L557.1575,367.9023 L557.1575,406.7344 A0,0 0 0 0 557.1575,406.7344 L832.635,406.7344 A0,0 0 0 0 832.635,406.7344 L832.635,331.0703 L822.635,321.0703 L557.1575,321.0703 A0,0 0 0 0 557.1575,321.0703 " fill="#FDF6EC" style="stroke:#C98A1E;stroke-width:0.5;"/><path d="M822.635,321.0703 L822.635,331.0703 L832.635,331.0703 L822.635,321.0703 " fill="#FDF6EC" style="stroke:#C98A1E;stroke-width:0.5;"/><text fill="#4A3400" font-family="Helvetica" font-size="13" lengthAdjust="spacing" textLength="235.333" x="563.1575" y="338.1372">[FAIT] Port : FormateurConversation</text><text fill="#4A3400" font-family="Helvetica" font-size="13" lengthAdjust="spacing" textLength="254.4775" x="563.1575" y="353.27">Adaptateur : ChatMLFormateurAdapter</text><text fill="#4A3400" font-family="Helvetica" font-size="13" lengthAdjust="spacing" textLength="145.1138" x="563.1575" y="368.4028">(apply_chat_template,</text><text fill="#4A3400" font-family="Helvetica" font-size="13" lengthAdjust="spacing" textLength="205.5244" x="563.1575" y="383.5356">add_generation_prompt=False)</text><text fill="#4A3400" font-family="Helvetica" font-size="13" lengthAdjust="spacing" textLength="241.9028" x="563.1575" y="398.6685">Testable sans GPU, Environnement A</text><rect fill="#FFFFFF" height="47.9375" rx="3" ry="3" style="stroke:#0B3D3A;stroke-width:0.5;" width="319.9766" x="217.1809" y="339.9336"/><text fill="#10241F" font-family="Helvetica" font-size="12" lengthAdjust="spacing" textLength="232.4414" x="227.1809" y="361.0723">E2_00_uc_formater_dataset_chatml.py</text><text fill="#10241F" font-family="Helvetica" font-size="12" lengthAdjust="spacing" textLength="299.9766" x="227.1809" y="375.041">(FormaterDatasetChatMLUseCase.executer(split))</text><path d="M525.5022,416.7344 L525.5022,463.1328 L505.5022,467.1328 L525.5022,471.1328 L525.5022,517.5313 A0,0 0 0 0 525.5022,517.5313 L890.4563,517.5313 A0,0 0 0 0 890.4563,517.5313 L890.4563,426.7344 L880.4563,416.7344 L525.5022,416.7344 A0,0 0 0 0 525.5022,416.7344 " fill="#FDF6EC" style="stroke:#C98A1E;stroke-width:0.5;"/><path d="M880.4563,416.7344 L880.4563,426.7344 L890.4563,426.7344 L880.4563,416.7344 " fill="#FDF6EC" style="stroke:#C98A1E;stroke-width:0.5;"/><text fill="#4A3400" font-family="Helvetica" font-size="13" lengthAdjust="spacing" textLength="215.3442" x="531.5022" y="433.8013">[FAIT] Pas de cas d'usage d&#233;di&#233; :</text><text fill="#4A3400" font-family="Helvetica" font-size="13" lengthAdjust="spacing" textLength="162.5254" x="531.5022" y="448.9341">responsabilit&#233; interne de</text><text fill="#4A3400" font-family="Helvetica" font-size="13" lengthAdjust="spacing" textLength="266.8428" x="531.5022" y="464.0669">TrlSftEntraineurAdapter (constructeur) +</text><text fill="#4A3400" font-family="Helvetica" font-size="13" lengthAdjust="spacing" textLength="292.189" x="531.5022" y="479.1997">assemblage de recipes/sft_qwen3_lora.yaml.</text><text fill="#4A3400" font-family="Helvetica" font-size="13" lengthAdjust="spacing" textLength="273.1079" x="531.5022" y="494.3325">V&#233;rifi&#233; SANS GPU, jamais ex&#233;cut&#233; sur une</text><text fill="#4A3400" font-family="Helvetica" font-size="13" lengthAdjust="spacing" textLength="343.9541" x="531.5022" y="509.4653">vraie session GPU. Voir 02_etapes_cas_usage.md &#167;1.</text><rect fill="#FFFFFF" height="47.9375" rx="3" ry="3" style="stroke:#0B3D3A;stroke-width:0.5;" width="256.666" x="248.8362" y="443.1641"/><text fill="#10241F" font-family="Helvetica" font-size="12" lengthAdjust="spacing" textLength="236.666" x="258.8362" y="464.3027">Charger Qwen3-1.7B-Base en 4-bit NF4</text><text fill="#10241F" font-family="Helvetica" font-size="12" lengthAdjust="spacing" textLength="144.0762" x="258.8362" y="478.2715">+ configurer LoraConfig</text><path d="M513.6633,527.5313 L513.6633,604.1953 L493.6633,608.1953 L513.6633,612.1953 L513.6633,688.8594 A0,0 0 0 0 513.6633,688.8594 L812.9319,688.8594 A0,0 0 0 0 812.9319,688.8594 L812.9319,537.5313 L802.9319,527.5313 L513.6633,527.5313 A0,0 0 0 0 513.6633,527.5313 " fill="#FDF6EC" style="stroke:#C98A1E;stroke-width:0.5;"/><path d="M802.9319,527.5313 L802.9319,537.5313 L812.9319,537.5313 L802.9319,527.5313 " fill="#FDF6EC" style="stroke:#C98A1E;stroke-width:0.5;"/><text fill="#4A3400" font-family="Helvetica" font-size="13" lengthAdjust="spacing" textLength="265.5605" x="519.6633" y="544.5981">[FAIT] le cas d'usage (test&#233; avec un faux</text><text fill="#4A3400" font-family="Helvetica" font-size="13" lengthAdjust="spacing" textLength="225.9575" x="519.6633" y="559.731">EntraineurSupervise) ; [FAIT] aussi</text><text fill="#4A3400" font-family="Helvetica" font-size="13" lengthAdjust="spacing" textLength="259.6699" x="519.6633" y="574.8638">TrlSftEntraineurAdapter (packing=True,</text><text fill="#4A3400" font-family="Helvetica" font-size="13" lengthAdjust="spacing" textLength="278.2686" x="519.6633" y="589.9966">loss_type=chunked_nll), v&#233;rifi&#233; SANS GPU,</text><text fill="#4A3400" font-family="Helvetica" font-size="13" lengthAdjust="spacing" textLength="276.688" x="519.6633" y="605.1294">jamais ex&#233;cut&#233; sur une vraie session GPU.</text><text fill="#4A3400" font-family="Helvetica" font-size="13" lengthAdjust="spacing" textLength="225.8623" x="519.6633" y="620.2622">Suivi : SuiviExperimentation [FAIT]</text><text fill="#4A3400" font-family="Helvetica" font-size="13" lengthAdjust="spacing" textLength="194.5747" x="519.6633" y="635.395">(MlflowSuiviExperimentation /</text><text fill="#4A3400" font-family="Helvetica" font-size="13" lengthAdjust="spacing" textLength="229.9185" x="519.6633" y="650.5278">TensorboardSuiviExperimentation /</text><text fill="#4A3400" font-family="Helvetica" font-size="13" lengthAdjust="spacing" textLength="246.5366" x="519.6633" y="665.6606">HfDatasetSuiviExperimentation : loss,</text><text fill="#4A3400" font-family="Helvetica" font-size="13" lengthAdjust="spacing" textLength="73.2202" x="519.6633" y="680.7935">grad norm)</text><rect fill="#FFFFFF" height="47.9375" rx="3" ry="3" style="stroke:#0B3D3A;stroke-width:0.5;" width="232.9883" x="260.675" y="584.2266"/><text fill="#10241F" font-family="Helvetica" font-size="12" lengthAdjust="spacing" textLength="157.6406" x="270.675" y="605.3652">E2_01_uc_entrainer_sft.py</text><text fill="#10241F" font-family="Helvetica" font-size="12" lengthAdjust="spacing" textLength="212.9883" x="270.675" y="619.334">(EntrainerSftUseCase.entrainer(...))</text><path d="M530.3625,712.6953 L530.3625,728.8281 L510.3625,732.8281 L530.3625,736.8281 L530.3625,752.9609 A0,0 0 0 0 530.3625,752.9609 L803.0217,752.9609 A0,0 0 0 0 803.0217,752.9609 L803.0217,722.6953 L793.0217,712.6953 L530.3625,712.6953 A0,0 0 0 0 530.3625,712.6953 " fill="#FDF6EC" style="stroke:#C98A1E;stroke-width:0.5;"/><path d="M793.0217,712.6953 L793.0217,722.6953 L803.0217,722.6953 L793.0217,712.6953 " fill="#FDF6EC" style="stroke:#C98A1E;stroke-width:0.5;"/><text fill="#4A3400" font-family="Helvetica" font-size="13" lengthAdjust="spacing" textLength="251.6592" x="536.3625" y="729.7622">[FAIT] Fonction pure, aucun port : lit la</text><text fill="#4A3400" font-family="Helvetica" font-size="13" lengthAdjust="spacing" textLength="235.5869" x="536.3625" y="744.895">courbe d&#233;j&#224; produite par entrainer()</text><rect fill="#FFFFFF" height="47.9375" rx="3" ry="3" style="stroke:#0B3D3A;stroke-width:0.5;" width="266.3867" x="243.9758" y="708.8594"/><text fill="#10241F" font-family="Helvetica" font-size="12" lengthAdjust="spacing" textLength="246.3867" x="253.9758" y="729.998">evaluer_convergence(courbe_metriques)</text><text fill="#10241F" font-family="Helvetica" font-size="12" lengthAdjust="spacing" textLength="223.3535" x="253.9758" y="743.9668">(application/verdict_convergence.py)</text><path d="M557.2161,843.5859 L557.2161,852.1523 L537.2161,856.1523 L557.2161,860.1523 L557.2161,868.7188 A0,0 0 0 0 557.2161,868.7188 L1036.447,868.7188 A0,0 0 0 0 1036.447,868.7188 L1036.447,853.5859 L1026.447,843.5859 L557.2161,843.5859 A0,0 0 0 0 557.2161,843.5859 " fill="#FDF6EC" style="stroke:#C98A1E;stroke-width:0.5;"/><path d="M1026.447,843.5859 L1026.447,853.5859 L1036.447,853.5859 L1026.447,843.5859 " fill="#FDF6EC" style="stroke:#C98A1E;stroke-width:0.5;"/><text fill="#4A3400" font-family="Helvetica" font-size="13" lengthAdjust="spacing" textLength="458.231" x="563.2161" y="860.6528">[FAIT] le cas d'usage ; Optuna &#233;cart&#233; pour ce POC (roadmap, Phase 3)</text><rect fill="#FFFFFF" height="61.9063" rx="3" ry="3" style="stroke:#0B3D3A;stroke-width:0.5;" width="320.0938" x="217.1223" y="825.1992"/><text fill="#10241F" font-family="Helvetica" font-size="12" lengthAdjust="spacing" textLength="300.0938" x="227.1223" y="846.3379">E2_02_uc_ajuster_boucle_hyperparametres_sft.py</text><text fill="#10241F" font-family="Helvetica" font-size="12" lengthAdjust="spacing" textLength="265.4063" x="227.1223" y="860.3066">(AjusterBoucleHyperparametresSftUseCase,</text><text fill="#10241F" font-family="Helvetica" font-size="12" lengthAdjust="spacing" textLength="152.127" x="227.1223" y="874.2754">grille restreinte : lr, rang)</text><rect fill="#FFFFFF" height="47.9375" rx="3" ry="3" style="stroke:#0B3D3A;stroke-width:0.5;" width="232.9883" x="260.675" y="934.9102"/><text fill="#10241F" font-family="Helvetica" font-size="12" lengthAdjust="spacing" textLength="157.6406" x="270.675" y="956.0488">E2_01_uc_entrainer_sft.py</text><text fill="#10241F" font-family="Helvetica" font-size="12" lengthAdjust="spacing" textLength="212.9883" x="270.675" y="970.0176">(EntrainerSftUseCase.entrainer(...))</text><polygon fill="#FDF6EC" points="319.7603,776.7969,434.5781,776.7969,446.5781,788.7969,434.5781,800.7969,319.7603,800.7969,307.7603,788.7969,319.7603,776.7969" style="stroke:#C98A1E;stroke-width:0.5;"/><text fill="#10241F" font-family="Helvetica" font-size="11" lengthAdjust="spacing" textLength="299.3257" x="381.1692" y="811.0073">non : surapprentissage / sous-apprentissage / instable</text><text fill="#10241F" font-family="Helvetica" font-size="11" lengthAdjust="spacing" textLength="114.8179" x="319.7603" y="792.605">Convergence saine ?</text><text fill="#10241F" font-family="Helvetica" font-size="11" lengthAdjust="spacing" textLength="16.7578" x="446.5781" y="786.2026">oui</text><polygon fill="#FDF6EC" points="377.1692,1002.8477,389.1692,1014.8477,377.1692,1026.8477,365.1692,1014.8477,377.1692,1002.8477" style="stroke:#C98A1E;stroke-width:0.5;"/><path d="M557.0813,1043.1172 L557.0813,1066.8164 L537.0813,1070.8164 L557.0813,1074.8164 L557.0813,1098.5156 A0,0 0 0 0 557.0813,1098.5156 L907.3787,1098.5156 A0,0 0 0 0 907.3787,1098.5156 L907.3787,1053.1172 L897.3787,1043.1172 L557.0813,1043.1172 A0,0 0 0 0 557.0813,1043.1172 " fill="#FDF6EC" style="stroke:#C98A1E;stroke-width:0.5;"/><path d="M897.3787,1043.1172 L897.3787,1053.1172 L907.3787,1053.1172 L897.3787,1043.1172 " fill="#FDF6EC" style="stroke:#C98A1E;stroke-width:0.5;"/><text fill="#4A3400" font-family="Helvetica" font-size="13" lengthAdjust="spacing" textLength="329.2974" x="563.0813" y="1060.1841">[FAIT] Persiste CheckpointEntraine (m&#233;tadonn&#233;es)</text><text fill="#4A3400" font-family="Helvetica" font-size="13" lengthAdjust="spacing" textLength="263.1802" x="563.0813" y="1075.3169">via RepositoryLectureEcriture : les poids</text><text fill="#4A3400" font-family="Helvetica" font-size="13" lengthAdjust="spacing" textLength="273.7998" x="563.0813" y="1090.4497">LoRA eux-m&#234;mes seront &#233;crits par trl/peft</text><rect fill="#FFFFFF" height="47.9375" rx="3" ry="3" style="stroke:#0B3D3A;stroke-width:0.5;" width="319.8242" x="217.2571" y="1046.8477"/><text fill="#10241F" font-family="Helvetica" font-size="12" lengthAdjust="spacing" textLength="249.6738" x="227.2571" y="1067.9863">E2_03_uc_sauvegarder_checkpoint_sft.py</text><text fill="#10241F" font-family="Helvetica" font-size="12" lengthAdjust="spacing" textLength="299.8242" x="227.2571" y="1081.9551">(SauvegarderCheckpointSftUseCase.executer(...))</text><rect fill="#FFFFFF" height="47.9375" rx="3" ry="3" style="stroke:#0B3D3A;stroke-width:0.5;" width="213.3359" x="270.5012" y="1130.5156"/><text fill="#10241F" font-family="Helvetica" font-size="12" lengthAdjust="spacing" textLength="193.3359" x="280.5012" y="1151.6543">Checkpoint SFT-LoRA disponible</text><text fill="#10241F" font-family="Helvetica" font-size="12" lengthAdjust="spacing" textLength="123.1348" x="280.5012" y="1165.623">pour l'&#201;tape 3 (DPO)</text><ellipse cx="377.1692" cy="1209.4531" fill="none" rx="11" ry="11" style="stroke:#222222;stroke-width:1;"/><ellipse cx="377.1692" cy="1209.4531" fill="#222222" rx="6" ry="6" style="stroke:#222222;stroke-width:1;"/><line style="stroke:#0B3D3A;stroke-width:1.2;" x1="377.1692" x2="377.1692" y1="83.5938" y2="103.5938"/><polygon fill="#0B3D3A" points="373.1692,93.5938,377.1692,103.5938,381.1692,93.5938,377.1692,97.5938" style="stroke:#0B3D3A;stroke-width:1;"/><line style="stroke:#0B3D3A;stroke-width:1.2;" x1="377.1692" x2="377.1692" y1="165.5" y2="198.6758"/><polygon fill="#0B3D3A" points="373.1692,188.6758,377.1692,198.6758,381.1692,188.6758,377.1692,192.6758" style="stroke:#0B3D3A;stroke-width:1;"/><line style="stroke:#0B3D3A;stroke-width:1.2;" x1="377.1692" x2="377.1692" y1="387.8711" y2="443.1641"/><polygon fill="#0B3D3A" points="373.1692,433.1641,377.1692,443.1641,381.1692,433.1641,377.1692,437.1641" style="stroke:#0B3D3A;stroke-width:1;"/><line style="stroke:#0B3D3A;stroke-width:1.2;" x1="377.1692" x2="377.1692" y1="491.1016" y2="584.2266"/><polygon fill="#0B3D3A" points="373.1692,574.2266,377.1692,584.2266,381.1692,574.2266,377.1692,578.2266" style="stroke:#0B3D3A;stroke-width:1;"/><line style="stroke:#0B3D3A;stroke-width:1.2;" x1="377.1692" x2="377.1692" y1="632.1641" y2="708.8594"/><polygon fill="#0B3D3A" points="373.1692,698.8594,377.1692,708.8594,381.1692,698.8594,377.1692,702.8594" style="stroke:#0B3D3A;stroke-width:1;"/><line style="stroke:#0B3D3A;stroke-width:1.2;" x1="377.1692" x2="377.1692" y1="887.1055" y2="934.9102"/><polygon fill="#0B3D3A" points="373.1692,924.9102,377.1692,934.9102,381.1692,924.9102,377.1692,928.9102" style="stroke:#0B3D3A;stroke-width:1;"/><text fill="#10241F" font-family="Helvetica" font-size="11" lengthAdjust="spacing" textLength="132.9722" x="381.1692" y="914.8159">Relancer l'entra&#238;nement</text><line style="stroke:#0B3D3A;stroke-width:1.2;" x1="377.1692" x2="377.1692" y1="800.7969" y2="825.1992"/><polygon fill="#0B3D3A" points="373.1692,815.1992,377.1692,825.1992,381.1692,815.1992,377.1692,819.1992" style="stroke:#0B3D3A;stroke-width:1;"/><line style="stroke:#0B3D3A;stroke-width:1.2;" x1="446.5781" x2="1046.447" y1="788.7969" y2="788.7969"/><polygon fill="#0B3D3A" points="1042.447,894.0234,1046.447,904.0234,1050.447,894.0234,1046.447,898.0234" style="stroke:#0B3D3A;stroke-width:1.2;"/><line style="stroke:#0B3D3A;stroke-width:1.2;" x1="1046.447" x2="1046.447" y1="788.7969" y2="1014.8477"/><line style="stroke:#0B3D3A;stroke-width:1.2;" x1="1046.447" x2="389.1692" y1="1014.8477" y2="1014.8477"/><polygon fill="#0B3D3A" points="399.1692,1010.8477,389.1692,1014.8477,399.1692,1018.8477,395.1692,1014.8477" style="stroke:#0B3D3A;stroke-width:1;"/><line style="stroke:#0B3D3A;stroke-width:1.2;" x1="377.1692" x2="377.1692" y1="982.8477" y2="1002.8477"/><polygon fill="#0B3D3A" points="373.1692,992.8477,377.1692,1002.8477,381.1692,992.8477,377.1692,996.8477" style="stroke:#0B3D3A;stroke-width:1;"/><line style="stroke:#0B3D3A;stroke-width:1.2;" x1="377.1692" x2="377.1692" y1="756.7969" y2="776.7969"/><polygon fill="#0B3D3A" points="373.1692,766.7969,377.1692,776.7969,381.1692,766.7969,377.1692,770.7969" style="stroke:#0B3D3A;stroke-width:1;"/><line style="stroke:#0B3D3A;stroke-width:1.2;" x1="377.1692" x2="377.1692" y1="1026.8477" y2="1046.8477"/><polygon fill="#0B3D3A" points="373.1692,1036.8477,377.1692,1046.8477,381.1692,1036.8477,377.1692,1040.8477" style="stroke:#0B3D3A;stroke-width:1;"/><line style="stroke:#0B3D3A;stroke-width:1.2;" x1="377.1692" x2="377.1692" y1="246.6133" y2="339.9336"/><polygon fill="#0B3D3A" points="373.1692,329.9336,377.1692,339.9336,381.1692,329.9336,377.1692,333.9336" style="stroke:#0B3D3A;stroke-width:1;"/><line style="stroke:#0B3D3A;stroke-width:1.2;" x1="377.1692" x2="377.1692" y1="1094.7852" y2="1130.5156"/><polygon fill="#0B3D3A" points="373.1692,1120.5156,377.1692,1130.5156,381.1692,1120.5156,377.1692,1124.5156" style="stroke:#0B3D3A;stroke-width:1;"/><line style="stroke:#0B3D3A;stroke-width:1.2;" x1="377.1692" x2="377.1692" y1="1178.4531" y2="1198.4531"/><polygon fill="#0B3D3A" points="373.1692,1188.4531,377.1692,1198.4531,381.1692,1188.4531,377.1692,1192.4531" style="stroke:#0B3D3A;stroke-width:1;"/><!--SRC=[fLRBSYCr5DtxAox38crYj_EYe98QgCGJ4weoCs6SOKEeBhbRRIkZbdhqy2HGV01_mGx2We_0FyQHkcqd9XCMLBdATkkqTE-vvzohJuJAfIyufUa0dopNLQNLW5idf4w5hsIduuIJd1Q_EbPpsgD3kX0rbq9n6eykQPlEzPlZA_L2iAbXLSMfs6Av4tFX5dS0d-vbEpkq-2t-s2VkwDB8SUbEbJCCctXpNB3QSJC8W8FCbYwBAsbzIukxt0XdmriECItkB2NNh682ZswmwECZwmrzS_6MpEAEonxbPKg5pkrWPp_Z8UYziEcWs-bOnuphT0xRN7Ods2UPC1kpwT9FYpkZ1oN_qBSpxQuKQFdk0rVx_TtqYvF-2N2KpBInL0CegiKVpl28of7qCltkKKTfnyc8wSnrY8PQENxZU8zgPYdNoZhZXIEH2x1JQc-K23Z9BLMBEsV4Uu-Vs1Nfb3Y8AspF_0qUIu00HP5gPhZ1EvJFUFwkraAvM0skg1GARmDMjsLAErmL5892wiCPCrEyMZ27V9gNcDBgjX8MzTeEfs9p9wvK4iimc3EvcTCOKIEemzKkPoCwynDApiNSi0d2sks5090mejU6KwsznVvTqXuBuRM1hILAE_WilRPQIS9XoePyKL50AgPYlXLNBfOKptPsCm7wc9JC2QqWLbMAgJVnNreLzFVl1_ToZMc49NeMCn5g-fZ6abCr5qOh5S-YarxGKlTA_J0w_lRonrQ2FTgKtKFLFQDFJxySxOm-fvyxYFGmgZxpULPgKp6eEskfol8PSvN4mI1ur2w-QDPG6_Vo_AtbG_nB-Gt7GTmaaQWkQa3qe0f4ROWNsZWKeztD6qXkpesDj4HST5XS0gmvPGLktHTn2QjhUHj3p1olQl3CUt655KKsvOetN6UrWGJTyn6JbdSZu1BsZ9MtA6FWfKSFUJq6R5qRKBHKugR58E63_WGEUJKwk5BRjAmoeEVQi67y-mGPB9ed3rzRth8flBcuAqHeHX5dkAtXGZOHChOeM8SRDBFe6VfOTwAajMuUIElITaEBjRoQo7W8Ok4vB6S7GLxlGrQPHC3fBKEz8_pxq3VA4Chu-DMuOUbHNNdL10Ct2L3AhGqo1ZwbxxKmjBFNT3QR8SyiPjdeVpVTf3aeSJSeaRSfcI3_Hd_BB0qoNibk-In9q_GfrSc792TDWoOsvpdYfn8jAyBNL8vzpSrSG39qjDo5eI-8fuclMVuEtdr-QNohHgcjpTnjpP_dCw_UyI9JKdPxDFytln7_COuVuJVYnnxZ2rQ9twStY5e43KVjju4tVdafIwa_F0eRjBPGLfk9PgPu0dLMjXtWKSnXpBV913CcrDPKtSqwS_HfZ-BcqVpJC3KWMMycFAjuErNGrQB5HHvt7W1OYDpTVmV2UABc8wto65CDF_PGl1oLhfls0pUHP17Td1jyTut1ZsPHOE9X2313QtbjPY1AIeRhGD18mXNZwowv6Lf2eY8JA1mIm4nqmaRP3SXYjFGt7yOvWNRKDATeWhrW0dRjRUZ64-rpoRCPD6GG5WiKmKqhPnmtk9C8Etk8MfkbTwMcHc1AXQQ2fT1A0XEcHvXcqqZaVIeFF-AT8tfTEwzO63OOMX0evgK9rugBrqDAZ6P5nUeUNSn2Wznlakf_HM-uPA0A5u6joElYhwRP7gsp_f_Mvp9SUhGNRRL4kMeg-s5do_oSJw7keBpLLMHzp7YzFbmjtpzoEUJ-ezbSO9u9L8JMkompe2HScrY1IOD9R1joveA1dLfRuRIvFUUvWs1FmoJ7ToWHhbZOfR0H7MwmnFrDlrhyMM75Simjjxfz1jqw8mSrBzrzqVuIxrFtxr_zk5CXmeGHaD-LYeMKM-sDSv-I5nUlaIUkehhk_0C0]--></g></svg>