<svg xmlns="http://www.w3.org/2000/svg" xmlns:xlink="http://www.w3.org/1999/xlink" contentStyleType="text/css" height="815px" preserveAspectRatio="none" style="width:2432px;height:815px;background:#F6F4EF;" version="1.1" viewBox="0 0 2432 815" width="2432px" zoomAndPan="magnify"><title>&#201;tape 2 : Diagramme de d&#233;ploiement</title><defs/><g><rect fill="#F6F4EF" height="815" style="stroke:none;stroke-width:1;" width="2432" x="0" y="0"/><text fill="#000000" font-family="Helvetica" font-size="14" font-weight="bold" lengthAdjust="spacing" textLength="294.3486" x="1052.3257" y="22.9951">&#201;tape 2 : Diagramme de d&#233;ploiement</text><text fill="#000000" font-family="Helvetica" font-size="14" font-weight="bold" lengthAdjust="spacing" textLength="1131.9287" x="633.5356" y="39.292">Environnement B (distant, GPU), entra&#238;nement SFT-LoRA : reste enti&#232;rement [CONCEPTION], seule partie de l'&#201;tape 2 non encore provisionn&#233;e</text><!--cluster HFHUB--><g id="cluster_HFHUB"><path d="M1751.3662,418.5565 C1765.2193,394.617 1787.0938,399.7886 1798.4771,421.1263 C1811.3155,401.4484 1825.4007,400.6108 1840.6876,418.3653 C1856.3015,391.6897 1877.3335,390.2982 1892.5575,418.7323 C1903.2468,397.7594 1918.2003,396.4634 1932.2682,415.3677 C1944.1924,393.1097 1958.8458,387.378 1976.9307,409.1133 C1993.9163,381.718 2011.4163,384.3098 2030.1523,407.2631 C2040.865,386.2801 2062.1944,385.4423 2074.508,405.5343 C2090.1865,382.0641 2111.5473,383.4697 2121.8154,410.5933 C2135.0984,390.4562 2156.2662,390.3274 2165.0604,414.9319 C2177.9856,393.7933 2196.9405,388.8217 2213.0834,411.3971 C2231.6254,396.167 2246.4689,392.2015 2257.7522,419.0944 C2269.1847,394.0778 2291.2428,393.6619 2305.6836,416.0528 C2324.0765,396.6119 2339.9178,398.0702 2353.7768,421.1776 C2363.3808,398.5985 2378.2445,400.0714 2392.8703,416.0916 C2420.046,421.6124 2423.9349,438.5101 2409.1675,459.7042 C2425.2965,478.3998 2420.9469,495.2524 2395.4215,499.5939 C2381.6794,524.2498 2365.0409,523.5147 2350.6512,500.1983 C2340.3473,523.0416 2323.4891,526.0581 2306.9449,506.6541 C2291.064,529.8881 2272.8323,530.7107 2259.4291,504.2834 C2246.3502,529.4355 2228.8539,526.1988 2212.8219,507.4161 C2195.6036,527.3878 2179.0804,532.4084 2162.5882,506.619 C2148.9391,525.191 2132.315,525.2559 2117.8203,507.6658 C2104.6326,531.0474 2089.5418,528.568 2072.6241,511.8723 C2057.9688,529.0634 2043.3356,529.9431 2029.8232,510.5357 C2013.8214,537.4986 1990.3724,531.722 1978.6607,506.3423 C1964.8569,531.7884 1949.6371,532.6521 1931.7493,510.3552 C1919.9617,530.6156 1896.9629,529.7619 1885.2309,510.2901 C1869.8598,526.6483 1851.5323,521.1594 1843.3472,501.8514 C1831.3731,523.3288 1806.6474,526.0539 1792.3923,504.5559 C1776.8654,520.9639 1764.531,517.6394 1753.278,499.6902 C1732.4229,492.1474 1729.0347,475.209 1745.5921,460.3559 C1729.836,444.1611 1732.1682,429.9227 1751.3662,418.5565 " fill="#E7EFEC" style="stroke:#2F7A4F;stroke-width:1;"/><text fill="#0B3D3A" font-family="Helvetica" font-size="12" font-weight="bold" lengthAdjust="spacing" textLength="124.0898" x="2006.9551" y="431.7324">Hugging Face Hub</text></g><!--cluster REMOTE--><g id="cluster_REMOTE"><polygon fill="#EFEAE0" points="562,67.5938,572,57.5938,1730,57.5938,1730,788.0938,1720,798.0938,562,798.0938,562,67.5938" style="stroke:#0B3D3A;stroke-width:1;"/><line style="stroke:#0B3D3A;stroke-width:1;" x1="1720" x2="1730" y1="67.5938" y2="57.5938"/><line style="stroke:#0B3D3A;stroke-width:1;" x1="562" x2="1720" y1="67.5938" y2="67.5938"/><line style="stroke:#0B3D3A;stroke-width:1;" x1="1720" x2="1720" y1="67.5938" y2="798.0938"/><text fill="#0B3D3A" font-family="Helvetica" font-size="12" font-weight="bold" lengthAdjust="spacing" textLength="307.7402" x="988.1299" y="81.7324">Spaces Dev Mode / HF Jobs (GPU A10G ou T4)</text><text fill="#0B3D3A" font-family="Helvetica" font-size="12" font-weight="bold" lengthAdjust="spacing" textLength="116.3086" x="1083.8457" y="95.7012">Environnement B</text></g><!--cluster VENV--><g id="cluster_VENV"><polygon fill="#EFEAE0" points="570,110.5938,580,100.5938,1122,100.5938,1122,780.0938,1112,790.0938,570,790.0938,570,110.5938" style="stroke:#0B3D3A;stroke-width:1;"/><line style="stroke:#0B3D3A;stroke-width:1;" x1="1112" x2="1122" y1="110.5938" y2="100.5938"/><line style="stroke:#0B3D3A;stroke-width:1;" x1="570" x2="1112" y1="110.5938" y2="110.5938"/><line style="stroke:#0B3D3A;stroke-width:1;" x1="1112" x2="1112" y1="110.5938" y2="790.0938"/><text fill="#0B3D3A" font-family="Helvetica" font-size="12" font-weight="bold" lengthAdjust="spacing" textLength="237.123" x="723.4385" y="124.7324">Environnement uv (--extra remote)</text></g><!--entity MLFLOW--><g id="elem_MLFLOW"><polygon fill="#EFEAE0" points="272.5,619.5938,282.5,609.5938,553.4902,609.5938,553.4902,657.5313,543.4902,667.5313,272.5,667.5313,272.5,619.5938" style="stroke:#0B3D3A;stroke-width:0.5;"/><line style="stroke:#0B3D3A;stroke-width:0.5;" x1="543.4902" x2="553.4902" y1="619.5938" y2="609.5938"/><line style="stroke:#0B3D3A;stroke-width:0.5;" x1="272.5" x2="543.4902" y1="619.5938" y2="619.5938"/><line style="stroke:#0B3D3A;stroke-width:0.5;" x1="543.4902" x2="543.4902" y1="619.5938" y2="667.5313"/><text fill="#10241F" font-family="Helvetica" font-size="12" lengthAdjust="spacing" textLength="240.9902" x="287.5" y="640.7324">MLflow (partage avec Environnement A,</text><text fill="#10241F" font-family="Helvetica" font-size="12" lengthAdjust="spacing" textLength="151.2188" x="287.5" y="654.7012">MLFLOW_TRACKING_URI)</text></g><!--entity TB--><g id="elem_TB"><path d="M6,621.0938 C6,611.0938 129.9827,611.0938 129.9827,611.0938 C129.9827,611.0938 253.9653,611.0938 253.9653,621.0938 L253.9653,655.7031 C253.9653,665.7031 129.9827,665.7031 129.9827,665.7031 C129.9827,665.7031 6,665.7031 6,655.7031 L6,621.0938 " fill="#FDF6EC" style="stroke:#C98A1E;stroke-width:0.5;"/><path d="M6,621.0938 C6,631.0938 129.9827,631.0938 129.9827,631.0938 C129.9827,631.0938 253.9653,631.0938 253.9653,621.0938 " fill="none" style="stroke:#C98A1E;stroke-width:0.5;"/><text fill="#4A3400" font-family="Helvetica" font-size="11" lengthAdjust="spacing" textLength="95.96" x="16" y="645.3042">TensorBoard logs</text><text fill="#4A3400" font-family="Helvetica" font-size="11" lengthAdjust="spacing" textLength="227.9653" x="16" y="658.1089">(local au Space, alternative/complement)</text></g><g id="elem_GMN38"><path d="M2038,290.0938 L2038,369.7578 A3,3 0 0 0 2041,372.7578 L2309.4111,372.7578 A3,3 0 0 0 2312.4111,369.7578 L2312.4111,297.0938 L2302.4111,287.0938 L2041,287.0938 A3,3 0 0 0 2038,290.0938 " fill="#FDF6EC" style="stroke:#C98A1E;stroke-width:0.5;"/><path d="M2302.4111,287.0938 L2302.4111,295.5938 A1.5,1.5 0 0 0 2303.9111,297.0938 L2312.4111,297.0938 L2302.4111,287.0938 " fill="#FDF6EC" style="stroke:#C98A1E;stroke-width:1;"/><text fill="#4A3400" font-family="Helvetica" font-size="13" lengthAdjust="spacing" textLength="227.3667" x="2044" y="304.1606">Session GPU facturee a l'usage (cf.</text><text fill="#4A3400" font-family="Helvetica" font-size="13" lengthAdjust="spacing" textLength="253.4111" x="2044" y="319.2935">docs/01_environnement &#167;3.4 discipline</text><text fill="#4A3400" font-family="Helvetica" font-size="13" lengthAdjust="spacing" textLength="250.8721" x="2044" y="334.4263">de facturation), jamais laissee ouverte</text><text fill="#4A3400" font-family="Helvetica" font-size="13" lengthAdjust="spacing" textLength="239.5732" x="2044" y="349.5591">sans surveillance en dehors d'un run</text><text fill="#4A3400" font-family="Helvetica" font-size="13" lengthAdjust="spacing" textLength="191.4517" x="2044" y="364.6919">HF Jobs (qui se termine seul).</text></g><g id="elem_GMN41"><path d="M1738,282.5938 L1738,377.3906 A3,3 0 0 0 1741,380.3906 L2016.8823,380.3906 A3,3 0 0 0 2019.8823,377.3906 L2019.8823,289.5938 L2009.8823,279.5938 L1741,279.5938 A3,3 0 0 0 1738,282.5938 " fill="#FDF6EC" style="stroke:#C98A1E;stroke-width:0.5;"/><path d="M2009.8823,279.5938 L2009.8823,288.0938 A1.5,1.5 0 0 0 2011.3823,289.5938 L2019.8823,289.5938 L2009.8823,279.5938 " fill="#FDF6EC" style="stroke:#C98A1E;stroke-width:1;"/><text fill="#4A3400" font-family="Helvetica" font-size="13" lengthAdjust="spacing" textLength="204.2104" x="1744" y="296.6606">torch / trl / peft / bitsandbytes /</text><text fill="#4A3400" font-family="Helvetica" font-size="13" lengthAdjust="spacing" textLength="241.3252" x="1744" y="311.7935">unsloth / liger-kernel : groupe --extra</text><text fill="#4A3400" font-family="Helvetica" font-size="13" lengthAdjust="spacing" textLength="258.0449" x="1744" y="326.9263">remote de pyproject.toml, DEJA declare</text><text fill="#4A3400" font-family="Helvetica" font-size="13" lengthAdjust="spacing" textLength="187.6558" x="1744" y="342.0591">(pas encore installe dans cet</text><text fill="#4A3400" font-family="Helvetica" font-size="13" lengthAdjust="spacing" textLength="260.8823" x="1744" y="357.1919">environnement au moment de l'ecriture</text><text fill="#4A3400" font-family="Helvetica" font-size="13" lengthAdjust="spacing" textLength="123.5825" x="1744" y="372.3247">de ce diagramme).</text></g><!--entity MODELE--><g id="elem_MODELE"><rect fill="#FCEBE6" height="55.5938" rx="3" ry="3" style="stroke:#C4432B;stroke-width:0.5;" width="154.9268" x="2236.5" y="437.0938"/><polygon fill="#FCEBE6" points="2374.4268,442.0938,2374.4268,456.0938,2386.4268,456.0938,2386.4268,448.0938,2380.4268,442.0938,2374.4268,442.0938" style="stroke:#C4432B;stroke-width:0.5;"/><line style="stroke:#C4432B;stroke-width:0.5;" x1="2380.4268" x2="2380.4268" y1="442.0938" y2="448.0938"/><line style="stroke:#C4432B;stroke-width:0.5;" x1="2386.4268" x2="2380.4268" y1="448.0938" y2="448.0938"/><text fill="#7A2A17" font-family="Helvetica" font-size="14" lengthAdjust="spacing" textLength="124.9268" x="2246.5" y="463.0889">Qwen3-1.7B-Base</text><text fill="#7A2A17" font-family="Helvetica" font-size="14" lengthAdjust="spacing" textLength="102.3135" x="2246.5" y="479.3857">(poids publics)</text></g><!--entity DATASET_HUB--><g id="elem_DATASET_HUB"><rect fill="#FCEBE6" height="55.5938" rx="3" ry="3" style="stroke:#C4432B;stroke-width:0.5;" width="250.1855" x="1968" y="437.0938"/><polygon fill="#FCEBE6" points="2201.1855,442.0938,2201.1855,456.0938,2213.1855,456.0938,2213.1855,448.0938,2207.1855,442.0938,2201.1855,442.0938" style="stroke:#C4432B;stroke-width:0.5;"/><line style="stroke:#C4432B;stroke-width:0.5;" x1="2207.1855" x2="2207.1855" y1="442.0938" y2="448.0938"/><line style="stroke:#C4432B;stroke-width:0.5;" x1="2213.1855" x2="2207.1855" y1="448.0938" y2="448.0938"/><text fill="#7A2A17" font-family="Helvetica" font-size="14" lengthAdjust="spacing" textLength="171.2539" x="1978" y="463.0889">Dataset CHSA versionn&#233;</text><text fill="#7A2A17" font-family="Helvetica" font-size="14" lengthAdjust="spacing" textLength="220.1855" x="1978" y="479.3857">(Livrable 1, pas encore pouss&#233;)</text></g><!--entity REPO_CHECKPOINTS--><g id="elem_REPO_CHECKPOINTS"><path d="M1780,441.5938 C1780,431.5938 1864.8435,431.5938 1864.8435,431.5938 C1864.8435,431.5938 1949.687,431.5938 1949.687,441.5938 L1949.687,489.0078 C1949.687,499.0078 1864.8435,499.0078 1864.8435,499.0078 C1864.8435,499.0078 1780,499.0078 1780,489.0078 L1780,441.5938 " fill="#FDF6EC" style="stroke:#C98A1E;stroke-width:0.5;"/><path d="M1780,441.5938 C1780,451.5938 1864.8435,451.5938 1864.8435,451.5938 C1864.8435,451.5938 1949.687,451.5938 1949.687,441.5938 " fill="none" style="stroke:#C98A1E;stroke-width:0.5;"/><text fill="#4A3400" font-family="Helvetica" font-size="11" lengthAdjust="spacing" textLength="78.3696" x="1790" y="465.8042">Repo modeles</text><text fill="#4A3400" font-family="Helvetica" font-size="11" lengthAdjust="spacing" textLength="149.687" x="1790" y="478.6089">chsa-triage-sft-checkpoints</text><text fill="#4A3400" font-family="Helvetica" font-size="11" lengthAdjust="spacing" textLength="47.4482" x="1790" y="491.4136">(a creer)</text></g><!--entity SPLITS--><g id="elem_SPLITS"><path d="M1486,621.0938 C1486,611.0938 1603.9026,611.0938 1603.9026,611.0938 C1603.9026,611.0938 1721.8052,611.0938 1721.8052,621.0938 L1721.8052,655.7031 C1721.8052,665.7031 1603.9026,665.7031 1603.9026,665.7031 C1603.9026,665.7031 1486,665.7031 1486,655.7031 L1486,621.0938 " fill="#FDF6EC" style="stroke:#C98A1E;stroke-width:0.5;"/><path d="M1486,621.0938 C1486,631.0938 1603.9026,631.0938 1603.9026,631.0938 C1603.9026,631.0938 1721.8052,631.0938 1721.8052,621.0938 " fill="none" style="stroke:#C98A1E;stroke-width:0.5;"/><text fill="#4A3400" font-family="Helvetica" font-size="11" lengthAdjust="spacing" textLength="95.6001" x="1496" y="645.3042">data/splits/*.jsonl</text><text fill="#4A3400" font-family="Helvetica" font-size="11" lengthAdjust="spacing" textLength="215.8052" x="1496" y="658.1089">(ou dataset HF Hub une fois versionne)</text></g><!--entity RECIPE--><g id="elem_RECIPE"><path d="M1130.5,319.0938 C1130.5,309.0938 1218.8911,309.0938 1218.8911,309.0938 C1218.8911,309.0938 1307.2822,309.0938 1307.2822,319.0938 L1307.2822,340.8984 C1307.2822,350.8984 1218.8911,350.8984 1218.8911,350.8984 C1218.8911,350.8984 1130.5,350.8984 1130.5,340.8984 L1130.5,319.0938 " fill="#FDF6EC" style="stroke:#C98A1E;stroke-width:0.5;"/><path d="M1130.5,319.0938 C1130.5,329.0938 1218.8911,329.0938 1218.8911,329.0938 C1218.8911,329.0938 1307.2822,329.0938 1307.2822,319.0938 " fill="none" style="stroke:#C98A1E;stroke-width:0.5;"/><text fill="#4A3400" font-family="Helvetica" font-size="11" lengthAdjust="spacing" textLength="156.7822" x="1140.5" y="343.3042">recipes/sft_qwen3_lora.yaml</text></g><!--entity CKPT_LOCAL--><g id="elem_CKPT_LOCAL"><path d="M1284.5,621.0938 C1284.5,611.0938 1376.1836,611.0938 1376.1836,611.0938 C1376.1836,611.0938 1467.8672,611.0938 1467.8672,621.0938 L1467.8672,655.7031 C1467.8672,665.7031 1376.1836,665.7031 1376.1836,665.7031 C1376.1836,665.7031 1284.5,665.7031 1284.5,655.7031 L1284.5,621.0938 " fill="#FDF6EC" style="stroke:#C98A1E;stroke-width:0.5;"/><path d="M1284.5,621.0938 C1284.5,631.0938 1376.1836,631.0938 1376.1836,631.0938 C1376.1836,631.0938 1467.8672,631.0938 1467.8672,621.0938 " fill="none" style="stroke:#C98A1E;stroke-width:0.5;"/><text fill="#4A3400" font-family="Helvetica" font-size="11" lengthAdjust="spacing" textLength="112.3364" x="1294.5" y="645.3042">checkpoints/sft-lora/</text><text fill="#4A3400" font-family="Helvetica" font-size="11" lengthAdjust="spacing" textLength="163.3672" x="1294.5" y="658.1089">(poids LoRA locaux au Space)</text></g><!--entity CKPT_META--><g id="elem_CKPT_META"><path d="M1132,615.0938 C1132,605.0938 1199.2236,605.0938 1199.2236,605.0938 C1199.2236,605.0938 1266.4473,605.0938 1266.4473,615.0938 L1266.4473,662.5078 C1266.4473,672.5078 1199.2236,672.5078 1199.2236,672.5078 C1199.2236,672.5078 1132,672.5078 1132,662.5078 L1132,615.0938 " fill="#FDF6EC" style="stroke:#C98A1E;stroke-width:0.5;"/><path d="M1132,615.0938 C1132,625.0938 1199.2236,625.0938 1199.2236,625.0938 C1199.2236,625.0938 1266.4473,625.0938 1266.4473,615.0938 " fill="none" style="stroke:#C98A1E;stroke-width:0.5;"/><text fill="#4A3400" font-family="Helvetica" font-size="11" lengthAdjust="spacing" textLength="88.4512" x="1142" y="639.3042">data/processed/</text><text fill="#4A3400" font-family="Helvetica" font-size="11" lengthAdjust="spacing" textLength="114.4473" x="1142" y="652.1089">checkpoints_sft.jsonl</text><text fill="#4A3400" font-family="Helvetica" font-size="11" lengthAdjust="spacing" textLength="84.0415" x="1142" y="664.9136">(metadonnees)</text></g><!--entity CLI--><g id="elem_CLI"><rect fill="#FFFFFF" height="71.9063" rx="3" ry="3" style="stroke:#0B3D3A;stroke-width:0.5;" width="229.5156" x="850" y="129.5938"/><rect fill="#FFFFFF" height="10" style="stroke:#0B3D3A;stroke-width:0.5;" width="15" x="1059.5156" y="134.5938"/><rect fill="#FFFFFF" height="2" style="stroke:#0B3D3A;stroke-width:0.5;" width="4" x="1057.5156" y="136.5938"/><rect fill="#FFFFFF" height="2" style="stroke:#0B3D3A;stroke-width:0.5;" width="4" x="1057.5156" y="140.5938"/><text fill="#10241F" font-family="Helvetica" font-size="12" lengthAdjust="spacing" textLength="118.1777" x="865" y="160.7324">training/sft_train.py</text><text fill="#10241F" font-family="Helvetica" font-size="12" lengthAdjust="spacing" textLength="94.0898" x="865" y="174.7012">(point d'entree)</text><text fill="#10241F" font-family="Helvetica" font-size="12" lengthAdjust="spacing" textLength="189.5156" x="865" y="188.6699">[CONCEPTION] pas encore ecrit</text></g><!--entity APP--><g id="elem_APP"><rect fill="#FFFFFF" height="71.9063" rx="3" ry="3" style="stroke:#0B3D3A;stroke-width:0.5;" width="293.125" x="818.5" y="294.0938"/><rect fill="#FFFFFF" height="10" style="stroke:#0B3D3A;stroke-width:0.5;" width="15" x="1091.625" y="299.0938"/><rect fill="#FFFFFF" height="2" style="stroke:#0B3D3A;stroke-width:0.5;" width="4" x="1089.625" y="301.0938"/><rect fill="#FFFFFF" height="2" style="stroke:#0B3D3A;stroke-width:0.5;" width="4" x="1089.625" y="305.0938"/><text fill="#10241F" font-family="Helvetica" font-size="12" lengthAdjust="spacing" textLength="139.1426" x="833.5" y="325.2324">chsa_triage.application</text><text fill="#10241F" font-family="Helvetica" font-size="12" lengthAdjust="spacing" textLength="253.125" x="833.5" y="339.2012">[FAIT] E2_00-E2_03, verdict_convergence,</text><text fill="#10241F" font-family="Helvetica" font-size="12" lengthAdjust="spacing" textLength="140.1797" x="833.5" y="353.1699">grille_hyperparametres</text></g><!--entity DOM--><g id="elem_DOM"><rect fill="#FFFFFF" height="57.9375" rx="3" ry="3" style="stroke:#0B3D3A;stroke-width:0.5;" width="157.8906" x="675" y="436.0938"/><rect fill="#FFFFFF" height="10" style="stroke:#0B3D3A;stroke-width:0.5;" width="15" x="812.8906" y="441.0938"/><rect fill="#FFFFFF" height="2" style="stroke:#0B3D3A;stroke-width:0.5;" width="4" x="810.8906" y="443.0938"/><rect fill="#FFFFFF" height="2" style="stroke:#0B3D3A;stroke-width:0.5;" width="4" x="810.8906" y="447.0938"/><text fill="#10241F" font-family="Helvetica" font-size="12" lengthAdjust="spacing" textLength="117.8906" x="690" y="467.2324">chsa_triage.domain</text><text fill="#10241F" font-family="Helvetica" font-size="12" lengthAdjust="spacing" textLength="35.3438" x="690" y="481.2012">[FAIT]</text></g><!--entity INFRA--><g id="elem_INFRA"><rect fill="#FFFFFF" height="71.9063" rx="3" ry="3" style="stroke:#0B3D3A;stroke-width:0.5;" width="252.1504" x="851" y="429.0938"/><rect fill="#FFFFFF" height="10" style="stroke:#0B3D3A;stroke-width:0.5;" width="15" x="1083.1504" y="434.0938"/><rect fill="#FFFFFF" height="2" style="stroke:#0B3D3A;stroke-width:0.5;" width="4" x="1081.1504" y="436.0938"/><rect fill="#FFFFFF" height="2" style="stroke:#0B3D3A;stroke-width:0.5;" width="4" x="1081.1504" y="440.0938"/><text fill="#10241F" font-family="Helvetica" font-size="12" lengthAdjust="spacing" textLength="212.1504" x="866" y="460.2324">chsa_triage.infrastructure.adapters</text><text fill="#10241F" font-family="Helvetica" font-size="12" lengthAdjust="spacing" textLength="201.3516" x="866" y="474.2012">[FAIT] chatml/mlflow/tensorboard</text><text fill="#10241F" font-family="Helvetica" font-size="12" lengthAdjust="spacing" textLength="195.4629" x="866" y="488.1699">[CONCEPTION] trl_sft_entraineur</text></g><!--entity HF--><g id="elem_HF"><rect fill="#FFFFFF" height="57.9375" rx="3" ry="3" style="stroke:#0B3D3A;stroke-width:0.5;" width="226.2578" x="728" y="609.5938"/><rect fill="#FFFFFF" height="10" style="stroke:#0B3D3A;stroke-width:0.5;" width="15" x="934.2578" y="614.5938"/><rect fill="#FFFFFF" height="2" style="stroke:#0B3D3A;stroke-width:0.5;" width="4" x="932.2578" y="616.5938"/><rect fill="#FFFFFF" height="2" style="stroke:#0B3D3A;stroke-width:0.5;" width="4" x="932.2578" y="620.5938"/><text fill="#10241F" font-family="Helvetica" font-size="12" lengthAdjust="spacing" textLength="172.834" x="743" y="640.7324">transformers + bitsandbytes</text><text fill="#10241F" font-family="Helvetica" font-size="12" lengthAdjust="spacing" textLength="186.2578" x="743" y="654.7012">(BitsAndBytesConfig 4-bit NF4)</text></g><!--entity PEFT--><g id="elem_PEFT"><rect fill="#FFFFFF" height="43.9688" rx="3" ry="3" style="stroke:#0B3D3A;stroke-width:0.5;" width="141.9238" x="972" y="616.5938"/><rect fill="#FFFFFF" height="10" style="stroke:#0B3D3A;stroke-width:0.5;" width="15" x="1093.9238" y="621.5938"/><rect fill="#FFFFFF" height="2" style="stroke:#0B3D3A;stroke-width:0.5;" width="4" x="1091.9238" y="623.5938"/><rect fill="#FFFFFF" height="2" style="stroke:#0B3D3A;stroke-width:0.5;" width="4" x="1091.9238" y="627.5938"/><text fill="#10241F" font-family="Helvetica" font-size="12" lengthAdjust="spacing" textLength="101.9238" x="987" y="647.7324">peft (LoraConfig)</text></g><!--entity TRL--><g id="elem_TRL"><rect fill="#FFFFFF" height="43.9688" rx="3" ry="3" style="stroke:#0B3D3A;stroke-width:0.5;" width="130.873" x="578.5" y="616.5938"/><rect fill="#FFFFFF" height="10" style="stroke:#0B3D3A;stroke-width:0.5;" width="15" x="689.373" y="621.5938"/><rect fill="#FFFFFF" height="2" style="stroke:#0B3D3A;stroke-width:0.5;" width="4" x="687.373" y="623.5938"/><rect fill="#FFFFFF" height="2" style="stroke:#0B3D3A;stroke-width:0.5;" width="4" x="687.373" y="627.5938"/><text fill="#10241F" font-family="Helvetica" font-size="12" lengthAdjust="spacing" textLength="90.873" x="593.5" y="647.7324">trl (SFTTrainer)</text></g><!--entity OPT--><g id="elem_OPT"><rect fill="#FFFFFF" height="57.9375" rx="3" ry="3" style="stroke:#0B3D3A;stroke-width:0.5;" width="214.7031" x="578.5" y="724.0938"/><rect fill="#FFFFFF" height="10" style="stroke:#0B3D3A;stroke-width:0.5;" width="15" x="773.2031" y="729.0938"/><rect fill="#FFFFFF" height="2" style="stroke:#0B3D3A;stroke-width:0.5;" width="4" x="771.2031" y="731.0938"/><rect fill="#FFFFFF" height="2" style="stroke:#0B3D3A;stroke-width:0.5;" width="4" x="771.2031" y="735.0938"/><text fill="#10241F" font-family="Helvetica" font-size="12" lengthAdjust="spacing" textLength="137.4316" x="593.5" y="755.2324">Unsloth / Liger Kernel /</text><text fill="#10241F" font-family="Helvetica" font-size="12" lengthAdjust="spacing" textLength="174.7031" x="593.5" y="769.2012">FlashAttention-2 (optionnels)</text></g><polygon fill="#0B3D3A" points="1122.6756,204.7082,1128.4265,212.7037,1126.9921,207.2317,1132.464,205.7973,1122.6756,204.7082" style="stroke:#0B3D3A;stroke-width:1;"/><path d="M1737.5875,461.4485 C1737.4212,461.4188 1737.2538,461.3888 1737.0853,461.3586 C1736.4112,461.2377 1735.7194,461.1124 1735.0106,460.9826 C1733.5929,460.7232 1732.1066,460.4461 1730.5554,460.1507 C1724.3509,458.9692 1717.1091,457.4959 1709.0696,455.6962 C1692.9907,452.0968 1673.7214,447.1919 1653.1795,440.7053 C1612.0957,427.7321 1565.9216,408.4317 1530,380.5938 C1479.031,341.0946 1483.3307,314.8676 1447,261.5938 C1434.36,243.059 1438.455,230.7656 1419,219.5938 C1389.9454,202.9095 1328.0304,208.5492 1266.7115,213.2901 C1236.052,215.6605 1205.5416,217.8063 1179.3623,216.8245 C1166.2727,216.3336 1154.2658,215.0608 1143.8645,212.6433 C1138.6639,211.4346 1133.8646,209.9396 1129.5321,208.1132 C1127.3658,207.1999 1125.3162,206.2038 1123.3915,205.1191 C1123.1509,204.9835 1128.092,207.8747 1127.8554,207.7364 " fill="none" style="stroke:#0B3D3A;stroke-width:1.2;"/><text fill="#10241F" font-family="Helvetica" font-size="11" lengthAdjust="spacing" textLength="195.8193" x="1532" y="327.8042">huggingface_hub.from_pretrained()</text><text fill="#10241F" font-family="Helvetica" font-size="11" lengthAdjust="spacing" textLength="66.4512" x="1596.6841" y="340.6089">(HF_TOKEN)</text><polygon fill="#0B3D3A" points="1722.2673,614.1565,1731.9413,616.0037,1727.1361,613.0188,1730.121,608.2136,1722.2673,614.1565" style="stroke:#0B3D3A;stroke-width:1;"/><path d="M2040.0541,493.1314 C1985.8978,519.9286 1898.7701,560.6893 1820,587.0938 C1788.7802,597.5589 1760.163,605.3015 1728.1099,612.7913 " fill="none" style="stroke:#0B3D3A;stroke-width:1.2;stroke-dasharray:7.0,7.0;"/><text fill="#10241F" font-family="Helvetica" font-size="11" lengthAdjust="spacing" textLength="129.9966" x="1996.9543" y="531.3042">datasets.load_dataset()</text><text fill="#10241F" font-family="Helvetica" font-size="11" lengthAdjust="spacing" textLength="25.0024" x="2002.4705" y="544.1089">(une</text><text fill="#10241F" font-family="Helvetica" font-size="11" lengthAdjust="spacing" textLength="3.4966" x="2027.4729" y="544.1089">&#160;</text><text fill="#10241F" font-family="Helvetica" font-size="11" lengthAdjust="spacing" textLength="19.3896" x="2030.9695" y="544.1089">fois</text><text fill="#10241F" font-family="Helvetica" font-size="11" lengthAdjust="spacing" textLength="3.4966" x="2050.3591" y="544.1089">&#160;</text><text fill="#10241F" font-family="Helvetica" font-size="11" lengthAdjust="spacing" textLength="9.8237" x="2053.8557" y="544.1089">le</text><text fill="#10241F" font-family="Helvetica" font-size="11" lengthAdjust="spacing" textLength="3.4966" x="2063.6794" y="544.1089">&#160;</text><text fill="#10241F" font-family="Helvetica" font-size="11" lengthAdjust="spacing" textLength="43.7637" x="2067.176" y="544.1089">Livrable</text><text fill="#10241F" font-family="Helvetica" font-size="11" lengthAdjust="spacing" textLength="3.4966" x="2110.9397" y="544.1089">&#160;</text><text fill="#10241F" font-family="Helvetica" font-size="11" lengthAdjust="spacing" textLength="6.9985" x="2114.4363" y="544.1089">1</text><text fill="#10241F" font-family="Helvetica" font-size="11" lengthAdjust="spacing" textLength="38.9136" x="2038.8945" y="556.9136">pousse</text><text fill="#10241F" font-family="Helvetica" font-size="11" lengthAdjust="spacing" textLength="3.4966" x="2077.8081" y="556.9136">&#160;</text><text fill="#10241F" font-family="Helvetica" font-size="11" lengthAdjust="spacing" textLength="3.7061" x="2081.3047" y="556.9136">;</text><text fill="#10241F" font-family="Helvetica" font-size="11" lengthAdjust="spacing" textLength="32.957" x="1986" y="569.7183">sinon,</text><text fill="#10241F" font-family="Helvetica" font-size="11" lengthAdjust="spacing" textLength="3.4966" x="2018.957" y="569.7183">&#160;</text><text fill="#10241F" font-family="Helvetica" font-size="11" lengthAdjust="spacing" textLength="47.7544" x="2022.4536" y="569.7183">transfert</text><text fill="#10241F" font-family="Helvetica" font-size="11" lengthAdjust="spacing" textLength="3.4966" x="2070.208" y="569.7183">&#160;</text><text fill="#10241F" font-family="Helvetica" font-size="11" lengthAdjust="spacing" textLength="41.2231" x="2073.7046" y="569.7183">manuel</text><text fill="#10241F" font-family="Helvetica" font-size="11" lengthAdjust="spacing" textLength="3.4966" x="2114.9277" y="569.7183">&#160;</text><text fill="#10241F" font-family="Helvetica" font-size="11" lengthAdjust="spacing" textLength="19.481" x="2118.4243" y="569.7183">des</text><text fill="#10241F" font-family="Helvetica" font-size="11" lengthAdjust="spacing" textLength="28.8696" x="1992.8481" y="582.5229">splits</text><text fill="#10241F" font-family="Helvetica" font-size="11" lengthAdjust="spacing" textLength="3.4966" x="2021.7178" y="582.5229">&#160;</text><text fill="#10241F" font-family="Helvetica" font-size="11" lengthAdjust="spacing" textLength="36.0562" x="2025.2144" y="582.5229">locaux</text><text fill="#10241F" font-family="Helvetica" font-size="11" lengthAdjust="spacing" textLength="3.4966" x="2061.2705" y="582.5229">&#160;</text><text fill="#10241F" font-family="Helvetica" font-size="11" lengthAdjust="spacing" textLength="66.29" x="2064.7671" y="582.5229">aujourd'hui)</text><polygon fill="#0B3D3A" points="965,293.9025,969,284.9025,965,288.9025,961,284.9025,965,293.9025" style="stroke:#0B3D3A;stroke-width:1;"/><path d="M965,201.8538 C965,229.1105 965,260.6631 965,287.9025 " fill="none" style="stroke:#0B3D3A;stroke-width:1.2;"/><polygon fill="#0B3D3A" points="797.7871,435.8055,807.5209,434.3045,801.9932,433.1022,803.1955,427.5746,797.7871,435.8055" style="stroke:#0B3D3A;stroke-width:1;"/><path d="M908.2514,366.1528 C887.3799,379.1092 863.5771,393.958 842,407.5938 C827.5731,416.7109 816.9236,423.5063 802.8345,432.5615 " fill="none" style="stroke:#0B3D3A;stroke-width:1.2;"/><polygon fill="#0B3D3A" points="973.8008,428.6365,976.9759,419.3134,973.3515,423.6567,969.0083,420.0323,973.8008,428.6365" style="stroke:#0B3D3A;stroke-width:1;"/><path d="M968.1843,366.3861 C969.9201,385.6253 971.5235,403.3958 973.2617,422.6607 " fill="none" style="stroke:#0B3D3A;stroke-width:1.2;"/><polygon fill="#0B3D3A" points="863.4183,609.3236,872.1446,604.7571,866.5251,605.4059,865.8763,599.7864,863.4183,609.3236" style="stroke:#0B3D3A;stroke-width:1;"/><path d="M949.1502,501.2132 C923.8161,533.1603 890.6262,575.0137 867.1464,604.6224 " fill="none" style="stroke:#0B3D3A;stroke-width:1.2;"/><polygon fill="#0B3D3A" points="1013.6513,616.3941,1009.6032,607.4156,1009.9221,613.0635,1004.2742,613.3823,1013.6513,616.3941" style="stroke:#0B3D3A;stroke-width:1;"/><path d="M974.5343,501.2348 C974.2153,526.3843 976.8204,560.3775 990,587.0938 C995.5104,598.2638 1000.0938,604.2856 1009.1762,612.3973 " fill="none" style="stroke:#0B3D3A;stroke-width:1.2;"/><polygon fill="#0B3D3A" points="684.8454,616.5578,694.678,615.9931,689.2905,614.2685,691.0151,608.8809,684.8454,616.5578" style="stroke:#0B3D3A;stroke-width:1;"/><path d="M908.8089,501.2132 C841.4497,535.9042 745.9798,585.0726 690.1795,613.8106 " fill="none" style="stroke:#0B3D3A;stroke-width:1.2;"/><polygon fill="#0B3D3A" points="675.4389,723.8051,676.0385,713.9745,673.6901,719.1209,668.5438,716.7725,675.4389,723.8051" style="stroke:#0B3D3A;stroke-width:1;"/><path d="M651.8999,660.7541 C658.5534,678.576 666.0295,698.6013 673.3404,718.1841 " fill="none" style="stroke:#0B3D3A;stroke-width:1.2;stroke-dasharray:7.0,7.0;"/><text fill="#10241F" font-family="Helvetica" font-size="11" lengthAdjust="spacing" textLength="74.1265" x="671" y="702.3042">optimisations</text><text fill="#10241F" font-family="Helvetica" font-size="11" lengthAdjust="spacing" textLength="3.4966" x="745.1265" y="702.3042">&#160;</text><text fill="#10241F" font-family="Helvetica" font-size="11" lengthAdjust="spacing" textLength="67.1333" x="748.623" y="702.3042">optionnelles</text><polygon fill="#0B3D3A" points="1187.4817,308.9295,1182.0561,300.7098,1183.2699,306.2349,1177.7448,307.4487,1187.4817,308.9295" style="stroke:#0B3D3A;stroke-width:1;"/><path d="M1019.8015,201.6538 C1070.9906,234.4027 1140.5587,278.9099 1182.4275,305.696 " fill="none" style="stroke:#0B3D3A;stroke-width:1.2;"/><text fill="#10241F" font-family="Helvetica" font-size="11" lengthAdjust="spacing" textLength="10.4253" x="1127.0505" y="231.8042">lit</text><text fill="#10241F" font-family="Helvetica" font-size="11" lengthAdjust="spacing" textLength="3.4966" x="1137.4758" y="231.8042">&#160;</text><text fill="#10241F" font-family="Helvetica" font-size="11" lengthAdjust="spacing" textLength="9.7969" x="1140.9724" y="231.8042">la</text><text fill="#10241F" font-family="Helvetica" font-size="11" lengthAdjust="spacing" textLength="3.4966" x="1150.7693" y="231.8042">&#160;</text><text fill="#10241F" font-family="Helvetica" font-size="11" lengthAdjust="spacing" textLength="72.9663" x="1154.2659" y="231.8042">configuration</text><text fill="#10241F" font-family="Helvetica" font-size="11" lengthAdjust="spacing" textLength="83.6118" x="1117.8257" y="244.6089">(quantification,</text><text fill="#10241F" font-family="Helvetica" font-size="11" lengthAdjust="spacing" textLength="3.4966" x="1201.4375" y="244.6089">&#160;</text><text fill="#10241F" font-family="Helvetica" font-size="11" lengthAdjust="spacing" textLength="31.5229" x="1204.9341" y="244.6089">LoRA,</text><text fill="#10241F" font-family="Helvetica" font-size="11" lengthAdjust="spacing" textLength="99.0537" x="1110" y="257.4136">hyperparametres,</text><text fill="#10241F" font-family="Helvetica" font-size="11" lengthAdjust="spacing" textLength="3.4966" x="1209.0537" y="257.4136">&#160;</text><text fill="#10241F" font-family="Helvetica" font-size="11" lengthAdjust="spacing" textLength="31.7324" x="1212.5503" y="257.4136">grille)</text><polygon fill="#0B3D3A" points="1506.8461,610.9958,1499.3647,604.5905,1502.0547,609.5668,1497.0783,612.2568,1506.8461,610.9958" style="stroke:#0B3D3A;stroke-width:1;"/><path d="M1103.1866,466.3597 C1217.1065,469.1821 1373.8614,480.3191 1421,519.0938 C1445.5316,539.2727 1420.4387,564.7336 1443,587.0938 C1448.4097,592.4552 1470.2456,600.0802 1501.0964,609.281 " fill="none" style="stroke:#0B3D3A;stroke-width:1.2;"/><text fill="#10241F" font-family="Helvetica" font-size="11" lengthAdjust="spacing" textLength="38.4463" x="1445" y="557.3042">lecture</text><text fill="#10241F" font-family="Helvetica" font-size="11" lengthAdjust="spacing" textLength="3.4966" x="1483.4463" y="557.3042">&#160;</text><text fill="#10241F" font-family="Helvetica" font-size="11" lengthAdjust="spacing" textLength="54.1997" x="1486.9429" y="557.3042">(train/val)</text><polygon fill="#0B3D3A" points="1330.0542,610.8823,1324.9988,602.4298,1325.9661,608.0034,1320.3926,608.9707,1330.0542,610.8823" style="stroke:#0B3D3A;stroke-width:1;"/><path d="M1103.1354,479.1851 C1166.8676,487.8206 1236.0902,500.9282 1262,519.0938 C1290.71,539.2225 1278.0523,561.4824 1302,587.0938 C1310.1797,595.8417 1315.2278,600.4412 1325.1485,607.4276 " fill="none" style="stroke:#0B3D3A;stroke-width:1.2;"/><text fill="#10241F" font-family="Helvetica" font-size="11" lengthAdjust="spacing" textLength="42.9688" x="1304" y="550.8042">ecriture</text><text fill="#10241F" font-family="Helvetica" font-size="11" lengthAdjust="spacing" textLength="3.4966" x="1346.9688" y="550.8042">&#160;</text><text fill="#10241F" font-family="Helvetica" font-size="11" lengthAdjust="spacing" textLength="33.7734" x="1350.4653" y="550.8042">(poids</text><text fill="#10241F" font-family="Helvetica" font-size="11" lengthAdjust="spacing" textLength="3.4966" x="1384.2388" y="550.8042">&#160;</text><text fill="#10241F" font-family="Helvetica" font-size="11" lengthAdjust="spacing" textLength="31.5229" x="1387.7354" y="550.8042">LoRA,</text><text fill="#10241F" font-family="Helvetica" font-size="11" lengthAdjust="spacing" textLength="16.3066" x="1330.8152" y="563.6089">via</text><text fill="#10241F" font-family="Helvetica" font-size="11" lengthAdjust="spacing" textLength="3.4966" x="1347.1218" y="563.6089">&#160;</text><text fill="#10241F" font-family="Helvetica" font-size="11" lengthAdjust="spacing" textLength="41.8247" x="1350.6184" y="563.6089">peft/trl)</text><polygon fill="#0B3D3A" points="1138.2787,605.031,1132.6514,596.9481,1134.0015,602.4414,1128.5082,603.7915,1138.2787,605.031" style="stroke:#0B3D3A;stroke-width:1;"/><path d="M1011.6202,501.1562 C1037.6866,526.5832 1074.9753,560.9531 1111,587.0938 C1119.5541,593.3008 1123.7998,596.2649 1133.1461,601.9235 " fill="none" style="stroke:#0B3D3A;stroke-width:1.2;"/><text fill="#10241F" font-family="Helvetica" font-size="11" lengthAdjust="spacing" textLength="42.9688" x="1165.489" y="537.8042">ecriture</text><text fill="#10241F" font-family="Helvetica" font-size="11" lengthAdjust="spacing" textLength="115.9727" x="1128.9871" y="550.6089">(CheckpointEntraine,</text><text fill="#10241F" font-family="Helvetica" font-size="11" lengthAdjust="spacing" textLength="16.3066" x="1178.8201" y="563.4136">via</text><text fill="#10241F" font-family="Helvetica" font-size="11" lengthAdjust="spacing" textLength="147.9468" x="1113" y="576.2183">RepositoryLectureEcriture)</text><polygon fill="#0B3D3A" points="454.0724,609.4761,463.802,607.948,458.271,606.7611,459.458,601.2302,454.0724,609.4761" style="stroke:#0B3D3A;stroke-width:1;"/><path d="M867.7296,501.1623 C859.0798,503.2363 850.4308,505.0876 842,506.5938 C753.8891,522.3346 727.2462,495.1584 641,519.0938 C571.1482,538.4792 503.1464,577.7431 459.1108,606.2181 " fill="none" style="stroke:#0B3D3A;stroke-width:1.2;stroke-dasharray:7.0,7.0;"/><text fill="#10241F" font-family="Helvetica" font-size="11" lengthAdjust="spacing" textLength="16.7686" x="652.198" y="550.8042">log</text><text fill="#10241F" font-family="Helvetica" font-size="11" lengthAdjust="spacing" textLength="3.4966" x="668.9666" y="550.8042">&#160;</text><text fill="#10241F" font-family="Helvetica" font-size="11" lengthAdjust="spacing" textLength="55.8271" x="672.4631" y="550.8042">metriques</text><text fill="#10241F" font-family="Helvetica" font-size="11" lengthAdjust="spacing" textLength="29.0361" x="643" y="563.6089">(loss,</text><text fill="#10241F" font-family="Helvetica" font-size="11" lengthAdjust="spacing" textLength="3.4966" x="672.0361" y="563.6089">&#160;</text><text fill="#10241F" font-family="Helvetica" font-size="11" lengthAdjust="spacing" textLength="25.228" x="675.5327" y="563.6089">grad</text><text fill="#10241F" font-family="Helvetica" font-size="11" lengthAdjust="spacing" textLength="3.4966" x="700.7607" y="563.6089">&#160;</text><text fill="#10241F" font-family="Helvetica" font-size="11" lengthAdjust="spacing" textLength="33.231" x="704.2573" y="563.6089">norm)</text><polygon fill="#0B3D3A" points="177.1928,610.8687,187.0143,610.1358,181.5981,608.5036,183.2302,603.0874,177.1928,610.8687" style="stroke:#0B3D3A;stroke-width:1;"/><path d="M869.268,501.1316 C860.1123,503.2784 850.9379,505.1505 842,506.5938 C746.5301,522.0097 501.4493,498.3216 407,519.0938 C322.1987,537.7441 236.1899,579.195 182.4791,608.0306 " fill="none" style="stroke:#0B3D3A;stroke-width:1.2;stroke-dasharray:7.0,7.0;"/><text fill="#10241F" font-family="Helvetica" font-size="11" lengthAdjust="spacing" textLength="16.7686" x="409" y="550.8042">log</text><text fill="#10241F" font-family="Helvetica" font-size="11" lengthAdjust="spacing" textLength="3.4966" x="425.7686" y="550.8042">&#160;</text><text fill="#10241F" font-family="Helvetica" font-size="11" lengthAdjust="spacing" textLength="55.8271" x="429.2651" y="550.8042">metriques</text><text fill="#10241F" font-family="Helvetica" font-size="11" lengthAdjust="spacing" textLength="68.3418" x="412.8752" y="563.6089">(alternative)</text><polygon fill="#0B3D3A" points="1794.0413,498.6904,1784.2074,498.1484,1789.3674,500.4666,1787.0492,505.6266,1794.0413,498.6904" style="stroke:#0B3D3A;stroke-width:1;"/><path d="M1456.9062,611.091 C1463.6883,609.012 1470.4528,606.9871 1477,605.0938 C1507.8588,596.1699 1516.6493,597.617 1547,587.0938 C1617.6914,562.5835 1629.4396,540.9371 1701,519.0938 C1731.2265,509.8673 1740.7324,515.6841 1771,506.5938 C1778.5733,504.3192 1780.7454,503.7431 1788.4326,500.8218 " fill="none" style="stroke:#0B3D3A;stroke-width:1.2;"/><text fill="#10241F" font-family="Helvetica" font-size="11" lengthAdjust="spacing" textLength="78.2085" x="1719.688" y="531.3042">push_to_hub()</text><text fill="#10241F" font-family="Helvetica" font-size="11" lengthAdjust="spacing" textLength="36.0454" x="1703" y="544.1089">(Etape</text><text fill="#10241F" font-family="Helvetica" font-size="11" lengthAdjust="spacing" textLength="3.4966" x="1739.0454" y="544.1089">&#160;</text><text fill="#10241F" font-family="Helvetica" font-size="11" lengthAdjust="spacing" textLength="6.9985" x="1742.542" y="544.1089">3</text><text fill="#10241F" font-family="Helvetica" font-size="11" lengthAdjust="spacing" textLength="3.4966" x="1749.5405" y="544.1089">&#160;</text><text fill="#10241F" font-family="Helvetica" font-size="11" lengthAdjust="spacing" textLength="3.7061" x="1753.0371" y="544.1089">:</text><text fill="#10241F" font-family="Helvetica" font-size="11" lengthAdjust="spacing" textLength="3.4966" x="1756.7432" y="544.1089">&#160;</text><text fill="#10241F" font-family="Helvetica" font-size="11" lengthAdjust="spacing" textLength="38.0327" x="1760.2397" y="544.1089">charge</text><text fill="#10241F" font-family="Helvetica" font-size="11" lengthAdjust="spacing" textLength="3.4966" x="1798.2725" y="544.1089">&#160;</text><text fill="#10241F" font-family="Helvetica" font-size="11" lengthAdjust="spacing" textLength="12.8154" x="1801.769" y="544.1089">ce</text><text fill="#10241F" font-family="Helvetica" font-size="11" lengthAdjust="spacing" textLength="60.2583" x="1728.6631" y="556.9136">checkpoint</text><text fill="#10241F" font-family="Helvetica" font-size="11" lengthAdjust="spacing" textLength="40.9761" x="1703.9749" y="569.7183">comme</text><text fill="#10241F" font-family="Helvetica" font-size="11" lengthAdjust="spacing" textLength="3.4966" x="1744.9509" y="569.7183">&#160;</text><text fill="#10241F" font-family="Helvetica" font-size="11" lengthAdjust="spacing" textLength="47.9155" x="1748.4475" y="569.7183">politique</text><text fill="#10241F" font-family="Helvetica" font-size="11" lengthAdjust="spacing" textLength="3.4966" x="1796.363" y="569.7183">&#160;</text><text fill="#10241F" font-family="Helvetica" font-size="11" lengthAdjust="spacing" textLength="13.75" x="1799.8596" y="569.7183">de</text><text fill="#10241F" font-family="Helvetica" font-size="11" lengthAdjust="spacing" textLength="57.2988" x="1730.1428" y="582.5229">reference)</text><path d="M1730.0486,170.8668 C1730.3178,170.9394 1730.59,171.0128 1730.8651,171.0871 C1731.9654,171.384 1733.1127,171.6943 1734.3046,172.0173 C1739.0723,173.3096 1744.5554,174.807 1750.618,176.4812 C1762.7433,179.8297 1777.1869,183.8855 1792.8621,188.4219 C1824.2124,197.4947 1860.4893,208.4899 1893,219.5938 C1953.1379,240.1335 2019.4266,265.7195 2072.6166,286.9928 " fill="none" style="stroke:#0B3D3A;stroke-width:1.2;stroke-dasharray:7.0,7.0;"/><path d="M1122.4672,204.0396 C1122.8329,204.1933 1123.2118,204.3453 1123.6037,204.4954 C1124.3874,204.7957 1125.2231,205.0887 1126.109,205.3748 C1129.6525,206.5189 1133.9989,207.5507 1139.0354,208.4816 C1149.1086,210.3432 1161.9424,211.8012 1176.6349,212.9468 C1206.0199,215.238 1242.8396,216.28 1279.8777,216.8045 C1353.954,217.8534 1428.9044,216.832 1447,219.5938 C1545.4759,234.623 1654.1682,262.2317 1737.8924,285.9652 " fill="none" style="stroke:#0B3D3A;stroke-width:1.2;stroke-dasharray:7.0,7.0;"/><!--SRC=[VLRTRXf75BxVfpZnJQ05DdzIfLIg17Y9IR2XzYQzg2Cqx0umoUpCPdvehIeFq2TfSzE7g5-ityok0JjL98DtcJd_t_dEULGRjgaOINQZlIDRSSSKInu9LKXVSXeCKlmj2rrLMgNSEY7rGFXA9eaJJdAw_TEncjCpUacdWcqCgofE42nllzHI2rvnvQvLfdR2QANYAuseKmeBGwv7hnPlkpt2huRT_jEUNqto_anV3g7Jm2GFn-BsRzES_ZgUNuopHJwTNxplaUKUNjJCE17joiTxZvHMa2oqmRdHEs45FBZzmfEaaDgNT7BcDnkXDZHX1QSplpeXPkbiSlPsH7yaH47dcXMEJdx-ZQld_QU37qRz4RFyMdLgBKfBjLz9KTXk53oVdsQpx9xSANEuxcXyTZMa7JUj1v2VYPrXAtZ-j0VdxTvFxQsz_T8eF1tcmwiiNy8VQ2sXQmLjT7B9QqsLBhdazbeLMylwpY3tl6_NhbziUV4HxYc7mmwZmd1k6eMNsMA-79zbupUB-VGYlqe-9uc27Zgvgf42MEGxEWy_f4W3lTOhInqKY8PFdxmYxIb_qVsgbgtcytcU8MjmjD5u_vRVKQVVvx-ZoYXffHrlF7gNNRoBkIO2n6gjmkKJt18AXKaHppA-3EgR9kauBXy7j70ELuwXS9n6NXZXee7nRFfGUqZOiadOWDKr2iWSwW9ja-4qVq_Pi-MJ9_tm_RmNYbQAmg4151utqCzxrsfZX9HykRsfkG7q6Be6G8q6Xul5jmoMka8uTxQQCi_FloKXrDemwumld3Vmk6Ir0vBsxXPRvYgPLd8jzM-fuyfgizBCb0_IuunSXdp6LXEAUnEjJoycbyF_AO2oQsqg6ABlQIMSPQfStRW0kCu8hqDLZiBhMAkrsD2BFkxGnUH5j-sXXnfhldRKcMd36edctYARv5_RbjG10-JHonQv-UNiuRstoahjje3gJ6oueJVSA2uflLOJoUnsw5nW3QtwpwYZw_24uxPLvujWzdDohwt2Ksg11sVJxmOVh5OImGBrPTl5Q0cG17d5QQs5tJTqY-MhnMoAdZfMQNWXQcuZZZy53bbAP61mmohPjirukiZkYHorRn3h1u5qJpYH5QKkcF-TcAVOjerrz7I-dCt7mzdNGO7zqDsMbscWYxt-08Tzd87uon0CjqSApxDyU629yrd067K2smAQn7QyeFkDFaHtdCyci_alo_noE7uplNYrV7ivRHao7YG7x_A8rb50AwBQ1725uEG-jXun2RGhTEYEfw7wCjffKJ5AaeQk-_sV6YvvITk6r470Q52_6goDhfQruGtgomveetCsMURpDzb5DpdYMCowdzeYGarRT3kGcfNBzYqAx-iFzZxGU4FTd7wyLbPWylIeQI9k75LCUK2p3DtJ0EnGmm_Qc_Bnrejkae2iOYI1G_29pu4TxfwRNetVyHrjTdY9lNHu3Hs3JmmAS4T4eGagOIFPMTgt18R8td23Hzo5ZrW9q6wXLxrf2RBpoMDcYtNBcBq8HnJy0G_sgE77xf4x-xnA7dcCEh4UwOx9usi75EDgPF5uzm1-MDi9He5EKZ35Lx81iFT4ntkyPotnjIh25BN2QNCpQrpAMfaxdI5p3MA3stf38JhnoVC6fZR6oKhCErCTo-IZ_xb_1EDkSXHba_NxOndYjRVRfTC1m15pMLnfdkC4T8ynH5XO3fsChjPXxQerwXOiXaN8S60lpAjkQ5yiKIljdAv8hzjf3Pwu0YkWa649ex2n87fqDNOeRqD_Tuhr8B29Bcpwv2acnt6d__lNyy4BmXu7YfD8QxZ8MoqH7bZhFZ1CEu0TNnQQjGTbkd0JuyIIzMR70HG69p6v8RxLc3VbOw_8U8Lh-oNaanVOz0Wvh60gBdtTGS9Lo3uKFWmmK074KTmY38WmKjA86Vmx7cQKufRV3n8P1ad_OpD8NgAwsYFhxTw2cytc4iAiRy2f7u2R0IpA7frchuVulP3CXF0wHxk8KDXqqGrW5CHSS8Vp-va4sLKwFiNzzGwxJKAHcl9khpuE-Jy0]--></g></svg>