<svg xmlns="http://www.w3.org/2000/svg" xmlns:xlink="http://www.w3.org/1999/xlink" contentStyleType="text/css" height="1078px" preserveAspectRatio="none" style="width:2503px;height:1078px;background:#F6F4EF;" version="1.1" viewBox="0 0 2503 1078" width="2503px" zoomAndPan="magnify"><title>&#201;tape 1 : Diagramme de d&#233;ploiement</title><defs/><g><rect fill="#F6F4EF" height="1078" style="stroke:none;stroke-width:1;" width="2503" x="0" y="0"/><text fill="#000000" font-family="Helvetica" font-size="14" font-weight="bold" lengthAdjust="spacing" textLength="294.3486" x="1097.6135" y="22.9951">&#201;tape 1 : Diagramme de d&#233;ploiement</text><text fill="#000000" font-family="Helvetica" font-size="14" font-weight="bold" lengthAdjust="spacing" textLength="452.874" x="1018.3508" y="39.292">Environnement A (local, WSL2), pr&#233;paration des donn&#233;es</text><!--cluster HFHUB--><g id="cluster_HFHUB"><path d="M1867.3437,834.2918 C1874.2953,821.665 1886.0224,819.7765 1893.9723,833.2742 C1902.5761,820.3207 1913.1118,821.3706 1919.8098,835.1183 C1925.5372,822.1503 1935.9093,822.1553 1943.2374,833.5809 C1950.0235,821.3767 1959.211,819.8728 1969.1082,829.9722 C1976.1821,817.1897 1987.7132,819.3009 1993.5993,831.153 C2002.0769,817.8378 2012.2848,816.6725 2022.09,829.7183 C2028.8649,816.4656 2038.7046,816.1743 2047.1787,828.0198 C2054.875,817.9351 2063.9173,817.1652 2071.7686,827.8361 C2080.7172,815.791 2091.5041,817.241 2097.3865,830.8929 C2104.4175,814.2089 2115.8348,813.2591 2126.1466,827.8788 C2135.4933,816.5479 2145.0822,815.7784 2152.2541,830.0929 C2160.5139,819.337 2168.9371,823.129 2174.265,833.1926 C2181.9725,822.265 2195.5314,821.8329 2201.7835,834.8641 C2213.2144,821.4517 2226.2648,823.9685 2232,840.5938 C2234.7463,840.1129 2236.3007,841.6677 2235.5665,844.426 C2247.747,851.7337 2247.2409,860.3848 2236.8426,868.8713 C2248.6655,874.4419 2250.5512,881.7724 2240.9336,891.2606 C2254.2125,900.5044 2254.3899,909.9677 2239.6521,917.8619 C2251.241,923.5106 2253.2345,935.0852 2243.0647,943.617 C2252.6835,951.8956 2253.2869,959.0798 2241.8512,966.2285 C2254.2723,976.1088 2252.8502,984.9281 2238.5644,991.3085 C2251.7546,998.868 2249.1912,1009.2738 2237.7679,1016.0406 C2248.527,1030.1895 2243.1412,1044.522 2225,1046.5938 C2227.3574,1047.1103 2228.2559,1048.6567 2226.7819,1050.7974 C2217.9814,1061.0448 2210.1284,1059.9763 2202.2269,1049.7208 C2194.2747,1059.6496 2186.3869,1062.7745 2177.9241,1050.274 C2170.522,1061.7097 2156.4278,1062.0727 2149.3959,1049.8279 C2143.9346,1063.4898 2134.4119,1064.8134 2125.5432,1053.0208 C2118.2708,1066.5462 2108.8144,1064.6695 2100.6118,1053.9785 C2092.5374,1065.7788 2083.9688,1068.1461 2074.3489,1055.6491 C2064.894,1071.4748 2055.5866,1071.1932 2045.0881,1056.6547 C2039.9103,1067.6734 2029.2113,1069.1443 2022.9629,1057.7097 C2014.2152,1069.8462 2001.5437,1066.6207 1996.5767,1053.7246 C1987.3708,1066.8952 1979.5202,1064.3051 1971.7487,1052.3094 C1964.0717,1065.2694 1950.6503,1065.9576 1944.1062,1051.1803 C1936.5696,1062.9313 1924.711,1062.3189 1918.1818,1050.0911 C1910.4924,1061.8612 1902.4215,1060.8954 1894.2039,1050.6668 C1879.309,1063.016 1861.6131,1061.7898 1857,1039.5938 C1858.318,1040.3371 1858.4692,1041.8472 1857.1584,1042.7236 C1844.8794,1036.4747 1843.6442,1024.6226 1854.7391,1016.2386 C1841.2516,1011.1898 1840.6921,999.3077 1852.709,992.1128 C1839.9864,986.6934 1839.3346,974.6003 1849.2979,966.1951 C1835.1819,960.1984 1834.0379,950.5371 1846.1925,941.2678 C1835.6017,931.6425 1836.0166,922.3852 1849.8513,916.3458 C1837.2055,908.5439 1840.5784,896.4752 1852.2278,890.9466 C1840.6647,882.149 1845.2869,871.2463 1856.8649,866.9138 C1841.1375,853.7631 1846.2299,839.5713 1864,833.5938 C1865.4334,832.3823 1866.5179,832.5925 1867.3437,834.2918 " fill="#E7EFEC" style="stroke:#2F7A4F;stroke-width:1;"/><text fill="#0B3D3A" font-family="Helvetica" font-size="12" font-weight="bold" lengthAdjust="spacing" textLength="124.0898" x="1982.4551" y="849.7324">Hugging Face Hub</text></g><!--cluster LOCAL--><g id="cluster_LOCAL"><polygon fill="#EFEAE0" points="16,69.5938,26,59.5938,1492,59.5938,1492,926.5938,1482,936.5938,16,936.5938,16,69.5938" style="stroke:#0B3D3A;stroke-width:1;"/><line style="stroke:#0B3D3A;stroke-width:1;" x1="1482" x2="1492" y1="69.5938" y2="59.5938"/><line style="stroke:#0B3D3A;stroke-width:1;" x1="16" x2="1482" y1="69.5938" y2="69.5938"/><line style="stroke:#0B3D3A;stroke-width:1;" x1="1482" x2="1482" y1="69.5938" y2="936.5938"/><text fill="#0B3D3A" font-family="Helvetica" font-size="12" font-weight="bold" lengthAdjust="spacing" textLength="200.9414" x="649.5293" y="83.7324">Poste local (WSL2, 5 Go RAM)</text></g><!--cluster VENV--><g id="cluster_VENV"><polygon fill="#EFEAE0" points="48,122.5938,58,112.5938,805,112.5938,805,686.0938,795,696.0938,48,696.0938,48,122.5938" style="stroke:#0B3D3A;stroke-width:1;"/><line style="stroke:#0B3D3A;stroke-width:1;" x1="795" x2="805" y1="122.5938" y2="112.5938"/><line style="stroke:#0B3D3A;stroke-width:1;" x1="48" x2="795" y1="122.5938" y2="122.5938"/><line style="stroke:#0B3D3A;stroke-width:1;" x1="795" x2="795" y1="122.5938" y2="696.0938"/><text fill="#0B3D3A" font-family="Helvetica" font-size="12" font-weight="bold" lengthAdjust="spacing" textLength="175.5586" x="334.7207" y="136.7324">Environnement uv (.venv)</text></g><!--entity C1--><g id="elem_C1"><rect fill="#FCEBE6" height="39.2969" rx="3" ry="3" style="stroke:#C4432B;stroke-width:0.5;" width="87.9551" x="1892" y="865.5938"/><polygon fill="#FCEBE6" points="1962.9551,870.5938,1962.9551,884.5938,1974.9551,884.5938,1974.9551,876.5938,1968.9551,870.5938,1962.9551,870.5938" style="stroke:#C4432B;stroke-width:0.5;"/><line style="stroke:#C4432B;stroke-width:0.5;" x1="1968.9551" x2="1968.9551" y1="870.5938" y2="876.5938"/><line style="stroke:#C4432B;stroke-width:0.5;" x1="1974.9551" x2="1968.9551" y1="876.5938" y2="876.5938"/><text fill="#7A2A17" font-family="Helvetica" font-size="14" lengthAdjust="spacing" textLength="57.9551" x="1902" y="891.5889">MediQAl</text></g><!--entity C2--><g id="elem_C2"><rect fill="#FCEBE6" height="39.2969" rx="3" ry="3" style="stroke:#C4432B;stroke-width:0.5;" width="149.8955" x="2015" y="865.5938"/><polygon fill="#FCEBE6" points="2147.8955,870.5938,2147.8955,884.5938,2159.8955,884.5938,2159.8955,876.5938,2153.8955,870.5938,2147.8955,870.5938" style="stroke:#C4432B;stroke-width:0.5;"/><line style="stroke:#C4432B;stroke-width:0.5;" x1="2153.8955" x2="2153.8955" y1="870.5938" y2="876.5938"/><line style="stroke:#C4432B;stroke-width:0.5;" x1="2159.8955" x2="2153.8955" y1="876.5938" y2="876.5938"/><text fill="#7A2A17" font-family="Helvetica" font-size="14" lengthAdjust="spacing" textLength="119.8955" x="2025" y="891.5889">FrenchMedMCQA</text></g><!--entity C3--><g id="elem_C3"><rect fill="#FCEBE6" height="39.2969" rx="3" ry="3" style="stroke:#C4432B;stroke-width:0.5;" width="99.8291" x="1881" y="991.5938"/><polygon fill="#FCEBE6" points="1963.8291,996.5938,1963.8291,1010.5938,1975.8291,1010.5938,1975.8291,1002.5938,1969.8291,996.5938,1963.8291,996.5938" style="stroke:#C4432B;stroke-width:0.5;"/><line style="stroke:#C4432B;stroke-width:0.5;" x1="1969.8291" x2="1969.8291" y1="996.5938" y2="1002.5938"/><line style="stroke:#C4432B;stroke-width:0.5;" x1="1975.8291" x2="1969.8291" y1="1002.5938" y2="1002.5938"/><text fill="#7A2A17" font-family="Helvetica" font-size="14" lengthAdjust="spacing" textLength="69.8291" x="1891" y="1017.5889">MedQuAD</text></g><!--entity C4--><g id="elem_C4"><rect fill="#FCEBE6" height="39.2969" rx="3" ry="3" style="stroke:#C4432B;stroke-width:0.5;" width="198.5537" x="2016.5" y="991.5938"/><polygon fill="#FCEBE6" points="2198.0537,996.5938,2198.0537,1010.5938,2210.0537,1010.5938,2210.0537,1002.5938,2204.0537,996.5938,2198.0537,996.5938" style="stroke:#C4432B;stroke-width:0.5;"/><line style="stroke:#C4432B;stroke-width:0.5;" x1="2204.0537" x2="2204.0537" y1="996.5938" y2="1002.5938"/><line style="stroke:#C4432B;stroke-width:0.5;" x1="2210.0537" x2="2204.0537" y1="1002.5938" y2="1002.5938"/><text fill="#7A2A17" font-family="Helvetica" font-size="14" lengthAdjust="spacing" textLength="168.5537" x="2026.5" y="1017.5889">UltraMedical-Preference</text></g><!--entity RAW--><g id="elem_RAW"><path d="M1363.5,633.5938 C1363.5,623.5938 1412.2014,623.5938 1412.2014,623.5938 C1412.2014,623.5938 1460.9028,623.5938 1460.9028,633.5938 L1460.9028,668.2031 C1460.9028,678.2031 1412.2014,678.2031 1412.2014,678.2031 C1412.2014,678.2031 1363.5,678.2031 1363.5,668.2031 L1363.5,633.5938 " fill="#FDF6EC" style="stroke:#C98A1E;stroke-width:0.5;"/><path d="M1363.5,633.5938 C1363.5,643.5938 1412.2014,643.5938 1412.2014,643.5938 C1412.2014,643.5938 1460.9028,643.5938 1460.9028,633.5938 " fill="none" style="stroke:#C98A1E;stroke-width:0.5;"/><text fill="#4A3400" font-family="Helvetica" font-size="11" lengthAdjust="spacing" textLength="52.4487" x="1373.5" y="657.8042">data/raw/</text><text fill="#4A3400" font-family="Helvetica" font-size="11" lengthAdjust="spacing" textLength="77.4028" x="1373.5" y="670.6089">(*.jsonl, *.csv)</text></g><!--entity PIVOT--><g id="elem_PIVOT"><path d="M824,627.5938 C824,617.5938 949.0972,617.5938 949.0972,617.5938 C949.0972,617.5938 1074.1943,617.5938 1074.1943,627.5938 L1074.1943,675.0078 C1074.1943,685.0078 949.0972,685.0078 949.0972,685.0078 C949.0972,685.0078 824,685.0078 824,675.0078 L824,627.5938 " fill="#FDF6EC" style="stroke:#C98A1E;stroke-width:0.5;"/><path d="M824,627.5938 C824,637.5938 949.0972,637.5938 949.0972,637.5938 C949.0972,637.5938 1074.1943,637.5938 1074.1943,627.5938 " fill="none" style="stroke:#C98A1E;stroke-width:0.5;"/><text fill="#4A3400" font-family="Helvetica" font-size="11" lengthAdjust="spacing" textLength="88.4512" x="834" y="651.8042">data/processed/</text><text fill="#4A3400" font-family="Helvetica" font-size="11" lengthAdjust="spacing" textLength="103.7212" x="834" y="664.6089">dataset_pivot.jsonl</text><text fill="#4A3400" font-family="Helvetica" font-size="11" lengthAdjust="spacing" textLength="230.1943" x="834" y="677.4136">(ORIGINAL, jamais modifi&#233; apr&#232;s &#233;criture)</text></g><!--entity ANONYMISE--><g id="elem_ANONYMISE"><path d="M1109.5,627.5938 C1109.5,617.5938 1219.2197,617.5938 1219.2197,617.5938 C1219.2197,617.5938 1328.9395,617.5938 1328.9395,627.5938 L1328.9395,675.0078 C1328.9395,685.0078 1219.2197,685.0078 1219.2197,685.0078 C1219.2197,685.0078 1109.5,685.0078 1109.5,675.0078 L1109.5,627.5938 " fill="#FDF6EC" style="stroke:#C98A1E;stroke-width:0.5;"/><path d="M1109.5,627.5938 C1109.5,637.5938 1219.2197,637.5938 1219.2197,637.5938 C1219.2197,637.5938 1328.9395,637.5938 1328.9395,627.5938 " fill="none" style="stroke:#C98A1E;stroke-width:0.5;"/><text fill="#4A3400" font-family="Helvetica" font-size="11" lengthAdjust="spacing" textLength="88.4512" x="1119.5" y="651.8042">data/processed/</text><text fill="#4A3400" font-family="Helvetica" font-size="11" lengthAdjust="spacing" textLength="169.415" x="1119.5" y="664.6089">dataset_pivot_anonymise.jsonl</text><text fill="#4A3400" font-family="Helvetica" font-size="11" lengthAdjust="spacing" textLength="199.4395" x="1119.5" y="677.4136">(fichier S&#201;PAR&#201;, depuis 08/09/2026)</text></g><!--entity RAPPORTS--><g id="elem_RAPPORTS"><path d="M49,867.5938 C49,857.5938 128.2468,857.5938 128.2468,857.5938 C128.2468,857.5938 207.4937,857.5938 207.4937,867.5938 L207.4937,902.2031 C207.4937,912.2031 128.2468,912.2031 128.2468,912.2031 C128.2468,912.2031 49,912.2031 49,902.2031 L49,867.5938 " fill="#FDF6EC" style="stroke:#C98A1E;stroke-width:0.5;"/><path d="M49,867.5938 C49,877.5938 128.2468,877.5938 128.2468,877.5938 C128.2468,877.5938 207.4937,877.5938 207.4937,867.5938 " fill="none" style="stroke:#C98A1E;stroke-width:0.5;"/><text fill="#4A3400" font-family="Helvetica" font-size="11" lengthAdjust="spacing" textLength="88.4512" x="59" y="891.8042">data/processed/</text><text fill="#4A3400" font-family="Helvetica" font-size="11" lengthAdjust="spacing" textLength="138.4937" x="59" y="904.6089">rapports_profilage/*.html</text></g><!--entity CLI--><g id="elem_CLI"><rect fill="#FFFFFF" height="57.9375" rx="3" ry="3" style="stroke:#0B3D3A;stroke-width:0.5;" width="145.6563" x="643" y="149.5938"/><rect fill="#FFFFFF" height="10" style="stroke:#0B3D3A;stroke-width:0.5;" width="15" x="768.6563" y="154.5938"/><rect fill="#FFFFFF" height="2" style="stroke:#0B3D3A;stroke-width:0.5;" width="4" x="766.6563" y="156.5938"/><rect fill="#FFFFFF" height="2" style="stroke:#0B3D3A;stroke-width:0.5;" width="4" x="766.6563" y="160.5938"/><text fill="#10241F" font-family="Helvetica" font-size="12" lengthAdjust="spacing" textLength="105.6563" x="658" y="180.7324">interfaces/cli/*.py</text><text fill="#10241F" font-family="Helvetica" font-size="12" lengthAdjust="spacing" textLength="100.3418" x="658" y="194.7012">(points d'entr&#233;e)</text></g><!--entity APP--><g id="elem_APP"><rect fill="#FFFFFF" height="43.9688" rx="3" ry="3" style="stroke:#0B3D3A;stroke-width:0.5;" width="179.1426" x="573.5" y="282.0938"/><rect fill="#FFFFFF" height="10" style="stroke:#0B3D3A;stroke-width:0.5;" width="15" x="732.6426" y="287.0938"/><rect fill="#FFFFFF" height="2" style="stroke:#0B3D3A;stroke-width:0.5;" width="4" x="730.6426" y="289.0938"/><rect fill="#FFFFFF" height="2" style="stroke:#0B3D3A;stroke-width:0.5;" width="4" x="730.6426" y="293.0938"/><text fill="#10241F" font-family="Helvetica" font-size="12" lengthAdjust="spacing" textLength="139.1426" x="588.5" y="313.2324">chsa_triage.application</text></g><!--entity DOM--><g id="elem_DOM"><rect fill="#FFFFFF" height="43.9688" rx="3" ry="3" style="stroke:#0B3D3A;stroke-width:0.5;" width="157.8906" x="344" y="413.5938"/><rect fill="#FFFFFF" height="10" style="stroke:#0B3D3A;stroke-width:0.5;" width="15" x="481.8906" y="418.5938"/><rect fill="#FFFFFF" height="2" style="stroke:#0B3D3A;stroke-width:0.5;" width="4" x="479.8906" y="420.5938"/><rect fill="#FFFFFF" height="2" style="stroke:#0B3D3A;stroke-width:0.5;" width="4" x="479.8906" y="424.5938"/><text fill="#10241F" font-family="Helvetica" font-size="12" lengthAdjust="spacing" textLength="117.8906" x="359" y="444.7324">chsa_triage.domain</text></g><!--entity INFRA--><g id="elem_INFRA"><rect fill="#FFFFFF" height="43.9688" rx="3" ry="3" style="stroke:#0B3D3A;stroke-width:0.5;" width="252.1504" x="537" y="413.5938"/><rect fill="#FFFFFF" height="10" style="stroke:#0B3D3A;stroke-width:0.5;" width="15" x="769.1504" y="418.5938"/><rect fill="#FFFFFF" height="2" style="stroke:#0B3D3A;stroke-width:0.5;" width="4" x="767.1504" y="420.5938"/><rect fill="#FFFFFF" height="2" style="stroke:#0B3D3A;stroke-width:0.5;" width="4" x="767.1504" y="424.5938"/><text fill="#10241F" font-family="Helvetica" font-size="12" lengthAdjust="spacing" textLength="212.1504" x="552" y="444.7324">chsa_triage.infrastructure.adapters</text></g><!--entity SPACY--><g id="elem_SPACY"><rect fill="#FFFFFF" height="57.9375" rx="3" ry="3" style="stroke:#0B3D3A;stroke-width:0.5;" width="262.7676" x="227.5" y="622.0938"/><rect fill="#FFFFFF" height="10" style="stroke:#0B3D3A;stroke-width:0.5;" width="15" x="470.2676" y="627.0938"/><rect fill="#FFFFFF" height="2" style="stroke:#0B3D3A;stroke-width:0.5;" width="4" x="468.2676" y="629.0938"/><rect fill="#FFFFFF" height="2" style="stroke:#0B3D3A;stroke-width:0.5;" width="4" x="468.2676" y="633.0938"/><text fill="#10241F" font-family="Helvetica" font-size="12" lengthAdjust="spacing" textLength="36.7031" x="242.5" y="653.2324">spaCy</text><text fill="#10241F" font-family="Helvetica" font-size="12" lengthAdjust="spacing" textLength="222.7676" x="242.5" y="667.2012">(fr_core_news_md, en_core_web_sm)</text></g><!--entity PRESIDIO--><g id="elem_PRESIDIO"><rect fill="#FFFFFF" height="57.9375" rx="3" ry="3" style="stroke:#0B3D3A;stroke-width:0.5;" width="262.9668" x="525.5" y="622.0938"/><rect fill="#FFFFFF" height="10" style="stroke:#0B3D3A;stroke-width:0.5;" width="15" x="768.4668" y="627.0938"/><rect fill="#FFFFFF" height="2" style="stroke:#0B3D3A;stroke-width:0.5;" width="4" x="766.4668" y="629.0938"/><rect fill="#FFFFFF" height="2" style="stroke:#0B3D3A;stroke-width:0.5;" width="4" x="766.4668" y="633.0938"/><text fill="#10241F" font-family="Helvetica" font-size="12" lengthAdjust="spacing" textLength="47.4316" x="540.5" y="653.2324">Presidio</text><text fill="#10241F" font-family="Helvetica" font-size="12" lengthAdjust="spacing" textLength="222.9668" x="540.5" y="667.2012">(AnalyzerEngine, AnonymizerEngine)</text></g><!--entity YDATA--><g id="elem_YDATA"><rect fill="#FFFFFF" height="43.9688" rx="3" ry="3" style="stroke:#0B3D3A;stroke-width:0.5;" width="127.8027" x="64" y="629.0938"/><rect fill="#FFFFFF" height="10" style="stroke:#0B3D3A;stroke-width:0.5;" width="15" x="171.8027" y="634.0938"/><rect fill="#FFFFFF" height="2" style="stroke:#0B3D3A;stroke-width:0.5;" width="4" x="169.8027" y="636.0938"/><rect fill="#FFFFFF" height="2" style="stroke:#0B3D3A;stroke-width:0.5;" width="4" x="169.8027" y="640.0938"/><text fill="#10241F" font-family="Helvetica" font-size="12" lengthAdjust="spacing" textLength="87.8027" x="79" y="660.2324">ydata-profiling</text></g><!--entity MLFLOW--><g id="elem_MLFLOW"><polygon fill="#EFEAE0" points="1879.5,639.0938,1889.5,629.0938,2074.8906,629.0938,2074.8906,663.0625,2064.8906,673.0625,1879.5,673.0625,1879.5,639.0938" style="stroke:#0B3D3A;stroke-width:0.5;"/><line style="stroke:#0B3D3A;stroke-width:0.5;" x1="2064.8906" x2="2074.8906" y1="639.0938" y2="629.0938"/><line style="stroke:#0B3D3A;stroke-width:0.5;" x1="1879.5" x2="2064.8906" y1="639.0938" y2="639.0938"/><line style="stroke:#0B3D3A;stroke-width:0.5;" x1="2064.8906" x2="2064.8906" y1="639.0938" y2="673.0625"/><text fill="#10241F" font-family="Helvetica" font-size="12" lengthAdjust="spacing" textLength="155.3906" x="1894.5" y="660.2324">MLflow (local ou h&#233;berg&#233;)</text></g><g id="elem_GMN36"><path d="M2181,271.5938 L2181,336.125 A3,3 0 0 0 2184,339.125 L2493.5757,339.125 A3,3 0 0 0 2496.5757,336.125 L2496.5757,278.5938 L2486.5757,268.5938 L2184,268.5938 A3,3 0 0 0 2181,271.5938 " fill="#FDF6EC" style="stroke:#C98A1E;stroke-width:0.5;"/><path d="M2486.5757,268.5938 L2486.5757,277.0938 A1.5,1.5 0 0 0 2488.0757,278.5938 L2496.5757,278.5938 L2486.5757,268.5938 " fill="#FDF6EC" style="stroke:#C98A1E;stroke-width:1;"/><text fill="#4A3400" font-family="Helvetica" font-size="13" lengthAdjust="spacing" textLength="224.5293" x="2187" y="285.6606">Aucune d&#233;pendance GPU dans cet</text><text fill="#4A3400" font-family="Helvetica" font-size="13" lengthAdjust="spacing" textLength="294.5757" x="2187" y="300.7935">environnement (cf. docs/01_environnement).</text><text fill="#4A3400" font-family="Helvetica" font-size="13" lengthAdjust="spacing" textLength="216.4868" x="2187" y="315.9263">torch / unsloth / vllm ne sont PAS</text><text fill="#4A3400" font-family="Helvetica" font-size="13" lengthAdjust="spacing" textLength="76.3179" x="2187" y="331.0591">install&#233;s ici.</text></g><g id="elem_GMN39"><path d="M1515.5,573.5938 L1515.5,728.9219 A3,3 0 0 0 1518.5,731.9219 L1841.6533,731.9219 A3,3 0 0 0 1844.6533,728.9219 L1844.6533,580.5938 L1834.6533,570.5938 L1518.5,570.5938 A3,3 0 0 0 1515.5,573.5938 " fill="#FDF6EC" style="stroke:#C98A1E;stroke-width:0.5;"/><path d="M1834.6533,570.5938 L1834.6533,579.0938 A1.5,1.5 0 0 0 1836.1533,580.5938 L1844.6533,580.5938 L1834.6533,570.5938 " fill="#FDF6EC" style="stroke:#C98A1E;stroke-width:1;"/><text fill="#4A3400" font-family="Helvetica" font-size="13" lengthAdjust="spacing" textLength="258.0767" x="1521.5" y="587.6606">PIVOT et ANONYMISE sont deux fichiers</text><text fill="#4A3400" font-family="Helvetica" font-size="13" lengthAdjust="spacing" textLength="276.0469" x="1521.5" y="602.7935">S&#201;PAR&#201;S depuis le 08/09/2026 (avant : un</text><text fill="#4A3400" font-family="Helvetica" font-size="13" lengthAdjust="spacing" textLength="217.7944" x="1521.5" y="617.9263">seul fichier mut&#233; en place). "D&#233;j&#224;</text><text fill="#4A3400" font-family="Helvetica" font-size="13" lengthAdjust="spacing" textLength="272.6445" x="1521.5" y="633.0591">anonymis&#233;" se d&#233;termine par la pr&#233;sence</text><text fill="#4A3400" font-family="Helvetica" font-size="13" lengthAdjust="spacing" textLength="262.2534" x="1521.5" y="648.1919">de l'identifiant dans ANONYMISE, jamais</text><text fill="#4A3400" font-family="Helvetica" font-size="13" lengthAdjust="spacing" textLength="266.373" x="1521.5" y="663.3247">par un champ du pivot original, qui reste</text><text fill="#4A3400" font-family="Helvetica" font-size="13" lengthAdjust="spacing" textLength="268.0044" x="1521.5" y="678.4575">intact pour permettre un contr&#244;le qualit&#233;</text><text fill="#4A3400" font-family="Helvetica" font-size="13" lengthAdjust="spacing" textLength="201.5698" x="1521.5" y="693.5903">par diff original vs. anonymis&#233;.</text><text fill="#4A3400" font-family="Helvetica" font-size="13" lengthAdjust="spacing" textLength="308.1533" x="1521.5" y="708.7231">decouper_splits.py/verifier_repartition_splits.py</text><text fill="#4A3400" font-family="Helvetica" font-size="13" lengthAdjust="spacing" textLength="283.4927" x="1521.5" y="723.856">pointent sur ANONYMISE, jamais sur PIVOT.</text></g><!--link HFHUB to CLI--><g id="link_HFHUB_CLI"><path d="M1856.7242,825.5753 C1857.3366,823.6473 1858.0411,821.7543 1858.8479,819.9121 C1860.4617,816.2277 1862.485,812.7463 1865,809.5938 C1931.53,726.2038 2013.1,803.3938 2092,731.5938 C2120.69,705.4938 2128,690.8838 2128,652.0938 C2128,303.0938 2128,303.0938 2128,303.0938 C2128,154.3837 938.86,236.6038 793,207.5938 C791.74,207.3438 796.3393,208.3656 795.0693,208.0856 " fill="none" id="HFHUB-to-CLI" style="stroke:#0B3D3A;stroke-width:1.2;"/><polygon fill="#0B3D3A" points="789.21,206.7938,797.1377,212.6377,794.0927,207.8703,798.8601,204.8253,789.21,206.7938" style="stroke:#0B3D3A;stroke-width:1.2;"/><text fill="#10241F" font-family="Helvetica" font-size="11" lengthAdjust="spacing" textLength="161.8794" x="2138.9312" y="426.8042">E1_01_telecharger_corpus.py</text><text fill="#10241F" font-family="Helvetica" font-size="11" lengthAdjust="spacing" textLength="160.0264" x="2139.8577" y="439.6089">(LecteurCorpusHuggingFace,</text><text fill="#10241F" font-family="Helvetica" font-size="11" lengthAdjust="spacing" textLength="181.7417" x="2129" y="452.4136">huggingface_hub.load_dataset())</text></g><!--link CLI to RAW--><g id="link_CLI_RAW"><path d="M786.85,207.6638 C951.3,273.4338 1347.93,435.8338 1387,487.5938 C1417.09,527.4638 1418.1806,582.7807 1415.5606,617.5707 " fill="none" id="CLI-to-RAW" style="stroke:#0B3D3A;stroke-width:1.2;"/><polygon fill="#0B3D3A" points="1415.11,623.5538,1419.7746,614.8795,1415.4855,618.5679,1411.7972,614.2788,1415.11,623.5538" style="stroke:#0B3D3A;stroke-width:1.2;"/><text fill="#10241F" font-family="Helvetica" font-size="11" lengthAdjust="spacing" textLength="24.707" x="1202" y="380.8042">&#233;crit</text></g><!--link CLI to APP--><g id="link_CLI_APP"><path d="M703.97,207.6137 C694.32,230.1038 683.3481,255.6908 674.5381,276.2008 " fill="none" id="CLI-to-APP" style="stroke:#0B3D3A;stroke-width:1.2;"/><polygon fill="#0B3D3A" points="672.17,281.7138,679.3974,275.0231,674.1434,277.1196,672.0468,271.8657,672.17,281.7138" style="stroke:#0B3D3A;stroke-width:1.2;"/></g><!--link APP to DOM--><g id="link_APP_DOM"><path d="M623.91,326.1838 C579.28,350.2737 511.9807,386.5851 467.3607,410.6551 " fill="none" id="APP-to-DOM" style="stroke:#0B3D3A;stroke-width:1.2;"/><polygon fill="#0B3D3A" points="462.08,413.5037,471.9001,412.7513,466.4805,411.1299,468.1019,405.7104,462.08,413.5037" style="stroke:#0B3D3A;stroke-width:1.2;"/></g><!--link APP to INFRA--><g id="link_APP_INFRA"><path d="M663,326.1838 C663,350.2737 663,383.4338 663,407.5037 " fill="none" id="APP-to-INFRA" style="stroke:#0B3D3A;stroke-width:1.2;"/><polygon fill="#0B3D3A" points="663,413.5037,667,404.5037,663,408.5037,659,404.5037,663,413.5037" style="stroke:#0B3D3A;stroke-width:1.2;"/></g><!--link INFRA to SPACY--><g id="link_INFRA_SPACY"><path d="M633.02,457.6537 C577.97,496.3138 465.6805,575.176 403.9105,618.546 " fill="none" id="INFRA-to-SPACY" style="stroke:#0B3D3A;stroke-width:1.2;"/><polygon fill="#0B3D3A" points="399,621.9938,408.6642,620.0958,403.0921,619.1206,404.0672,613.5484,399,621.9938" style="stroke:#0B3D3A;stroke-width:1.2;"/></g><!--link INFRA to PRESIDIO--><g id="link_INFRA_PRESIDIO"><path d="M662.4,457.8438 C661.31,496.5538 659.1788,572.5461 657.9588,615.8861 " fill="none" id="INFRA-to-PRESIDIO" style="stroke:#0B3D3A;stroke-width:1.2;"/><polygon fill="#0B3D3A" points="657.79,621.8838,662.0417,612.9999,657.9307,616.8857,654.0448,612.7748,657.79,621.8838" style="stroke:#0B3D3A;stroke-width:1.2;"/></g><!--link INFRA to YDATA--><g id="link_INFRA_YDATA"><path d="M536.81,456.9838 C442.1,476.1838 311.8,511.1238 210,570.5938 C183.98,585.7938 163.8318,606.3987 148.6018,624.3487 " fill="none" id="INFRA-to-YDATA" style="stroke:#0B3D3A;stroke-width:1.2;"/><polygon fill="#0B3D3A" points="144.72,628.9237,153.5928,624.649,147.9548,625.1112,147.4927,619.4732,144.72,628.9237" style="stroke:#0B3D3A;stroke-width:1.2;"/></g><!--link INFRA to RAW--><g id="link_INFRA_RAW"><path d="M789.23,457.1638 C790.49,457.3138 791.75,457.4538 793,457.5938 C899.88,469.5137 1179.93,439.2637 1276,487.5938 C1335.16,517.3538 1375.5119,580.3228 1395.9519,618.2228 " fill="none" id="INFRA-to-RAW" style="stroke:#0B3D3A;stroke-width:1.2;"/><polygon fill="#0B3D3A" points="1398.8,623.5038,1398.0485,613.6836,1396.4266,619.103,1391.0072,617.4811,1398.8,623.5038" style="stroke:#0B3D3A;stroke-width:1.2;"/><text fill="#10241F" font-family="Helvetica" font-size="11" lengthAdjust="spacing" textLength="38.4463" x="1340" y="518.3042">lecture</text></g><!--link INFRA to PIVOT--><g id="link_INFRA_PIVOT"><path d="M772.31,457.6138 C808.28,466.1537 842.72,476.5938 857,487.5938 C900.15,520.8338 924.3212,574.756 937.1912,611.806 " fill="none" id="INFRA-to-PIVOT" style="stroke:#0B3D3A;stroke-width:1.2;"/><polygon fill="#0B3D3A" points="939.16,617.4738,939.9853,607.6595,937.5193,612.7506,932.4283,610.2846,939.16,617.4738" style="stroke:#0B3D3A;stroke-width:1.2;"/><text fill="#10241F" font-family="Helvetica" font-size="11" lengthAdjust="spacing" textLength="42.9688" x="902" y="511.8042">&#233;criture</text><text fill="#10241F" font-family="Helvetica" font-size="11" lengthAdjust="spacing" textLength="3.4966" x="944.9688" y="511.8042">&#160;</text><text fill="#10241F" font-family="Helvetica" font-size="11" lengthAdjust="spacing" textLength="25.0024" x="948.4653" y="511.8042">(une</text><text fill="#10241F" font-family="Helvetica" font-size="11" lengthAdjust="spacing" textLength="3.4966" x="973.4678" y="511.8042">&#160;</text><text fill="#10241F" font-family="Helvetica" font-size="11" lengthAdjust="spacing" textLength="29.2939" x="976.9644" y="511.8042">seule</text><text fill="#10241F" font-family="Helvetica" font-size="11" lengthAdjust="spacing" textLength="3.4966" x="1006.2583" y="511.8042">&#160;</text><text fill="#10241F" font-family="Helvetica" font-size="11" lengthAdjust="spacing" textLength="22.8862" x="1009.7549" y="511.8042">fois,</text><text fill="#10241F" font-family="Helvetica" font-size="11" lengthAdjust="spacing" textLength="68.4063" x="906.7024" y="524.6089">construction</text><text fill="#10241F" font-family="Helvetica" font-size="11" lengthAdjust="spacing" textLength="3.4966" x="975.1086" y="524.6089">&#160;</text><text fill="#10241F" font-family="Helvetica" font-size="11" lengthAdjust="spacing" textLength="13.9541" x="978.6052" y="524.6089">du</text><text fill="#10241F" font-family="Helvetica" font-size="11" lengthAdjust="spacing" textLength="3.4966" x="992.5593" y="524.6089">&#160;</text><text fill="#10241F" font-family="Helvetica" font-size="11" lengthAdjust="spacing" textLength="31.8828" x="996.0559" y="524.6089">pivot)</text></g><!--link INFRA to PIVOT--><g id="link_INFRA_PIVOT"><path d="M669.29,457.9238 C677.24,481.3338 693.1,518.5038 719,540.5938 C749.8,566.8638 768.04,554.0838 805,570.5938 C835.64,584.2738 863.2938,599.1438 889.8638,614.4838 " fill="none" id="INFRA-to-PIVOT-1" style="stroke:#0B3D3A;stroke-width:1.2;"/><polygon fill="#0B3D3A" points="895.06,617.4838,889.2657,609.5197,890.7299,614.9838,885.2658,616.4479,895.06,617.4838" style="stroke:#0B3D3A;stroke-width:1.2;"/><text fill="#10241F" font-family="Helvetica" font-size="11" lengthAdjust="spacing" textLength="38.4463" x="748.6628" y="505.3042">lecture</text><text fill="#10241F" font-family="Helvetica" font-size="11" lengthAdjust="spacing" textLength="3.4966" x="787.1091" y="505.3042">&#160;</text><text fill="#10241F" font-family="Helvetica" font-size="11" lengthAdjust="spacing" textLength="29.2939" x="790.6057" y="505.3042">seule</text><text fill="#10241F" font-family="Helvetica" font-size="11" lengthAdjust="spacing" textLength="89.0259" x="720" y="518.1089">(anonymisation,</text><text fill="#10241F" font-family="Helvetica" font-size="11" lengthAdjust="spacing" textLength="3.4966" x="809.0259" y="518.1089">&#160;</text><text fill="#10241F" font-family="Helvetica" font-size="11" lengthAdjust="spacing" textLength="36.04" x="812.5225" y="518.1089">jamais</text><text fill="#10241F" font-family="Helvetica" font-size="11" lengthAdjust="spacing" textLength="40.2886" x="764.137" y="530.9136">r&#233;&#233;crit)</text></g><!--link INFRA to ANONYMISE--><g id="link_INFRA_ANONYMISE"><path d="M789.25,457.0638 C790.5,457.2438 791.75,457.4138 793,457.5938 C902.94,473.1138 940.09,441.2938 1041,487.5938 C1105.65,517.2538 1159.1389,574.5332 1190.3289,612.7932 " fill="none" id="INFRA-to-ANONYMISE" style="stroke:#0B3D3A;stroke-width:1.2;"/><polygon fill="#0B3D3A" points="1194.12,617.4438,1191.5336,607.9406,1190.9607,613.5683,1185.3329,612.9954,1194.12,617.4438" style="stroke:#0B3D3A;stroke-width:1.2;"/><text fill="#10241F" font-family="Helvetica" font-size="11" lengthAdjust="spacing" textLength="42.9688" x="1128.6492" y="498.8042">&#233;criture</text><text fill="#10241F" font-family="Helvetica" font-size="11" lengthAdjust="spacing" textLength="3.4966" x="1171.6179" y="498.8042">&#160;</text><text fill="#10241F" font-family="Helvetica" font-size="11" lengthAdjust="spacing" textLength="35.4116" x="1175.1145" y="498.8042">(sortie</text><text fill="#10241F" font-family="Helvetica" font-size="11" lengthAdjust="spacing" textLength="3.4966" x="1210.5261" y="498.8042">&#160;</text><text fill="#10241F" font-family="Helvetica" font-size="11" lengthAdjust="spacing" textLength="44.2793" x="1214.0227" y="498.8042">s&#233;par&#233;e</text><text fill="#10241F" font-family="Helvetica" font-size="11" lengthAdjust="spacing" textLength="13.75" x="1139.4451" y="511.6089">de</text><text fill="#10241F" font-family="Helvetica" font-size="11" lengthAdjust="spacing" textLength="3.4966" x="1153.1951" y="511.6089">&#160;</text><text fill="#10241F" font-family="Helvetica" font-size="11" lengthAdjust="spacing" textLength="90.8145" x="1156.6917" y="511.6089">l'anonymisation,</text><text fill="#10241F" font-family="Helvetica" font-size="11" lengthAdjust="spacing" textLength="76.9893" x="1154.981" y="524.4136">incr&#233;mentale)</text><text fill="#10241F" font-family="Helvetica" font-size="11" lengthAdjust="spacing" textLength="11.0806" x="1119" y="537.2183">et</text><text fill="#10241F" font-family="Helvetica" font-size="11" lengthAdjust="spacing" textLength="3.4966" x="1130.0806" y="537.2183">&#160;</text><text fill="#10241F" font-family="Helvetica" font-size="11" lengthAdjust="spacing" textLength="19.481" x="1133.5771" y="537.2183">des</text><text fill="#10241F" font-family="Helvetica" font-size="11" lengthAdjust="spacing" textLength="3.4966" x="1153.0581" y="537.2183">&#160;</text><text fill="#10241F" font-family="Helvetica" font-size="11" lengthAdjust="spacing" textLength="28.8696" x="1156.5547" y="537.2183">splits</text><text fill="#10241F" font-family="Helvetica" font-size="11" lengthAdjust="spacing" textLength="3.4966" x="1185.4243" y="537.2183">&#160;</text><text fill="#10241F" font-family="Helvetica" font-size="11" lengthAdjust="spacing" textLength="79.0303" x="1188.9209" y="537.2183">(train/val/test)</text></g><!--link YDATA to RAPPORTS--><g id="link_YDATA_RAPPORTS"><path d="M128,673.5038 C128,716.0138 128,804.9838 128,851.4538 " fill="none" id="YDATA-to-RAPPORTS" style="stroke:#0B3D3A;stroke-width:1.2;"/><polygon fill="#0B3D3A" points="128,857.4538,132,848.4538,128,852.4538,124,848.4538,128,857.4538" style="stroke:#0B3D3A;stroke-width:1.2;"/><text fill="#10241F" font-family="Helvetica" font-size="11" lengthAdjust="spacing" textLength="38.7793" x="129" y="785.8042">g&#233;n&#232;re</text></g><!--link INFRA to MLFLOW--><g id="link_INFRA_MLFLOW"><path d="M789.28,438.6938 C949.63,442.6838 1234.51,454.2438 1476,487.5938 C1649.83,511.5938 1700.95,500.9138 1862,570.5938 C1896.08,585.3438 1925.8565,607.054 1948.0365,625.204 " fill="none" id="INFRA-to-MLFLOW" style="stroke:#0B3D3A;stroke-width:1.2;stroke-dasharray:7.0,7.0;"/><polygon fill="#0B3D3A" points="1952.68,629.0038,1948.248,620.2085,1948.8104,625.8373,1943.1816,626.3997,1952.68,629.0038" style="stroke:#0B3D3A;stroke-width:1.2;"/><text fill="#10241F" font-family="Helvetica" font-size="11" lengthAdjust="spacing" textLength="60.1616" x="1786" y="511.8042">(optionnel)</text><text fill="#10241F" font-family="Helvetica" font-size="11" lengthAdjust="spacing" textLength="3.4966" x="1846.1616" y="511.8042">&#160;</text><text fill="#10241F" font-family="Helvetica" font-size="11" lengthAdjust="spacing" textLength="16.7686" x="1849.6582" y="511.8042">log</text><text fill="#10241F" font-family="Helvetica" font-size="11" lengthAdjust="spacing" textLength="3.4966" x="1866.4268" y="511.8042">&#160;</text><text fill="#10241F" font-family="Helvetica" font-size="11" lengthAdjust="spacing" textLength="13.75" x="1869.9233" y="511.8042">de</text><text fill="#10241F" font-family="Helvetica" font-size="11" lengthAdjust="spacing" textLength="63.7065" x="1802.9834" y="524.6089">statistiques</text></g><!--link ANONYMISE to HFHUB--><g id="link_ANONYMISE_HFHUB"><path d="M1264.36,684.6737 C1287.87,700.4638 1317.56,718.7338 1346,731.5938 C1453.135,780.0387 1579.7325,817.9488 1680.1163,843.8538 C1730.3081,856.8063 1773.9466,866.7575 1805.322,873.5238 C1821.0098,876.9069 1833.6318,879.4938 1842.4743,881.2614 C1844.685,881.7033 1840.7718,880.9379 1842.4989,881.277 " fill="none" id="ANONYMISE-to-HFHUB" style="stroke:#0B3D3A;stroke-width:1.2;"/><polygon fill="#0B3D3A" points="1848.3864,882.4332,1840.3259,876.7739,1843.4801,881.4697,1838.7843,884.624,1848.3864,882.4332" style="stroke:#0B3D3A;stroke-width:1.2;"/><text fill="#10241F" font-family="Helvetica" font-size="11" lengthAdjust="spacing" textLength="78.2085" x="1561.0535" y="772.8042">push_to_hub()</text><text fill="#10241F" font-family="Helvetica" font-size="11" lengthAdjust="spacing" textLength="48.0552" x="1526.4529" y="785.6089">(Livrable</text><text fill="#10241F" font-family="Helvetica" font-size="11" lengthAdjust="spacing" textLength="3.4966" x="1574.5081" y="785.6089">&#160;</text><text fill="#10241F" font-family="Helvetica" font-size="11" lengthAdjust="spacing" textLength="10.4951" x="1578.0046" y="785.6089">1,</text><text fill="#10241F" font-family="Helvetica" font-size="11" lengthAdjust="spacing" textLength="3.4966" x="1588.4998" y="785.6089">&#160;</text><text fill="#10241F" font-family="Helvetica" font-size="11" lengthAdjust="spacing" textLength="23.9551" x="1591.9963" y="785.6089">hors</text><text fill="#10241F" font-family="Helvetica" font-size="11" lengthAdjust="spacing" textLength="3.4966" x="1615.9514" y="785.6089">&#160;</text><text fill="#10241F" font-family="Helvetica" font-size="11" lengthAdjust="spacing" textLength="54.4146" x="1619.448" y="785.6089">p&#233;rim&#232;tre</text><text fill="#10241F" font-family="Helvetica" font-size="11" lengthAdjust="spacing" textLength="13.75" x="1525" y="798.4136">de</text><text fill="#10241F" font-family="Helvetica" font-size="11" lengthAdjust="spacing" textLength="3.4966" x="1538.75" y="798.4136">&#160;</text><text fill="#10241F" font-family="Helvetica" font-size="11" lengthAdjust="spacing" textLength="12.8154" x="1542.2466" y="798.4136">ce</text><text fill="#10241F" font-family="Helvetica" font-size="11" lengthAdjust="spacing" textLength="3.4966" x="1555.062" y="798.4136">&#160;</text><text fill="#10241F" font-family="Helvetica" font-size="11" lengthAdjust="spacing" textLength="66.7197" x="1558.5586" y="798.4136">diagramme,</text><text fill="#10241F" font-family="Helvetica" font-size="11" lengthAdjust="spacing" textLength="3.4966" x="1625.2783" y="798.4136">&#160;</text><text fill="#10241F" font-family="Helvetica" font-size="11" lengthAdjust="spacing" textLength="31.7539" x="1628.7749" y="798.4136">&#201;tape</text><text fill="#10241F" font-family="Helvetica" font-size="11" lengthAdjust="spacing" textLength="3.4966" x="1660.5288" y="798.4136">&#160;</text><text fill="#10241F" font-family="Helvetica" font-size="11" lengthAdjust="spacing" textLength="11.29" x="1664.0254" y="798.4136">4)</text></g><!--link LOCAL to GMN36--><g id="link_LOCAL_GMN36"><path d="M1492.6926,179.5206 C1492.9396,179.5192 1493.1916,179.5179 1493.4487,179.5165 C1493.9628,179.5139 1494.4971,179.5113 1495.0513,179.5088 C1497.2679,179.4991 1499.8029,179.4914 1502.6423,179.488 C1514.0003,179.4745 1530.2306,179.5295 1550.4488,179.7941 C1590.885,180.3231 1647.2725,181.69 1712.535,185.0213 C1843.06,191.6838 2009.085,206.2038 2154,237.5938 C2187.97,244.9538 2224.23,256.8438 2255.58,268.4938 " fill="none" id="LOCAL-GMN36" style="stroke:#0B3D3A;stroke-width:1.2;stroke-dasharray:7.0,7.0;"/></g><!--link ANONYMISE to GMN39--><g id="link_ANONYMISE_GMN39"><path d="M1242.33,617.3238 C1267.7,583.8838 1311.64,534.7738 1363.5,514.0938 C1402.72,498.4538 1417.89,502.5538 1458.5,514.0938 C1499.71,525.8038 1540.76,547.6138 1576.12,570.4438 " fill="none" id="ANONYMISE-GMN39" style="stroke:#0B3D3A;stroke-width:1.2;stroke-dasharray:7.0,7.0;"/></g><!--SRC=[bLRTRjis5BxtKvpvPdRXo4dM3Lil2cXEqXYmOzVk3me446Y9jbbGf4fIphAX3z2ts6LzlpVGY-qZwPya7GeCY0E9FF_dEz_H3qBbiYuu9KaVVrckorAhFhTEI9s8kfIjbXDEScg-E5PnEgCNT27Ooh2ov0J5ejbMKWjUSkLkrQNQ2AEL2g-KKaVgdCaUlP-FphizgWoacM5EQ0LbImLacosthLOkTLrG-xfUhOHQqHNBELtNYpOnIzTNrsz_fxzQHCmuiMIve_QO5-9rAiFzuEpHrPNXAbz3O3nudKQ1ywUwh-lq8bxzzEZghNI6UTi8-sHg-99xOpoAFczzRhMKHjRjgRQEKyYEEZwx7lrChpJDqd4t28ycWtI4c64zQZmkJRsXJhBXQXEbtrtUl0i94g45bLPUfYsKumPnSTlFfUW_IwhxMzMfDCvHkXyXWthoQ64m6ZvLpzUMPSwWMpnXLIMHaozy44-dq- -95xfa8afUJCRVanHgQPXrfivTRU2dO1M2ja5rU7CrIvygsueDV1fB0xGPdYb-PxEow15NyU2EBp9RngpcqtJmuQa5jCMAGcWOIHMJztzoSwc06jwZL6brNuh3IRGodLtEXnV3oLD3zmLpxAGoUYaaG1TaFroaRtpCdttd_Fs2MNJFF_KDk-l3wRFaezKAg7wMv7RNm5dw_bjvM4RlB2-WvGyiTrabDjf50p0rcGrV3M_IKOy-CbJSKgaBiHJDbXXcvQkbPfiRuIkxosJuRlBcVpZAM2o8vGUNIv6l1JSqRxvCqrdpfOT1h6guFlsrV_fR__pq_9VeAxsPt7mO3-UNt_Td02rjdCrY7O4907NjIhchotGwcRsP7oTdF5fAVRTZ1j8rhPljWfjLiurknwEhqUHzgnM7_kJafOSsMEVoB3izonoNF5ypi-81FbLjur2CUEvuRGRXQ4SYdaDwjseTt_mSPUjwaKZDYcnNfKwts_BclHkq46vYmG-7Vaxm2yz-4lRF4ThXVtYFG3s-7o1tF8h8Ehv7VqZ7j_UXgk_n8HBSKQTMd2olGSDBBInoohMACnU8jARGxEv_6DcPZzgeqnuFWGaEg0EDH6yFJHpw_pWMYsOB60nC3le1ua24FpunZBs2IqzrJFBkhU8kyBq52u6xEY1PeVeR9liEkwRR2hNPLIK21au12TLyFTGcILxkm86xZgwy8yLb5ooyyfl8ElZ6ulfKOvySW_T68vPU4B2npfpsCEXqFMh4nh05odhMexKsbgfcQqJPV7KcveKbLEotNM-_0vztFPP1_mljd2v9BoFROqxIElUzyakHOnAnEUZLz2t6HrdOSf3WZzP09rycM8AvxGFRZwww2OITDlcQ-bGhAxNpJnifI_9eqD2UfdC82K21ITbiBObS92qu9X_UBaWZLcldOtmupn4UQCgnJi5YmUi_QCSG5d9xafZlIGArEl84TTY6GUi50eImnzXUcShQWSMueafYyBe9jI-QxSVcRxzjTr1fjcte-69XOvHWQmAYIBBmcM3zslNCuy4b2bG4lEYTXLeUmjv3699UkLO4TYYhmqoGHlv2-M-GJxKWR0x7GysSN_ULhWrLSCuTEXwqjL-g_o3DJpK3LfljpZ9eUNamHXkRF4WZ2N7ckeQfB48ShDJVS8EOSMHuvRymF62Frzwkt-GU1XPXV9DIE0sDUj3JVm40]--></g></svg>