<svg xmlns="http://www.w3.org/2000/svg" xmlns:xlink="http://www.w3.org/1999/xlink" contentStyleType="text/css" height="1787px" preserveAspectRatio="none" style="width:1129px;height:1787px;background:#F6F4EF;" version="1.1" viewBox="0 0 1129 1787" width="1129px" zoomAndPan="magnify"><title>&#201;tape 1 &#8212; Diagramme de s&#233;quence</title><defs/><g><rect fill="#F6F4EF" height="1787" style="stroke:none;stroke-width:1;" width="1129" x="0" y="0"/><text fill="#000000" font-family="Helvetica" font-size="14" font-weight="bold" lengthAdjust="spacing" textLength="278.8311" x="426.9399" y="27.9951">&#201;tape 1 &#8212; Diagramme de s&#233;quence</text><text fill="#000000" font-family="Helvetica" font-size="14" font-weight="bold" lengthAdjust="spacing" textLength="581.9434" x="275.3838" y="44.292">Anonymisation RGPD du dataset pivot (cas d'usage r&#233;el, classes du code)</text><rect fill="#F0EEE7" height="1722.2188" rx="3" ry="3" style="stroke:#0B3D3A;stroke-width:0.5;" width="205.8389" x="172.7573" y="59.5938"/><text fill="#000000" font-family="Helvetica" font-size="13" font-weight="bold" lengthAdjust="spacing" textLength="95.2085" x="228.0725" y="71.6606">interfaces/cli</text><rect fill="#F0EEE7" height="1722.2188" rx="3" ry="3" style="stroke:#0B3D3A;stroke-width:0.5;" width="244.1064" x="380.5962" y="59.5938"/><text fill="#000000" font-family="Helvetica" font-size="13" font-weight="bold" lengthAdjust="spacing" textLength="81.6309" x="461.834" y="71.6606">application</text><rect fill="#F0EEE7" height="1722.2188" rx="3" ry="3" style="stroke:#0B3D3A;stroke-width:0.5;" width="408.2622" x="709.4487" y="59.5938"/><text fill="#000000" font-family="Helvetica" font-size="13" font-weight="bold" lengthAdjust="spacing" textLength="172.6563" x="827.2517" y="71.6606">infrastructure/adapters</text><rect fill="#EFEAE0" height="1437.0078" style="stroke:#0B3D3A;stroke-width:1;" width="10" x="270.6768" y="231.2109"/><rect fill="#EFEAE0" height="1106.0469" style="stroke:#0B3D3A;stroke-width:1;" width="10" x="497.6494" y="522.5625"/><rect fill="#EFEAE0" height="176.2422" style="stroke:#0B3D3A;stroke-width:1;" width="10" x="502.6494" y="1025.3359"/><rect fill="#EFEAE0" height="39.6094" style="stroke:#0B3D3A;stroke-width:1;" width="10" x="807.9697" y="562.1719"/><rect fill="#EFEAE0" height="263.5469" style="stroke:#0B3D3A;stroke-width:1;" width="10" x="807.9697" y="1338.2578"/><rect fill="#EFEAE0" height="26.8047" style="stroke:#0B3D3A;stroke-width:1;" width="10" x="1017.7964" y="1069.9453"/><rect fill="#FFFFFF" height="350.6172" rx="3" ry="3" style="stroke:#0B3D3A;stroke-width:1.5;" width="416.8384" x="374.5962" y="616.7813"/><path d="M374.5962,673.7188 L791.4346,673.7188 L791.4346,964.3984 A3,3 0 0 1 788.4346,967.3984 L377.5962,967.3984 A3,3 0 0 1 374.5962,964.3984 L374.5962,673.7188 " fill="#FFFFFF" style="stroke:none;stroke-width:1;"/><rect fill="#FFFFFF" height="331.0547" rx="3" ry="3" style="stroke:#0B3D3A;stroke-width:1.5;" width="749.1147" x="374.5962" y="981.3984"/><line style="stroke:#0B3D3A;stroke-width:0.5;stroke-dasharray:5.0,5.0;" x1="82" x2="82" y1="151.1875" y2="1686.2188"/><line style="stroke:#0B3D3A;stroke-width:0.5;stroke-dasharray:5.0,5.0;" x1="274.7573" x2="274.7573" y1="151.1875" y2="1686.2188"/><line style="stroke:#0B3D3A;stroke-width:0.5;stroke-dasharray:5.0,5.0;" x1="502.5962" x2="502.5962" y1="151.1875" y2="1686.2188"/><line style="stroke:#0B3D3A;stroke-width:0.5;stroke-dasharray:5.0,5.0;" x1="812.4487" x2="812.4487" y1="151.1875" y2="1686.2188"/><line style="stroke:#0B3D3A;stroke-width:0.5;stroke-dasharray:5.0,5.0;" x1="1021.8818" x2="1021.8818" y1="151.1875" y2="1686.2188"/><text fill="#000000" font-family="Helvetica" font-size="14" lengthAdjust="spacing" textLength="89.7627" x="35.1021" y="131.5889">D&#233;veloppeur</text><text fill="#000000" font-family="Helvetica" font-size="14" lengthAdjust="spacing" textLength="149.9668" x="5" y="147.8857">(ligne de commande)</text><ellipse cx="82.9834" cy="67.0938" fill="#FFFFFF" rx="8" ry="8" style="stroke:#0B3D3A;stroke-width:0.5;"/><path d="M82.9834,75.0938 L82.9834,102.0938 M69.9834,83.0938 L95.9834,83.0938 M82.9834,102.0938 L69.9834,117.0938 M82.9834,102.0938 L95.9834,117.0938 " fill="none" style="stroke:#0B3D3A;stroke-width:0.5;"/><text fill="#000000" font-family="Helvetica" font-size="14" lengthAdjust="spacing" textLength="89.7627" x="35.1021" y="1698.2139">D&#233;veloppeur</text><text fill="#000000" font-family="Helvetica" font-size="14" lengthAdjust="spacing" textLength="149.9668" x="5" y="1714.5107">(ligne de commande)</text><ellipse cx="82.9834" cy="1726.3125" fill="#FFFFFF" rx="8" ry="8" style="stroke:#0B3D3A;stroke-width:0.5;"/><path d="M82.9834,1734.3125 L82.9834,1761.3125 M69.9834,1742.3125 L95.9834,1742.3125 M82.9834,1761.3125 L69.9834,1776.3125 M82.9834,1761.3125 L95.9834,1776.3125 " fill="none" style="stroke:#0B3D3A;stroke-width:0.5;"/><rect fill="#FFFFFF" height="30.2969" rx="3" ry="3" style="stroke:#0B3D3A;stroke-width:0.5;" width="197.8389" x="176.7573" y="119.8906"/><text fill="#10241F" font-family="Helvetica" font-size="14" font-weight="bold" lengthAdjust="spacing" textLength="183.8389" x="183.7573" y="139.8857">anonymiser_dataset.py</text><rect fill="#FFFFFF" height="30.2969" rx="3" ry="3" style="stroke:#0B3D3A;stroke-width:0.5;" width="197.8389" x="176.7573" y="1685.2188"/><text fill="#10241F" font-family="Helvetica" font-size="14" font-weight="bold" lengthAdjust="spacing" textLength="183.8389" x="183.7573" y="1705.2139">anonymiser_dataset.py</text><rect fill="#FFFFFF" height="30.2969" rx="3" ry="3" style="stroke:#0B3D3A;stroke-width:0.5;" width="236.1064" x="384.5962" y="119.8906"/><text fill="#10241F" font-family="Helvetica" font-size="14" font-weight="bold" lengthAdjust="spacing" textLength="222.1064" x="391.5962" y="139.8857">AnonymiserDatasetUseCase</text><rect fill="#FFFFFF" height="30.2969" rx="3" ry="3" style="stroke:#0B3D3A;stroke-width:0.5;" width="236.1064" x="384.5962" y="1685.2188"/><text fill="#10241F" font-family="Helvetica" font-size="14" font-weight="bold" lengthAdjust="spacing" textLength="222.1064" x="391.5962" y="1705.2139">AnonymiserDatasetUseCase</text><rect fill="#FFFFFF" height="30.2969" rx="3" ry="3" style="stroke:#0B3D3A;stroke-width:0.5;" width="199.042" x="713.4487" y="119.8906"/><text fill="#10241F" font-family="Helvetica" font-size="14" font-weight="bold" lengthAdjust="spacing" textLength="185.042" x="720.4487" y="139.8857">JsonlDatasetRepository</text><rect fill="#FFFFFF" height="30.2969" rx="3" ry="3" style="stroke:#0B3D3A;stroke-width:0.5;" width="199.042" x="713.4487" y="1685.2188"/><text fill="#10241F" font-family="Helvetica" font-size="14" font-weight="bold" lengthAdjust="spacing" textLength="185.042" x="720.4487" y="1705.2139">JsonlDatasetRepository</text><rect fill="#FFFFFF" height="30.2969" rx="3" ry="3" style="stroke:#0B3D3A;stroke-width:0.5;" width="181.8291" x="931.8818" y="119.8906"/><text fill="#10241F" font-family="Helvetica" font-size="14" font-weight="bold" lengthAdjust="spacing" textLength="167.8291" x="938.8818" y="139.8857">PresidioAnonymiseur</text><rect fill="#FFFFFF" height="30.2969" rx="3" ry="3" style="stroke:#0B3D3A;stroke-width:0.5;" width="181.8291" x="931.8818" y="1685.2188"/><text fill="#10241F" font-family="Helvetica" font-size="14" font-weight="bold" lengthAdjust="spacing" textLength="167.8291" x="938.8818" y="1705.2139">PresidioAnonymiseur</text><rect fill="#EFEAE0" height="1437.0078" style="stroke:#0B3D3A;stroke-width:1;" width="10" x="270.6768" y="231.2109"/><rect fill="#EFEAE0" height="1106.0469" style="stroke:#0B3D3A;stroke-width:1;" width="10" x="497.6494" y="522.5625"/><rect fill="#EFEAE0" height="176.2422" style="stroke:#0B3D3A;stroke-width:1;" width="10" x="502.6494" y="1025.3359"/><rect fill="#EFEAE0" height="39.6094" style="stroke:#0B3D3A;stroke-width:1;" width="10" x="807.9697" y="562.1719"/><rect fill="#EFEAE0" height="263.5469" style="stroke:#0B3D3A;stroke-width:1;" width="10" x="807.9697" y="1338.2578"/><rect fill="#EFEAE0" height="26.8047" style="stroke:#0B3D3A;stroke-width:1;" width="10" x="1017.7964" y="1069.9453"/><polygon fill="#0B3D3A" points="258.6768,227.2109,268.6768,231.2109,258.6768,235.2109,262.6768,231.2109" style="stroke:#0B3D3A;stroke-width:1;"/><line style="stroke:#0B3D3A;stroke-width:1.2;" x1="82.9834" x2="264.6768" y1="231.2109" y2="231.2109"/><text fill="#10241F" font-family="Helvetica" font-size="11" font-weight="bold" lengthAdjust="spacing" textLength="11.8325" x="104.5171" y="201.0073">1.</text><text fill="#10241F" font-family="Helvetica" font-size="11" lengthAdjust="spacing" textLength="13.4814" x="146.0369" y="175.3979">uv</text><text fill="#10241F" font-family="Helvetica" font-size="11" lengthAdjust="spacing" textLength="3.4966" x="159.5183" y="175.3979">&#160;</text><text fill="#10241F" font-family="Helvetica" font-size="11" lengthAdjust="spacing" textLength="18.4658" x="163.0149" y="175.3979">run</text><text fill="#10241F" font-family="Helvetica" font-size="11" lengthAdjust="spacing" textLength="3.4966" x="181.4807" y="175.3979">&#160;</text><text fill="#10241F" font-family="Helvetica" font-size="11" lengthAdjust="spacing" textLength="38.4785" x="184.9773" y="175.3979">python</text><text fill="#10241F" font-family="Helvetica" font-size="11" lengthAdjust="spacing" textLength="128.7935" x="120.3496" y="188.2026">anonymiser_dataset.py</text><text fill="#10241F" font-family="Helvetica" font-size="11" lengthAdjust="spacing" textLength="49.5269" x="122.6753" y="201.0073">--dataset</text><text fill="#10241F" font-family="Helvetica" font-size="11" lengthAdjust="spacing" textLength="3.4966" x="172.2021" y="201.0073">&#160;</text><text fill="#10241F" font-family="Helvetica" font-size="11" lengthAdjust="spacing" textLength="10.4897" x="175.6987" y="201.0073">...</text><text fill="#10241F" font-family="Helvetica" font-size="11" lengthAdjust="spacing" textLength="3.4966" x="186.1885" y="201.0073">&#160;</text><text fill="#10241F" font-family="Helvetica" font-size="11" lengthAdjust="spacing" textLength="57.1323" x="189.6851" y="201.0073">--strategie</text><text fill="#10241F" font-family="Helvetica" font-size="11" lengthAdjust="spacing" textLength="113.228" x="128.1323" y="213.812">replace|mask|redact</text><text fill="#10241F" font-family="Helvetica" font-size="11" lengthAdjust="spacing" textLength="38.9028" x="139.2183" y="226.6167">--limite</text><text fill="#10241F" font-family="Helvetica" font-size="11" lengthAdjust="spacing" textLength="3.4966" x="178.1211" y="226.6167">&#160;</text><text fill="#10241F" font-family="Helvetica" font-size="11" lengthAdjust="spacing" textLength="48.6567" x="181.6177" y="226.6167">5000|full</text><path d="M285,247.2109 L285,402.2109 A3,3 0 0 0 288,405.2109 L621,405.2109 A3,3 0 0 0 624,402.2109 L624,254.2109 L614,244.2109 L288,244.2109 A3,3 0 0 0 285,247.2109 " fill="#FDF6EC" style="stroke:#C98A1E;stroke-width:0.5;"/><path d="M614,244.2109 L614,252.7109 A1.5,1.5 0 0 0 615.5,254.2109 L624,254.2109 L614,244.2109 " fill="#FDF6EC" style="stroke:#C98A1E;stroke-width:0.5;"/><text fill="#4A3400" font-family="Helvetica" font-size="13" lengthAdjust="spacing" textLength="256.4263" x="291" y="261.2778">--limite (08/09/2026, decision produit) :</text><text fill="#4A3400" font-family="Helvetica" font-size="13" lengthAdjust="spacing" textLength="278.2178" x="291" y="276.4106">mesure reelle sur les 147204 exemples du</text><text fill="#4A3400" font-family="Helvetica" font-size="13" lengthAdjust="spacing" textLength="270.6006" x="291" y="291.5435">dataset pivot -&gt; anonymisation complete</text><text fill="#4A3400" font-family="Helvetica" font-size="13" lengthAdjust="spacing" textLength="264.9512" x="291" y="306.6763">~19h (cout NLP Presidio/spaCy, pas I/O).</text><text fill="#4A3400" font-family="Helvetica" font-size="13" lengthAdjust="spacing" textLength="239.8906" x="291" y="321.8091">Plutot que choisir entre "echantillon"</text><text fill="#4A3400" font-family="Helvetica" font-size="13" lengthAdjust="spacing" textLength="318.2144" x="291" y="336.9419">et "complet", le champ ExemplePivot.anonymise</text><text fill="#4A3400" font-family="Helvetica" font-size="13" lengthAdjust="spacing" textLength="280.9092" x="291" y="352.0747">rend le processus incremental/reprenable :</text><text fill="#4A3400" font-family="Helvetica" font-size="13" lengthAdjust="spacing" textLength="228.7568" x="291" y="367.2075">chaque appel traite au plus --limite</text><text fill="#4A3400" font-family="Helvetica" font-size="13" lengthAdjust="spacing" textLength="313.1045" x="291" y="382.3403">exemples parmi ceux encore anonymise=False,</text><text fill="#4A3400" font-family="Helvetica" font-size="13" lengthAdjust="spacing" textLength="220.3081" x="291" y="397.4731">le reste attend un appel ulterieur.</text><polygon fill="#0B3D3A" points="800.9697,425.3438,810.9697,429.3438,800.9697,433.3438,804.9697,429.3438" style="stroke:#0B3D3A;stroke-width:1;"/><line style="stroke:#0B3D3A;stroke-width:1.2;" x1="280.6768" x2="806.9697" y1="429.3438" y2="429.3438"/><text fill="#10241F" font-family="Helvetica" font-size="11" font-weight="bold" lengthAdjust="spacing" textLength="11.8325" x="479.4382" y="424.7495">2.</text><text fill="#10241F" font-family="Helvetica" font-size="11" lengthAdjust="spacing" textLength="118.9375" x="495.2708" y="424.7495">new(chemin_dataset)</text><polygon fill="#0B3D3A" points="1010.7964,452.1484,1020.7964,456.1484,1010.7964,460.1484,1014.7964,456.1484" style="stroke:#0B3D3A;stroke-width:1;"/><line style="stroke:#0B3D3A;stroke-width:1.2;" x1="280.6768" x2="1016.7964" y1="456.1484" y2="456.1484"/><text fill="#10241F" font-family="Helvetica" font-size="11" font-weight="bold" lengthAdjust="spacing" textLength="11.8325" x="603.564" y="451.5542">3.</text><text fill="#10241F" font-family="Helvetica" font-size="11" lengthAdjust="spacing" textLength="80.5127" x="619.3965" y="451.5542">new(strategie)</text><polygon fill="#0B3D3A" points="490.6494,491.7578,500.6494,495.7578,490.6494,499.7578,494.6494,495.7578" style="stroke:#0B3D3A;stroke-width:1;"/><line style="stroke:#0B3D3A;stroke-width:1.2;" x1="280.6768" x2="496.6494" y1="495.7578" y2="495.7578"/><text fill="#10241F" font-family="Helvetica" font-size="11" font-weight="bold" lengthAdjust="spacing" textLength="11.8325" x="326.7783" y="484.7612">4.</text><text fill="#10241F" font-family="Helvetica" font-size="11" lengthAdjust="spacing" textLength="86.3887" x="356.385" y="478.3589">new(repository,</text><text fill="#10241F" font-family="Helvetica" font-size="11" lengthAdjust="spacing" textLength="75.1846" x="342.6108" y="491.1636">anonymiseur,</text><text fill="#10241F" font-family="Helvetica" font-size="11" lengthAdjust="spacing" textLength="3.4966" x="417.7954" y="491.1636">&#160;</text><text fill="#10241F" font-family="Helvetica" font-size="11" lengthAdjust="spacing" textLength="35.2559" x="421.292" y="491.1636">limite)</text><polygon fill="#0B3D3A" points="485.6494,518.5625,495.6494,522.5625,485.6494,526.5625,489.6494,522.5625" style="stroke:#0B3D3A;stroke-width:1;"/><line style="stroke:#0B3D3A;stroke-width:1.2;" x1="280.6768" x2="491.6494" y1="522.5625" y2="522.5625"/><text fill="#10241F" font-family="Helvetica" font-size="11" font-weight="bold" lengthAdjust="spacing" textLength="11.8325" x="352.6216" y="517.9683">5.</text><text fill="#10241F" font-family="Helvetica" font-size="11" lengthAdjust="spacing" textLength="57.2505" x="368.4541" y="517.9683">executer()</text><polygon fill="#0B3D3A" points="795.9697,558.1719,805.9697,562.1719,795.9697,566.1719,799.9697,562.1719" style="stroke:#0B3D3A;stroke-width:1;"/><line style="stroke:#0B3D3A;stroke-width:1.2;" x1="507.6494" x2="801.9697" y1="562.1719" y2="562.1719"/><text fill="#10241F" font-family="Helvetica" font-size="11" font-weight="bold" lengthAdjust="spacing" textLength="11.8325" x="581.1729" y="551.1753">6.</text><text fill="#10241F" font-family="Helvetica" font-size="11" lengthAdjust="spacing" textLength="137.4409" x="597.0054" y="544.7729">lister(filtre={anonymise:</text><text fill="#10241F" font-family="Helvetica" font-size="11" lengthAdjust="spacing" textLength="39.9126" x="645.7695" y="557.5776">False})</text><polygon fill="#0B3D3A" points="518.6494,597.7813,508.6494,601.7813,518.6494,605.7813,514.6494,601.7813" style="stroke:#0B3D3A;stroke-width:1;"/><line style="stroke:#0B3D3A;stroke-width:1.2;stroke-dasharray:2.0,2.0;" x1="512.6494" x2="811.9697" y1="601.7813" y2="601.7813"/><text fill="#10241F" font-family="Helvetica" font-size="11" font-weight="bold" lengthAdjust="spacing" textLength="11.8325" x="574.5232" y="590.7847">7.</text><text fill="#10241F" font-family="Helvetica" font-size="11" lengthAdjust="spacing" textLength="99.7305" x="618.3606" y="584.3823">list[ExemplePivot]</text><text fill="#10241F" font-family="Helvetica" font-size="11" lengthAdjust="spacing" textLength="57.8574" x="590.3557" y="597.187">(candidats</text><text fill="#10241F" font-family="Helvetica" font-size="11" lengthAdjust="spacing" textLength="3.4966" x="648.2131" y="597.187">&#160;</text><text fill="#10241F" font-family="Helvetica" font-size="11" lengthAdjust="spacing" textLength="20.6733" x="651.7097" y="597.187">non</text><text fill="#10241F" font-family="Helvetica" font-size="11" lengthAdjust="spacing" textLength="3.4966" x="672.3831" y="597.187">&#160;</text><text fill="#10241F" font-family="Helvetica" font-size="11" lengthAdjust="spacing" textLength="70.2163" x="675.8796" y="597.187">anonymises)</text><path d="M377.5962,616.7813 L439.0391,616.7813 L439.0391,623.9141 L429.0391,633.9141 L374.5962,633.9141 L374.5962,619.7813 A3,3 0 0 1 377.5962,616.7813 " fill="#EEEEEE" style="stroke:#000000;stroke-width:1.5;"/><rect fill="none" height="350.6172" rx="3" ry="3" style="stroke:#0B3D3A;stroke-width:1.5;" width="416.8384" x="374.5962" y="616.7813"/><text fill="#000000" font-family="Helvetica" font-size="13" font-weight="bold" lengthAdjust="spacing" textLength="19.4429" x="389.5962" y="629.8481">alt</text><text fill="#000000" font-family="Helvetica" font-size="11" font-weight="bold" lengthAdjust="spacing" textLength="303.8911" x="454.0391" y="628.9917">[limite is None (full) ou limite &gt;= len(candidats)]</text><line style="stroke:#0B3D3A;stroke-width:1.2;" x1="507.6494" x2="549.6494" y1="652.7188" y2="652.7188"/><line style="stroke:#0B3D3A;stroke-width:1.2;" x1="549.6494" x2="549.6494" y1="652.7188" y2="665.7188"/><line style="stroke:#0B3D3A;stroke-width:1.2;" x1="508.6494" x2="549.6494" y1="665.7188" y2="665.7188"/><polygon fill="#0B3D3A" points="518.6494,661.7188,508.6494,665.7188,518.6494,669.7188,514.6494,665.7188" style="stroke:#0B3D3A;stroke-width:1;"/><text fill="#10241F" font-family="Helvetica" font-size="11" font-weight="bold" lengthAdjust="spacing" textLength="11.8325" x="514.6494" y="648.1245">8.</text><text fill="#10241F" font-family="Helvetica" font-size="11" lengthAdjust="spacing" textLength="46.4761" x="530.4819" y="648.1245">a_traiter</text><text fill="#10241F" font-family="Helvetica" font-size="11" lengthAdjust="spacing" textLength="3.4966" x="576.958" y="648.1245">&#160;</text><text fill="#10241F" font-family="Helvetica" font-size="11" lengthAdjust="spacing" textLength="9.2168" x="580.4546" y="648.1245">=</text><text fill="#10241F" font-family="Helvetica" font-size="11" lengthAdjust="spacing" textLength="3.4966" x="589.6714" y="648.1245">&#160;</text><text fill="#10241F" font-family="Helvetica" font-size="11" lengthAdjust="spacing" textLength="53.5659" x="593.168" y="648.1245">candidats</text><text fill="#10241F" font-family="Helvetica" font-size="11" lengthAdjust="spacing" textLength="3.4966" x="646.7339" y="648.1245">&#160;</text><text fill="#10241F" font-family="Helvetica" font-size="11" lengthAdjust="spacing" textLength="32.3286" x="650.2305" y="648.1245">(tous)</text><line style="stroke:#0B3D3A;stroke-width:1;stroke-dasharray:2.0,2.0;" x1="374.5962" x2="791.4346" y1="674.7188" y2="674.7188"/><text fill="#000000" font-family="Helvetica" font-size="11" font-weight="bold" lengthAdjust="spacing" textLength="152.061" x="379.5962" y="684.9292">[limite &lt; len(candidats)]</text><line style="stroke:#0B3D3A;stroke-width:1.2;" x1="507.6494" x2="549.6494" y1="720.1328" y2="720.1328"/><line style="stroke:#0B3D3A;stroke-width:1.2;" x1="549.6494" x2="549.6494" y1="720.1328" y2="733.1328"/><line style="stroke:#0B3D3A;stroke-width:1.2;" x1="508.6494" x2="549.6494" y1="733.1328" y2="733.1328"/><polygon fill="#0B3D3A" points="518.6494,729.1328,508.6494,733.1328,518.6494,737.1328,514.6494,733.1328" style="stroke:#0B3D3A;stroke-width:1;"/><text fill="#10241F" font-family="Helvetica" font-size="11" font-weight="bold" lengthAdjust="spacing" textLength="11.8325" x="514.6494" y="709.1362">9.</text><text fill="#10241F" font-family="Helvetica" font-size="11" lengthAdjust="spacing" textLength="175.4092" x="530.4819" y="702.7339">_echantillon_stratifie(candidats,</text><text fill="#10241F" font-family="Helvetica" font-size="11" lengthAdjust="spacing" textLength="35.2559" x="600.5586" y="715.5386">limite)</text><path d="M512,749.1328 L512,919.1328 A3,3 0 0 0 515,922.1328 L778,922.1328 A3,3 0 0 0 781,919.1328 L781,756.1328 L771,746.1328 L515,746.1328 A3,3 0 0 0 512,749.1328 " fill="#FDF6EC" style="stroke:#C98A1E;stroke-width:0.5;"/><path d="M771,746.1328 L771,754.6328 A1.5,1.5 0 0 0 772.5,756.1328 L781,756.1328 L771,746.1328 " fill="#FDF6EC" style="stroke:#C98A1E;stroke-width:0.5;"/><text fill="#4A3400" font-family="Helvetica" font-size="13" lengthAdjust="spacing" textLength="235.4409" x="518" y="763.1997">Groupe par (type_exemple, source),</text><text fill="#4A3400" font-family="Helvetica" font-size="13" lengthAdjust="spacing" textLength="197.5962" x="518" y="778.3325">quota proportionnel par strate</text><text fill="#4A3400" font-family="Helvetica" font-size="13" lengthAdjust="spacing" textLength="203.6392" x="518" y="793.4653">(methode du plus grand reste),</text><text fill="#4A3400" font-family="Helvetica" font-size="13" lengthAdjust="spacing" textLength="211.2056" x="518" y="808.5981">tirage aleatoire seede par strate</text><text fill="#4A3400" font-family="Helvetica" font-size="13" lengthAdjust="spacing" textLength="205.8862" x="518" y="823.731">(graine_aleatoire). Garantit que</text><text fill="#4A3400" font-family="Helvetica" font-size="13" lengthAdjust="spacing" textLength="229.5947" x="518" y="838.8638">chaque (type_exemple, source) est</text><text fill="#4A3400" font-family="Helvetica" font-size="13" lengthAdjust="spacing" textLength="239.0273" x="518" y="853.9966">represente dans l'echantillon, meme</text><text fill="#4A3400" font-family="Helvetica" font-size="13" lengthAdjust="spacing" textLength="208.0254" x="518" y="869.1294">quand les strates ont des tailles</text><text fill="#4A3400" font-family="Helvetica" font-size="13" lengthAdjust="spacing" textLength="248.4346" x="518" y="884.2622">tres differentes (ex. FrenchMedMCQA,</text><text fill="#4A3400" font-family="Helvetica" font-size="13" lengthAdjust="spacing" textLength="212.3228" x="518" y="899.395">595, vs UltraMedical-Preference,</text><text fill="#4A3400" font-family="Helvetica" font-size="13" lengthAdjust="spacing" textLength="58.8301" x="518" y="914.5278">109353).</text><line style="stroke:#0B3D3A;stroke-width:1.2;stroke-dasharray:2.0,2.0;" x1="507.6494" x2="549.6494" y1="946.3984" y2="946.3984"/><line style="stroke:#0B3D3A;stroke-width:1.2;stroke-dasharray:2.0,2.0;" x1="549.6494" x2="549.6494" y1="946.3984" y2="959.3984"/><line style="stroke:#0B3D3A;stroke-width:1.2;stroke-dasharray:2.0,2.0;" x1="508.6494" x2="549.6494" y1="959.3984" y2="959.3984"/><polygon fill="#0B3D3A" points="518.6494,955.3984,508.6494,959.3984,518.6494,963.3984,514.6494,959.3984" style="stroke:#0B3D3A;stroke-width:1;"/><text fill="#10241F" font-family="Helvetica" font-size="11" font-weight="bold" lengthAdjust="spacing" textLength="19.4863" x="514.6494" y="941.8042">10.</text><text fill="#10241F" font-family="Helvetica" font-size="11" lengthAdjust="spacing" textLength="46.4761" x="538.1357" y="941.8042">a_traiter</text><text fill="#10241F" font-family="Helvetica" font-size="11" lengthAdjust="spacing" textLength="3.4966" x="584.6118" y="941.8042">&#160;</text><text fill="#10241F" font-family="Helvetica" font-size="11" lengthAdjust="spacing" textLength="98.3984" x="588.1084" y="941.8042">(sous-echantillon)</text><path d="M377.5962,981.3984 L451.2202,981.3984 L451.2202,988.5313 L441.2202,998.5313 L374.5962,998.5313 L374.5962,984.3984 A3,3 0 0 1 377.5962,981.3984 " fill="#EEEEEE" style="stroke:#000000;stroke-width:1.5;"/><rect fill="none" height="331.0547" rx="3" ry="3" style="stroke:#0B3D3A;stroke-width:1.5;" width="749.1147" x="374.5962" y="981.3984"/><text fill="#000000" font-family="Helvetica" font-size="13" font-weight="bold" lengthAdjust="spacing" textLength="31.624" x="389.5962" y="994.4653">loop</text><text fill="#000000" font-family="Helvetica" font-size="11" font-weight="bold" lengthAdjust="spacing" textLength="251.7324" x="466.2202" y="993.6089">[pour chaque ExemplePivot de a_traiter]</text><line style="stroke:#0B3D3A;stroke-width:1.2;" x1="507.6494" x2="554.6494" y1="1012.3359" y2="1012.3359"/><line style="stroke:#0B3D3A;stroke-width:1.2;" x1="554.6494" x2="554.6494" y1="1012.3359" y2="1025.3359"/><line style="stroke:#0B3D3A;stroke-width:1.2;" x1="513.6494" x2="554.6494" y1="1025.3359" y2="1025.3359"/><polygon fill="#0B3D3A" points="523.6494,1021.3359,513.6494,1025.3359,523.6494,1029.3359,519.6494,1025.3359" style="stroke:#0B3D3A;stroke-width:1;"/><text fill="#10241F" font-family="Helvetica" font-size="11" font-weight="bold" lengthAdjust="spacing" textLength="19.4863" x="519.6494" y="1007.7417">11.</text><text fill="#10241F" font-family="Helvetica" font-size="11" lengthAdjust="spacing" textLength="179.4321" x="543.1357" y="1007.7417">_anonymiser_exemple(exemple)</text><polygon fill="#0B3D3A" points="1005.7964,1065.9453,1015.7964,1069.9453,1005.7964,1073.9453,1009.7964,1069.9453" style="stroke:#0B3D3A;stroke-width:1;"/><line style="stroke:#0B3D3A;stroke-width:1.2;" x1="512.6494" x2="1011.7964" y1="1069.9453" y2="1069.9453"/><text fill="#10241F" font-family="Helvetica" font-size="11" font-weight="bold" lengthAdjust="spacing" textLength="19.4863" x="685.1299" y="1058.9487">12.</text><text fill="#10241F" font-family="Helvetica" font-size="11" lengthAdjust="spacing" textLength="136.6997" x="708.6162" y="1052.5464">anonymiser(symptomes,</text><text fill="#10241F" font-family="Helvetica" font-size="11" lengthAdjust="spacing" textLength="41.7817" x="756.0752" y="1065.3511">langue)</text><polygon fill="#0B3D3A" points="523.6494,1092.75,513.6494,1096.75,523.6494,1100.75,519.6494,1096.75" style="stroke:#0B3D3A;stroke-width:1;"/><line style="stroke:#0B3D3A;stroke-width:1.2;stroke-dasharray:2.0,2.0;" x1="517.6494" x2="1021.7964" y1="1096.75" y2="1096.75"/><text fill="#10241F" font-family="Helvetica" font-size="11" font-weight="bold" lengthAdjust="spacing" textLength="19.4863" x="692.2007" y="1092.1558">13.</text><text fill="#10241F" font-family="Helvetica" font-size="11" lengthAdjust="spacing" textLength="127.5581" x="715.687" y="1092.1558">ResultatAnonymisation</text><polygon fill="#0B3D3A" points="1010.7964,1145.1641,1020.7964,1149.1641,1010.7964,1153.1641,1014.7964,1149.1641" style="stroke:#0B3D3A;stroke-width:1;"/><line style="stroke:#0B3D3A;stroke-width:1.2;" x1="512.6494" x2="1016.7964" y1="1149.1641" y2="1149.1641"/><text fill="#10241F" font-family="Helvetica" font-size="11" font-weight="bold" lengthAdjust="spacing" textLength="19.4863" x="685.5405" y="1131.7651">14.</text><text fill="#10241F" font-family="Helvetica" font-size="11" lengthAdjust="spacing" textLength="140.8784" x="709.0269" y="1118.9604">anonymiser(antecedents,</text><text fill="#10241F" font-family="Helvetica" font-size="11" lengthAdjust="spacing" textLength="41.7817" x="758.5752" y="1131.7651">langue)</text><text fill="#10241F" font-family="Helvetica" font-size="11" lengthAdjust="spacing" textLength="13.0786" x="748.0049" y="1144.5698">(si</text><text fill="#10241F" font-family="Helvetica" font-size="11" lengthAdjust="spacing" textLength="3.4966" x="761.0835" y="1144.5698">&#160;</text><text fill="#10241F" font-family="Helvetica" font-size="11" lengthAdjust="spacing" textLength="46.3472" x="764.5801" y="1144.5698">present)</text><polygon fill="#0B3D3A" points="1010.7964,1197.5781,1020.7964,1201.5781,1010.7964,1205.5781,1014.7964,1201.5781" style="stroke:#0B3D3A;stroke-width:1;"/><line style="stroke:#0B3D3A;stroke-width:1.2;" x1="507.6494" x2="1016.7964" y1="1201.5781" y2="1201.5781"/><text fill="#10241F" font-family="Helvetica" font-size="11" font-weight="bold" lengthAdjust="spacing" textLength="19.4863" x="654.8906" y="1184.1792">15.</text><text fill="#10241F" font-family="Helvetica" font-size="11" lengthAdjust="spacing" textLength="83.7891" x="698.7307" y="1171.3745">anonymiser(...)</text><text fill="#10241F" font-family="Helvetica" font-size="11" lengthAdjust="spacing" textLength="3.4966" x="782.5198" y="1171.3745">&#160;</text><text fill="#10241F" font-family="Helvetica" font-size="11" lengthAdjust="spacing" textLength="25.2065" x="786.0164" y="1171.3745">pour</text><text fill="#10241F" font-family="Helvetica" font-size="11" lengthAdjust="spacing" textLength="3.4966" x="811.2229" y="1171.3745">&#160;</text><text fill="#10241F" font-family="Helvetica" font-size="11" lengthAdjust="spacing" textLength="40.4819" x="814.7195" y="1171.3745">chaque</text><text fill="#10241F" font-family="Helvetica" font-size="11" lengthAdjust="spacing" textLength="49.4355" x="752.2483" y="1184.1792">message</text><text fill="#10241F" font-family="Helvetica" font-size="11" lengthAdjust="spacing" textLength="197.1782" x="678.377" y="1196.9839">prompt/completion/chosen/rejected</text><path d="M512,1217.5781 L512,1251.5781 A3,3 0 0 0 515,1254.5781 L807,1254.5781 A3,3 0 0 0 810,1251.5781 L810,1224.5781 L800,1214.5781 L515,1214.5781 A3,3 0 0 0 512,1217.5781 " fill="#FDF6EC" style="stroke:#C98A1E;stroke-width:0.5;"/><path d="M800,1214.5781 L800,1223.0781 A1.5,1.5 0 0 0 801.5,1224.5781 L810,1224.5781 L800,1214.5781 " fill="#FDF6EC" style="stroke:#C98A1E;stroke-width:0.5;"/><text fill="#4A3400" font-family="Helvetica" font-size="13" lengthAdjust="spacing" textLength="207.6953" x="518" y="1231.645">dataclasses.replace(...) : nouvel</text><text fill="#4A3400" font-family="Helvetica" font-size="13" lengthAdjust="spacing" textLength="277.583" x="518" y="1246.7778">ExemplePivot immuable, anonymise=True</text><line style="stroke:#0B3D3A;stroke-width:1.2;" x1="507.6494" x2="549.6494" y1="1291.4531" y2="1291.4531"/><line style="stroke:#0B3D3A;stroke-width:1.2;" x1="549.6494" x2="549.6494" y1="1291.4531" y2="1304.4531"/><line style="stroke:#0B3D3A;stroke-width:1.2;" x1="508.6494" x2="549.6494" y1="1304.4531" y2="1304.4531"/><polygon fill="#0B3D3A" points="518.6494,1300.4531,508.6494,1304.4531,518.6494,1308.4531,514.6494,1304.4531" style="stroke:#0B3D3A;stroke-width:1;"/><text fill="#10241F" font-family="Helvetica" font-size="11" font-weight="bold" lengthAdjust="spacing" textLength="19.4863" x="514.6494" y="1280.4565">16.</text><text fill="#10241F" font-family="Helvetica" font-size="11" lengthAdjust="spacing" textLength="34.5791" x="538.1357" y="1274.0542">ajoute</text><text fill="#10241F" font-family="Helvetica" font-size="11" lengthAdjust="spacing" textLength="3.4966" x="572.7148" y="1274.0542">&#160;</text><text fill="#10241F" font-family="Helvetica" font-size="11" lengthAdjust="spacing" textLength="113.2603" x="576.2114" y="1274.0542">exemple_anonymise</text><text fill="#10241F" font-family="Helvetica" font-size="11" lengthAdjust="spacing" textLength="6.7407" x="590.5764" y="1286.8589">a</text><text fill="#10241F" font-family="Helvetica" font-size="11" lengthAdjust="spacing" textLength="3.4966" x="597.3171" y="1286.8589">&#160;</text><text fill="#10241F" font-family="Helvetica" font-size="11" lengthAdjust="spacing" textLength="9.7969" x="600.8137" y="1286.8589">la</text><text fill="#10241F" font-family="Helvetica" font-size="11" lengthAdjust="spacing" textLength="3.4966" x="610.6106" y="1286.8589">&#160;</text><text fill="#10241F" font-family="Helvetica" font-size="11" lengthAdjust="spacing" textLength="22.9238" x="614.1072" y="1286.8589">liste</text><polygon fill="#0B3D3A" points="795.9697,1334.2578,805.9697,1338.2578,795.9697,1342.2578,799.9697,1338.2578" style="stroke:#0B3D3A;stroke-width:1;"/><line style="stroke:#0B3D3A;stroke-width:1.2;" x1="507.6494" x2="801.9697" y1="1338.2578" y2="1338.2578"/><text fill="#10241F" font-family="Helvetica" font-size="11" font-weight="bold" lengthAdjust="spacing" textLength="19.4863" x="517.1494" y="1333.6636">17.</text><text fill="#10241F" font-family="Helvetica" font-size="11" lengthAdjust="spacing" textLength="257.834" x="540.6357" y="1333.6636">sauvegarder_plusieurs(exemples_anonymises)</text><path d="M822,1354.2578 L822,1509.2578 A3,3 0 0 0 825,1512.2578 L1115,1512.2578 A3,3 0 0 0 1118,1509.2578 L1118,1361.2578 L1108,1351.2578 L825,1351.2578 A3,3 0 0 0 822,1354.2578 " fill="#FDF6EC" style="stroke:#C98A1E;stroke-width:0.5;"/><path d="M1108,1351.2578 L1108,1359.7578 A1.5,1.5 0 0 0 1109.5,1361.2578 L1118,1361.2578 L1108,1351.2578 " fill="#FDF6EC" style="stroke:#C98A1E;stroke-width:0.5;"/><text fill="#4A3400" font-family="Helvetica" font-size="13" lengthAdjust="spacing" textLength="227.5254" x="828" y="1368.3247">07/09/2026 : bug O(n^2) corrige --</text><text fill="#4A3400" font-family="Helvetica" font-size="13" lengthAdjust="spacing" textLength="229.2456" x="828" y="1383.4575">sauvegarder() par iteration relisait/</text><text fill="#4A3400" font-family="Helvetica" font-size="13" lengthAdjust="spacing" textLength="208.2539" x="828" y="1398.5903">reecrivait tout le fichier JSONL a</text><text fill="#4A3400" font-family="Helvetica" font-size="13" lengthAdjust="spacing" textLength="266.1128" x="828" y="1413.7231">CHAQUE exemple (infaisable sur 147204</text><text fill="#4A3400" font-family="Helvetica" font-size="13" lengthAdjust="spacing" textLength="275.9897" x="828" y="1428.856">exemples/624 Mo). sauvegarder_plusieurs</text><text fill="#4A3400" font-family="Helvetica" font-size="13" lengthAdjust="spacing" textLength="242.4424" x="828" y="1443.9888">fait la meme fusion par identifiant en</text><text fill="#4A3400" font-family="Helvetica" font-size="13" lengthAdjust="spacing" textLength="265.3574" x="828" y="1459.1216">une seule lecture/ecriture. Les exemples</text><text fill="#4A3400" font-family="Helvetica" font-size="13" lengthAdjust="spacing" textLength="236.4883" x="828" y="1474.2544">non selectionnes par --limite restent</text><text fill="#4A3400" font-family="Helvetica" font-size="13" lengthAdjust="spacing" textLength="247.7046" x="828" y="1489.3872">inchanges (anonymise=False) dans le</text><text fill="#4A3400" font-family="Helvetica" font-size="13" lengthAdjust="spacing" textLength="240.7539" x="828" y="1504.52">fichier, prets pour un appel ulterieur.</text><line style="stroke:#0B3D3A;stroke-width:1.2;" x1="817.9697" x2="859.9697" y1="1562" y2="1562"/><line style="stroke:#0B3D3A;stroke-width:1.2;" x1="859.9697" x2="859.9697" y1="1562" y2="1575"/><line style="stroke:#0B3D3A;stroke-width:1.2;" x1="818.9697" x2="859.9697" y1="1575" y2="1575"/><polygon fill="#0B3D3A" points="828.9697,1571,818.9697,1575,828.9697,1579,824.9697,1575" style="stroke:#0B3D3A;stroke-width:1;"/><text fill="#10241F" font-family="Helvetica" font-size="11" font-weight="bold" lengthAdjust="spacing" textLength="19.4863" x="824.9697" y="1544.6011">18.</text><text fill="#10241F" font-family="Helvetica" font-size="11" lengthAdjust="spacing" textLength="10.4253" x="848.4561" y="1531.7964">lit</text><text fill="#10241F" font-family="Helvetica" font-size="11" lengthAdjust="spacing" textLength="3.4966" x="858.8813" y="1531.7964">&#160;</text><text fill="#10241F" font-family="Helvetica" font-size="11" lengthAdjust="spacing" textLength="9.8237" x="862.3779" y="1531.7964">le</text><text fill="#10241F" font-family="Helvetica" font-size="11" lengthAdjust="spacing" textLength="3.4966" x="872.2017" y="1531.7964">&#160;</text><text fill="#10241F" font-family="Helvetica" font-size="11" lengthAdjust="spacing" textLength="34.2944" x="875.6982" y="1531.7964">fichier</text><text fill="#10241F" font-family="Helvetica" font-size="11" lengthAdjust="spacing" textLength="3.4966" x="909.9927" y="1531.7964">&#160;</text><text fill="#10241F" font-family="Helvetica" font-size="11" lengthAdjust="spacing" textLength="36.7383" x="913.4893" y="1531.7964">JSONL,</text><text fill="#10241F" font-family="Helvetica" font-size="11" lengthAdjust="spacing" textLength="3.4966" x="950.2275" y="1531.7964">&#160;</text><text fill="#10241F" font-family="Helvetica" font-size="11" lengthAdjust="spacing" textLength="47.0723" x="953.7241" y="1531.7964">fusionne</text><text fill="#10241F" font-family="Helvetica" font-size="11" lengthAdjust="spacing" textLength="18.2456" x="852.1057" y="1544.6011">par</text><text fill="#10241F" font-family="Helvetica" font-size="11" lengthAdjust="spacing" textLength="3.4966" x="870.3513" y="1544.6011">&#160;</text><text fill="#10241F" font-family="Helvetica" font-size="11" lengthAdjust="spacing" textLength="59.5977" x="873.8479" y="1544.6011">identifiant,</text><text fill="#10241F" font-family="Helvetica" font-size="11" lengthAdjust="spacing" textLength="3.4966" x="933.4456" y="1544.6011">&#160;</text><text fill="#10241F" font-family="Helvetica" font-size="11" lengthAdjust="spacing" textLength="35.9971" x="936.9421" y="1544.6011">reecrit</text><text fill="#10241F" font-family="Helvetica" font-size="11" lengthAdjust="spacing" textLength="3.4966" x="972.9392" y="1544.6011">&#160;</text><text fill="#10241F" font-family="Helvetica" font-size="11" lengthAdjust="spacing" textLength="20.7109" x="976.4358" y="1544.6011">une</text><text fill="#10241F" font-family="Helvetica" font-size="11" lengthAdjust="spacing" textLength="29.2939" x="898.5361" y="1557.4058">seule</text><text fill="#10241F" font-family="Helvetica" font-size="11" lengthAdjust="spacing" textLength="3.4966" x="927.8301" y="1557.4058">&#160;</text><text fill="#10241F" font-family="Helvetica" font-size="11" lengthAdjust="spacing" textLength="19.3896" x="931.3267" y="1557.4058">fois</text><polygon fill="#0B3D3A" points="518.6494,1597.8047,508.6494,1601.8047,518.6494,1605.8047,514.6494,1601.8047" style="stroke:#0B3D3A;stroke-width:1;"/><line style="stroke:#0B3D3A;stroke-width:1.2;stroke-dasharray:2.0,2.0;" x1="512.6494" x2="811.9697" y1="1601.8047" y2="1601.8047"/><text fill="#10241F" font-family="Helvetica" font-size="11" font-weight="bold" lengthAdjust="spacing" textLength="19.4863" x="596.1016" y="1597.2104">19.</text><text fill="#10241F" font-family="Helvetica" font-size="11" lengthAdjust="spacing" textLength="47.2603" x="619.5879" y="1597.2104">(&#233;criture</text><text fill="#10241F" font-family="Helvetica" font-size="11" lengthAdjust="spacing" textLength="3.4966" x="666.8481" y="1597.2104">&#160;</text><text fill="#10241F" font-family="Helvetica" font-size="11" lengthAdjust="spacing" textLength="54.1729" x="670.3447" y="1597.2104">termin&#233;e)</text><polygon fill="#0B3D3A" points="291.6768,1624.6094,281.6768,1628.6094,291.6768,1632.6094,287.6768,1628.6094" style="stroke:#0B3D3A;stroke-width:1;"/><line style="stroke:#0B3D3A;stroke-width:1.2;stroke-dasharray:2.0,2.0;" x1="285.6768" x2="501.6494" y1="1628.6094" y2="1628.6094"/><text fill="#10241F" font-family="Helvetica" font-size="11" font-weight="bold" lengthAdjust="spacing" textLength="19.4863" x="338.1033" y="1624.0151">20.</text><text fill="#10241F" font-family="Helvetica" font-size="11" lengthAdjust="spacing" textLength="83.6333" x="361.5896" y="1624.0151">nombre_traites</text><polygon fill="#0B3D3A" points="93.9834,1664.2188,83.9834,1668.2188,93.9834,1672.2188,89.9834,1668.2188" style="stroke:#0B3D3A;stroke-width:1;"/><line style="stroke:#0B3D3A;stroke-width:1.2;stroke-dasharray:2.0,2.0;" x1="87.9834" x2="274.6768" y1="1668.2188" y2="1668.2188"/><text fill="#10241F" font-family="Helvetica" font-size="11" font-weight="bold" lengthAdjust="spacing" textLength="19.4863" x="97.4834" y="1657.2222">21.</text><text fill="#10241F" font-family="Helvetica" font-size="11" lengthAdjust="spacing" textLength="13.2881" x="121.3215" y="1650.8198">"N</text><text fill="#10241F" font-family="Helvetica" font-size="11" lengthAdjust="spacing" textLength="3.4966" x="134.6096" y="1650.8198">&#160;</text><text fill="#10241F" font-family="Helvetica" font-size="11" lengthAdjust="spacing" textLength="53.2974" x="138.1062" y="1650.8198">exemples</text><text fill="#10241F" font-family="Helvetica" font-size="11" lengthAdjust="spacing" textLength="3.4966" x="191.4036" y="1650.8198">&#160;</text><text fill="#10241F" font-family="Helvetica" font-size="11" lengthAdjust="spacing" textLength="65.9248" x="194.9001" y="1650.8198">anonymises</text><text fill="#10241F" font-family="Helvetica" font-size="11" lengthAdjust="spacing" textLength="76.6885" x="120.9697" y="1663.6245">(strategie=...,</text><text fill="#10241F" font-family="Helvetica" font-size="11" lengthAdjust="spacing" textLength="3.4966" x="197.6582" y="1663.6245">&#160;</text><text fill="#10241F" font-family="Helvetica" font-size="11" lengthAdjust="spacing" textLength="60.022" x="201.1548" y="1663.6245">limite=...)"</text><!--SRC=[XLVRKXj747tVh-We3zPM2Kd6nWwKSHK5sB4BO-o4fv2eXjsMDCxip7ek12gEAwzvpq_m7Vn9lYHdPbVI2eDDKQLTTARdTFVf2zz9NQXGCWs78_nE2bDLHe_OUQdCK8PAPPcNNZ7T_ED5pVIG_llxNpgGOcP5LJ7XgBkv_XXO5toczxJHLvLqmakZwVtBamCg0vN22yUUQdbXFFKBuQXy49oOCTcRQrO3AfHmZbq45wRaFCj4uOsbti7DzGKhKzSSx9dkApdJwSx8KsWWUmHh1toHPUVcadfIUxPJKR0R5KhswFiNuyF3mwSPKIsibuMiXVRK4orFjfEMtB2-IgRsZrvbh4k2jTQag6ibY-JHlVRsblOE6dEdZlVncKoUxj-oAFNK2kTjA7omF1AbgC7QtMlzjJDQjORVSssSH6mQkl7rDlp4ifEbD4jImIPivtr5I0HlTAZE6S5-TlvyFEnb6S996yzZA6Y7mWNPeAc-ydEazCx0dUdF6vyt5baU3eSKt-6Wy3oJI3BN2YdvL0dt-oVB9NBR756oafvfQpmUVve6fMBMvGLEfJHask39ojdSavccFn5rZlN7Fup6swFDyUQJ0JHHI1T5LrjJ1kbpsW6wOeS8Wm0hI1ZFfA2oXu-VReuV4rzoLQkaEa3NHGhtnPgM8JXWFKSA3xVdKB49dewFJcWHxf6hnVxL0Bbmz6hqDXy2Ug8GNaye3ohc1WGjiVPWrEDYZcH9fQ0g075nhxsYDm19m4LLqs53yIHo6YvZ3xoD2GGCtaBhBZX28LkkO5se4G8EW3W784O1jY8329aL8IinU29GhN1i5S_8OX4HwAcIL72u1D_2WF3oyjqNGZaU0ArYO5sqvNsa0vKqLmG5EKl8R9Xq5jEOPL5DY6eKB5Ib-Oz-CUTAweMEyWMY8zCMk5JI4dEwttvbb-KmM54C5Y5CFkNPsWduLmHmw-ShfQ4wCtovegQaYv2fL4ZKxfzBgpkKFF-hSpPLNpgsiRWYdlwbcxPVOyFJfOIR3g7eb93BivBNRML2-POwIKV71jsk7oiZ9nCMNppVHUZrocgEN3GU90PYqgJOqYwjRkvx4u1aUB2my-ohPYOTXKvI1kHKyWg-2Z7HUg4YeeIVbzO430n82PTVrJnfrJKWPu8jE1yasCTWl8WwhesDbQOXe7YcINg2z2j6yq7NBrlHOlP0LqbyhHKlRHmdGh7mHaAlZhdaBmpXeDGyMSBo8RqKDhgPYZI1scgvcpFXpeHA9UPGRc0bj2Fre1El0HfFnQrx8bMgQtauCkZH9Jwz09PTGz_6DYIdKxRH9DB5bqDwWPTY_eRBD_llzXe_jxQt1dI1cG9n2do3mQGsq87ImO8RqCFnzgEjHwa1BUkloUsN6kd3CRVHuPx7ciqoPKnDDPnUnAEhwJY1boPkoQOp8ThWzTlFg9HksItEhHVywdpVNLMrD-ZXq9hGix1keJlEQCt8qittQF_A2x-sbiHUp_TO-GOXn8WBw4hx5ILi9KvIAuRyspOm7lDkOCyq74ox46e0_exQCG2c8ymCM4Kx_y25v_A-IeiTjDsWXksiRQv1ZpG1-rD2hILGLbM8yw7JDNT_jga2EfBfnAcJhqP17p3_U34nLbadWS0qFRGHqbflTG9qPiAMK4Uiv3Wat48VRj9jZUkDSTtlTkiPFrtCVvW-3pDwszU_RUQOrHPGXWu0wbpPprD3YA9jXhfb48M8HscYSc5n8pg1ZwCTqsqgYxb4ZRp-wUtn4Gc0zd_SUtTwkF2Q-jZa12oSjyj5irXq1kdeoUPZUcFGPkxq7CXfl10HYms3fg5POIB9g39qtBZHSTHiqB6f1ToakDaR8z_uCAGZT8p5bKaa6j08I_qqZVFkufGQfuvz34i32dyM6ywj0P-tRItAe8t38AeSeoI9zwl3lXc9dOdwPJW7hRCQ1N3Btq6R2z_nUOhbwTQaxTzSjm4WCC0cWNybxfYeRTjhbbbjgdFBRUTosRg-crK1sBZ_xb3lUBKFhOH9gsra5pMsc8BnEUzr3SPrzNy0]--></g></svg>