<svg xmlns="http://www.w3.org/2000/svg" xmlns:xlink="http://www.w3.org/1999/xlink" contentStyleType="text/css" height="2092px" preserveAspectRatio="none" style="width:1134px;height:2092px;background:#F6F4EF;" version="1.1" viewBox="0 0 1134 2092" width="1134px" zoomAndPan="magnify"><title>&#201;tape 1 &#8212; Diagramme de s&#233;quence</title><defs/><g><rect fill="#F6F4EF" height="2092" style="stroke:none;stroke-width:1;" width="1134" x="0" y="0"/><text fill="#000000" font-family="Helvetica" font-size="14" font-weight="bold" lengthAdjust="spacing" textLength="278.8311" x="429.2302" y="27.9951">&#201;tape 1 &#8212; Diagramme de s&#233;quence</text><text fill="#000000" font-family="Helvetica" font-size="14" font-weight="bold" lengthAdjust="spacing" textLength="581.9434" x="277.6741" y="44.292">Anonymisation RGPD du dataset pivot (cas d'usage r&#233;el, classes du code)</text><rect fill="#F0EEE7" height="2026.6875" rx="3" ry="3" style="stroke:#0B3D3A;stroke-width:0.5;" width="205.8389" x="172.7573" y="59.5938"/><text fill="#000000" font-family="Helvetica" font-size="13" font-weight="bold" lengthAdjust="spacing" textLength="95.2085" x="228.0725" y="71.6606">interfaces/cli</text><rect fill="#F0EEE7" height="2026.6875" rx="3" ry="3" style="stroke:#0B3D3A;stroke-width:0.5;" width="244.1064" x="385.1768" y="59.5938"/><text fill="#000000" font-family="Helvetica" font-size="13" font-weight="bold" lengthAdjust="spacing" textLength="81.6309" x="466.4146" y="71.6606">application</text><rect fill="#F0EEE7" height="2026.6875" rx="3" ry="3" style="stroke:#0B3D3A;stroke-width:0.5;" width="408.2622" x="714.0293" y="59.5938"/><text fill="#000000" font-family="Helvetica" font-size="13" font-weight="bold" lengthAdjust="spacing" textLength="172.6563" x="831.8323" y="71.6606">infrastructure/adapters</text><rect fill="#EFEAE0" height="1741.4766" style="stroke:#0B3D3A;stroke-width:1;" width="10" x="270.6768" y="231.2109"/><rect fill="#EFEAE0" height="1410.5156" style="stroke:#0B3D3A;stroke-width:1;" width="10" x="502.23" y="522.5625"/><rect fill="#EFEAE0" height="176.2422" style="stroke:#0B3D3A;stroke-width:1;" width="10" x="507.23" y="1329.8047"/><rect fill="#EFEAE0" height="39.6094" style="stroke:#0B3D3A;stroke-width:1;" width="10" x="812.5503" y="703.2344"/><rect fill="#EFEAE0" height="263.5469" style="stroke:#0B3D3A;stroke-width:1;" width="10" x="812.5503" y="1642.7266"/><rect fill="#EFEAE0" height="26.8047" style="stroke:#0B3D3A;stroke-width:1;" width="10" x="1022.377" y="1374.4141"/><rect fill="#FFFFFF" height="350.6172" rx="3" ry="3" style="stroke:#0B3D3A;stroke-width:1.5;" width="417.2578" x="379.1768" y="757.8438"/><path d="M379.1768,814.7813 L796.4346,814.7813 L796.4346,1105.4609 A3,3 0 0 1 793.4346,1108.4609 L382.1768,1108.4609 A3,3 0 0 1 379.1768,1105.4609 L379.1768,814.7813 " fill="#FFFFFF" style="stroke:none;stroke-width:1;"/><rect fill="#FFFFFF" height="331.0547" rx="3" ry="3" style="stroke:#0B3D3A;stroke-width:1.5;" width="749.1147" x="379.1768" y="1285.8672"/><line style="stroke:#0B3D3A;stroke-width:0.5;stroke-dasharray:5.0,5.0;" x1="82" x2="82" y1="151.1875" y2="1990.6875"/><line style="stroke:#0B3D3A;stroke-width:0.5;stroke-dasharray:5.0,5.0;" x1="274.7573" x2="274.7573" y1="151.1875" y2="1990.6875"/><line style="stroke:#0B3D3A;stroke-width:0.5;stroke-dasharray:5.0,5.0;" x1="507.1768" x2="507.1768" y1="151.1875" y2="1990.6875"/><line style="stroke:#0B3D3A;stroke-width:0.5;stroke-dasharray:5.0,5.0;" x1="817.0293" x2="817.0293" y1="151.1875" y2="1990.6875"/><line style="stroke:#0B3D3A;stroke-width:0.5;stroke-dasharray:5.0,5.0;" x1="1026.4624" x2="1026.4624" y1="151.1875" y2="1990.6875"/><text fill="#000000" font-family="Helvetica" font-size="14" lengthAdjust="spacing" textLength="89.7627" x="35.1021" y="131.5889">D&#233;veloppeur</text><text fill="#000000" font-family="Helvetica" font-size="14" lengthAdjust="spacing" textLength="149.9668" x="5" y="147.8857">(ligne de commande)</text><ellipse cx="82.9834" cy="67.0938" fill="#FFFFFF" rx="8" ry="8" style="stroke:#0B3D3A;stroke-width:0.5;"/><path d="M82.9834,75.0938 L82.9834,102.0938 M69.9834,83.0938 L95.9834,83.0938 M82.9834,102.0938 L69.9834,117.0938 M82.9834,102.0938 L95.9834,117.0938 " fill="none" style="stroke:#0B3D3A;stroke-width:0.5;"/><text fill="#000000" font-family="Helvetica" font-size="14" lengthAdjust="spacing" textLength="89.7627" x="35.1021" y="2002.6826">D&#233;veloppeur</text><text fill="#000000" font-family="Helvetica" font-size="14" lengthAdjust="spacing" textLength="149.9668" x="5" y="2018.9795">(ligne de commande)</text><ellipse cx="82.9834" cy="2030.7813" fill="#FFFFFF" rx="8" ry="8" style="stroke:#0B3D3A;stroke-width:0.5;"/><path d="M82.9834,2038.7813 L82.9834,2065.7813 M69.9834,2046.7813 L95.9834,2046.7813 M82.9834,2065.7813 L69.9834,2080.7813 M82.9834,2065.7813 L95.9834,2080.7813 " fill="none" style="stroke:#0B3D3A;stroke-width:0.5;"/><rect fill="#FFFFFF" height="30.2969" rx="3" ry="3" style="stroke:#0B3D3A;stroke-width:0.5;" width="197.8389" x="176.7573" y="119.8906"/><text fill="#10241F" font-family="Helvetica" font-size="14" font-weight="bold" lengthAdjust="spacing" textLength="183.8389" x="183.7573" y="139.8857">anonymiser_dataset.py</text><rect fill="#FFFFFF" height="30.2969" rx="3" ry="3" style="stroke:#0B3D3A;stroke-width:0.5;" width="197.8389" x="176.7573" y="1989.6875"/><text fill="#10241F" font-family="Helvetica" font-size="14" font-weight="bold" lengthAdjust="spacing" textLength="183.8389" x="183.7573" y="2009.6826">anonymiser_dataset.py</text><rect fill="#FFFFFF" height="30.2969" rx="3" ry="3" style="stroke:#0B3D3A;stroke-width:0.5;" width="236.1064" x="389.1768" y="119.8906"/><text fill="#10241F" font-family="Helvetica" font-size="14" font-weight="bold" lengthAdjust="spacing" textLength="222.1064" x="396.1768" y="139.8857">AnonymiserDatasetUseCase</text><rect fill="#FFFFFF" height="30.2969" rx="3" ry="3" style="stroke:#0B3D3A;stroke-width:0.5;" width="236.1064" x="389.1768" y="1989.6875"/><text fill="#10241F" font-family="Helvetica" font-size="14" font-weight="bold" lengthAdjust="spacing" textLength="222.1064" x="396.1768" y="2009.6826">AnonymiserDatasetUseCase</text><rect fill="#FFFFFF" height="30.2969" rx="3" ry="3" style="stroke:#0B3D3A;stroke-width:0.5;" width="199.042" x="718.0293" y="119.8906"/><text fill="#10241F" font-family="Helvetica" font-size="14" font-weight="bold" lengthAdjust="spacing" textLength="185.042" x="725.0293" y="139.8857">JsonlDatasetRepository</text><rect fill="#FFFFFF" height="30.2969" rx="3" ry="3" style="stroke:#0B3D3A;stroke-width:0.5;" width="199.042" x="718.0293" y="1989.6875"/><text fill="#10241F" font-family="Helvetica" font-size="14" font-weight="bold" lengthAdjust="spacing" textLength="185.042" x="725.0293" y="2009.6826">JsonlDatasetRepository</text><rect fill="#FFFFFF" height="30.2969" rx="3" ry="3" style="stroke:#0B3D3A;stroke-width:0.5;" width="181.8291" x="936.4624" y="119.8906"/><text fill="#10241F" font-family="Helvetica" font-size="14" font-weight="bold" lengthAdjust="spacing" textLength="167.8291" x="943.4624" y="139.8857">PresidioAnonymiseur</text><rect fill="#FFFFFF" height="30.2969" rx="3" ry="3" style="stroke:#0B3D3A;stroke-width:0.5;" width="181.8291" x="936.4624" y="1989.6875"/><text fill="#10241F" font-family="Helvetica" font-size="14" font-weight="bold" lengthAdjust="spacing" textLength="167.8291" x="943.4624" y="2009.6826">PresidioAnonymiseur</text><rect fill="#EFEAE0" height="1741.4766" style="stroke:#0B3D3A;stroke-width:1;" width="10" x="270.6768" y="231.2109"/><rect fill="#EFEAE0" height="1410.5156" style="stroke:#0B3D3A;stroke-width:1;" width="10" x="502.23" y="522.5625"/><rect fill="#EFEAE0" height="176.2422" style="stroke:#0B3D3A;stroke-width:1;" width="10" x="507.23" y="1329.8047"/><rect fill="#EFEAE0" height="39.6094" style="stroke:#0B3D3A;stroke-width:1;" width="10" x="812.5503" y="703.2344"/><rect fill="#EFEAE0" height="263.5469" style="stroke:#0B3D3A;stroke-width:1;" width="10" x="812.5503" y="1642.7266"/><rect fill="#EFEAE0" height="26.8047" style="stroke:#0B3D3A;stroke-width:1;" width="10" x="1022.377" y="1374.4141"/><polygon fill="#0B3D3A" points="258.6768,227.2109,268.6768,231.2109,258.6768,235.2109,262.6768,231.2109" style="stroke:#0B3D3A;stroke-width:1;"/><line style="stroke:#0B3D3A;stroke-width:1.2;" x1="82.9834" x2="264.6768" y1="231.2109" y2="231.2109"/><text fill="#10241F" font-family="Helvetica" font-size="11" font-weight="bold" lengthAdjust="spacing" textLength="11.8325" x="104.5171" y="201.0073">1.</text><text fill="#10241F" font-family="Helvetica" font-size="11" lengthAdjust="spacing" textLength="13.4814" x="146.0369" y="175.3979">uv</text><text fill="#10241F" font-family="Helvetica" font-size="11" lengthAdjust="spacing" textLength="3.4966" x="159.5183" y="175.3979">&#160;</text><text fill="#10241F" font-family="Helvetica" font-size="11" lengthAdjust="spacing" textLength="18.4658" x="163.0149" y="175.3979">run</text><text fill="#10241F" font-family="Helvetica" font-size="11" lengthAdjust="spacing" textLength="3.4966" x="181.4807" y="175.3979">&#160;</text><text fill="#10241F" font-family="Helvetica" font-size="11" lengthAdjust="spacing" textLength="38.4785" x="184.9773" y="175.3979">python</text><text fill="#10241F" font-family="Helvetica" font-size="11" lengthAdjust="spacing" textLength="128.7935" x="120.3496" y="188.2026">anonymiser_dataset.py</text><text fill="#10241F" font-family="Helvetica" font-size="11" lengthAdjust="spacing" textLength="49.5269" x="122.6753" y="201.0073">--dataset</text><text fill="#10241F" font-family="Helvetica" font-size="11" lengthAdjust="spacing" textLength="3.4966" x="172.2021" y="201.0073">&#160;</text><text fill="#10241F" font-family="Helvetica" font-size="11" lengthAdjust="spacing" textLength="10.4897" x="175.6987" y="201.0073">...</text><text fill="#10241F" font-family="Helvetica" font-size="11" lengthAdjust="spacing" textLength="3.4966" x="186.1885" y="201.0073">&#160;</text><text fill="#10241F" font-family="Helvetica" font-size="11" lengthAdjust="spacing" textLength="57.1323" x="189.6851" y="201.0073">--strategie</text><text fill="#10241F" font-family="Helvetica" font-size="11" lengthAdjust="spacing" textLength="113.228" x="128.1323" y="213.812">replace|mask|redact</text><text fill="#10241F" font-family="Helvetica" font-size="11" lengthAdjust="spacing" textLength="38.9028" x="139.2183" y="226.6167">--limite</text><text fill="#10241F" font-family="Helvetica" font-size="11" lengthAdjust="spacing" textLength="3.4966" x="178.1211" y="226.6167">&#160;</text><text fill="#10241F" font-family="Helvetica" font-size="11" lengthAdjust="spacing" textLength="48.6567" x="181.6177" y="226.6167">5000|full</text><path d="M285,247.2109 L285,402.2109 A3,3 0 0 0 288,405.2109 L621,405.2109 A3,3 0 0 0 624,402.2109 L624,254.2109 L614,244.2109 L288,244.2109 A3,3 0 0 0 285,247.2109 " fill="#FDF6EC" style="stroke:#C98A1E;stroke-width:0.5;"/><path d="M614,244.2109 L614,252.7109 A1.5,1.5 0 0 0 615.5,254.2109 L624,254.2109 L614,244.2109 " fill="#FDF6EC" style="stroke:#C98A1E;stroke-width:0.5;"/><text fill="#4A3400" font-family="Helvetica" font-size="13" lengthAdjust="spacing" textLength="256.4263" x="291" y="261.2778">--limite (08/09/2026, decision produit) :</text><text fill="#4A3400" font-family="Helvetica" font-size="13" lengthAdjust="spacing" textLength="278.2178" x="291" y="276.4106">mesure reelle sur les 147204 exemples du</text><text fill="#4A3400" font-family="Helvetica" font-size="13" lengthAdjust="spacing" textLength="270.6006" x="291" y="291.5435">dataset pivot -&gt; anonymisation complete</text><text fill="#4A3400" font-family="Helvetica" font-size="13" lengthAdjust="spacing" textLength="264.9512" x="291" y="306.6763">~19h (cout NLP Presidio/spaCy, pas I/O).</text><text fill="#4A3400" font-family="Helvetica" font-size="13" lengthAdjust="spacing" textLength="239.8906" x="291" y="321.8091">Plutot que choisir entre "echantillon"</text><text fill="#4A3400" font-family="Helvetica" font-size="13" lengthAdjust="spacing" textLength="318.2144" x="291" y="336.9419">et "complet", le champ ExemplePivot.anonymise</text><text fill="#4A3400" font-family="Helvetica" font-size="13" lengthAdjust="spacing" textLength="280.9092" x="291" y="352.0747">rend le processus incremental/reprenable :</text><text fill="#4A3400" font-family="Helvetica" font-size="13" lengthAdjust="spacing" textLength="228.7568" x="291" y="367.2075">chaque appel traite au plus --limite</text><text fill="#4A3400" font-family="Helvetica" font-size="13" lengthAdjust="spacing" textLength="313.1045" x="291" y="382.3403">exemples parmi ceux encore anonymise=False,</text><text fill="#4A3400" font-family="Helvetica" font-size="13" lengthAdjust="spacing" textLength="220.3081" x="291" y="397.4731">le reste attend un appel ulterieur.</text><polygon fill="#0B3D3A" points="805.5503,425.3438,815.5503,429.3438,805.5503,433.3438,809.5503,429.3438" style="stroke:#0B3D3A;stroke-width:1;"/><line style="stroke:#0B3D3A;stroke-width:1.2;" x1="280.6768" x2="811.5503" y1="429.3438" y2="429.3438"/><text fill="#10241F" font-family="Helvetica" font-size="11" font-weight="bold" lengthAdjust="spacing" textLength="11.8325" x="481.7285" y="424.7495">2.</text><text fill="#10241F" font-family="Helvetica" font-size="11" lengthAdjust="spacing" textLength="118.9375" x="497.561" y="424.7495">new(chemin_dataset)</text><polygon fill="#0B3D3A" points="1015.377,452.1484,1025.377,456.1484,1015.377,460.1484,1019.377,456.1484" style="stroke:#0B3D3A;stroke-width:1;"/><line style="stroke:#0B3D3A;stroke-width:1.2;" x1="280.6768" x2="1021.377" y1="456.1484" y2="456.1484"/><text fill="#10241F" font-family="Helvetica" font-size="11" font-weight="bold" lengthAdjust="spacing" textLength="11.8325" x="605.8542" y="451.5542">3.</text><text fill="#10241F" font-family="Helvetica" font-size="11" lengthAdjust="spacing" textLength="80.5127" x="621.6868" y="451.5542">new(strategie)</text><polygon fill="#0B3D3A" points="495.23,491.7578,505.23,495.7578,495.23,499.7578,499.23,495.7578" style="stroke:#0B3D3A;stroke-width:1;"/><line style="stroke:#0B3D3A;stroke-width:1.2;" x1="280.6768" x2="501.23" y1="495.7578" y2="495.7578"/><text fill="#10241F" font-family="Helvetica" font-size="11" font-weight="bold" lengthAdjust="spacing" textLength="11.8325" x="329.0686" y="484.7612">4.</text><text fill="#10241F" font-family="Helvetica" font-size="11" lengthAdjust="spacing" textLength="86.3887" x="358.6753" y="478.3589">new(repository,</text><text fill="#10241F" font-family="Helvetica" font-size="11" lengthAdjust="spacing" textLength="75.1846" x="344.9011" y="491.1636">anonymiseur,</text><text fill="#10241F" font-family="Helvetica" font-size="11" lengthAdjust="spacing" textLength="3.4966" x="420.0857" y="491.1636">&#160;</text><text fill="#10241F" font-family="Helvetica" font-size="11" lengthAdjust="spacing" textLength="35.2559" x="423.5823" y="491.1636">limite)</text><polygon fill="#0B3D3A" points="490.23,518.5625,500.23,522.5625,490.23,526.5625,494.23,522.5625" style="stroke:#0B3D3A;stroke-width:1;"/><line style="stroke:#0B3D3A;stroke-width:1.2;" x1="280.6768" x2="496.23" y1="522.5625" y2="522.5625"/><text fill="#10241F" font-family="Helvetica" font-size="11" font-weight="bold" lengthAdjust="spacing" textLength="11.8325" x="290.1768" y="517.9683">5.</text><text fill="#10241F" font-family="Helvetica" font-size="11" lengthAdjust="spacing" textLength="186.7207" x="306.0093" y="517.9683">executer(envelopper_iterable=...)</text><path d="M285,538.5625 L285,663.5625 A3,3 0 0 0 288,666.5625 L640,666.5625 A3,3 0 0 0 643,663.5625 L643,545.5625 L633,535.5625 L288,535.5625 A3,3 0 0 0 285,538.5625 " fill="#FDF6EC" style="stroke:#C98A1E;stroke-width:0.5;"/><path d="M633,535.5625 L633,544.0625 A1.5,1.5 0 0 0 634.5,545.5625 L643,545.5625 L633,535.5625 " fill="#FDF6EC" style="stroke:#C98A1E;stroke-width:0.5;"/><text fill="#4A3400" font-family="Helvetica" font-size="13" lengthAdjust="spacing" textLength="283.0864" x="291" y="552.6294">envelopper_iterable est un point d'injection</text><text fill="#4A3400" font-family="Helvetica" font-size="13" lengthAdjust="spacing" textLength="321.1787" x="291" y="567.7622">optionnel : la CLI passe un lambda qui enveloppe</text><text fill="#4A3400" font-family="Helvetica" font-size="13" lengthAdjust="spacing" textLength="300.1108" x="291" y="582.895">l'iterable avec tqdm(..., desc="Anonymisation</text><text fill="#4A3400" font-family="Helvetica" font-size="13" lengthAdjust="spacing" textLength="312.3618" x="291" y="598.0278">Presidio", total=len(a_traiter)) pour afficher une</text><text fill="#4A3400" font-family="Helvetica" font-size="13" lengthAdjust="spacing" textLength="299.5015" x="291" y="613.1606">barre de progression, sans que le cas d'usage</text><text fill="#4A3400" font-family="Helvetica" font-size="13" lengthAdjust="spacing" textLength="261.6567" x="291" y="628.2935">(application/) depende d'une librairie de</text><text fill="#4A3400" font-family="Helvetica" font-size="13" lengthAdjust="spacing" textLength="337.8984" x="291" y="643.4263">presentation (tqdm), conformement a l'architecture</text><text fill="#4A3400" font-family="Helvetica" font-size="13" lengthAdjust="spacing" textLength="80.0503" x="291" y="658.5591">hexagonale.</text><polygon fill="#0B3D3A" points="800.5503,699.2344,810.5503,703.2344,800.5503,707.2344,804.5503,703.2344" style="stroke:#0B3D3A;stroke-width:1;"/><line style="stroke:#0B3D3A;stroke-width:1.2;" x1="512.23" x2="806.5503" y1="703.2344" y2="703.2344"/><text fill="#10241F" font-family="Helvetica" font-size="11" font-weight="bold" lengthAdjust="spacing" textLength="11.8325" x="585.7534" y="692.2378">6.</text><text fill="#10241F" font-family="Helvetica" font-size="11" lengthAdjust="spacing" textLength="137.4409" x="601.5859" y="685.8354">lister(filtre={anonymise:</text><text fill="#10241F" font-family="Helvetica" font-size="11" lengthAdjust="spacing" textLength="39.9126" x="650.3501" y="698.6401">False})</text><polygon fill="#0B3D3A" points="523.23,738.8438,513.23,742.8438,523.23,746.8438,519.23,742.8438" style="stroke:#0B3D3A;stroke-width:1;"/><line style="stroke:#0B3D3A;stroke-width:1.2;stroke-dasharray:2.0,2.0;" x1="517.23" x2="816.5503" y1="742.8438" y2="742.8438"/><text fill="#10241F" font-family="Helvetica" font-size="11" font-weight="bold" lengthAdjust="spacing" textLength="11.8325" x="579.1038" y="731.8472">7.</text><text fill="#10241F" font-family="Helvetica" font-size="11" lengthAdjust="spacing" textLength="99.7305" x="622.9412" y="725.4448">list[ExemplePivot]</text><text fill="#10241F" font-family="Helvetica" font-size="11" lengthAdjust="spacing" textLength="57.8574" x="594.9363" y="738.2495">(candidats</text><text fill="#10241F" font-family="Helvetica" font-size="11" lengthAdjust="spacing" textLength="3.4966" x="652.7937" y="738.2495">&#160;</text><text fill="#10241F" font-family="Helvetica" font-size="11" lengthAdjust="spacing" textLength="20.6733" x="656.2903" y="738.2495">non</text><text fill="#10241F" font-family="Helvetica" font-size="11" lengthAdjust="spacing" textLength="3.4966" x="676.9636" y="738.2495">&#160;</text><text fill="#10241F" font-family="Helvetica" font-size="11" lengthAdjust="spacing" textLength="70.2163" x="680.4602" y="738.2495">anonymises)</text><path d="M382.1768,757.8438 L443.6196,757.8438 L443.6196,764.9766 L433.6196,774.9766 L379.1768,774.9766 L379.1768,760.8438 A3,3 0 0 1 382.1768,757.8438 " fill="#EEEEEE" style="stroke:#000000;stroke-width:1.5;"/><rect fill="none" height="350.6172" rx="3" ry="3" style="stroke:#0B3D3A;stroke-width:1.5;" width="417.2578" x="379.1768" y="757.8438"/><text fill="#000000" font-family="Helvetica" font-size="13" font-weight="bold" lengthAdjust="spacing" textLength="19.4429" x="394.1768" y="770.9106">alt</text><text fill="#000000" font-family="Helvetica" font-size="11" font-weight="bold" lengthAdjust="spacing" textLength="303.8911" x="458.6196" y="770.0542">[limite is None (full) ou limite &gt;= len(candidats)]</text><line style="stroke:#0B3D3A;stroke-width:1.2;" x1="512.23" x2="554.23" y1="793.7813" y2="793.7813"/><line style="stroke:#0B3D3A;stroke-width:1.2;" x1="554.23" x2="554.23" y1="793.7813" y2="806.7813"/><line style="stroke:#0B3D3A;stroke-width:1.2;" x1="513.23" x2="554.23" y1="806.7813" y2="806.7813"/><polygon fill="#0B3D3A" points="523.23,802.7813,513.23,806.7813,523.23,810.7813,519.23,806.7813" style="stroke:#0B3D3A;stroke-width:1;"/><text fill="#10241F" font-family="Helvetica" font-size="11" font-weight="bold" lengthAdjust="spacing" textLength="11.8325" x="519.23" y="789.187">8.</text><text fill="#10241F" font-family="Helvetica" font-size="11" lengthAdjust="spacing" textLength="46.4761" x="535.0625" y="789.187">a_traiter</text><text fill="#10241F" font-family="Helvetica" font-size="11" lengthAdjust="spacing" textLength="3.4966" x="581.5386" y="789.187">&#160;</text><text fill="#10241F" font-family="Helvetica" font-size="11" lengthAdjust="spacing" textLength="9.2168" x="585.0352" y="789.187">=</text><text fill="#10241F" font-family="Helvetica" font-size="11" lengthAdjust="spacing" textLength="3.4966" x="594.252" y="789.187">&#160;</text><text fill="#10241F" font-family="Helvetica" font-size="11" lengthAdjust="spacing" textLength="53.5659" x="597.7485" y="789.187">candidats</text><text fill="#10241F" font-family="Helvetica" font-size="11" lengthAdjust="spacing" textLength="3.4966" x="651.3145" y="789.187">&#160;</text><text fill="#10241F" font-family="Helvetica" font-size="11" lengthAdjust="spacing" textLength="32.3286" x="654.811" y="789.187">(tous)</text><line style="stroke:#0B3D3A;stroke-width:1;stroke-dasharray:2.0,2.0;" x1="379.1768" x2="796.4346" y1="815.7813" y2="815.7813"/><text fill="#000000" font-family="Helvetica" font-size="11" font-weight="bold" lengthAdjust="spacing" textLength="152.061" x="384.1768" y="825.9917">[limite &lt; len(candidats)]</text><line style="stroke:#0B3D3A;stroke-width:1.2;" x1="512.23" x2="554.23" y1="861.1953" y2="861.1953"/><line style="stroke:#0B3D3A;stroke-width:1.2;" x1="554.23" x2="554.23" y1="861.1953" y2="874.1953"/><line style="stroke:#0B3D3A;stroke-width:1.2;" x1="513.23" x2="554.23" y1="874.1953" y2="874.1953"/><polygon fill="#0B3D3A" points="523.23,870.1953,513.23,874.1953,523.23,878.1953,519.23,874.1953" style="stroke:#0B3D3A;stroke-width:1;"/><text fill="#10241F" font-family="Helvetica" font-size="11" font-weight="bold" lengthAdjust="spacing" textLength="11.8325" x="519.23" y="850.1987">9.</text><text fill="#10241F" font-family="Helvetica" font-size="11" lengthAdjust="spacing" textLength="175.4092" x="535.0625" y="843.7964">_echantillon_stratifie(candidats,</text><text fill="#10241F" font-family="Helvetica" font-size="11" lengthAdjust="spacing" textLength="35.2559" x="605.1392" y="856.6011">limite)</text><path d="M517,890.1953 L517,1060.1953 A3,3 0 0 0 520,1063.1953 L783,1063.1953 A3,3 0 0 0 786,1060.1953 L786,897.1953 L776,887.1953 L520,887.1953 A3,3 0 0 0 517,890.1953 " fill="#FDF6EC" style="stroke:#C98A1E;stroke-width:0.5;"/><path d="M776,887.1953 L776,895.6953 A1.5,1.5 0 0 0 777.5,897.1953 L786,897.1953 L776,887.1953 " fill="#FDF6EC" style="stroke:#C98A1E;stroke-width:0.5;"/><text fill="#4A3400" font-family="Helvetica" font-size="13" lengthAdjust="spacing" textLength="235.4409" x="523" y="904.2622">Groupe par (type_exemple, source),</text><text fill="#4A3400" font-family="Helvetica" font-size="13" lengthAdjust="spacing" textLength="197.5962" x="523" y="919.395">quota proportionnel par strate</text><text fill="#4A3400" font-family="Helvetica" font-size="13" lengthAdjust="spacing" textLength="203.6392" x="523" y="934.5278">(methode du plus grand reste),</text><text fill="#4A3400" font-family="Helvetica" font-size="13" lengthAdjust="spacing" textLength="211.2056" x="523" y="949.6606">tirage aleatoire seede par strate</text><text fill="#4A3400" font-family="Helvetica" font-size="13" lengthAdjust="spacing" textLength="205.8862" x="523" y="964.7935">(graine_aleatoire). Garantit que</text><text fill="#4A3400" font-family="Helvetica" font-size="13" lengthAdjust="spacing" textLength="229.5947" x="523" y="979.9263">chaque (type_exemple, source) est</text><text fill="#4A3400" font-family="Helvetica" font-size="13" lengthAdjust="spacing" textLength="239.0273" x="523" y="995.0591">represente dans l'echantillon, meme</text><text fill="#4A3400" font-family="Helvetica" font-size="13" lengthAdjust="spacing" textLength="208.0254" x="523" y="1010.1919">quand les strates ont des tailles</text><text fill="#4A3400" font-family="Helvetica" font-size="13" lengthAdjust="spacing" textLength="248.4346" x="523" y="1025.3247">tres differentes (ex. FrenchMedMCQA,</text><text fill="#4A3400" font-family="Helvetica" font-size="13" lengthAdjust="spacing" textLength="212.3228" x="523" y="1040.4575">595, vs UltraMedical-Preference,</text><text fill="#4A3400" font-family="Helvetica" font-size="13" lengthAdjust="spacing" textLength="58.8301" x="523" y="1055.5903">109353).</text><line style="stroke:#0B3D3A;stroke-width:1.2;stroke-dasharray:2.0,2.0;" x1="512.23" x2="554.23" y1="1087.4609" y2="1087.4609"/><line style="stroke:#0B3D3A;stroke-width:1.2;stroke-dasharray:2.0,2.0;" x1="554.23" x2="554.23" y1="1087.4609" y2="1100.4609"/><line style="stroke:#0B3D3A;stroke-width:1.2;stroke-dasharray:2.0,2.0;" x1="513.23" x2="554.23" y1="1100.4609" y2="1100.4609"/><polygon fill="#0B3D3A" points="523.23,1096.4609,513.23,1100.4609,523.23,1104.4609,519.23,1100.4609" style="stroke:#0B3D3A;stroke-width:1;"/><text fill="#10241F" font-family="Helvetica" font-size="11" font-weight="bold" lengthAdjust="spacing" textLength="19.4863" x="519.23" y="1082.8667">10.</text><text fill="#10241F" font-family="Helvetica" font-size="11" lengthAdjust="spacing" textLength="46.4761" x="542.7163" y="1082.8667">a_traiter</text><text fill="#10241F" font-family="Helvetica" font-size="11" lengthAdjust="spacing" textLength="3.4966" x="589.1924" y="1082.8667">&#160;</text><text fill="#10241F" font-family="Helvetica" font-size="11" lengthAdjust="spacing" textLength="98.3984" x="592.689" y="1082.8667">(sous-echantillon)</text><line style="stroke:#0B3D3A;stroke-width:1.2;" x1="512.23" x2="554.23" y1="1147.0703" y2="1147.0703"/><line style="stroke:#0B3D3A;stroke-width:1.2;" x1="554.23" x2="554.23" y1="1147.0703" y2="1160.0703"/><line style="stroke:#0B3D3A;stroke-width:1.2;" x1="513.23" x2="554.23" y1="1160.0703" y2="1160.0703"/><polygon fill="#0B3D3A" points="523.23,1156.0703,513.23,1160.0703,523.23,1164.0703,519.23,1160.0703" style="stroke:#0B3D3A;stroke-width:1;"/><text fill="#10241F" font-family="Helvetica" font-size="11" font-weight="bold" lengthAdjust="spacing" textLength="19.4863" x="519.23" y="1136.0737">11.</text><text fill="#10241F" font-family="Helvetica" font-size="11" lengthAdjust="spacing" textLength="42.2061" x="597.668" y="1129.6714">iterable</text><text fill="#10241F" font-family="Helvetica" font-size="11" lengthAdjust="spacing" textLength="3.4966" x="639.874" y="1129.6714">&#160;</text><text fill="#10241F" font-family="Helvetica" font-size="11" lengthAdjust="spacing" textLength="9.2168" x="643.3706" y="1129.6714">=</text><text fill="#10241F" font-family="Helvetica" font-size="11" lengthAdjust="spacing" textLength="164.8228" x="542.7163" y="1142.4761">envelopper_iterable(a_traiter)</text><path d="M517,1176.0703 L517,1270.0703 A3,3 0 0 0 520,1273.0703 L806,1273.0703 A3,3 0 0 0 809,1270.0703 L809,1183.0703 L799,1173.0703 L520,1173.0703 A3,3 0 0 0 517,1176.0703 " fill="#FDF6EC" style="stroke:#C98A1E;stroke-width:0.5;"/><path d="M799,1173.0703 L799,1181.5703 A1.5,1.5 0 0 0 800.5,1183.0703 L809,1183.0703 L799,1173.0703 " fill="#FDF6EC" style="stroke:#C98A1E;stroke-width:0.5;"/><text fill="#4A3400" font-family="Helvetica" font-size="13" lengthAdjust="spacing" textLength="247.4316" x="523" y="1190.1372">Si un wrapper a ete passe, ceci active</text><text fill="#4A3400" font-family="Helvetica" font-size="13" lengthAdjust="spacing" textLength="271.0703" x="523" y="1205.27">la barre de progression tqdm visible dans</text><text fill="#4A3400" font-family="Helvetica" font-size="13" lengthAdjust="spacing" textLength="233.4224" x="523" y="1220.4028">le terminal sur a_traiter, que ce soit</text><text fill="#4A3400" font-family="Helvetica" font-size="13" lengthAdjust="spacing" textLength="254.0015" x="523" y="1235.5356">la liste complete ou le sous-echantillon</text><text fill="#4A3400" font-family="Helvetica" font-size="13" lengthAdjust="spacing" textLength="268.9946" x="523" y="1250.6685">stratifie. Sans wrapper, c'est une identite</text><text fill="#4A3400" font-family="Helvetica" font-size="13" lengthAdjust="spacing" textLength="88.4863" x="523" y="1265.8013">(aucun effet).</text><path d="M382.1768,1285.8672 L455.8008,1285.8672 L455.8008,1293 L445.8008,1303 L379.1768,1303 L379.1768,1288.8672 A3,3 0 0 1 382.1768,1285.8672 " fill="#EEEEEE" style="stroke:#000000;stroke-width:1.5;"/><rect fill="none" height="331.0547" rx="3" ry="3" style="stroke:#0B3D3A;stroke-width:1.5;" width="749.1147" x="379.1768" y="1285.8672"/><text fill="#000000" font-family="Helvetica" font-size="13" font-weight="bold" lengthAdjust="spacing" textLength="31.624" x="394.1768" y="1298.9341">loop</text><text fill="#000000" font-family="Helvetica" font-size="11" font-weight="bold" lengthAdjust="spacing" textLength="247.2314" x="470.8008" y="1298.0776">[pour chaque ExemplePivot de iterable]</text><line style="stroke:#0B3D3A;stroke-width:1.2;" x1="512.23" x2="559.23" y1="1316.8047" y2="1316.8047"/><line style="stroke:#0B3D3A;stroke-width:1.2;" x1="559.23" x2="559.23" y1="1316.8047" y2="1329.8047"/><line style="stroke:#0B3D3A;stroke-width:1.2;" x1="518.23" x2="559.23" y1="1329.8047" y2="1329.8047"/><polygon fill="#0B3D3A" points="528.23,1325.8047,518.23,1329.8047,528.23,1333.8047,524.23,1329.8047" style="stroke:#0B3D3A;stroke-width:1;"/><text fill="#10241F" font-family="Helvetica" font-size="11" font-weight="bold" lengthAdjust="spacing" textLength="19.4863" x="524.23" y="1312.2104">12.</text><text fill="#10241F" font-family="Helvetica" font-size="11" lengthAdjust="spacing" textLength="179.4321" x="547.7163" y="1312.2104">_anonymiser_exemple(exemple)</text><polygon fill="#0B3D3A" points="1010.377,1370.4141,1020.377,1374.4141,1010.377,1378.4141,1014.377,1374.4141" style="stroke:#0B3D3A;stroke-width:1;"/><line style="stroke:#0B3D3A;stroke-width:1.2;" x1="517.23" x2="1016.377" y1="1374.4141" y2="1374.4141"/><text fill="#10241F" font-family="Helvetica" font-size="11" font-weight="bold" lengthAdjust="spacing" textLength="19.4863" x="689.7104" y="1363.4175">13.</text><text fill="#10241F" font-family="Helvetica" font-size="11" lengthAdjust="spacing" textLength="136.6997" x="713.1968" y="1357.0151">anonymiser(symptomes,</text><text fill="#10241F" font-family="Helvetica" font-size="11" lengthAdjust="spacing" textLength="41.7817" x="760.6558" y="1369.8198">langue)</text><polygon fill="#0B3D3A" points="528.23,1397.2188,518.23,1401.2188,528.23,1405.2188,524.23,1401.2188" style="stroke:#0B3D3A;stroke-width:1;"/><line style="stroke:#0B3D3A;stroke-width:1.2;stroke-dasharray:2.0,2.0;" x1="522.23" x2="1026.377" y1="1401.2188" y2="1401.2188"/><text fill="#10241F" font-family="Helvetica" font-size="11" font-weight="bold" lengthAdjust="spacing" textLength="19.4863" x="696.7813" y="1396.6245">14.</text><text fill="#10241F" font-family="Helvetica" font-size="11" lengthAdjust="spacing" textLength="127.5581" x="720.2676" y="1396.6245">ResultatAnonymisation</text><polygon fill="#0B3D3A" points="1015.377,1449.6328,1025.377,1453.6328,1015.377,1457.6328,1019.377,1453.6328" style="stroke:#0B3D3A;stroke-width:1;"/><line style="stroke:#0B3D3A;stroke-width:1.2;" x1="517.23" x2="1021.377" y1="1453.6328" y2="1453.6328"/><text fill="#10241F" font-family="Helvetica" font-size="11" font-weight="bold" lengthAdjust="spacing" textLength="19.4863" x="690.1211" y="1436.2339">15.</text><text fill="#10241F" font-family="Helvetica" font-size="11" lengthAdjust="spacing" textLength="140.8784" x="713.6074" y="1423.4292">anonymiser(antecedents,</text><text fill="#10241F" font-family="Helvetica" font-size="11" lengthAdjust="spacing" textLength="41.7817" x="763.1558" y="1436.2339">langue)</text><text fill="#10241F" font-family="Helvetica" font-size="11" lengthAdjust="spacing" textLength="13.0786" x="752.5854" y="1449.0386">(si</text><text fill="#10241F" font-family="Helvetica" font-size="11" lengthAdjust="spacing" textLength="3.4966" x="765.6641" y="1449.0386">&#160;</text><text fill="#10241F" font-family="Helvetica" font-size="11" lengthAdjust="spacing" textLength="46.3472" x="769.1606" y="1449.0386">present)</text><polygon fill="#0B3D3A" points="1015.377,1502.0469,1025.377,1506.0469,1015.377,1510.0469,1019.377,1506.0469" style="stroke:#0B3D3A;stroke-width:1;"/><line style="stroke:#0B3D3A;stroke-width:1.2;" x1="512.23" x2="1021.377" y1="1506.0469" y2="1506.0469"/><text fill="#10241F" font-family="Helvetica" font-size="11" font-weight="bold" lengthAdjust="spacing" textLength="19.4863" x="659.4712" y="1488.6479">16.</text><text fill="#10241F" font-family="Helvetica" font-size="11" lengthAdjust="spacing" textLength="83.7891" x="703.3113" y="1475.8433">anonymiser(...)</text><text fill="#10241F" font-family="Helvetica" font-size="11" lengthAdjust="spacing" textLength="3.4966" x="787.1003" y="1475.8433">&#160;</text><text fill="#10241F" font-family="Helvetica" font-size="11" lengthAdjust="spacing" textLength="25.2065" x="790.5969" y="1475.8433">pour</text><text fill="#10241F" font-family="Helvetica" font-size="11" lengthAdjust="spacing" textLength="3.4966" x="815.8035" y="1475.8433">&#160;</text><text fill="#10241F" font-family="Helvetica" font-size="11" lengthAdjust="spacing" textLength="40.4819" x="819.3" y="1475.8433">chaque</text><text fill="#10241F" font-family="Helvetica" font-size="11" lengthAdjust="spacing" textLength="49.4355" x="756.8289" y="1488.6479">message</text><text fill="#10241F" font-family="Helvetica" font-size="11" lengthAdjust="spacing" textLength="197.1782" x="682.9575" y="1501.4526">prompt/completion/chosen/rejected</text><path d="M517,1522.0469 L517,1556.0469 A3,3 0 0 0 520,1559.0469 L812,1559.0469 A3,3 0 0 0 815,1556.0469 L815,1529.0469 L805,1519.0469 L520,1519.0469 A3,3 0 0 0 517,1522.0469 " fill="#FDF6EC" style="stroke:#C98A1E;stroke-width:0.5;"/><path d="M805,1519.0469 L805,1527.5469 A1.5,1.5 0 0 0 806.5,1529.0469 L815,1529.0469 L805,1519.0469 " fill="#FDF6EC" style="stroke:#C98A1E;stroke-width:0.5;"/><text fill="#4A3400" font-family="Helvetica" font-size="13" lengthAdjust="spacing" textLength="207.6953" x="523" y="1536.1138">dataclasses.replace(...) : nouvel</text><text fill="#4A3400" font-family="Helvetica" font-size="13" lengthAdjust="spacing" textLength="277.583" x="523" y="1551.2466">ExemplePivot immuable, anonymise=True</text><line style="stroke:#0B3D3A;stroke-width:1.2;" x1="512.23" x2="554.23" y1="1595.9219" y2="1595.9219"/><line style="stroke:#0B3D3A;stroke-width:1.2;" x1="554.23" x2="554.23" y1="1595.9219" y2="1608.9219"/><line style="stroke:#0B3D3A;stroke-width:1.2;" x1="513.23" x2="554.23" y1="1608.9219" y2="1608.9219"/><polygon fill="#0B3D3A" points="523.23,1604.9219,513.23,1608.9219,523.23,1612.9219,519.23,1608.9219" style="stroke:#0B3D3A;stroke-width:1;"/><text fill="#10241F" font-family="Helvetica" font-size="11" font-weight="bold" lengthAdjust="spacing" textLength="19.4863" x="519.23" y="1584.9253">17.</text><text fill="#10241F" font-family="Helvetica" font-size="11" lengthAdjust="spacing" textLength="34.5791" x="542.7163" y="1578.5229">ajoute</text><text fill="#10241F" font-family="Helvetica" font-size="11" lengthAdjust="spacing" textLength="3.4966" x="577.2954" y="1578.5229">&#160;</text><text fill="#10241F" font-family="Helvetica" font-size="11" lengthAdjust="spacing" textLength="113.2603" x="580.792" y="1578.5229">exemple_anonymise</text><text fill="#10241F" font-family="Helvetica" font-size="11" lengthAdjust="spacing" textLength="6.7407" x="595.157" y="1591.3276">a</text><text fill="#10241F" font-family="Helvetica" font-size="11" lengthAdjust="spacing" textLength="3.4966" x="601.8977" y="1591.3276">&#160;</text><text fill="#10241F" font-family="Helvetica" font-size="11" lengthAdjust="spacing" textLength="9.7969" x="605.3943" y="1591.3276">la</text><text fill="#10241F" font-family="Helvetica" font-size="11" lengthAdjust="spacing" textLength="3.4966" x="615.1912" y="1591.3276">&#160;</text><text fill="#10241F" font-family="Helvetica" font-size="11" lengthAdjust="spacing" textLength="22.9238" x="618.6877" y="1591.3276">liste</text><polygon fill="#0B3D3A" points="800.5503,1638.7266,810.5503,1642.7266,800.5503,1646.7266,804.5503,1642.7266" style="stroke:#0B3D3A;stroke-width:1;"/><line style="stroke:#0B3D3A;stroke-width:1.2;" x1="512.23" x2="806.5503" y1="1642.7266" y2="1642.7266"/><text fill="#10241F" font-family="Helvetica" font-size="11" font-weight="bold" lengthAdjust="spacing" textLength="19.4863" x="521.73" y="1638.1323">18.</text><text fill="#10241F" font-family="Helvetica" font-size="11" lengthAdjust="spacing" textLength="257.834" x="545.2163" y="1638.1323">sauvegarder_plusieurs(exemples_anonymises)</text><path d="M827,1658.7266 L827,1813.7266 A3,3 0 0 0 830,1816.7266 L1120,1816.7266 A3,3 0 0 0 1123,1813.7266 L1123,1665.7266 L1113,1655.7266 L830,1655.7266 A3,3 0 0 0 827,1658.7266 " fill="#FDF6EC" style="stroke:#C98A1E;stroke-width:0.5;"/><path d="M1113,1655.7266 L1113,1664.2266 A1.5,1.5 0 0 0 1114.5,1665.7266 L1123,1665.7266 L1113,1655.7266 " fill="#FDF6EC" style="stroke:#C98A1E;stroke-width:0.5;"/><text fill="#4A3400" font-family="Helvetica" font-size="13" lengthAdjust="spacing" textLength="227.5254" x="833" y="1672.7935">07/09/2026 : bug O(n^2) corrige --</text><text fill="#4A3400" font-family="Helvetica" font-size="13" lengthAdjust="spacing" textLength="229.2456" x="833" y="1687.9263">sauvegarder() par iteration relisait/</text><text fill="#4A3400" font-family="Helvetica" font-size="13" lengthAdjust="spacing" textLength="208.2539" x="833" y="1703.0591">reecrivait tout le fichier JSONL a</text><text fill="#4A3400" font-family="Helvetica" font-size="13" lengthAdjust="spacing" textLength="266.1128" x="833" y="1718.1919">CHAQUE exemple (infaisable sur 147204</text><text fill="#4A3400" font-family="Helvetica" font-size="13" lengthAdjust="spacing" textLength="275.9897" x="833" y="1733.3247">exemples/624 Mo). sauvegarder_plusieurs</text><text fill="#4A3400" font-family="Helvetica" font-size="13" lengthAdjust="spacing" textLength="242.4424" x="833" y="1748.4575">fait la meme fusion par identifiant en</text><text fill="#4A3400" font-family="Helvetica" font-size="13" lengthAdjust="spacing" textLength="265.3574" x="833" y="1763.5903">une seule lecture/ecriture. Les exemples</text><text fill="#4A3400" font-family="Helvetica" font-size="13" lengthAdjust="spacing" textLength="236.4883" x="833" y="1778.7231">non selectionnes par --limite restent</text><text fill="#4A3400" font-family="Helvetica" font-size="13" lengthAdjust="spacing" textLength="247.7046" x="833" y="1793.856">inchanges (anonymise=False) dans le</text><text fill="#4A3400" font-family="Helvetica" font-size="13" lengthAdjust="spacing" textLength="240.7539" x="833" y="1808.9888">fichier, prets pour un appel ulterieur.</text><line style="stroke:#0B3D3A;stroke-width:1.2;" x1="822.5503" x2="864.5503" y1="1866.4688" y2="1866.4688"/><line style="stroke:#0B3D3A;stroke-width:1.2;" x1="864.5503" x2="864.5503" y1="1866.4688" y2="1879.4688"/><line style="stroke:#0B3D3A;stroke-width:1.2;" x1="823.5503" x2="864.5503" y1="1879.4688" y2="1879.4688"/><polygon fill="#0B3D3A" points="833.5503,1875.4688,823.5503,1879.4688,833.5503,1883.4688,829.5503,1879.4688" style="stroke:#0B3D3A;stroke-width:1;"/><text fill="#10241F" font-family="Helvetica" font-size="11" font-weight="bold" lengthAdjust="spacing" textLength="19.4863" x="829.5503" y="1849.0698">19.</text><text fill="#10241F" font-family="Helvetica" font-size="11" lengthAdjust="spacing" textLength="10.4253" x="853.0366" y="1836.2651">lit</text><text fill="#10241F" font-family="Helvetica" font-size="11" lengthAdjust="spacing" textLength="3.4966" x="863.4619" y="1836.2651">&#160;</text><text fill="#10241F" font-family="Helvetica" font-size="11" lengthAdjust="spacing" textLength="9.8237" x="866.9585" y="1836.2651">le</text><text fill="#10241F" font-family="Helvetica" font-size="11" lengthAdjust="spacing" textLength="3.4966" x="876.7822" y="1836.2651">&#160;</text><text fill="#10241F" font-family="Helvetica" font-size="11" lengthAdjust="spacing" textLength="34.2944" x="880.2788" y="1836.2651">fichier</text><text fill="#10241F" font-family="Helvetica" font-size="11" lengthAdjust="spacing" textLength="3.4966" x="914.5732" y="1836.2651">&#160;</text><text fill="#10241F" font-family="Helvetica" font-size="11" lengthAdjust="spacing" textLength="36.7383" x="918.0698" y="1836.2651">JSONL,</text><text fill="#10241F" font-family="Helvetica" font-size="11" lengthAdjust="spacing" textLength="3.4966" x="954.8081" y="1836.2651">&#160;</text><text fill="#10241F" font-family="Helvetica" font-size="11" lengthAdjust="spacing" textLength="47.0723" x="958.3047" y="1836.2651">fusionne</text><text fill="#10241F" font-family="Helvetica" font-size="11" lengthAdjust="spacing" textLength="18.2456" x="856.6863" y="1849.0698">par</text><text fill="#10241F" font-family="Helvetica" font-size="11" lengthAdjust="spacing" textLength="3.4966" x="874.9319" y="1849.0698">&#160;</text><text fill="#10241F" font-family="Helvetica" font-size="11" lengthAdjust="spacing" textLength="59.5977" x="878.4285" y="1849.0698">identifiant,</text><text fill="#10241F" font-family="Helvetica" font-size="11" lengthAdjust="spacing" textLength="3.4966" x="938.0261" y="1849.0698">&#160;</text><text fill="#10241F" font-family="Helvetica" font-size="11" lengthAdjust="spacing" textLength="35.9971" x="941.5227" y="1849.0698">reecrit</text><text fill="#10241F" font-family="Helvetica" font-size="11" lengthAdjust="spacing" textLength="3.4966" x="977.5198" y="1849.0698">&#160;</text><text fill="#10241F" font-family="Helvetica" font-size="11" lengthAdjust="spacing" textLength="20.7109" x="981.0164" y="1849.0698">une</text><text fill="#10241F" font-family="Helvetica" font-size="11" lengthAdjust="spacing" textLength="29.2939" x="903.1167" y="1861.8745">seule</text><text fill="#10241F" font-family="Helvetica" font-size="11" lengthAdjust="spacing" textLength="3.4966" x="932.4106" y="1861.8745">&#160;</text><text fill="#10241F" font-family="Helvetica" font-size="11" lengthAdjust="spacing" textLength="19.3896" x="935.9072" y="1861.8745">fois</text><polygon fill="#0B3D3A" points="523.23,1902.2734,513.23,1906.2734,523.23,1910.2734,519.23,1906.2734" style="stroke:#0B3D3A;stroke-width:1;"/><line style="stroke:#0B3D3A;stroke-width:1.2;stroke-dasharray:2.0,2.0;" x1="517.23" x2="816.5503" y1="1906.2734" y2="1906.2734"/><text fill="#10241F" font-family="Helvetica" font-size="11" font-weight="bold" lengthAdjust="spacing" textLength="19.4863" x="600.6821" y="1901.6792">20.</text><text fill="#10241F" font-family="Helvetica" font-size="11" lengthAdjust="spacing" textLength="47.2603" x="624.1685" y="1901.6792">(&#233;criture</text><text fill="#10241F" font-family="Helvetica" font-size="11" lengthAdjust="spacing" textLength="3.4966" x="671.4287" y="1901.6792">&#160;</text><text fill="#10241F" font-family="Helvetica" font-size="11" lengthAdjust="spacing" textLength="54.1729" x="674.9253" y="1901.6792">termin&#233;e)</text><polygon fill="#0B3D3A" points="291.6768,1929.0781,281.6768,1933.0781,291.6768,1937.0781,287.6768,1933.0781" style="stroke:#0B3D3A;stroke-width:1;"/><line style="stroke:#0B3D3A;stroke-width:1.2;stroke-dasharray:2.0,2.0;" x1="285.6768" x2="506.23" y1="1933.0781" y2="1933.0781"/><text fill="#10241F" font-family="Helvetica" font-size="11" font-weight="bold" lengthAdjust="spacing" textLength="19.4863" x="340.3936" y="1928.4839">21.</text><text fill="#10241F" font-family="Helvetica" font-size="11" lengthAdjust="spacing" textLength="83.6333" x="363.8799" y="1928.4839">nombre_traites</text><polygon fill="#0B3D3A" points="93.9834,1968.6875,83.9834,1972.6875,93.9834,1976.6875,89.9834,1972.6875" style="stroke:#0B3D3A;stroke-width:1;"/><line style="stroke:#0B3D3A;stroke-width:1.2;stroke-dasharray:2.0,2.0;" x1="87.9834" x2="274.6768" y1="1972.6875" y2="1972.6875"/><text fill="#10241F" font-family="Helvetica" font-size="11" font-weight="bold" lengthAdjust="spacing" textLength="19.4863" x="97.4834" y="1961.6909">22.</text><text fill="#10241F" font-family="Helvetica" font-size="11" lengthAdjust="spacing" textLength="13.2881" x="121.3215" y="1955.2886">"N</text><text fill="#10241F" font-family="Helvetica" font-size="11" lengthAdjust="spacing" textLength="3.4966" x="134.6096" y="1955.2886">&#160;</text><text fill="#10241F" font-family="Helvetica" font-size="11" lengthAdjust="spacing" textLength="53.2974" x="138.1062" y="1955.2886">exemples</text><text fill="#10241F" font-family="Helvetica" font-size="11" lengthAdjust="spacing" textLength="3.4966" x="191.4036" y="1955.2886">&#160;</text><text fill="#10241F" font-family="Helvetica" font-size="11" lengthAdjust="spacing" textLength="65.9248" x="194.9001" y="1955.2886">anonymises</text><text fill="#10241F" font-family="Helvetica" font-size="11" lengthAdjust="spacing" textLength="76.6885" x="120.9697" y="1968.0933">(strategie=...,</text><text fill="#10241F" font-family="Helvetica" font-size="11" lengthAdjust="spacing" textLength="3.4966" x="197.6582" y="1968.0933">&#160;</text><text fill="#10241F" font-family="Helvetica" font-size="11" lengthAdjust="spacing" textLength="60.022" x="201.1548" y="1968.0933">limite=...)"</text><!--SRC=[XLVRRXj74dtdLzGo3vu1A99Mx7WjX0OCIVOcy4Mnrq_nhj2SAPATxUaUT_Se4jORx6lUynF-3lr9lYIdUeR3eKmdWW3UggjFLPqwLVCtRGlJb4pJwGp_buMhAcTd7A8sRggRoen6KKV3TFjhL3NJVVhz_x_HcLPhhwgA2KV3xQSF3Tk2tzkdrjcRIWSLjRFqvld56PKDbIggm95gVUKYPOKALDvhWbep-TjFR2PK61K21p4kNCdvQAIAw3oDpsu_NR5nTSsDVsypezSstIaubONbcE3jZAz6ewMxfh6saVrA5HncXT5Z-khP_Fpy_D68g5O-waBNoaOQgmud-yiEtBI-IQvENtmtObiIl7KkLLqRNQI8lkZlQU_lh7NtBl0fNfFBTwTtF6gxyYf4tnInyJnJfQg1EdpH-_V1MTCvViEr2ngvQU7Anxlc5vw3BhNhGJK-sGu-xm2f9ZhRL4j6ihzTFfbFnwCHqab7JoGLT4BD5Vd6KdqJDoZfmSIzjxyS_NAqhV9qEYNvZ01LvBL6aRasACd7IeN_VFHSehRj4QCh7PaUpkVpZwl66AcwliAfL8QHTNZdzNeJoQtILqI3OzdyxxFvuzdn_FYR2JXHw22agxqh6nrpEe5rnG4P1W0se33Uam7BxZzuT3n_G7pDLMqIws2wJrA4h_Qu3CB1Dh90kFzu0nQx9jAh5nUqJVSirEhqPe9Q1FfkzZgVmlJ28BsHq1vKR1m0Uc8RWMZCnGR5qiQ0LJ34nUFkYl44866kgfhEMuWNWcdQvnxsNWe8CqGBheSc41hPSmNloioGS1Ye9Gma2_0b241aDeIgIF9KGxN1iLq-1SKs8-1JfQdWvXfu2mV0_UMBPye4di3QI6A3-8fHu80bxHMD0PqrQ3PDF9CoZaR29cHL20jMMVuvApPSQRlbKRwr6D2qC-oPrDkyE-r-ydqxJ7OG6uyKffZoqTu9n5Sqm9QnxLJ5NyBAIwOMu6s-8o2QzY3_3fma9462hntK1ygcxKzS26bWxcfvOv6K4p8gjLGjKYVsHbNBKe4SUkTLqdglTwokkA3ueQmoW1EEXs8ntjDOuLZ7F_06N5DcOTXcwhAjiyzpu48crMgbaN2FY-MIfV8-2Ia8j8O3QPq91ML38giGSAVIiCy6AZZBSR16PLaCeCT6Bt4PAexlHOpWJtYO-YOJ-3aKtjcLyrLYA2a4gNon0S0aWJYquMkrTbOP7f86LTjnnkWWjLjfWmvQ_BSlzmabIlvlKBqaY-dOqRRsSlh7OJ_zIoQHBJNu5t3TGDj2FYfvtzT8cTXnYdIWLmvXPo9PERbc-yEJ1KdkUwyvuceZI0Zwcj22TZTdqJMmP4ImzVFjdxgv74Z7PMeDlTAyCzzndsYVmU0quU-vTmqcENeSbz_KVDcrFUeFfXISJvBPXmPi4dxKpcz9B6VQRamcMSMO2iA3Jasm5A1sIHKwBr5xcVEegufEWtE1kUJF7E6WjdpPc-LJUgwyX9dKCnbrCdOOipHXiahQ9_m3Ag6pkJV8ruI4WLruAabew704SjAzU8qAjXnQ-5xcWrwjs8jBb8klf_GC7uhDIovVdlxmj8tpuUE74xh2i0Sv5Nv1hvWZj6OwM71hT7_- -Ek7NwV9q7EyhUtd7CaGM3WQOC-bBxOjaOnxdLWSagM11emEyE2j5WtwsOjaGnumWRYL9lGgPYab_YSzKWVL8kaINM6c2G99TJiIS1zKNPaqRNi8atO6elnEnzPfQkT-hgOsaf_tWuPfJ_4flPM2Tf01yruhlEZ8aeKfhL0r1U9YL2pcGoanpjMj57Oy6cg1nBRDsvrk6smy7UUoxbKQR3WljkVs1zZkV1PkgZewx2HeKMNNpRw7uNf6UqvwThp1EcCWh7T7m42jzhty1I1acGkMvEqWOSiEUglX-L_xaB4vpEjxYm3JRW-o8DvPLs4P7DY1u1NhYGn8BhyaKB8HT4y4qsvtRA_1p7SDY9wizkgdgwgHuWssWCK_VHAEGQSDyZIeLzjuFs6Vu-q6jAkwpAgEgyF-wqPIK82pLhu4EqG0PUa9Mtw4o-54sPyd-t5tM_pyqNQVXUjbiwRNcVttSOuUyJ1by43QONTbbYSTJSHDmzOpWABVPcb3vCBZHWXeb5KLpIKRW4QpV__szQiNf61q-e-dFxmxtqPD6PvC53miksMvNPG7Y-7ic-C7zD91dGz63ikLN8YCYSxIgcbNSW6PMdIbvGc5XRFIjs2JaMMZVGuIlF9cIYyWjDih4qaiJ4sxLDbsFHq-2AHvOqLMi0H3EjQYqtSMrhoR1aA3BWyJOJacS2BldowlxIOnM4G-J-Ua2zQY0Ux4E-bg4GSnh_0mS6T1oMu_TGdeD1IFnWSMaMvQj0zdrbLBpvt8Xj4-lzlL5xRoF7T2urUx_Nv7JDfjrukqPBOvJTlmUEXGrjy_0000]--></g></svg>