<svg xmlns="http://www.w3.org/2000/svg" xmlns:xlink="http://www.w3.org/1999/xlink" contentStyleType="text/css" height="1370px" preserveAspectRatio="none" style="width:1189px;height:1370px;background:#F6F4EF;" version="1.1" viewBox="0 0 1189 1370" width="1189px" zoomAndPan="magnify"><title>&#201;tape 1 &#8212; Diagramme de s&#233;quence</title><defs/><g><rect fill="#F6F4EF" height="1370" style="stroke:none;stroke-width:1;" width="1189" x="0" y="0"/><text fill="#000000" font-family="Helvetica" font-size="14" font-weight="bold" lengthAdjust="spacing" textLength="278.8311" x="462.2683" y="27.9951">&#201;tape 1 &#8212; Diagramme de s&#233;quence</text><text fill="#000000" font-family="Helvetica" font-size="14" font-weight="bold" lengthAdjust="spacing" textLength="516.291" x="343.5383" y="44.292">Construction du dataset pivot (cas d'usage r&#233;el, classes du code)</text><rect fill="#F0EEE7" height="1304.9219" rx="3" ry="3" style="stroke:#0B3D3A;stroke-width:0.5;" width="241.8301" x="166.9668" y="59.5938"/><text fill="#000000" font-family="Helvetica" font-size="13" font-weight="bold" lengthAdjust="spacing" textLength="95.2085" x="240.2776" y="71.6606">interfaces/cli</text><rect fill="#F0EEE7" height="1304.9219" rx="3" ry="3" style="stroke:#0B3D3A;stroke-width:0.5;" width="273.9248" x="410.7969" y="59.5938"/><text fill="#000000" font-family="Helvetica" font-size="13" font-weight="bold" lengthAdjust="spacing" textLength="81.6309" x="506.9438" y="71.6606">application</text><rect fill="#F0EEE7" height="1304.9219" rx="3" ry="3" style="stroke:#0B3D3A;stroke-width:0.5;" width="440.8438" x="686.7217" y="59.5938"/><text fill="#000000" font-family="Helvetica" font-size="13" font-weight="bold" lengthAdjust="spacing" textLength="172.6563" x="820.8154" y="71.6606">infrastructure/adapters</text><rect fill="#EFEAE0" height="1019.7109" style="stroke:#0B3D3A;stroke-width:1;" width="10" x="282.8818" y="231.2109"/><rect fill="#EFEAE0" height="525.3438" style="stroke:#0B3D3A;stroke-width:1;" width="10" x="542.7593" y="685.9688"/><rect fill="#EFEAE0" height="78.0234" style="stroke:#0B3D3A;stroke-width:1;" width="10" x="797.6226" y="712.7734"/><rect fill="#EFEAE0" height="79.4141" style="stroke:#0B3D3A;stroke-width:1;" width="10" x="1019.0444" y="1105.0938"/><rect fill="#FFFFFF" height="273.4922" rx="3" ry="3" style="stroke:#0B3D3A;stroke-width:1.5;" width="428.8472" x="394.7969" y="805.7969"/><rect fill="#FFFFFF" height="137.1563" rx="3" ry="3" style="stroke:#0B3D3A;stroke-width:1.5;" width="337.0464" x="404.7969" y="935.1328"/><path d="M404.7969,1004.875 L741.8433,1004.875 L741.8433,1069.2891 A3,3 0 0 1 738.8433,1072.2891 L407.7969,1072.2891 A3,3 0 0 1 404.7969,1069.2891 L404.7969,1004.875 " fill="#FFFFFF" style="stroke:none;stroke-width:1;"/><line style="stroke:#0B3D3A;stroke-width:0.5;stroke-dasharray:5.0,5.0;" x1="82" x2="82" y1="151.1875" y2="1268.9219"/><line style="stroke:#0B3D3A;stroke-width:0.5;stroke-dasharray:5.0,5.0;" x1="286.9668" x2="286.9668" y1="151.1875" y2="1268.9219"/><line style="stroke:#0B3D3A;stroke-width:0.5;stroke-dasharray:5.0,5.0;" x1="546.7969" x2="546.7969" y1="151.1875" y2="1268.9219"/><line style="stroke:#0B3D3A;stroke-width:0.5;stroke-dasharray:5.0,5.0;" x1="801.7217" x2="801.7217" y1="151.1875" y2="1268.9219"/><line style="stroke:#0B3D3A;stroke-width:0.5;stroke-dasharray:5.0,5.0;" x1="1023.5234" x2="1023.5234" y1="151.1875" y2="1268.9219"/><text fill="#000000" font-family="Helvetica" font-size="14" lengthAdjust="spacing" textLength="89.7627" x="35.1021" y="131.5889">D&#233;veloppeur</text><text fill="#000000" font-family="Helvetica" font-size="14" lengthAdjust="spacing" textLength="149.9668" x="5" y="147.8857">(ligne de commande)</text><ellipse cx="82.9834" cy="67.0938" fill="#FFFFFF" rx="8" ry="8" style="stroke:#0B3D3A;stroke-width:0.5;"/><path d="M82.9834,75.0938 L82.9834,102.0938 M69.9834,83.0938 L95.9834,83.0938 M82.9834,102.0938 L69.9834,117.0938 M82.9834,102.0938 L95.9834,117.0938 " fill="none" style="stroke:#0B3D3A;stroke-width:0.5;"/><text fill="#000000" font-family="Helvetica" font-size="14" lengthAdjust="spacing" textLength="89.7627" x="35.1021" y="1280.917">D&#233;veloppeur</text><text fill="#000000" font-family="Helvetica" font-size="14" lengthAdjust="spacing" textLength="149.9668" x="5" y="1297.2139">(ligne de commande)</text><ellipse cx="82.9834" cy="1309.0156" fill="#FFFFFF" rx="8" ry="8" style="stroke:#0B3D3A;stroke-width:0.5;"/><path d="M82.9834,1317.0156 L82.9834,1344.0156 M69.9834,1325.0156 L95.9834,1325.0156 M82.9834,1344.0156 L69.9834,1359.0156 M82.9834,1344.0156 L95.9834,1359.0156 " fill="none" style="stroke:#0B3D3A;stroke-width:0.5;"/><rect fill="#FFFFFF" height="30.2969" rx="3" ry="3" style="stroke:#0B3D3A;stroke-width:0.5;" width="233.8301" x="170.9668" y="119.8906"/><text fill="#10241F" font-family="Helvetica" font-size="14" font-weight="bold" lengthAdjust="spacing" textLength="219.8301" x="177.9668" y="139.8857">construire_dataset_pivot.py</text><rect fill="#FFFFFF" height="30.2969" rx="3" ry="3" style="stroke:#0B3D3A;stroke-width:0.5;" width="233.8301" x="170.9668" y="1267.9219"/><text fill="#10241F" font-family="Helvetica" font-size="14" font-weight="bold" lengthAdjust="spacing" textLength="219.8301" x="177.9668" y="1287.917">construire_dataset_pivot.py</text><rect fill="#FFFFFF" height="30.2969" rx="3" ry="3" style="stroke:#0B3D3A;stroke-width:0.5;" width="265.9248" x="414.7969" y="119.8906"/><text fill="#10241F" font-family="Helvetica" font-size="14" font-weight="bold" lengthAdjust="spacing" textLength="251.9248" x="421.7969" y="139.8857">ConstruireDatasetPivotUseCase</text><rect fill="#FFFFFF" height="30.2969" rx="3" ry="3" style="stroke:#0B3D3A;stroke-width:0.5;" width="265.9248" x="414.7969" y="1267.9219"/><text fill="#10241F" font-family="Helvetica" font-size="14" font-weight="bold" lengthAdjust="spacing" textLength="251.9248" x="421.7969" y="1287.917">ConstruireDatasetPivotUseCase</text><rect fill="#FFFFFF" height="30.2969" rx="3" ry="3" style="stroke:#0B3D3A;stroke-width:0.5;" width="223.8018" x="690.7217" y="119.8906"/><text fill="#10241F" font-family="Helvetica" font-size="14" font-weight="bold" lengthAdjust="spacing" textLength="209.8018" x="697.7217" y="139.8857">LecteurCorpusFichierLocal</text><rect fill="#FFFFFF" height="30.2969" rx="3" ry="3" style="stroke:#0B3D3A;stroke-width:0.5;" width="223.8018" x="690.7217" y="1267.9219"/><text fill="#10241F" font-family="Helvetica" font-size="14" font-weight="bold" lengthAdjust="spacing" textLength="209.8018" x="697.7217" y="1287.917">LecteurCorpusFichierLocal</text><rect fill="#FFFFFF" height="30.2969" rx="3" ry="3" style="stroke:#0B3D3A;stroke-width:0.5;" width="199.042" x="924.5234" y="119.8906"/><text fill="#10241F" font-family="Helvetica" font-size="14" font-weight="bold" lengthAdjust="spacing" textLength="185.042" x="931.5234" y="139.8857">JsonlDatasetRepository</text><rect fill="#FFFFFF" height="30.2969" rx="3" ry="3" style="stroke:#0B3D3A;stroke-width:0.5;" width="199.042" x="924.5234" y="1267.9219"/><text fill="#10241F" font-family="Helvetica" font-size="14" font-weight="bold" lengthAdjust="spacing" textLength="185.042" x="931.5234" y="1287.917">JsonlDatasetRepository</text><rect fill="#EFEAE0" height="1019.7109" style="stroke:#0B3D3A;stroke-width:1;" width="10" x="282.8818" y="231.2109"/><rect fill="#EFEAE0" height="525.3438" style="stroke:#0B3D3A;stroke-width:1;" width="10" x="542.7593" y="685.9688"/><rect fill="#EFEAE0" height="78.0234" style="stroke:#0B3D3A;stroke-width:1;" width="10" x="797.6226" y="712.7734"/><rect fill="#EFEAE0" height="79.4141" style="stroke:#0B3D3A;stroke-width:1;" width="10" x="1019.0444" y="1105.0938"/><polygon fill="#0B3D3A" points="270.8818,227.2109,280.8818,231.2109,270.8818,235.2109,274.8818,231.2109" style="stroke:#0B3D3A;stroke-width:1;"/><line style="stroke:#0B3D3A;stroke-width:1.2;" x1="82.9834" x2="276.8818" y1="231.2109" y2="231.2109"/><text fill="#10241F" font-family="Helvetica" font-size="11" font-weight="bold" lengthAdjust="spacing" textLength="11.8325" x="95.8518" y="201.0073">1.</text><text fill="#10241F" font-family="Helvetica" font-size="11" lengthAdjust="spacing" textLength="13.4814" x="152.1394" y="175.3979">uv</text><text fill="#10241F" font-family="Helvetica" font-size="11" lengthAdjust="spacing" textLength="3.4966" x="165.6208" y="175.3979">&#160;</text><text fill="#10241F" font-family="Helvetica" font-size="11" lengthAdjust="spacing" textLength="18.4658" x="169.1174" y="175.3979">run</text><text fill="#10241F" font-family="Helvetica" font-size="11" lengthAdjust="spacing" textLength="3.4966" x="187.5833" y="175.3979">&#160;</text><text fill="#10241F" font-family="Helvetica" font-size="11" lengthAdjust="spacing" textLength="38.4785" x="191.0798" y="175.3979">python</text><text fill="#10241F" font-family="Helvetica" font-size="11" lengthAdjust="spacing" textLength="152.8022" x="114.4478" y="188.2026">construire_dataset_pivot.py</text><text fill="#10241F" font-family="Helvetica" font-size="11" lengthAdjust="spacing" textLength="44.709" x="111.9663" y="201.0073">--source</text><text fill="#10241F" font-family="Helvetica" font-size="11" lengthAdjust="spacing" textLength="3.4966" x="156.6753" y="201.0073">&#160;</text><text fill="#10241F" font-family="Helvetica" font-size="11" lengthAdjust="spacing" textLength="109.5596" x="160.1719" y="201.0073">mediqal_mcqu.jsonl</text><text fill="#10241F" font-family="Helvetica" font-size="11" lengthAdjust="spacing" textLength="44.9238" x="126.3796" y="213.812">--corpus</text><text fill="#10241F" font-family="Helvetica" font-size="11" lengthAdjust="spacing" textLength="3.4966" x="171.3035" y="213.812">&#160;</text><text fill="#10241F" font-family="Helvetica" font-size="11" lengthAdjust="spacing" textLength="80.5181" x="174.8" y="213.812">mediqal_mcqu</text><text fill="#10241F" font-family="Helvetica" font-size="11" lengthAdjust="spacing" textLength="39.0586" x="111.6843" y="226.6167">--sortie</text><text fill="#10241F" font-family="Helvetica" font-size="11" lengthAdjust="spacing" textLength="3.4966" x="150.7429" y="226.6167">&#160;</text><text fill="#10241F" font-family="Helvetica" font-size="11" lengthAdjust="spacing" textLength="10.4897" x="154.2395" y="226.6167">...</text><text fill="#10241F" font-family="Helvetica" font-size="11" lengthAdjust="spacing" textLength="3.4966" x="164.7292" y="226.6167">&#160;</text><text fill="#10241F" font-family="Helvetica" font-size="11" lengthAdjust="spacing" textLength="66.0054" x="168.2258" y="226.6167">[--taille-bloc</text><text fill="#10241F" font-family="Helvetica" font-size="11" lengthAdjust="spacing" textLength="3.4966" x="234.2312" y="226.6167">&#160;</text><text fill="#10241F" font-family="Helvetica" font-size="11" lengthAdjust="spacing" textLength="32.2856" x="237.7278" y="226.6167">5000]</text><path d="M297,247.2109 L297,387.2109 A3,3 0 0 0 300,390.2109 L655,390.2109 A3,3 0 0 0 658,387.2109 L658,254.2109 L648,244.2109 L300,244.2109 A3,3 0 0 0 297,247.2109 " fill="#FDF6EC" style="stroke:#C98A1E;stroke-width:0.5;"/><path d="M648,244.2109 L648,252.7109 A1.5,1.5 0 0 0 649.5,254.2109 L658,254.2109 L648,244.2109 " fill="#FDF6EC" style="stroke:#C98A1E;stroke-width:0.5;"/><text fill="#4A3400" font-family="Helvetica" font-size="13" lengthAdjust="spacing" textLength="237.6055" x="303" y="261.2778">--corpus selectionne le mapper dans</text><text fill="#4A3400" font-family="Helvetica" font-size="13" lengthAdjust="spacing" textLength="281.3789" x="303" y="276.4106">MAPPERS_PAR_CORPUS : "mediqal_oeq" -&gt;</text><text fill="#4A3400" font-family="Helvetica" font-size="13" lengthAdjust="spacing" textLength="340.6343" x="303" y="291.5435">mapper_mediqal, "mediqal_mcqu"/"mediqal_mcqm"</text><text fill="#4A3400" font-family="Helvetica" font-size="13" lengthAdjust="spacing" textLength="262.3931" x="303" y="306.6763">-&gt; mapper_mediqal_qcm (schema QCM,</text><text fill="#4A3400" font-family="Helvetica" font-size="13" lengthAdjust="spacing" textLength="193.1973" x="303" y="321.8091">clinical_case + answer_a..e +</text><text fill="#4A3400" font-family="Helvetica" font-size="13" lengthAdjust="spacing" textLength="257.7593" x="303" y="336.9419">correct_answers), "frenchmedmcqa" -&gt;</text><text fill="#4A3400" font-family="Helvetica" font-size="13" lengthAdjust="spacing" textLength="266.1509" x="303" y="352.0747">mapper_frenchmedmcqa, etc. MediQAl a</text><text fill="#4A3400" font-family="Helvetica" font-size="13" lengthAdjust="spacing" textLength="220.4097" x="303" y="367.2075">3 fichiers/schemas ; une seule cle</text><text fill="#4A3400" font-family="Helvetica" font-size="13" lengthAdjust="spacing" textLength="156.8315" x="303" y="382.3403">"mediqal" ne suffit plus.</text><line style="stroke:#0B3D3A;stroke-width:1.2;" x1="292.8818" x2="334.8818" y1="427.0156" y2="427.0156"/><line style="stroke:#0B3D3A;stroke-width:1.2;" x1="334.8818" x2="334.8818" y1="427.0156" y2="440.0156"/><line style="stroke:#0B3D3A;stroke-width:1.2;" x1="293.8818" x2="334.8818" y1="440.0156" y2="440.0156"/><polygon fill="#0B3D3A" points="303.8818,436.0156,293.8818,440.0156,303.8818,444.0156,299.8818,440.0156" style="stroke:#0B3D3A;stroke-width:1;"/><text fill="#10241F" font-family="Helvetica" font-size="11" font-weight="bold" lengthAdjust="spacing" textLength="11.8325" x="299.8818" y="416.019">2.</text><text fill="#10241F" font-family="Helvetica" font-size="11" lengthAdjust="spacing" textLength="42.7109" x="375.9404" y="409.6167">mapper</text><text fill="#10241F" font-family="Helvetica" font-size="11" lengthAdjust="spacing" textLength="3.4966" x="418.6514" y="409.6167">&#160;</text><text fill="#10241F" font-family="Helvetica" font-size="11" lengthAdjust="spacing" textLength="9.2168" x="422.1479" y="409.6167">=</text><text fill="#10241F" font-family="Helvetica" font-size="11" lengthAdjust="spacing" textLength="175.8765" x="315.7144" y="422.4214">MAPPERS_PAR_CORPUS[corpus]</text><polygon fill="#0B3D3A" points="790.6226,475.625,800.6226,479.625,790.6226,483.625,794.6226,479.625" style="stroke:#0B3D3A;stroke-width:1;"/><line style="stroke:#0B3D3A;stroke-width:1.2;" x1="292.8818" x2="796.6226" y1="479.625" y2="479.625"/><text fill="#10241F" font-family="Helvetica" font-size="11" font-weight="bold" lengthAdjust="spacing" textLength="11.8325" x="483.1736" y="468.6284">3.</text><text fill="#10241F" font-family="Helvetica" font-size="11" lengthAdjust="spacing" textLength="113.3247" x="499.0061" y="462.2261">new(chemin_source,</text><text fill="#10241F" font-family="Helvetica" font-size="11" lengthAdjust="spacing" textLength="59.5977" x="525.8696" y="475.0308">taille_bloc)</text><path d="M807,495.625 L807,604.625 A3,3 0 0 0 810,607.625 L1090,607.625 A3,3 0 0 0 1093,604.625 L1093,502.625 L1083,492.625 L810,492.625 A3,3 0 0 0 807,495.625 " fill="#FDF6EC" style="stroke:#C98A1E;stroke-width:0.5;"/><path d="M1083,492.625 L1083,501.125 A1.5,1.5 0 0 0 1084.5,502.625 L1093,502.625 L1083,492.625 " fill="#FDF6EC" style="stroke:#C98A1E;stroke-width:0.5;"/><text fill="#4A3400" font-family="Helvetica" font-size="13" lengthAdjust="spacing" textLength="234.0762" x="813" y="509.6919">--taille-bloc N (07/09/2026) : lecture</text><text fill="#4A3400" font-family="Helvetica" font-size="13" lengthAdjust="spacing" textLength="230.2549" x="813" y="524.8247">pandas par blocs de N lignes plutot</text><text fill="#4A3400" font-family="Helvetica" font-size="13" lengthAdjust="spacing" textLength="235.2949" x="813" y="539.9575">que tout le fichier source d'un coup.</text><text fill="#4A3400" font-family="Helvetica" font-size="13" lengthAdjust="spacing" textLength="265.7573" x="813" y="555.0903">Requis sur ultramedical_preference.jsonl</text><text fill="#4A3400" font-family="Helvetica" font-size="13" lengthAdjust="spacing" textLength="241.2236" x="813" y="570.2231">(966 Mo, 109353 enregistrements) --</text><text fill="#4A3400" font-family="Helvetica" font-size="13" lengthAdjust="spacing" textLength="239.0273" x="813" y="585.356">OOM reel confirme sans cette option</text><text fill="#4A3400" font-family="Helvetica" font-size="13" lengthAdjust="spacing" textLength="202.5728" x="813" y="600.4888">sur 5.8 Go de RAM disponibles.</text><polygon fill="#0B3D3A" points="1012.0444,628.3594,1022.0444,632.3594,1012.0444,636.3594,1016.0444,632.3594" style="stroke:#0B3D3A;stroke-width:1;"/><line style="stroke:#0B3D3A;stroke-width:1.2;" x1="292.8818" x2="1018.0444" y1="632.3594" y2="632.3594"/><text fill="#10241F" font-family="Helvetica" font-size="11" font-weight="bold" lengthAdjust="spacing" textLength="11.8325" x="596.3123" y="627.7651">4.</text><text fill="#10241F" font-family="Helvetica" font-size="11" lengthAdjust="spacing" textLength="108.4692" x="612.1448" y="627.7651">new(chemin_sortie)</text><polygon fill="#0B3D3A" points="535.7593,655.1641,545.7593,659.1641,535.7593,663.1641,539.7593,659.1641" style="stroke:#0B3D3A;stroke-width:1;"/><line style="stroke:#0B3D3A;stroke-width:1.2;" x1="292.8818" x2="541.7593" y1="659.1641" y2="659.1641"/><text fill="#10241F" font-family="Helvetica" font-size="11" font-weight="bold" lengthAdjust="spacing" textLength="11.8325" x="346.0928" y="654.5698">5.</text><text fill="#10241F" font-family="Helvetica" font-size="11" lengthAdjust="spacing" textLength="68.9702" x="361.9253" y="654.5698">new(lecteur,</text><text fill="#10241F" font-family="Helvetica" font-size="11" lengthAdjust="spacing" textLength="3.4966" x="430.8955" y="654.5698">&#160;</text><text fill="#10241F" font-family="Helvetica" font-size="11" lengthAdjust="spacing" textLength="60.1563" x="434.3921" y="654.5698">repository)</text><polygon fill="#0B3D3A" points="530.7593,681.9688,540.7593,685.9688,530.7593,689.9688,534.7593,685.9688" style="stroke:#0B3D3A;stroke-width:1;"/><line style="stroke:#0B3D3A;stroke-width:1.2;" x1="292.8818" x2="536.7593" y1="685.9688" y2="685.9688"/><text fill="#10241F" font-family="Helvetica" font-size="11" font-weight="bold" lengthAdjust="spacing" textLength="11.8325" x="359.9236" y="681.3745">6.</text><text fill="#10241F" font-family="Helvetica" font-size="11" lengthAdjust="spacing" textLength="99.9614" x="375.7561" y="681.3745">executer(mapper)</text><polygon fill="#0B3D3A" points="785.6226,708.7734,795.6226,712.7734,785.6226,716.7734,789.6226,712.7734" style="stroke:#0B3D3A;stroke-width:1;"/><line style="stroke:#0B3D3A;stroke-width:1.2;" x1="552.7593" x2="791.6226" y1="712.7734" y2="712.7734"/><text fill="#10241F" font-family="Helvetica" font-size="11" font-weight="bold" lengthAdjust="spacing" textLength="11.8325" x="606.0818" y="708.1792">7.</text><text fill="#10241F" font-family="Helvetica" font-size="11" lengthAdjust="spacing" textLength="122.3857" x="621.9143" y="708.1792">lire_enregistrements()</text><polygon fill="#0B3D3A" points="563.7593,786.7969,553.7593,790.7969,563.7593,794.7969,559.7593,790.7969" style="stroke:#0B3D3A;stroke-width:1;"/><line style="stroke:#0B3D3A;stroke-width:1.2;stroke-dasharray:2.0,2.0;" x1="557.7593" x2="801.6226" y1="790.7969" y2="790.7969"/><text fill="#10241F" font-family="Helvetica" font-size="11" font-weight="bold" lengthAdjust="spacing" textLength="11.8325" x="598.3176" y="760.5933">8.</text><text fill="#10241F" font-family="Helvetica" font-size="11" lengthAdjust="spacing" textLength="70.1357" x="650.5393" y="734.9839">Iterator[dict]</text><text fill="#10241F" font-family="Helvetica" font-size="11" lengthAdjust="spacing" textLength="22.5371" x="614.1501" y="747.7886">(par</text><text fill="#10241F" font-family="Helvetica" font-size="11" lengthAdjust="spacing" textLength="3.4966" x="636.6873" y="747.7886">&#160;</text><text fill="#10241F" font-family="Helvetica" font-size="11" lengthAdjust="spacing" textLength="28.5474" x="640.1838" y="747.7886">blocs</text><text fill="#10241F" font-family="Helvetica" font-size="11" lengthAdjust="spacing" textLength="3.4966" x="668.7312" y="747.7886">&#160;</text><text fill="#10241F" font-family="Helvetica" font-size="11" lengthAdjust="spacing" textLength="13.75" x="672.2278" y="747.7886">de</text><text fill="#10241F" font-family="Helvetica" font-size="11" lengthAdjust="spacing" textLength="3.4966" x="685.9778" y="747.7886">&#160;</text><text fill="#10241F" font-family="Helvetica" font-size="11" lengthAdjust="spacing" textLength="55.3062" x="689.4744" y="747.7886">taille_bloc</text><text fill="#10241F" font-family="Helvetica" font-size="11" lengthAdjust="spacing" textLength="3.4966" x="744.7805" y="747.7886">&#160;</text><text fill="#10241F" font-family="Helvetica" font-size="11" lengthAdjust="spacing" textLength="8.7871" x="748.2771" y="747.7886">si</text><text fill="#10241F" font-family="Helvetica" font-size="11" lengthAdjust="spacing" textLength="35.6211" x="667.7966" y="760.5933">fourni,</text><text fill="#10241F" font-family="Helvetica" font-size="11" lengthAdjust="spacing" textLength="29.4604" x="618.686" y="773.3979">sinon</text><text fill="#10241F" font-family="Helvetica" font-size="11" lengthAdjust="spacing" textLength="3.4966" x="648.1465" y="773.3979">&#160;</text><text fill="#10241F" font-family="Helvetica" font-size="11" lengthAdjust="spacing" textLength="22.3276" x="651.6431" y="773.3979">tout</text><text fill="#10241F" font-family="Helvetica" font-size="11" lengthAdjust="spacing" textLength="3.4966" x="673.9707" y="773.3979">&#160;</text><text fill="#10241F" font-family="Helvetica" font-size="11" lengthAdjust="spacing" textLength="9.8237" x="677.4673" y="773.3979">le</text><text fill="#10241F" font-family="Helvetica" font-size="11" lengthAdjust="spacing" textLength="3.4966" x="687.291" y="773.3979">&#160;</text><text fill="#10241F" font-family="Helvetica" font-size="11" lengthAdjust="spacing" textLength="34.2944" x="690.7876" y="773.3979">fichier</text><text fill="#10241F" font-family="Helvetica" font-size="11" lengthAdjust="spacing" textLength="3.4966" x="725.082" y="773.3979">&#160;</text><text fill="#10241F" font-family="Helvetica" font-size="11" lengthAdjust="spacing" textLength="23.9497" x="728.5786" y="773.3979">d'un</text><text fill="#10241F" font-family="Helvetica" font-size="11" lengthAdjust="spacing" textLength="31.0234" x="670.0955" y="786.2026">coup)</text><path d="M397.7969,805.7969 L471.4209,805.7969 L471.4209,812.9297 L461.4209,822.9297 L394.7969,822.9297 L394.7969,808.7969 A3,3 0 0 1 397.7969,805.7969 " fill="#EEEEEE" style="stroke:#000000;stroke-width:1.5;"/><rect fill="none" height="273.4922" rx="3" ry="3" style="stroke:#0B3D3A;stroke-width:1.5;" width="428.8472" x="394.7969" y="805.7969"/><text fill="#000000" font-family="Helvetica" font-size="13" font-weight="bold" lengthAdjust="spacing" textLength="31.624" x="409.7969" y="818.8638">loop</text><text fill="#000000" font-family="Helvetica" font-size="11" font-weight="bold" lengthAdjust="spacing" textLength="218.0825" x="486.4209" y="818.0073">[pour chaque enregistrement brut]</text><line style="stroke:#0B3D3A;stroke-width:1.2;" x1="552.7593" x2="594.7593" y1="841.7344" y2="841.7344"/><line style="stroke:#0B3D3A;stroke-width:1.2;" x1="594.7593" x2="594.7593" y1="841.7344" y2="854.7344"/><line style="stroke:#0B3D3A;stroke-width:1.2;" x1="553.7593" x2="594.7593" y1="854.7344" y2="854.7344"/><polygon fill="#0B3D3A" points="563.7593,850.7344,553.7593,854.7344,563.7593,858.7344,559.7593,854.7344" style="stroke:#0B3D3A;stroke-width:1;"/><text fill="#10241F" font-family="Helvetica" font-size="11" font-weight="bold" lengthAdjust="spacing" textLength="11.8325" x="559.7593" y="837.1401">9.</text><text fill="#10241F" font-family="Helvetica" font-size="11" lengthAdjust="spacing" textLength="136.4634" x="575.5918" y="837.1401">mapper(enregistrement)</text><path d="M557,870.7344 L557,919.7344 A3,3 0 0 0 560,922.7344 L810,922.7344 A3,3 0 0 0 813,919.7344 L813,877.7344 L803,867.7344 L560,867.7344 A3,3 0 0 0 557,870.7344 " fill="#FDF6EC" style="stroke:#C98A1E;stroke-width:0.5;"/><path d="M803,867.7344 L803,876.2344 A1.5,1.5 0 0 0 804.5,877.7344 L813,877.7344 L803,867.7344 " fill="#FDF6EC" style="stroke:#C98A1E;stroke-width:0.5;"/><text fill="#4A3400" font-family="Helvetica" font-size="13" lengthAdjust="spacing" textLength="191.9912" x="563" y="884.8013">Le use case ne conna&#238;t pas la</text><text fill="#4A3400" font-family="Helvetica" font-size="13" lengthAdjust="spacing" textLength="199.5894" x="563" y="899.9341">structure du corpus source : le</text><text fill="#4A3400" font-family="Helvetica" font-size="13" lengthAdjust="spacing" textLength="235.644" x="563" y="915.0669">mapper est inject&#233; par interfaces/cli</text><path d="M407.7969,935.1328 L469.2397,935.1328 L469.2397,942.2656 L459.2397,952.2656 L404.7969,952.2656 L404.7969,938.1328 A3,3 0 0 1 407.7969,935.1328 " fill="#EEEEEE" style="stroke:#000000;stroke-width:1.5;"/><rect fill="none" height="137.1563" rx="3" ry="3" style="stroke:#0B3D3A;stroke-width:1.5;" width="337.0464" x="404.7969" y="935.1328"/><text fill="#000000" font-family="Helvetica" font-size="13" font-weight="bold" lengthAdjust="spacing" textLength="19.4429" x="419.7969" y="948.1997">alt</text><text fill="#000000" font-family="Helvetica" font-size="11" font-weight="bold" lengthAdjust="spacing" textLength="147.877" x="484.2397" y="947.3433">[enregistrement valide]</text><line style="stroke:#0B3D3A;stroke-width:1.2;" x1="552.7593" x2="594.7593" y1="983.875" y2="983.875"/><line style="stroke:#0B3D3A;stroke-width:1.2;" x1="594.7593" x2="594.7593" y1="983.875" y2="996.875"/><line style="stroke:#0B3D3A;stroke-width:1.2;" x1="553.7593" x2="594.7593" y1="996.875" y2="996.875"/><polygon fill="#0B3D3A" points="563.7593,992.875,553.7593,996.875,563.7593,1000.875,559.7593,996.875" style="stroke:#0B3D3A;stroke-width:1;"/><text fill="#10241F" font-family="Helvetica" font-size="11" font-weight="bold" lengthAdjust="spacing" textLength="19.4863" x="559.7593" y="972.8784">10.</text><text fill="#10241F" font-family="Helvetica" font-size="11" lengthAdjust="spacing" textLength="34.5791" x="583.2456" y="966.4761">ajoute</text><text fill="#10241F" font-family="Helvetica" font-size="11" lengthAdjust="spacing" textLength="3.4966" x="617.8247" y="966.4761">&#160;</text><text fill="#10241F" font-family="Helvetica" font-size="11" lengthAdjust="spacing" textLength="74.9912" x="621.3213" y="966.4761">ExemplePivot</text><text fill="#10241F" font-family="Helvetica" font-size="11" lengthAdjust="spacing" textLength="3.4966" x="696.3125" y="966.4761">&#160;</text><text fill="#10241F" font-family="Helvetica" font-size="11" lengthAdjust="spacing" textLength="6.7407" x="699.8091" y="966.4761">&#224;</text><text fill="#10241F" font-family="Helvetica" font-size="11" lengthAdjust="spacing" textLength="3.4966" x="706.5498" y="966.4761">&#160;</text><text fill="#10241F" font-family="Helvetica" font-size="11" lengthAdjust="spacing" textLength="9.7969" x="710.0464" y="966.4761">la</text><text fill="#10241F" font-family="Helvetica" font-size="11" lengthAdjust="spacing" textLength="22.9238" x="640.0825" y="979.2808">liste</text><line style="stroke:#0B3D3A;stroke-width:1;stroke-dasharray:2.0,2.0;" x1="404.7969" x2="741.8433" y1="1005.875" y2="1005.875"/><text fill="#000000" font-family="Helvetica" font-size="11" font-weight="bold" lengthAdjust="spacing" textLength="171.9126" x="409.7969" y="1016.0854">[enregistrement incomplet]</text><line style="stroke:#0B3D3A;stroke-width:1.2;" x1="552.7593" x2="594.7593" y1="1051.2891" y2="1051.2891"/><line style="stroke:#0B3D3A;stroke-width:1.2;" x1="594.7593" x2="594.7593" y1="1051.2891" y2="1064.2891"/><line style="stroke:#0B3D3A;stroke-width:1.2;" x1="553.7593" x2="594.7593" y1="1064.2891" y2="1064.2891"/><polygon fill="#0B3D3A" points="563.7593,1060.2891,553.7593,1064.2891,563.7593,1068.2891,559.7593,1064.2891" style="stroke:#0B3D3A;stroke-width:1;"/><text fill="#10241F" font-family="Helvetica" font-size="11" font-weight="bold" lengthAdjust="spacing" textLength="19.4863" x="559.7593" y="1040.2925">11.</text><text fill="#10241F" font-family="Helvetica" font-size="11" lengthAdjust="spacing" textLength="35.0303" x="583.2456" y="1033.8901">ignore</text><text fill="#10241F" font-family="Helvetica" font-size="11" lengthAdjust="spacing" textLength="3.4966" x="618.2759" y="1033.8901">&#160;</text><text fill="#10241F" font-family="Helvetica" font-size="11" lengthAdjust="spacing" textLength="47.0024" x="621.7725" y="1033.8901">(mapper</text><text fill="#10241F" font-family="Helvetica" font-size="11" lengthAdjust="spacing" textLength="3.4966" x="668.7749" y="1033.8901">&#160;</text><text fill="#10241F" font-family="Helvetica" font-size="11" lengthAdjust="spacing" textLength="47.5664" x="672.2715" y="1033.8901">retourne</text><text fill="#10241F" font-family="Helvetica" font-size="11" lengthAdjust="spacing" textLength="32.9893" x="635.0471" y="1046.6948">None)</text><polygon fill="#0B3D3A" points="1007.0444,1101.0938,1017.0444,1105.0938,1007.0444,1109.0938,1011.0444,1105.0938" style="stroke:#0B3D3A;stroke-width:1;"/><line style="stroke:#0B3D3A;stroke-width:1.2;" x1="552.7593" x2="1013.0444" y1="1105.0938" y2="1105.0938"/><text fill="#10241F" font-family="Helvetica" font-size="11" font-weight="bold" lengthAdjust="spacing" textLength="19.4863" x="658.7822" y="1100.4995">12.</text><text fill="#10241F" font-family="Helvetica" font-size="11" lengthAdjust="spacing" textLength="230.7529" x="682.2686" y="1100.4995">sauvegarder_plusieurs(exemples_valides)</text><line style="stroke:#0B3D3A;stroke-width:1.2;" x1="1029.0444" x2="1071.0444" y1="1144.7031" y2="1144.7031"/><line style="stroke:#0B3D3A;stroke-width:1.2;" x1="1071.0444" x2="1071.0444" y1="1144.7031" y2="1157.7031"/><line style="stroke:#0B3D3A;stroke-width:1.2;" x1="1030.0444" x2="1071.0444" y1="1157.7031" y2="1157.7031"/><polygon fill="#0B3D3A" points="1040.0444,1153.7031,1030.0444,1157.7031,1040.0444,1161.7031,1036.0444,1157.7031" style="stroke:#0B3D3A;stroke-width:1;"/><text fill="#10241F" font-family="Helvetica" font-size="11" font-weight="bold" lengthAdjust="spacing" textLength="19.4863" x="1036.0444" y="1133.7065">13.</text><text fill="#10241F" font-family="Helvetica" font-size="11" lengthAdjust="spacing" textLength="45.4287" x="1076.2456" y="1127.3042">s&#233;rialise</text><text fill="#10241F" font-family="Helvetica" font-size="11" lengthAdjust="spacing" textLength="3.4966" x="1121.6743" y="1127.3042">&#160;</text><text fill="#10241F" font-family="Helvetica" font-size="11" lengthAdjust="spacing" textLength="40.4819" x="1125.1709" y="1127.3042">chaque</text><text fill="#10241F" font-family="Helvetica" font-size="11" lengthAdjust="spacing" textLength="74.9912" x="1059.5308" y="1140.1089">ExemplePivot</text><text fill="#10241F" font-family="Helvetica" font-size="11" lengthAdjust="spacing" textLength="3.4966" x="1134.522" y="1140.1089">&#160;</text><text fill="#10241F" font-family="Helvetica" font-size="11" lengthAdjust="spacing" textLength="13.7393" x="1138.0186" y="1140.1089">en</text><text fill="#10241F" font-family="Helvetica" font-size="11" lengthAdjust="spacing" textLength="3.4966" x="1151.7578" y="1140.1089">&#160;</text><text fill="#10241F" font-family="Helvetica" font-size="11" lengthAdjust="spacing" textLength="27.1133" x="1155.2544" y="1140.1089">JSON</text><polygon fill="#0B3D3A" points="563.7593,1180.5078,553.7593,1184.5078,563.7593,1188.5078,559.7593,1184.5078" style="stroke:#0B3D3A;stroke-width:1;"/><line style="stroke:#0B3D3A;stroke-width:1.2;stroke-dasharray:2.0,2.0;" x1="557.7593" x2="1023.0444" y1="1184.5078" y2="1184.5078"/><text fill="#10241F" font-family="Helvetica" font-size="11" font-weight="bold" lengthAdjust="spacing" textLength="19.4863" x="724.1938" y="1179.9136">14.</text><text fill="#10241F" font-family="Helvetica" font-size="11" lengthAdjust="spacing" textLength="47.2603" x="747.6802" y="1179.9136">(&#233;criture</text><text fill="#10241F" font-family="Helvetica" font-size="11" lengthAdjust="spacing" textLength="3.4966" x="794.9404" y="1179.9136">&#160;</text><text fill="#10241F" font-family="Helvetica" font-size="11" lengthAdjust="spacing" textLength="54.1729" x="798.437" y="1179.9136">termin&#233;e)</text><polygon fill="#0B3D3A" points="303.8818,1207.3125,293.8818,1211.3125,303.8818,1215.3125,299.8818,1211.3125" style="stroke:#0B3D3A;stroke-width:1;"/><line style="stroke:#0B3D3A;stroke-width:1.2;stroke-dasharray:2.0,2.0;" x1="297.8818" x2="546.7593" y1="1211.3125" y2="1211.3125"/><text fill="#10241F" font-family="Helvetica" font-size="11" font-weight="bold" lengthAdjust="spacing" textLength="19.4863" x="357.834" y="1206.7183">15.</text><text fill="#10241F" font-family="Helvetica" font-size="11" lengthAdjust="spacing" textLength="101.4868" x="381.3203" y="1206.7183">nombre_exemples</text><polygon fill="#0B3D3A" points="93.9834,1246.9219,83.9834,1250.9219,93.9834,1254.9219,89.9834,1250.9219" style="stroke:#0B3D3A;stroke-width:1;"/><line style="stroke:#0B3D3A;stroke-width:1.2;stroke-dasharray:2.0,2.0;" x1="87.9834" x2="286.8818" y1="1250.9219" y2="1250.9219"/><text fill="#10241F" font-family="Helvetica" font-size="11" font-weight="bold" lengthAdjust="spacing" textLength="19.4863" x="106.1372" y="1239.9253">16.</text><text fill="#10241F" font-family="Helvetica" font-size="11" lengthAdjust="spacing" textLength="13.2881" x="129.6235" y="1233.5229">"N</text><text fill="#10241F" font-family="Helvetica" font-size="11" lengthAdjust="spacing" textLength="3.4966" x="142.9116" y="1233.5229">&#160;</text><text fill="#10241F" font-family="Helvetica" font-size="11" lengthAdjust="spacing" textLength="53.2974" x="146.4082" y="1233.5229">exemples</text><text fill="#10241F" font-family="Helvetica" font-size="11" lengthAdjust="spacing" textLength="3.4966" x="199.7056" y="1233.5229">&#160;</text><text fill="#10241F" font-family="Helvetica" font-size="11" lengthAdjust="spacing" textLength="27.5913" x="203.2021" y="1233.5229">pivot</text><text fill="#10241F" font-family="Helvetica" font-size="11" lengthAdjust="spacing" textLength="3.4966" x="230.7935" y="1233.5229">&#160;</text><text fill="#10241F" font-family="Helvetica" font-size="11" lengthAdjust="spacing" textLength="30.438" x="234.29" y="1233.5229">&#233;crits</text><text fill="#10241F" font-family="Helvetica" font-size="11" lengthAdjust="spacing" textLength="26.4258" x="174.4399" y="1246.3276">dans</text><text fill="#10241F" font-family="Helvetica" font-size="11" lengthAdjust="spacing" textLength="3.4966" x="200.8657" y="1246.3276">&#160;</text><text fill="#10241F" font-family="Helvetica" font-size="11" lengthAdjust="spacing" textLength="15.5493" x="204.3623" y="1246.3276">..."</text><!--SRC=[VLPBRXj74DtFAIhC8YH23caRjkDy30YK7DZGpnAqaen1iwSejT7JFUeFRM-CRBFF0RBL9fVWJNAIl9uPIXpQ3i45X_sgwbNLg-hvJXcfOycKvrDy2schofef-w2qpLMiT9O55JJJ-iyWQgP7zEyVVz6-4jTEL1KJJFtwxZQoaNnbvjRuuA8CoXeg8vKY2C-1QhMoWOPIU2f_Y5vSCxdr7UinIIsyPv_0qfOyoZ8XWtKqs5_VhLZRkkRehinGgslJH4iCXG5oGF2spwiiMzYFD50ci5iAoNugjHhGzwzc1mS7ppEYMhYWfAg52JIGBKFbkEZ85GsvlFxKE9mVlixOb0IVdMDHrrf9aLBwfjVvlTVzrkbfyddXUOw7nk_5VCUjCaidsc95nrDHYXe9-6-6E6GPK8gvTNNqhvIyKUmEhHIwST-TxXgzyTReZj8PrzOhrBPDD3q-K18nM1Eh1QFolovUpl91bg6sD7cPAa8_KroHYuRgJ-46hVsVAbwPpvFF4s-ZaqmLb-fMwAAIjp5_dyXGEfLD4htJZHd89p7cT9cUWr1QysIXhQIdizdiNLA7Med0JQCoO_7BgUkRG7RP_4NR0JnhRhG8wK325Lg914jXF717UwUd1sVdnUdUMJ4_EJkzE4UQWmqdoxS3P0zSQrLq1-C7IA8zc6u_LWFWKRA-IN4hAnfwUSELeBVpep50aAY1g7I1aM3waK3f0on4dkCfdLldGBre__SZX5qwpDWDV2AGw7Fh7Os9Wypf2C7VxcaIW3sXPIiOFsrfUFg58ehYEQ8kKZD0cqG6b0xYSgamjphwl559gdIMf72lYAwQltsba9Tj_Tzb6ujEdh0o_66OA2XJj1ePKzla8ZLvjDFH1rdlgk6OXhFdqzcBwUFPusSZE4wTnY0r4s1AP8X1e0JrQMiSKxD0VCees00KLXO56qCIHbSTwbIB5PKa7kiSk3E-ZGfI0lke0vOUgfGQLpjUSgexjy86TFZYsJCwicDwD7lnvEaJOkFuMc5Gk68J_8Wc4w1EJex8CUiqH4lbi4CzkaoI0pAtTP8hK2dUq_md-jqc-cTxHrGgNrkZ5fg_qf8qpRlLJQCqsW0kvjsnRaiw1eVDFXXbFHH_P1cnYuPjXqSFCuSbbW7IQwXEIs0dq-6MpQQ56ul99inhX108VubwXdTOyRs6ROc2lA8bEcFK-CfuPR1_TXjttx5HLl8NeJDjRKqrN92y4QdnVRwqS359easj8TUcFkpZHi3qzOc243w7J15ZtCooILUKCMBz3yO7CjIYWTnl-lQcQzTJAxUatGRJJHGkNrBcFSYlxneLzwysGE-xZzz2XzrqLaAhidMvbP9uZw8n7NpagjRSN52q_Xlyq48V4for_w8qU3-m2HzstM6SBBBfH08rXTGYJ9erF6ev9fLk1DC9r8kuuclXIcojj5mK-kE7t7BoHSlSRycdkQOQuoqdwpkdW4mbR_lPIueDlJa_EUwiDdo7wplfLDC1L1CJWlUFdbgQI0tR-nLdRBL8wkxeRQFJA3H30t2wA75r7DC6sBtlj15zS-6aEssmxI1TLly1]--></g></svg>