<svg xmlns="http://www.w3.org/2000/svg" xmlns:xlink="http://www.w3.org/1999/xlink" contentStyleType="text/css" height="882px" preserveAspectRatio="none" style="width:997px;height:882px;background:#F6F4EF;" version="1.1" viewBox="0 0 997 882" width="997px" zoomAndPan="magnify"><title>&#201;tape 1 : Diagramme de s&#233;quence</title><defs/><g><rect fill="#F6F4EF" height="882" style="stroke:none;stroke-width:1;" width="997" x="0" y="0"/><text fill="#000000" font-family="Helvetica" font-size="14" font-weight="bold" lengthAdjust="spacing" textLength="270.4297" x="360.3123" y="27.9951">&#201;tape 1 : Diagramme de s&#233;quence</text><text fill="#000000" font-family="Helvetica" font-size="14" font-weight="bold" lengthAdjust="spacing" textLength="669.8945" x="160.5798" y="44.292">V&#233;rification de la r&#233;partition des splits par strate (cas d'usage r&#233;el, classes du code)</text><rect fill="#F0EEE7" height="817.1484" rx="3" ry="3" style="stroke:#0B3D3A;stroke-width:0.5;" width="325.666" x="172.3345" y="59.5938"/><text fill="#000000" font-family="Helvetica" font-size="13" font-weight="bold" lengthAdjust="spacing" textLength="95.2085" x="287.5632" y="71.6606">interfaces/cli</text><rect fill="#F0EEE7" height="817.1484" rx="3" ry="3" style="stroke:#0B3D3A;stroke-width:0.5;" width="282.0117" x="500.0005" y="59.5938"/><text fill="#000000" font-family="Helvetica" font-size="13" font-weight="bold" lengthAdjust="spacing" textLength="81.6309" x="600.1909" y="71.6606">application</text><rect fill="#F0EEE7" height="817.1484" rx="3" ry="3" style="stroke:#0B3D3A;stroke-width:0.5;" width="207.042" x="784.0122" y="59.5938"/><text fill="#000000" font-family="Helvetica" font-size="13" font-weight="bold" lengthAdjust="spacing" textLength="172.6563" x="801.2051" y="71.6606">infrastructure/adapters</text><rect fill="#EFEAE0" height="557.5469" style="stroke:#0B3D3A;stroke-width:1;" width="10" x="330.1675" y="205.6016"/><rect fill="#EFEAE0" height="313.9219" style="stroke:#0B3D3A;stroke-width:1;" width="10" x="636.0063" y="286.0156"/><rect fill="#EFEAE0" height="39.6094" style="stroke:#0B3D3A;stroke-width:1;" width="10" x="882.5332" y="325.625"/><rect fill="#FFFFFF" height="168.2891" rx="3" ry="3" style="stroke:#0B3D3A;stroke-width:1.5;" width="363.4155" x="484.0005" y="380.2344"/><rect fill="#FFFFFF" height="137.1563" rx="3" ry="3" style="stroke:#0B3D3A;stroke-width:1.5;" width="343.4155" x="494.0005" y="404.3672"/><path d="M494.0005,486.9141 L837.416,486.9141 L837.416,538.5234 A3,3 0 0 1 834.416,541.5234 L497.0005,541.5234 A3,3 0 0 1 494.0005,538.5234 L494.0005,486.9141 " fill="#FFFFFF" style="stroke:none;stroke-width:1;"/><line style="stroke:#0B3D3A;stroke-width:0.5;stroke-dasharray:5.0,5.0;" x1="82" x2="82" y1="151.1875" y2="781.1484"/><line style="stroke:#0B3D3A;stroke-width:0.5;stroke-dasharray:5.0,5.0;" x1="334.3345" x2="334.3345" y1="151.1875" y2="781.1484"/><line style="stroke:#0B3D3A;stroke-width:0.5;stroke-dasharray:5.0,5.0;" x1="641.0005" x2="641.0005" y1="151.1875" y2="781.1484"/><line style="stroke:#0B3D3A;stroke-width:0.5;stroke-dasharray:5.0,5.0;" x1="887.0122" x2="887.0122" y1="151.1875" y2="781.1484"/><text fill="#000000" font-family="Helvetica" font-size="14" lengthAdjust="spacing" textLength="89.7627" x="35.1021" y="131.5889">D&#233;veloppeur</text><text fill="#000000" font-family="Helvetica" font-size="14" lengthAdjust="spacing" textLength="149.9668" x="5" y="147.8857">(ligne de commande)</text><ellipse cx="82.9834" cy="67.0938" fill="#FFFFFF" rx="8" ry="8" style="stroke:#0B3D3A;stroke-width:0.5;"/><path d="M82.9834,75.0938 L82.9834,102.0938 M69.9834,83.0938 L95.9834,83.0938 M82.9834,102.0938 L69.9834,117.0938 M82.9834,102.0938 L95.9834,117.0938 " fill="none" style="stroke:#0B3D3A;stroke-width:0.5;"/><text fill="#000000" font-family="Helvetica" font-size="14" lengthAdjust="spacing" textLength="89.7627" x="35.1021" y="793.1436">D&#233;veloppeur</text><text fill="#000000" font-family="Helvetica" font-size="14" lengthAdjust="spacing" textLength="149.9668" x="5" y="809.4404">(ligne de commande)</text><ellipse cx="82.9834" cy="821.2422" fill="#FFFFFF" rx="8" ry="8" style="stroke:#0B3D3A;stroke-width:0.5;"/><path d="M82.9834,829.2422 L82.9834,856.2422 M69.9834,837.2422 L95.9834,837.2422 M82.9834,856.2422 L69.9834,871.2422 M82.9834,856.2422 L95.9834,871.2422 " fill="none" style="stroke:#0B3D3A;stroke-width:0.5;"/><rect fill="#FFFFFF" height="30.2969" rx="3" ry="3" style="stroke:#0B3D3A;stroke-width:0.5;" width="317.666" x="176.3345" y="119.8906"/><text fill="#10241F" font-family="Helvetica" font-size="14" font-weight="bold" lengthAdjust="spacing" textLength="303.666" x="183.3345" y="139.8857">E1_05_01_verifier_repartition_splits.py</text><rect fill="#FFFFFF" height="30.2969" rx="3" ry="3" style="stroke:#0B3D3A;stroke-width:0.5;" width="317.666" x="176.3345" y="780.1484"/><text fill="#10241F" font-family="Helvetica" font-size="14" font-weight="bold" lengthAdjust="spacing" textLength="303.666" x="183.3345" y="800.1436">E1_05_01_verifier_repartition_splits.py</text><rect fill="#FFFFFF" height="30.2969" rx="3" ry="3" style="stroke:#0B3D3A;stroke-width:0.5;" width="274.0117" x="504.0005" y="119.8906"/><text fill="#10241F" font-family="Helvetica" font-size="14" font-weight="bold" lengthAdjust="spacing" textLength="260.0117" x="511.0005" y="139.8857">VerifierRepartitionSplitsUseCase</text><rect fill="#FFFFFF" height="30.2969" rx="3" ry="3" style="stroke:#0B3D3A;stroke-width:0.5;" width="274.0117" x="504.0005" y="780.1484"/><text fill="#10241F" font-family="Helvetica" font-size="14" font-weight="bold" lengthAdjust="spacing" textLength="260.0117" x="511.0005" y="800.1436">VerifierRepartitionSplitsUseCase</text><rect fill="#FFFFFF" height="30.2969" rx="3" ry="3" style="stroke:#0B3D3A;stroke-width:0.5;" width="199.042" x="788.0122" y="119.8906"/><text fill="#10241F" font-family="Helvetica" font-size="14" font-weight="bold" lengthAdjust="spacing" textLength="185.042" x="795.0122" y="139.8857">JsonlDatasetRepository</text><rect fill="#FFFFFF" height="30.2969" rx="3" ry="3" style="stroke:#0B3D3A;stroke-width:0.5;" width="199.042" x="788.0122" y="780.1484"/><text fill="#10241F" font-family="Helvetica" font-size="14" font-weight="bold" lengthAdjust="spacing" textLength="185.042" x="795.0122" y="800.1436">JsonlDatasetRepository</text><rect fill="#EFEAE0" height="557.5469" style="stroke:#0B3D3A;stroke-width:1;" width="10" x="330.1675" y="205.6016"/><rect fill="#EFEAE0" height="313.9219" style="stroke:#0B3D3A;stroke-width:1;" width="10" x="636.0063" y="286.0156"/><rect fill="#EFEAE0" height="39.6094" style="stroke:#0B3D3A;stroke-width:1;" width="10" x="882.5332" y="325.625"/><polygon fill="#0B3D3A" points="318.1675,201.6016,328.1675,205.6016,318.1675,209.6016,322.1675,205.6016" style="stroke:#0B3D3A;stroke-width:1;"/><line style="stroke:#0B3D3A;stroke-width:1.2;" x1="82.9834" x2="324.1675" y1="205.6016" y2="205.6016"/><text fill="#10241F" font-family="Helvetica" font-size="11" font-weight="bold" lengthAdjust="spacing" textLength="11.8325" x="92.4834" y="188.2026">1.</text><text fill="#10241F" font-family="Helvetica" font-size="11" lengthAdjust="spacing" textLength="13.4814" x="175.7822" y="175.3979">uv</text><text fill="#10241F" font-family="Helvetica" font-size="11" lengthAdjust="spacing" textLength="3.4966" x="189.2637" y="175.3979">&#160;</text><text fill="#10241F" font-family="Helvetica" font-size="11" lengthAdjust="spacing" textLength="18.4658" x="192.7603" y="175.3979">run</text><text fill="#10241F" font-family="Helvetica" font-size="11" lengthAdjust="spacing" textLength="3.4966" x="211.2261" y="175.3979">&#160;</text><text fill="#10241F" font-family="Helvetica" font-size="11" lengthAdjust="spacing" textLength="38.4785" x="214.7227" y="175.3979">python</text><text fill="#10241F" font-family="Helvetica" font-size="11" lengthAdjust="spacing" textLength="212.3516" x="108.3159" y="188.2026">E1_05_01_verifier_repartition_splits.py</text><text fill="#10241F" font-family="Helvetica" font-size="11" lengthAdjust="spacing" textLength="49.5269" x="182.7351" y="201.0073">--dataset</text><text fill="#10241F" font-family="Helvetica" font-size="11" lengthAdjust="spacing" textLength="3.4966" x="232.262" y="201.0073">&#160;</text><text fill="#10241F" font-family="Helvetica" font-size="11" lengthAdjust="spacing" textLength="10.4897" x="235.7585" y="201.0073">...</text><polygon fill="#0B3D3A" points="875.5332,228.4063,885.5332,232.4063,875.5332,236.4063,879.5332,232.4063" style="stroke:#0B3D3A;stroke-width:1;"/><line style="stroke:#0B3D3A;stroke-width:1.2;" x1="340.1675" x2="881.5332" y1="232.4063" y2="232.4063"/><text fill="#10241F" font-family="Helvetica" font-size="11" font-weight="bold" lengthAdjust="spacing" textLength="11.8325" x="546.4653" y="227.812">2.</text><text fill="#10241F" font-family="Helvetica" font-size="11" lengthAdjust="spacing" textLength="118.9375" x="562.2979" y="227.812">new(chemin_dataset)</text><polygon fill="#0B3D3A" points="629.0063,255.2109,639.0063,259.2109,629.0063,263.2109,633.0063,259.2109" style="stroke:#0B3D3A;stroke-width:1;"/><line style="stroke:#0B3D3A;stroke-width:1.2;" x1="340.1675" x2="635.0063" y1="259.2109" y2="259.2109"/><text fill="#10241F" font-family="Helvetica" font-size="11" font-weight="bold" lengthAdjust="spacing" textLength="11.8325" x="439.0789" y="254.6167">3.</text><text fill="#10241F" font-family="Helvetica" font-size="11" lengthAdjust="spacing" textLength="87.1836" x="454.9114" y="254.6167">new(repository)</text><polygon fill="#0B3D3A" points="624.0063,282.0156,634.0063,286.0156,624.0063,290.0156,628.0063,286.0156" style="stroke:#0B3D3A;stroke-width:1;"/><line style="stroke:#0B3D3A;stroke-width:1.2;" x1="340.1675" x2="630.0063" y1="286.0156" y2="286.0156"/><text fill="#10241F" font-family="Helvetica" font-size="11" font-weight="bold" lengthAdjust="spacing" textLength="11.8325" x="451.5454" y="281.4214">4.</text><text fill="#10241F" font-family="Helvetica" font-size="11" lengthAdjust="spacing" textLength="57.2505" x="467.3779" y="281.4214">executer()</text><polygon fill="#0B3D3A" points="870.5332,321.625,880.5332,325.625,870.5332,329.625,874.5332,325.625" style="stroke:#0B3D3A;stroke-width:1;"/><line style="stroke:#0B3D3A;stroke-width:1.2;" x1="646.0063" x2="876.5332" y1="325.625" y2="325.625"/><text fill="#10241F" font-family="Helvetica" font-size="11" font-weight="bold" lengthAdjust="spacing" textLength="11.8325" x="687.6331" y="314.6284">5.</text><text fill="#10241F" font-family="Helvetica" font-size="11" lengthAdjust="spacing" textLength="137.4409" x="703.4656" y="308.2261">lister(filtre={anonymise:</text><text fill="#10241F" font-family="Helvetica" font-size="11" lengthAdjust="spacing" textLength="36.271" x="754.0505" y="321.0308">True})</text><polygon fill="#0B3D3A" points="657.0063,361.2344,647.0063,365.2344,657.0063,369.2344,653.0063,365.2344" style="stroke:#0B3D3A;stroke-width:1;"/><line style="stroke:#0B3D3A;stroke-width:1.2;stroke-dasharray:2.0,2.0;" x1="651.0063" x2="886.5332" y1="365.2344" y2="365.2344"/><text fill="#10241F" font-family="Helvetica" font-size="11" font-weight="bold" lengthAdjust="spacing" textLength="11.8325" x="696.4897" y="354.2378">6.</text><text fill="#10241F" font-family="Helvetica" font-size="11" lengthAdjust="spacing" textLength="124.7275" x="712.3223" y="347.8354">Iterator[ExemplePivot]</text><text fill="#10241F" font-family="Helvetica" font-size="11" lengthAdjust="spacing" textLength="74.5078" x="737.4321" y="360.6401">(anonymises)</text><path d="M487.0005,380.2344 L560.6245,380.2344 L560.6245,387.3672 L550.6245,397.3672 L484.0005,397.3672 L484.0005,383.2344 A3,3 0 0 1 487.0005,380.2344 " fill="#EEEEEE" style="stroke:#000000;stroke-width:1.5;"/><rect fill="none" height="168.2891" rx="3" ry="3" style="stroke:#0B3D3A;stroke-width:1.5;" width="363.4155" x="484.0005" y="380.2344"/><text fill="#000000" font-family="Helvetica" font-size="13" font-weight="bold" lengthAdjust="spacing" textLength="31.624" x="499.0005" y="393.3013">loop</text><text fill="#000000" font-family="Helvetica" font-size="11" font-weight="bold" lengthAdjust="spacing" textLength="143.9238" x="575.6245" y="392.4448">[pour chaque exemple]</text><path d="M497.0005,404.3672 L558.4434,404.3672 L558.4434,411.5 L548.4434,421.5 L494.0005,421.5 L494.0005,407.3672 A3,3 0 0 1 497.0005,404.3672 " fill="#EEEEEE" style="stroke:#000000;stroke-width:1.5;"/><rect fill="none" height="137.1563" rx="3" ry="3" style="stroke:#0B3D3A;stroke-width:1.5;" width="343.4155" x="494.0005" y="404.3672"/><text fill="#000000" font-family="Helvetica" font-size="13" font-weight="bold" lengthAdjust="spacing" textLength="19.4429" x="509.0005" y="417.4341">alt</text><text fill="#000000" font-family="Helvetica" font-size="11" font-weight="bold" lengthAdjust="spacing" textLength="167.4438" x="573.4434" y="416.5776">[exemple.split est non nul]</text><line style="stroke:#0B3D3A;stroke-width:1.2;" x1="646.0063" x2="688.0063" y1="465.9141" y2="465.9141"/><line style="stroke:#0B3D3A;stroke-width:1.2;" x1="688.0063" x2="688.0063" y1="465.9141" y2="478.9141"/><line style="stroke:#0B3D3A;stroke-width:1.2;" x1="647.0063" x2="688.0063" y1="478.9141" y2="478.9141"/><polygon fill="#0B3D3A" points="657.0063,474.9141,647.0063,478.9141,657.0063,482.9141,653.0063,478.9141" style="stroke:#0B3D3A;stroke-width:1;"/><text fill="#10241F" font-family="Helvetica" font-size="11" font-weight="bold" lengthAdjust="spacing" textLength="11.8325" x="653.0063" y="448.5151">7.</text><text fill="#10241F" font-family="Helvetica" font-size="11" lengthAdjust="spacing" textLength="15.8716" x="683.373" y="435.7104">cle</text><text fill="#10241F" font-family="Helvetica" font-size="11" lengthAdjust="spacing" textLength="3.4966" x="699.2446" y="435.7104">&#160;</text><text fill="#10241F" font-family="Helvetica" font-size="11" lengthAdjust="spacing" textLength="9.2168" x="702.7412" y="435.7104">=</text><text fill="#10241F" font-family="Helvetica" font-size="11" lengthAdjust="spacing" textLength="3.4966" x="711.958" y="435.7104">&#160;</text><text fill="#10241F" font-family="Helvetica" font-size="11" lengthAdjust="spacing" textLength="85.4272" x="715.4546" y="435.7104">(type_exemple,</text><text fill="#10241F" font-family="Helvetica" font-size="11" lengthAdjust="spacing" textLength="41.062" x="721.5964" y="448.5151">source)</text><text fill="#10241F" font-family="Helvetica" font-size="11" lengthAdjust="spacing" textLength="114.1519" x="668.8389" y="461.3198">repartition[cle][split]</text><text fill="#10241F" font-family="Helvetica" font-size="11" lengthAdjust="spacing" textLength="3.4966" x="782.9907" y="461.3198">&#160;</text><text fill="#10241F" font-family="Helvetica" font-size="11" lengthAdjust="spacing" textLength="18.4336" x="786.4873" y="461.3198">+=</text><text fill="#10241F" font-family="Helvetica" font-size="11" lengthAdjust="spacing" textLength="3.4966" x="804.9209" y="461.3198">&#160;</text><text fill="#10241F" font-family="Helvetica" font-size="11" lengthAdjust="spacing" textLength="6.9985" x="808.4175" y="461.3198">1</text><line style="stroke:#0B3D3A;stroke-width:1;stroke-dasharray:2.0,2.0;" x1="494.0005" x2="837.416" y1="487.9141" y2="487.9141"/><text fill="#000000" font-family="Helvetica" font-size="11" font-weight="bold" lengthAdjust="spacing" textLength="268.6729" x="499.0005" y="498.1245">[exemple.split est nul (pas encore reparti)]</text><line style="stroke:#0B3D3A;stroke-width:1.2;" x1="646.0063" x2="688.0063" y1="520.5234" y2="520.5234"/><line style="stroke:#0B3D3A;stroke-width:1.2;" x1="688.0063" x2="688.0063" y1="520.5234" y2="533.5234"/><line style="stroke:#0B3D3A;stroke-width:1.2;" x1="647.0063" x2="688.0063" y1="533.5234" y2="533.5234"/><polygon fill="#0B3D3A" points="657.0063,529.5234,647.0063,533.5234,657.0063,537.5234,653.0063,533.5234" style="stroke:#0B3D3A;stroke-width:1;"/><text fill="#10241F" font-family="Helvetica" font-size="11" font-weight="bold" lengthAdjust="spacing" textLength="11.8325" x="653.0063" y="515.9292">8.</text><text fill="#10241F" font-family="Helvetica" font-size="11" lengthAdjust="spacing" textLength="35.0303" x="668.8389" y="515.9292">ignore</text><text fill="#10241F" font-family="Helvetica" font-size="11" lengthAdjust="spacing" textLength="3.4966" x="703.8691" y="515.9292">&#160;</text><text fill="#10241F" font-family="Helvetica" font-size="11" lengthAdjust="spacing" textLength="53.6465" x="707.3657" y="515.9292">l'exemple</text><polygon fill="#0B3D3A" points="351.1675,595.9375,341.1675,599.9375,351.1675,603.9375,347.1675,599.9375" style="stroke:#0B3D3A;stroke-width:1;"/><line style="stroke:#0B3D3A;stroke-width:1.2;stroke-dasharray:2.0,2.0;" x1="345.1675" x2="640.0063" y1="599.9375" y2="599.9375"/><text fill="#10241F" font-family="Helvetica" font-size="11" font-weight="bold" lengthAdjust="spacing" textLength="11.8325" x="403.584" y="582.5386">9.</text><text fill="#10241F" font-family="Helvetica" font-size="11" lengthAdjust="spacing" textLength="57.9756" x="469.5154" y="569.7339">repartition</text><text fill="#10241F" font-family="Helvetica" font-size="11" lengthAdjust="spacing" textLength="110.1182" x="419.4165" y="582.5386">dict[(type_exemple,</text><text fill="#10241F" font-family="Helvetica" font-size="11" lengthAdjust="spacing" textLength="3.4966" x="529.5347" y="582.5386">&#160;</text><text fill="#10241F" font-family="Helvetica" font-size="11" lengthAdjust="spacing" textLength="44.5586" x="533.0313" y="582.5386">source),</text><text fill="#10241F" font-family="Helvetica" font-size="11" lengthAdjust="spacing" textLength="51.3262" x="459.6299" y="595.3433">dict[split,</text><text fill="#10241F" font-family="Helvetica" font-size="11" lengthAdjust="spacing" textLength="3.4966" x="510.9561" y="595.3433">&#160;</text><text fill="#10241F" font-family="Helvetica" font-size="11" lengthAdjust="spacing" textLength="22.9238" x="514.4526" y="595.3433">int]]</text><path d="M345,615.9375 L345,709.9375 A3,3 0 0 0 348,712.9375 L692,712.9375 A3,3 0 0 0 695,709.9375 L695,622.9375 L685,612.9375 L348,612.9375 A3,3 0 0 0 345,615.9375 " fill="#FDF6EC" style="stroke:#C98A1E;stroke-width:0.5;"/><path d="M685,612.9375 L685,621.4375 A1.5,1.5 0 0 0 686.5,622.9375 L695,622.9375 L685,612.9375 " fill="#FDF6EC" style="stroke:#C98A1E;stroke-width:0.5;"/><text fill="#4A3400" font-family="Helvetica" font-size="13" lengthAdjust="spacing" textLength="329.2339" x="351" y="630.0044">E1_05_00_decouper_splits.py n'affiche que le total</text><text fill="#4A3400" font-family="Helvetica" font-size="13" lengthAdjust="spacing" textLength="239.7446" x="351" y="645.1372">global par split. Ce script existe pour</text><text fill="#4A3400" font-family="Helvetica" font-size="13" lengthAdjust="spacing" textLength="258.7559" x="351" y="660.27">verifier la representativite par STRATE :</text><text fill="#4A3400" font-family="Helvetica" font-size="13" lengthAdjust="spacing" textLength="284.1846" x="351" y="675.4028">une petite source (ex. FrenchMedMCQA) ne</text><text fill="#4A3400" font-family="Helvetica" font-size="13" lengthAdjust="spacing" textLength="267.6426" x="351" y="690.5356">doit pas se retrouver absente de train ou</text><text fill="#4A3400" font-family="Helvetica" font-size="13" lengthAdjust="spacing" textLength="283.4736" x="351" y="705.6685">de test, ce qu'un total global ne revele pas.</text><polygon fill="#0B3D3A" points="93.9834,759.1484,83.9834,763.1484,93.9834,767.1484,89.9834,763.1484" style="stroke:#0B3D3A;stroke-width:1;"/><line style="stroke:#0B3D3A;stroke-width:1.2;" x1="87.9834" x2="334.1675" y1="763.1484" y2="763.1484"/><text fill="#10241F" font-family="Helvetica" font-size="11" font-weight="bold" lengthAdjust="spacing" textLength="19.4863" x="124.5298" y="745.7495">10.</text><text fill="#10241F" font-family="Helvetica" font-size="11" lengthAdjust="spacing" textLength="45.8154" x="168.7163" y="732.9448">imprime</text><text fill="#10241F" font-family="Helvetica" font-size="11" lengthAdjust="spacing" textLength="3.4966" x="214.5317" y="732.9448">&#160;</text><text fill="#10241F" font-family="Helvetica" font-size="11" lengthAdjust="spacing" textLength="9.8237" x="218.0283" y="732.9448">le</text><text fill="#10241F" font-family="Helvetica" font-size="11" lengthAdjust="spacing" textLength="3.4966" x="227.8521" y="732.9448">&#160;</text><text fill="#10241F" font-family="Helvetica" font-size="11" lengthAdjust="spacing" textLength="41.5723" x="231.3486" y="732.9448">tableau</text><text fill="#10241F" font-family="Helvetica" font-size="11" lengthAdjust="spacing" textLength="59.5977" x="148.0161" y="745.7495">(decompte</text><text fill="#10241F" font-family="Helvetica" font-size="11" lengthAdjust="spacing" textLength="3.4966" x="207.6138" y="745.7495">&#160;</text><text fill="#10241F" font-family="Helvetica" font-size="11" lengthAdjust="spacing" textLength="9.2168" x="211.1104" y="745.7495">+</text><text fill="#10241F" font-family="Helvetica" font-size="11" lengthAdjust="spacing" textLength="3.4966" x="220.3271" y="745.7495">&#160;</text><text fill="#10241F" font-family="Helvetica" font-size="11" lengthAdjust="spacing" textLength="69.7974" x="223.8237" y="745.7495">pourcentage</text><text fill="#10241F" font-family="Helvetica" font-size="11" lengthAdjust="spacing" textLength="18.2456" x="165.6709" y="758.5542">par</text><text fill="#10241F" font-family="Helvetica" font-size="11" lengthAdjust="spacing" textLength="3.4966" x="183.9165" y="758.5542">&#160;</text><text fill="#10241F" font-family="Helvetica" font-size="11" lengthAdjust="spacing" textLength="26.6353" x="187.4131" y="758.5542">split,</text><text fill="#10241F" font-family="Helvetica" font-size="11" lengthAdjust="spacing" textLength="3.4966" x="214.0483" y="758.5542">&#160;</text><text fill="#10241F" font-family="Helvetica" font-size="11" lengthAdjust="spacing" textLength="18.2456" x="217.5449" y="758.5542">par</text><text fill="#10241F" font-family="Helvetica" font-size="11" lengthAdjust="spacing" textLength="3.4966" x="235.7905" y="758.5542">&#160;</text><text fill="#10241F" font-family="Helvetica" font-size="11" lengthAdjust="spacing" textLength="36.6792" x="239.2871" y="758.5542">strate)</text><!--SRC=[ZLJ9QXj14BtFLrIKWoKYZ-L329ZO46G54X98lEHYYQ7LKv8QUhexlIWs8RxdK_mT-h5KzMYpiI6WWtggwhsgLyihPQHEDK9P7j6lahPfh3d249MsfKgDBegeeaPO_Ot28Hp32PmhCVUYQH0eCAmUVYOq4iVcn-h1gvcI8YfhsAO5-DM34vuWsay1WjCg1g2F4A8N4Q4hHO3w80KnH_P7tGUfHGZaNIUGjiPUKGWPhOVE-UfXYTewXycFJLUhkSbfSEB2a6S72EqSbqKnjRVGKIQYdmc9uKXgrO7N7mUZqUXT0P3Jaie94w4pEgu6Rwl1SRL4BW5zvN6RTzNcNBgx33xyygb0KmFXhqc48uUsx1SPVgo1BtQubndsEk1G1CpGryCdoChCl22Taep9uv6eXQDwmeiiduCr-bn40ep4P8CYrTgq-Rb35obQavefagRlfsU3ibCKf1eSdd5zrEIq19yCkBkueCxzfpvZStzuVrYt_3HJ9RTDBRdBh5h1qCJ0gH25mLzTkS16cMeTqjjuN0_NThyjebSyCk8joaHQT7ix3fAl8EEEGQl0BZEbeyVJty9OSzUeW2TmvHF-sGlDwkIemmt39meLn7mpkiN6QVocbZPEeBj52RsYniS8XRRMWRF9Wrm8MWpEauEfKKB7pQlCYW6j6H0OcAJ93j3cdiabhTmfTEETmseTr8T0k19xOxCd_WrvJcuotWJUdC8n8Q4E-1nLqj1rD0gqhjRJhhKelQVSj5DirWUxt6bkU7PQURSpifV6sDHAnfld4-v3DkPC-a0hEPdiAyTjCvR-U3LVHB2pF2om6Rf1LQEqoT7GRGSDp86OqQbP8B3895QqKR2ASssdGhVtXRrB6DAHabuvLf_d8RU7F3UZdCyKEey1JQGbNYhseVZBguiFLoCu8Tz4LyPXP4jR4tJnjeIFdgHSVCNww_3xXnuDBBdMbkHcbGCh7BrDH0HYokZvLD7LKmPiObzwKMVetd4T1xHlkOnD4OOHwDnnEg7CoyiwRHU15vRQrJYlcbO4CTKe4Xr6bgoXMm5lShcIIvlZJfR-tWL-DCOi_Jy0]--></g></svg>