<svg xmlns="http://www.w3.org/2000/svg" xmlns:xlink="http://www.w3.org/1999/xlink" contentStyleType="text/css" height="1231px" preserveAspectRatio="none" style="width:1075px;height:1231px;background:#F6F4EF;" version="1.1" viewBox="0 0 1075 1231" width="1075px" zoomAndPan="magnify"><title>&#201;tape 4 (d&#233;ploiement) : Diagramme d'activit&#233;</title><defs/><g><rect fill="#F6F4EF" height="1231" style="stroke:none;stroke-width:1;" width="1075" x="0" y="0"/><text fill="#000000" font-family="Helvetica" font-size="14" font-weight="bold" lengthAdjust="spacing" textLength="361.2861" x="355.7505" y="32.9951">&#201;tape 4 (d&#233;ploiement) : Diagramme d'activit&#233;</text><text fill="#000000" font-family="Helvetica" font-size="14" font-weight="bold" lengthAdjust="spacing" textLength="1032.7871" x="20" y="49.292">Pipeline CI/CD r&#233;el (`.github/workflows/ci.yml`) : [FAIT], ex&#233;cut&#233; &#224; chaque push/PR vers `main`, aucun d&#233;ploiement r&#233;el d&#233;clench&#233;</text><ellipse cx="387.0205" cy="73.5938" fill="#0B3D3A" rx="10" ry="10" style="stroke:#222222;stroke-width:1;"/><rect fill="#FFFFFF" height="47.9375" rx="3" ry="3" style="stroke:#0B3D3A;stroke-width:0.5;" width="158.8789" x="307.5811" y="103.5938"/><text fill="#10241F" font-family="Helvetica" font-size="12" lengthAdjust="spacing" textLength="125.8828" x="317.5811" y="124.7324">Push ou Pull Request</text><text fill="#10241F" font-family="Helvetica" font-size="12" lengthAdjust="spacing" textLength="138.8789" x="317.5811" y="138.7012">vers la branche `main`</text><rect fill="#E8F0F5" height="384.0703" rx="3" ry="3" style="stroke:#0B3D3A;stroke-width:1.5;" width="600.7002" x="232.1494" y="161.5313"/><path d="M461.7539,161.5313 L461.7539,170.8281 L451.7539,180.8281 L232.1494,180.8281 " fill="none" style="stroke:#0B3D3A;stroke-width:1.5;"/><text fill="#0B3D3A" font-family="Helvetica" font-size="14" font-weight="bold" lengthAdjust="spacing" textLength="219.6045" x="235.1494" y="175.5264">Job \"tests\" (ubuntu-latest)</text><rect fill="#FFFFFF" height="33.9688" rx="3" ry="3" style="stroke:#0B3D3A;stroke-width:0.5;" width="148.7539" x="312.6436" y="197.8281"/><text fill="#10241F" font-family="Helvetica" font-size="12" lengthAdjust="spacing" textLength="128.7539" x="322.6436" y="218.9668">actions/checkout@v4</text><rect fill="#FFFFFF" height="47.9375" rx="3" ry="3" style="stroke:#0B3D3A;stroke-width:0.5;" width="155.498" x="309.2715" y="251.7969"/><text fill="#10241F" font-family="Helvetica" font-size="12" lengthAdjust="spacing" textLength="135.498" x="319.2715" y="272.9355">astral-sh/setup-uv@v3</text><text fill="#10241F" font-family="Helvetica" font-size="12" lengthAdjust="spacing" textLength="119.9531" x="319.2715" y="286.9043">(installe l'outil `uv`)</text><rect fill="#FFFFFF" height="33.9688" rx="3" ry="3" style="stroke:#0B3D3A;stroke-width:0.5;" width="162.7637" x="305.6387" y="319.7344"/><text fill="#10241F" font-family="Helvetica" font-size="12" lengthAdjust="spacing" textLength="142.7637" x="315.6387" y="340.873">`uv python install 3.11`</text><path d="M551.8916,363.7031 L551.8916,417.668 L531.8916,421.668 L551.8916,425.668 L551.8916,479.6328 A0,0 0 0 0 551.8916,479.6328 L822.8496,479.6328 A0,0 0 0 0 822.8496,479.6328 L822.8496,373.7031 L812.8496,363.7031 L551.8916,363.7031 A0,0 0 0 0 551.8916,363.7031 " fill="#FDF6EC" style="stroke:#C98A1E;stroke-width:0.5;"/><path d="M812.8496,363.7031 L812.8496,373.7031 L822.8496,373.7031 L812.8496,363.7031 " fill="#FDF6EC" style="stroke:#C98A1E;stroke-width:0.5;"/><text fill="#4A3400" font-family="Helvetica" font-size="13" lengthAdjust="spacing" textLength="246.8159" x="557.8916" y="380.77">Extras dev+local+api : m&#234;mes extras</text><text fill="#4A3400" font-family="Helvetica" font-size="13" lengthAdjust="spacing" textLength="235.1997" x="557.8916" y="395.9028">r&#233;ellement utilis&#233;s pour faire passer</text><text fill="#4A3400" font-family="Helvetica" font-size="13" lengthAdjust="spacing" textLength="249.958" x="557.8916" y="411.0356">la suite compl&#232;te SANS GPU/vLLM r&#233;el</text><text fill="#4A3400" font-family="Helvetica" font-size="13" lengthAdjust="spacing" textLength="239.2495" x="557.8916" y="426.1685">(pyyaml s&#233;par&#233;, r&#233;serv&#233; &#224; `remote`,</text><text fill="#4A3400" font-family="Helvetica" font-size="13" lengthAdjust="spacing" textLength="220.5747" x="557.8916" y="441.3013">cf. AGENTS.md). L'extra `remote`</text><text fill="#4A3400" font-family="Helvetica" font-size="13" lengthAdjust="spacing" textLength="206.7622" x="557.8916" y="456.4341">(torch/trl/peft GPU) n'est jamais</text><text fill="#4A3400" font-family="Helvetica" font-size="13" lengthAdjust="spacing" textLength="69.5449" x="557.8916" y="471.5669">install&#233; ici.</text><rect fill="#FFFFFF" height="47.9375" rx="3" ry="3" style="stroke:#0B3D3A;stroke-width:0.5;" width="289.7422" x="242.1494" y="397.6992"/><text fill="#10241F" font-family="Helvetica" font-size="12" lengthAdjust="spacing" textLength="269.7422" x="252.1494" y="418.8379">`uv sync --extra dev --extra local --extra api`</text><text fill="#10241F" font-family="Helvetica" font-size="12" lengthAdjust="spacing" textLength="200.9355" x="252.1494" y="432.8066">+ `uv pip install "pyyaml&gt;=6.0"`</text><rect fill="#FFFFFF" height="33.9688" rx="3" ry="3" style="stroke:#0B3D3A;stroke-width:0.5;" width="165.1602" x="304.4404" y="499.6328"/><text fill="#10241F" font-family="Helvetica" font-size="12" lengthAdjust="spacing" textLength="145.1602" x="314.4404" y="520.7715">`uv run pytest tests/ -q`</text><rect fill="#FFFFFF" height="33.9688" rx="3" ry="3" style="stroke:#0B3D3A;stroke-width:0.5;" width="141.0605" x="316.4902" y="614.0039"/><text fill="#10241F" font-family="Helvetica" font-size="12" lengthAdjust="spacing" textLength="121.0605" x="326.4902" y="635.1426">&#201;chec du job "tests"</text><ellipse cx="387.0205" cy="687.4883" fill="none" rx="11" ry="11" style="stroke:#222222;stroke-width:1;"/><ellipse cx="387.0205" cy="687.4883" fill="#222222" rx="6" ry="6" style="stroke:#222222;stroke-width:1;"/><polygon fill="#FDF6EC" points="344.3552,565.6016,429.6858,565.6016,441.6858,577.6016,429.6858,589.6016,344.3552,589.6016,332.3552,577.6016,344.3552,565.6016" style="stroke:#C98A1E;stroke-width:0.5;"/><text fill="#10241F" font-family="Helvetica" font-size="11" lengthAdjust="spacing" textLength="20.6733" x="391.0205" y="599.812">non</text><text fill="#10241F" font-family="Helvetica" font-size="11" lengthAdjust="spacing" textLength="85.3306" x="344.3552" y="581.4097">Tests passent ?</text><text fill="#10241F" font-family="Helvetica" font-size="11" lengthAdjust="spacing" textLength="16.7578" x="441.6858" y="575.0073">oui</text><rect fill="#E8F0F5" height="162.7969" rx="3" ry="3" style="stroke:#0B3D3A;stroke-width:1.5;" width="583.873" x="259.7646" y="730.4883"/><path d="M538.3691,730.4883 L538.3691,739.7852 L528.3691,749.7852 L259.7646,749.7852 " fill="none" style="stroke:#0B3D3A;stroke-width:1.5;"/><text fill="#0B3D3A" font-family="Helvetica" font-size="14" font-weight="bold" lengthAdjust="spacing" textLength="268.6045" x="262.7646" y="744.4834">Job \"docker-build\" (needs: tests)</text><rect fill="#FFFFFF" height="33.9688" rx="3" ry="3" style="stroke:#0B3D3A;stroke-width:0.5;" width="148.7539" x="312.6436" y="766.7852"/><text fill="#10241F" font-family="Helvetica" font-size="12" lengthAdjust="spacing" textLength="128.7539" x="322.6436" y="787.9238">actions/checkout@v4</text><path d="M524.2764,810.7539 L524.2764,842.0195 L504.2764,846.0195 L524.2764,850.0195 L524.2764,881.2852 A0,0 0 0 0 524.2764,881.2852 L833.6377,881.2852 A0,0 0 0 0 833.6377,881.2852 L833.6377,820.7539 L823.6377,810.7539 L524.2764,810.7539 A0,0 0 0 0 524.2764,810.7539 " fill="#FDF6EC" style="stroke:#C98A1E;stroke-width:0.5;"/><path d="M823.6377,810.7539 L823.6377,820.7539 L833.6377,820.7539 L823.6377,810.7539 " fill="#FDF6EC" style="stroke:#C98A1E;stroke-width:0.5;"/><text fill="#4A3400" font-family="Helvetica" font-size="13" lengthAdjust="spacing" textLength="252.021" x="530.2764" y="827.8208">V&#233;rifie uniquement que le `Dockerfile`</text><text fill="#4A3400" font-family="Helvetica" font-size="13" lengthAdjust="spacing" textLength="242.7217" x="530.2764" y="842.9536">construit (API FastAPI seule, `uv sync</text><text fill="#4A3400" font-family="Helvetica" font-size="13" lengthAdjust="spacing" textLength="244.9434" x="530.2764" y="858.0864">--extra api --no-dev --frozen`) : image</text><text fill="#4A3400" font-family="Helvetica" font-size="13" lengthAdjust="spacing" textLength="288.3613" x="530.2764" y="873.2192">JAMAIS publi&#233;e ni d&#233;ploy&#233;e par ce workflow.</text><rect fill="#FFFFFF" height="33.9688" rx="3" ry="3" style="stroke:#0B3D3A;stroke-width:0.5;" width="234.5117" x="269.7646" y="829.0352"/><text fill="#10241F" font-family="Helvetica" font-size="12" lengthAdjust="spacing" textLength="214.5117" x="279.7646" y="850.1738">`docker build -t chsa-triage-api:ci .`</text><rect fill="#FFFFFF" height="33.9688" rx="3" ry="3" style="stroke:#0B3D3A;stroke-width:0.5;" width="186.4238" x="293.8086" y="961.6875"/><text fill="#10241F" font-family="Helvetica" font-size="12" lengthAdjust="spacing" textLength="166.4238" x="303.8086" y="982.8262">&#201;chec du job "docker-build"</text><ellipse cx="387.0205" cy="1035.1719" fill="none" rx="11" ry="11" style="stroke:#222222;stroke-width:1;"/><ellipse cx="387.0205" cy="1035.1719" fill="#222222" rx="6" ry="6" style="stroke:#222222;stroke-width:1;"/><polygon fill="#FDF6EC" points="327.0496,913.2852,446.9915,913.2852,458.9915,925.2852,446.9915,937.2852,327.0496,937.2852,315.0496,925.2852,327.0496,913.2852" style="stroke:#C98A1E;stroke-width:0.5;"/><text fill="#10241F" font-family="Helvetica" font-size="11" lengthAdjust="spacing" textLength="20.6733" x="391.0205" y="947.4956">non</text><text fill="#10241F" font-family="Helvetica" font-size="11" lengthAdjust="spacing" textLength="119.9419" x="327.0496" y="929.0933">Build Docker r&#233;ussit ?</text><text fill="#10241F" font-family="Helvetica" font-size="11" lengthAdjust="spacing" textLength="16.7578" x="458.9915" y="922.6909">oui</text><path d="M440.6396,1078.1719 L440.6396,1124.5703 L420.6396,1128.5703 L440.6396,1132.5703 L440.6396,1178.9688 A0,0 0 0 0 440.6396,1178.9688 L796.2437,1178.9688 A0,0 0 0 0 796.2437,1178.9688 L796.2437,1088.1719 L786.2437,1078.1719 L440.6396,1078.1719 A0,0 0 0 0 440.6396,1078.1719 " fill="#FDF6EC" style="stroke:#C98A1E;stroke-width:0.5;"/><path d="M786.2437,1078.1719 L786.2437,1088.1719 L796.2437,1088.1719 L786.2437,1078.1719 " fill="#FDF6EC" style="stroke:#C98A1E;stroke-width:0.5;"/><text fill="#4A3400" font-family="Helvetica" font-size="13" lengthAdjust="spacing" textLength="280.7314" x="446.6396" y="1095.2388">Aucun d&#233;ploiement r&#233;el n'est d&#233;clench&#233; ici</text><text fill="#4A3400" font-family="Helvetica" font-size="13" lengthAdjust="spacing" textLength="284.9146" x="446.6396" y="1110.3716">(ni HF Spaces, ni registre Docker) : d&#233;cision</text><text fill="#4A3400" font-family="Helvetica" font-size="13" lengthAdjust="spacing" textLength="292.2842" x="446.6396" y="1125.5044">&#201;tape 4 document&#233;e, "hors p&#233;rim&#232;tre" de ce</text><text fill="#4A3400" font-family="Helvetica" font-size="13" lengthAdjust="spacing" textLength="285.416" x="446.6396" y="1140.6372">workflow (cf. AGENTS.md/README &#167;4.4). Le</text><text fill="#4A3400" font-family="Helvetica" font-size="13" lengthAdjust="spacing" textLength="305.9507" x="446.6396" y="1155.77">d&#233;ploiement effectif reste une action manuelle</text><text fill="#4A3400" font-family="Helvetica" font-size="13" lengthAdjust="spacing" textLength="334.604" x="446.6396" y="1170.9028">future (cf. deploiement/deploiement_etape4.puml).</text><rect fill="#FFFFFF" height="33.9688" rx="3" ry="3" style="stroke:#0B3D3A;stroke-width:0.5;" width="67.2383" x="353.4014" y="1111.5859"/><text fill="#10241F" font-family="Helvetica" font-size="12" lengthAdjust="spacing" textLength="47.2383" x="363.4014" y="1132.7246">CI verte</text><ellipse cx="387.0205" cy="1209.9688" fill="none" rx="11" ry="11" style="stroke:#222222;stroke-width:1;"/><ellipse cx="387.0205" cy="1209.9688" fill="#222222" rx="6" ry="6" style="stroke:#222222;stroke-width:1;"/><line style="stroke:#0B3D3A;stroke-width:1.2;" x1="387.0205" x2="387.0205" y1="83.5938" y2="103.5938"/><polygon fill="#0B3D3A" points="383.0205,93.5938,387.0205,103.5938,391.0205,93.5938,387.0205,97.5938" style="stroke:#0B3D3A;stroke-width:1;"/><line style="stroke:#0B3D3A;stroke-width:1.2;" x1="387.0205" x2="387.0205" y1="231.7969" y2="251.7969"/><polygon fill="#0B3D3A" points="383.0205,241.7969,387.0205,251.7969,391.0205,241.7969,387.0205,245.7969" style="stroke:#0B3D3A;stroke-width:1;"/><line style="stroke:#0B3D3A;stroke-width:1.2;" x1="387.0205" x2="387.0205" y1="299.7344" y2="319.7344"/><polygon fill="#0B3D3A" points="383.0205,309.7344,387.0205,319.7344,391.0205,309.7344,387.0205,313.7344" style="stroke:#0B3D3A;stroke-width:1;"/><line style="stroke:#0B3D3A;stroke-width:1.2;" x1="387.0205" x2="387.0205" y1="353.7031" y2="397.6992"/><polygon fill="#0B3D3A" points="383.0205,387.6992,387.0205,397.6992,391.0205,387.6992,387.0205,391.6992" style="stroke:#0B3D3A;stroke-width:1;"/><line style="stroke:#0B3D3A;stroke-width:1.2;" x1="387.0205" x2="387.0205" y1="445.6367" y2="499.6328"/><polygon fill="#0B3D3A" points="383.0205,489.6328,387.0205,499.6328,391.0205,489.6328,387.0205,493.6328" style="stroke:#0B3D3A;stroke-width:1;"/><line style="stroke:#0B3D3A;stroke-width:1.2;" x1="387.0205" x2="387.0205" y1="151.5313" y2="197.8281"/><polygon fill="#0B3D3A" points="383.0205,187.8281,387.0205,197.8281,391.0205,187.8281,387.0205,191.8281" style="stroke:#0B3D3A;stroke-width:1;"/><line style="stroke:#0B3D3A;stroke-width:1.2;" x1="387.0205" x2="387.0205" y1="647.9727" y2="676.4883"/><polygon fill="#0B3D3A" points="383.0205,666.4883,387.0205,676.4883,391.0205,666.4883,387.0205,670.4883" style="stroke:#0B3D3A;stroke-width:1;"/><line style="stroke:#0B3D3A;stroke-width:1.2;" x1="387.0205" x2="387.0205" y1="589.6016" y2="614.0039"/><polygon fill="#0B3D3A" points="383.0205,604.0039,387.0205,614.0039,391.0205,604.0039,387.0205,608.0039" style="stroke:#0B3D3A;stroke-width:1;"/><line style="stroke:#0B3D3A;stroke-width:1.2;" x1="441.6858" x2="467.5508" y1="577.6016" y2="577.6016"/><polygon fill="#0B3D3A" points="463.5508,646.4883,467.5508,656.4883,471.5508,646.4883,467.5508,650.4883" style="stroke:#0B3D3A;stroke-width:1.2;"/><line style="stroke:#0B3D3A;stroke-width:1.2;" x1="467.5508" x2="467.5508" y1="577.6016" y2="720.4883"/><line style="stroke:#0B3D3A;stroke-width:1.2;" x1="467.5508" x2="387.0205" y1="720.4883" y2="720.4883"/><line style="stroke:#0B3D3A;stroke-width:1.2;" x1="387.0205" x2="387.0205" y1="720.4883" y2="766.7852"/><polygon fill="#0B3D3A" points="383.0205,756.7852,387.0205,766.7852,391.0205,756.7852,387.0205,760.7852" style="stroke:#0B3D3A;stroke-width:1;"/><line style="stroke:#0B3D3A;stroke-width:1.2;" x1="387.0205" x2="387.0205" y1="533.6016" y2="565.6016"/><polygon fill="#0B3D3A" points="383.0205,555.6016,387.0205,565.6016,391.0205,555.6016,387.0205,559.6016" style="stroke:#0B3D3A;stroke-width:1;"/><line style="stroke:#0B3D3A;stroke-width:1.2;" x1="387.0205" x2="387.0205" y1="800.7539" y2="829.0352"/><polygon fill="#0B3D3A" points="383.0205,819.0352,387.0205,829.0352,391.0205,819.0352,387.0205,823.0352" style="stroke:#0B3D3A;stroke-width:1;"/><line style="stroke:#0B3D3A;stroke-width:1.2;" x1="387.0205" x2="387.0205" y1="995.6563" y2="1024.1719"/><polygon fill="#0B3D3A" points="383.0205,1014.1719,387.0205,1024.1719,391.0205,1014.1719,387.0205,1018.1719" style="stroke:#0B3D3A;stroke-width:1;"/><line style="stroke:#0B3D3A;stroke-width:1.2;" x1="387.0205" x2="387.0205" y1="937.2852" y2="961.6875"/><polygon fill="#0B3D3A" points="383.0205,951.6875,387.0205,961.6875,391.0205,951.6875,387.0205,955.6875" style="stroke:#0B3D3A;stroke-width:1;"/><line style="stroke:#0B3D3A;stroke-width:1.2;" x1="458.9915" x2="490.2324" y1="925.2852" y2="925.2852"/><polygon fill="#0B3D3A" points="486.2324,994.1719,490.2324,1004.1719,494.2324,994.1719,490.2324,998.1719" style="stroke:#0B3D3A;stroke-width:1.2;"/><line style="stroke:#0B3D3A;stroke-width:1.2;" x1="490.2324" x2="490.2324" y1="925.2852" y2="1068.1719"/><line style="stroke:#0B3D3A;stroke-width:1.2;" x1="490.2324" x2="387.0205" y1="1068.1719" y2="1068.1719"/><line style="stroke:#0B3D3A;stroke-width:1.2;" x1="387.0205" x2="387.0205" y1="1068.1719" y2="1111.5859"/><polygon fill="#0B3D3A" points="383.0205,1101.5859,387.0205,1111.5859,391.0205,1101.5859,387.0205,1105.5859" style="stroke:#0B3D3A;stroke-width:1;"/><line style="stroke:#0B3D3A;stroke-width:1.2;" x1="387.0205" x2="387.0205" y1="863.0039" y2="913.2852"/><polygon fill="#0B3D3A" points="383.0205,903.2852,387.0205,913.2852,391.0205,903.2852,387.0205,907.2852" style="stroke:#0B3D3A;stroke-width:1;"/><line style="stroke:#0B3D3A;stroke-width:1.2;" x1="387.0205" x2="387.0205" y1="1145.5547" y2="1198.9688"/><polygon fill="#0B3D3A" points="383.0205,1188.9688,387.0205,1198.9688,391.0205,1188.9688,387.0205,1192.9688" style="stroke:#0B3D3A;stroke-width:1;"/><!--SRC=[ZLNRRjj647tdLqpL1rEmI2Q8MnGosaQrfSI17GYssvUg25VaqDnukSliHOaQ9E_vYxwrwcUKFzRPfIJ8G7e118XBpPoTEUVCw0ik2-5AX3JDwFEgK4sZP8R6Sg5IxXeHHPPRWT1zign5E86ux3QjK1mRb7O8OpZdx4wpfa4eZrXX-OhRRhEGSzwYu1BXx28xEmVTRL10dATttDPkcRrL-huIwgt92fwk6v5xg9zdaulRNqQ0xxfDuGW6kj-WgDaRXz0wKsVpQrYXDf0tZCjy1CmLJi9XHTkBw5KXK1PrjuaYOvcsKJIU4mGe1tCd15mZeHgxa05GC5XgHl6unJwDefQokELAmk25Mi9YO2dUB0OGkwMJrYM2-JV30Nmv_MRsQFOLl8y0nfu39Qcl6ejxvUpJrSbfU6-iPYAXBWnQroPkzNJrP25ZBga-GHIB8uhc0dAtoeSXXPwWNTkQIjX6mPFqyUDy_wDPom8-9XyJV4VWKEBgu2HKmSJ1cRKyNyXZ2AYytKCEslMQDUAxRxzE7mq2jbGMGVExsj81OEhJZKS_3fZ7X4HgDTsV3He8u2O41kv5huDlXPjkOw1LJaF5k2OHcJ6eGomnRXodUyXphUZ-eAURoSiRU3R_CLjTNbxrO24qxWi4GYDDkit8_qOugzuWkSQ62iv78RYeKfWycxwylKcRSfZ2vL7V_IwgHxHA5tLcjSXQhAo_T0ZoYDI4rupqxzlP4aItS38flK9P1cvsz6io7-dZqu8tCaZU484VeeXN4D_wLttBnCVtGx0rIeYbaaCFq7to3e7ImMjoLs-kWMVVMDL6A0n2h1mVHdGhhpvZnr8LzwYJfUEYzAwKYAKPzvNyNrFcFGW444WiJPjXYTKqqvYGpEE2G_evJ_pKRJIlE8AJd0OfIEx7b7oSdmVCYeijsmNTR3M93V5aVW4pcWJ_RT097C7Eno7qWLl3IQfaP-jAgrzHXat16oemPBoON4qkRcWzB0Kdnu3astsmzYSY3Gg4tRPv8E9MfXz2wttDtbZE6FxVSXsI_s-gZSyk_CgoU1ezO73oJvkhT-71_lBceuIO6di-WvkM5MX6lasDTvnunMtjdXQVnWqfJGdxZKsbEdy1mOzWK2jQTwrNhw6XqpYWkIQAA6574iGFPYYxdaxEhwRmr-ydwOaVA1_xe72iAYH_LLIHiTuH2BtVe67I-Or06PMpZceDs2NkaxE3vrVeApv9M_hV6QRHNgWeSFit]--></g></svg>